<svg width="125" height="160" viewBox="0 0 125 160" fill="none" xmlns="http://www.w3.org/2000/svg">
<path opacity="0.2" d="M21.1666 110.703C21.1666 110.703 21.1666 110.782 21.1666 110.814C21.1666 111.364 21.1338 111.915 21.1338 112.465C21.1338 112.78 21.1338 113.11 21.1173 113.425C21.1009 114.259 21.0845 115.077 21.068 115.911C21.068 115.942 21.068 115.989 21.068 116.021C20.6409 138.705 20.9366 159.093 23.4173 159.817C29.0686 161.485 60.3314 138.045 60.3314 138.045C60.3314 138.045 95.3069 162.334 100.695 159.817C103.307 158.606 103.39 133.797 102.782 108.485C114.019 98.0082 121.001 83.3622 121.001 67.1431C121.001 60.7247 119.883 54.5579 117.879 48.7845C117.567 47.8721 117.222 46.9754 116.861 46.0944C116.861 46.0944 116.861 46.0787 116.861 46.063C116.499 45.182 116.121 44.3168 115.711 43.4516C115.711 43.4516 115.711 43.4201 115.694 43.4201C115.284 42.5549 114.856 41.7211 114.413 40.8873C114.413 40.8873 114.413 40.8559 114.396 40.8401C113.953 40.0064 113.476 39.1883 113 38.3703C113 38.3703 113 38.3388 112.984 38.3388C112.491 37.5208 111.982 36.7185 111.456 35.9319C111.456 35.9319 111.456 35.9319 111.456 35.9162C102.437 22.513 87.7828 12.9326 70.6975 10.2267C69.8761 9.88065 68.9069 9.61321 67.8226 9.47163C66.5248 9.29858 65.3256 9.34578 64.3234 9.55029C63.1406 9.48736 61.9742 9.44017 60.775 9.44017C27.4915 9.44017 0.5 35.2869 0.5 67.1588C0.5 84.5421 8.53338 100.132 21.2488 110.719L21.1666 110.703Z" fill="#616161"/>
<path d="M104.195 151.086C98.8064 153.603 63.8308 129.314 63.8308 129.314C63.8308 129.314 32.568 152.769 26.9167 151.086C21.2654 149.403 26.9167 45.1505 26.9167 45.1505H104.195C104.195 45.1505 109.583 148.569 104.195 151.086Z" fill="#F5F5F5"/>
<path d="M24.5841 107.274C35.5252 115.439 49.292 120.3 64.2252 120.3C80.3412 120.3 95.0773 114.636 106.396 105.292C105.838 76.6449 104.195 45.1505 104.195 45.1505H26.9168C26.9168 45.1505 25.1262 78.1236 24.5676 107.274H24.5841Z" fill="#E3E3E3"/>
<path d="M104.195 151.086C98.8064 153.603 63.8308 129.314 63.8308 129.314C63.8308 129.314 32.568 152.769 26.9167 151.086C21.2654 149.403 26.9167 45.1505 26.9167 45.1505H104.195C104.195 45.1505 109.583 148.569 104.195 151.086Z" stroke="#E3E3E3" stroke-width="1.02" stroke-miterlimit="10"/>
<path d="M64.2249 116.131C97.5138 116.131 124.5 90.2894 124.5 58.4123C124.5 26.5351 97.5138 0.693604 64.2249 0.693604C30.9359 0.693604 3.94995 26.5351 3.94995 58.4123C3.94995 90.2894 30.9359 116.131 64.2249 116.131Z" fill="#E3E3E3"/>
<path d="M64.2247 107.683C92.6414 107.683 115.678 85.6237 115.678 58.4121C115.678 31.2006 92.6414 9.14124 64.2247 9.14124C35.808 9.14124 12.7717 31.2006 12.7717 58.4121C12.7717 85.6237 35.808 107.683 64.2247 107.683Z" fill="#E3E3E3"/>
<path d="M76.5914 3.99837C76.7907 2.61264 74.4238 1.15587 71.3049 0.744632C68.186 0.333389 65.4961 1.12339 65.2968 2.50912C65.0976 3.89485 67.4644 5.35157 70.5833 5.76281C73.7022 6.17405 76.3921 5.3841 76.5914 3.99837Z" fill="#F5F5F5"/>
<path d="M123.022 45.6698C121.231 38.0401 117.863 30.9924 113.247 24.8414C111.243 22.5603 109.074 20.3107 106.791 18.2185C103.357 15.0564 99.7757 12.0989 96.3915 9.61335C91.4795 6.64011 86.091 4.32759 80.3576 2.80164C80.2754 2.86456 80.1933 2.89602 80.1112 2.95895C73.5071 8.02447 92.268 12.036 103.39 22.2457C113.937 31.9363 115.185 50.2791 123.005 45.6698H123.022Z" fill="#F5F5F5"/>
<path d="M64.2249 116.131C97.5138 116.131 124.5 90.2894 124.5 58.4123C124.5 26.5351 97.5138 0.693604 64.2249 0.693604C30.9359 0.693604 3.94995 26.5351 3.94995 58.4123C3.94995 90.2894 30.9359 116.131 64.2249 116.131Z" stroke="#E3E3E3" stroke-width="1.02" stroke-miterlimit="10"/>
<path d="M64.2251 104.6C90.8635 104.6 112.458 83.9209 112.458 58.4123C112.458 32.9036 90.8635 12.2247 64.2251 12.2247C37.5867 12.2247 15.9921 32.9036 15.9921 58.4123C15.9921 83.9209 37.5867 104.6 64.2251 104.6Z" fill="#F5F5F5"/>
<path d="M60.4258 17.3573C63.5741 17.3536 66.1249 16.2167 66.1231 14.8179C66.1213 13.4191 63.5677 12.2881 60.4193 12.2918C57.271 12.2955 54.7202 13.4324 54.722 14.8312C54.7238 16.23 57.2774 17.361 60.4258 17.3573Z" fill="#F5F5F5"/>
<path d="M112.458 55.2029C112.458 58.4279 109.107 57.7199 108.22 56.9491C104.868 54.0545 102.437 39.2827 93.648 31.2125C82.5262 21.0028 62.1224 19.3038 70.7308 11.9886C70.7308 11.9886 87.2411 16.0788 98.3629 26.2885C109.485 36.4982 112.475 54.259 112.475 55.1872L112.458 55.2029Z" fill="#F5F5F5"/>
<path opacity="0.3" d="M64.2251 12.2247C37.5787 12.2247 15.9921 32.9116 15.9921 58.4123C15.9921 83.9129 37.5951 104.6 64.2251 104.6C90.8552 104.6 112.458 83.9129 112.458 58.4123C112.458 32.9116 90.8552 12.2247 64.2251 12.2247ZM64.2251 102.46C38.8272 102.46 18.2427 82.7488 18.2427 58.428C18.2427 34.1072 38.8272 14.3957 64.2251 14.3957C89.6231 14.3957 110.208 34.1072 110.208 58.428C110.208 82.7488 89.6231 102.46 64.2251 102.46Z" fill="#E3E3E3"/>
<path d="M64.2251 104.6C90.8635 104.6 112.458 83.9209 112.458 58.4123C112.458 32.9036 90.8635 12.2247 64.2251 12.2247C37.5867 12.2247 15.9921 32.9036 15.9921 58.4123C15.9921 83.9209 37.5867 104.6 64.2251 104.6Z" stroke="#E3E3E3" stroke-width="1.02" stroke-miterlimit="10"/>
<path d="M40.9624 52.9376C41.0445 52.56 41.2252 52.2611 41.488 52.1196C44.4287 50.5149 49.1436 48.9418 54.2856 47.6046C57.3905 43.4673 60.6269 39.9277 63.2883 37.8354C63.5182 37.6624 63.8961 37.5522 64.3068 37.5522C64.7175 37.5522 65.0953 37.6624 65.3089 37.8354C67.8388 39.9277 70.9273 43.3886 73.9008 47.463C79.1578 48.8946 83.9877 50.5779 86.9776 52.2769C87.2241 52.4185 87.4212 52.7331 87.4869 53.0949C87.5526 53.4567 87.5034 53.8343 87.3555 54.1017C85.6141 57.0907 83.2485 60.7718 80.1107 64.7047C80.2421 69.6286 80.1107 74.2852 79.7821 78.1551C79.7492 78.4855 79.5193 78.8001 79.1743 79.0203C78.8128 79.2248 78.3857 79.3035 78.0407 79.2091C73.8844 78.1866 69.2024 77.0224 64.1097 75.4493C59.0169 76.991 54.3185 78.0922 50.1457 79.099C50.0143 79.1304 49.8664 79.1462 49.735 79.1304C49.4886 79.1147 49.2422 79.0361 49.0122 78.8945C48.6672 78.69 48.4372 78.3596 48.4043 78.0292C48.0758 74.0964 47.9772 69.3455 48.125 64.3429C45.0694 60.473 42.753 56.8547 41.0609 53.9129C40.9131 53.6612 40.8638 53.2679 40.9459 52.9061L40.9624 52.9376Z" fill="#E3E3E3"/>
<path d="M86.0577 51.805C83.0514 50.279 78.6651 48.7688 73.9174 47.4788C70.9439 43.4044 67.8553 39.9277 65.3254 37.8512C65.1118 37.6624 64.7176 37.568 64.3233 37.568C63.9126 37.568 63.5347 37.6624 63.3047 37.8512C61.7769 39.0625 60.052 40.7457 58.2777 42.7436C58.3106 42.8066 60.0355 44.2224 62.434 41.3121C64.8654 38.3546 71.2888 49.0991 72.4881 49.5554C73.6873 50.0116 87.5527 54.7153 87.5363 53.504C87.5363 52.8432 86.0742 51.8364 86.0742 51.8207L86.0577 51.805Z" fill="#F5F5F5"/>
<path d="M40.9624 52.9376C41.0445 52.56 41.2252 52.2611 41.488 52.1196C44.4287 50.5149 49.1436 48.9418 54.2856 47.6046C57.3905 43.4673 60.6269 39.9277 63.2883 37.8354C63.5183 37.6624 63.8961 37.5522 64.3068 37.5522C64.7175 37.5522 65.0953 37.6624 65.3089 37.8354C67.8388 39.9277 70.9273 43.3886 73.9008 47.463C79.1578 48.8946 83.9877 50.5779 86.9776 52.2769C87.2241 52.4185 87.4212 52.7331 87.4869 53.0949C87.5526 53.4567 87.5034 53.8343 87.3555 54.1017C85.6141 57.0907 83.2485 60.7718 80.1107 64.7047C80.2421 69.6286 80.1107 74.2852 79.7821 78.1551C79.7492 78.4855 79.5193 78.8001 79.1743 79.0203C78.8128 79.2248 78.3857 79.3035 78.0407 79.2091C73.8844 78.1866 69.2024 77.0224 64.1097 75.4493C59.0169 76.991 54.3185 78.0922 50.1457 79.099C50.0143 79.1304 49.8664 79.1462 49.735 79.1304C49.4886 79.1147 49.2422 79.0361 49.0122 78.8945C48.6672 78.69 48.4372 78.3596 48.4043 78.0292C48.0758 74.0964 47.9772 69.3455 48.125 64.3429C45.0694 60.473 42.753 56.8547 41.0609 53.9129C40.9131 53.6612 40.8638 53.2679 40.9459 52.9061L40.9624 52.9376Z" stroke="#E3E3E3" stroke-width="1.02" stroke-miterlimit="10"/>
</svg>
