<svg width="135" height="161" viewBox="0 0 135 161" fill="none" xmlns="http://www.w3.org/2000/svg">
<path opacity="0.2" d="M122.57 63.2987C125.572 60.8331 127.164 57.0045 126.843 53.1453C126.843 51.7211 126.353 50.1284 125.465 48.5663C124.301 46.3917 122.524 44.7071 120.441 43.6351C120.227 43.5279 120.013 43.4054 119.798 43.3135C119.523 43.191 119.232 43.0838 118.941 42.9919C118.803 42.946 118.68 42.9 118.542 42.8694C117.118 42.4253 115.602 42.2262 114.071 42.3487C115.556 39.4696 115.755 36.1158 114.714 33.0836C114.285 30.9855 112.708 28.6884 110.288 26.9578C107.195 24.7526 103.688 24.186 101.467 25.2886C100.257 25.503 99.0627 25.9165 97.9447 26.5137C98.2663 23.2977 97.225 20.1276 95.1728 17.708C94.8665 17.3404 94.5143 16.9882 94.1315 16.636C93.8252 16.345 93.4729 16.1 93.136 15.8396C92.9676 15.7171 92.8297 15.5946 92.6613 15.4874C92.3856 15.3037 92.0947 15.1505 91.819 14.9974C91.6199 14.8902 91.4208 14.7523 91.2064 14.6451C91.0686 14.5839 90.9461 14.5379 90.8083 14.4767C90.7623 14.4614 90.7164 14.4307 90.6704 14.4001C90.6245 14.3848 90.5785 14.3694 90.5326 14.3541C87.6994 13.1443 84.851 13.0524 82.9214 13.9866C80.6855 14.6298 78.6487 15.9009 77.1172 17.708C75.5858 12.9452 71.1293 9.48419 65.8459 9.48419C60.5625 9.48419 55.9835 13.0371 54.5133 17.9071C53.4413 16.59 52.0937 15.5793 50.6082 14.8442C48.7858 13.4506 45.7076 12.9299 42.4303 13.711C38.8927 14.5686 36.1974 16.7125 35.447 18.9944C34.0381 21.169 33.3489 23.7724 33.5786 26.4065C29.1222 24.1093 23.5171 24.8291 19.7958 28.5658C16.0744 32.3025 15.324 38.0454 17.7283 42.5325C12.6746 42.0271 7.66681 44.8603 5.63001 49.8068C3.62383 54.692 5.10932 60.1286 8.9379 63.36C4.17515 64.8914 0.714111 69.3479 0.714111 74.6313C0.714111 79.9148 4.26703 84.4937 9.13699 85.9639C5.20121 89.1952 3.66977 94.7237 5.72189 99.6549C7.74338 104.525 12.6593 107.327 17.6517 106.899C16.35 109.41 16.0591 112.289 16.6869 115C16.5797 115.321 16.4725 115.658 16.35 115.98C16.35 115.98 16.35 115.995 16.35 116.011C16.1663 116.547 15.9978 117.083 15.814 117.619C15.7834 117.726 15.7375 117.848 15.7068 117.956C15.5537 118.4 15.4159 118.844 15.2627 119.288C15.2168 119.426 15.1708 119.564 15.1249 119.686C14.9871 120.1 14.8492 120.513 14.7114 120.926C14.6655 121.08 14.6195 121.217 14.5736 121.371C14.4357 121.799 14.2979 122.213 14.1601 122.642C14.1295 122.734 14.0988 122.81 14.0682 122.902C9.99459 135.475 6.91641 146.379 8.12624 147.206C11.0819 149.227 33.5633 140.621 33.5633 140.621C33.5633 140.621 49.3064 161.54 52.89 160.989C54.1917 160.79 57.1474 152.275 60.3787 141.54C60.3787 141.509 60.394 141.478 60.4093 141.448C60.6697 140.575 60.93 139.687 61.2057 138.783C62.6452 139.396 64.2073 139.778 65.8612 139.778C67.5152 139.778 69.0926 139.396 70.5168 138.783C70.5321 138.844 70.5474 138.89 70.5627 138.951C70.7924 139.748 71.0221 140.514 71.2672 141.295C71.3131 141.432 71.3591 141.57 71.3897 141.723C71.6194 142.504 71.8491 143.27 72.0788 144.005C72.0788 144.02 72.0788 144.036 72.0788 144.051C75.0039 153.577 77.6073 160.805 78.8171 160.989C82.4007 161.555 98.1438 140.621 98.1438 140.621C98.1438 140.621 120.61 149.227 123.581 147.206C125.051 146.21 120.258 130.575 115.036 115C115.679 112.228 115.342 109.288 113.979 106.73C119.033 107.235 124.04 104.402 126.077 99.4558C128.083 94.5706 126.598 89.134 122.769 85.9026C127.088 84.5244 130.304 80.7111 130.871 76.0862C130.932 75.7033 130.962 75.3052 130.962 74.8764C130.962 74.7845 130.978 74.7079 130.978 74.6313C130.978 69.2866 127.425 64.7689 122.555 63.2987H122.57Z" fill="#1A1A1A"/>
<path d="M107.164 74.6465L69.1384 86.3466L31.1282 74.6465C31.1282 74.6465 8.44774 136.7 11.4187 138.722C14.3744 140.743 36.8558 132.136 36.8558 132.136C36.8558 132.136 52.5989 153.056 56.1825 152.504C58.2193 152.183 64.2837 131.616 69.1537 113.866C74.0237 131.616 80.0881 152.183 82.1249 152.504C85.7085 153.071 101.452 132.136 101.452 132.136C101.452 132.136 123.918 140.743 126.889 138.722C129.844 136.7 107.179 74.6465 107.179 74.6465H107.164Z" fill="#E3E3E3"/>
<path d="M107.164 74.6465L69.1383 86.3466L31.1282 74.6465C31.1282 74.6465 23.226 96.2856 17.3606 114.418C17.82 115.107 18.3254 115.765 18.938 116.363C23.0575 120.482 29.2751 121.233 34.1604 118.614C33.6244 124.127 36.6873 129.579 42.0779 131.8C47.392 133.989 53.3339 132.366 56.8562 128.201C57.867 131.355 60.0569 133.959 62.9054 135.536C64.9422 128.905 67.1474 121.141 69.1536 113.866C71.1598 121.156 73.3498 128.92 75.4019 135.552C78.3116 133.944 80.5322 131.233 81.5123 128.002C85.0346 132.29 91.0684 133.959 96.4437 131.723C101.758 129.518 104.805 124.158 104.346 118.721C109.201 121.217 115.311 120.436 119.385 116.378C119.982 115.781 120.503 115.122 120.962 114.433C115.097 96.3009 107.194 74.6618 107.194 74.6618L107.164 74.6465Z" fill="#7F7F7F"/>
<path d="M107.164 74.6465L69.1384 86.3466L31.1282 74.6465C31.1282 74.6465 8.44774 136.7 11.4187 138.722C14.3744 140.743 36.8558 132.136 36.8558 132.136C36.8558 132.136 52.5989 153.056 56.1825 152.504C58.2193 152.183 64.2837 131.616 69.1537 113.866C74.0237 131.616 80.0881 152.183 82.1249 152.504C85.7085 153.071 101.452 132.136 101.452 132.136C101.452 132.136 123.918 140.743 126.889 138.722C129.844 136.7 107.179 74.6465 107.179 74.6465H107.164Z" stroke="#7F7F7F" stroke-width="1.02" stroke-miterlimit="10"/>
<path d="M134.285 66.1318C134.285 60.7871 130.733 56.2694 125.863 54.7992C129.798 51.5679 131.33 46.0394 129.278 41.1082C127.256 36.2383 122.34 33.4358 117.348 33.8646C119.645 29.4081 118.925 23.8031 115.188 20.0817C111.452 16.3603 105.709 15.6099 101.222 18.0142C101.727 12.9605 98.8941 7.95273 93.9475 5.91593C89.0623 3.90975 83.6257 5.3952 80.3944 9.22378C78.8629 4.46103 74.4065 1 69.123 1C63.8396 1 59.2606 4.55292 57.7904 9.42288C54.5591 5.4871 49.0306 3.95569 44.0994 6.00781C39.2295 8.0293 36.4269 12.9452 36.8557 17.9376C32.3993 15.6405 26.7942 16.3603 23.0729 20.097C19.2902 23.8796 18.6011 29.5765 21.0054 34.0636C15.9517 33.5582 10.9439 36.3914 8.90711 41.3379C6.90093 46.2232 8.38642 51.6598 12.215 54.8911C7.45225 56.4225 3.99121 60.879 3.99121 66.1625C3.99121 71.4459 7.54413 76.0249 12.4141 77.495C8.47831 80.7264 6.94687 86.2548 8.99899 91.1861C11.0205 96.056 15.9364 98.8585 20.9288 98.4297C18.6317 102.886 19.3515 108.491 23.0882 112.213C26.8249 115.934 32.5677 116.684 37.0548 114.28C36.5495 119.334 39.3826 124.342 44.3291 126.378C49.2144 128.385 54.651 126.899 57.8823 123.07C59.4137 127.833 63.8702 131.294 69.1536 131.294C74.4371 131.294 79.0161 127.741 80.4862 122.871C83.7176 126.807 89.246 128.339 94.1772 126.286C99.0472 124.265 101.85 119.349 101.421 114.357C105.877 116.654 111.482 115.934 115.204 112.197C118.986 108.415 119.676 102.718 117.271 98.2307C122.325 98.736 127.333 95.9029 129.37 90.9564C131.376 86.0711 129.89 80.6345 126.062 77.4032C130.824 75.8717 134.285 71.4152 134.285 66.1318Z" fill="#E3E3E3"/>
<path d="M117.424 28.0145C115.647 30.5107 114.254 26.5443 110.349 23.7724C106.443 21.0005 101.528 20.4646 103.304 17.9683C105.081 15.4721 109.675 15.7018 113.58 18.4737C117.47 21.2456 119.2 25.5183 117.424 28.0145Z" fill="#F5F5F5"/>
<path d="M128.818 48.0764C126.521 50.0979 126.061 45.9324 122.891 42.3488C119.721 38.7653 115.05 37.1266 117.348 35.1052C119.645 33.0837 124.071 34.3394 127.241 37.923C130.411 41.5065 131.115 46.0549 128.818 48.0917V48.0764Z" fill="#F5F5F5"/>
<path d="M132.187 70.8946C129.553 72.4567 129.875 68.2606 127.455 64.141C125.02 60.0215 120.747 57.5252 123.397 55.9632C126.031 54.4011 130.15 56.4839 132.57 60.6034C135.005 64.723 134.821 69.3326 132.187 70.8793V70.8946Z" fill="#F5F5F5"/>
<path d="M99.8278 14.9515C98.4802 17.6928 96.4587 14.0173 92.1707 11.9039C87.8826 9.79053 82.9361 10.0509 84.2991 7.29433C85.6621 4.53775 90.2257 4.03238 94.5137 6.14575C98.8018 8.25913 101.191 12.1949 99.8278 14.9515Z" fill="#F5F5F5"/>
<path d="M77.806 6.86547C77.806 9.92833 74.3603 7.50866 69.5822 7.47803C64.8042 7.4474 60.4702 9.85173 60.4855 6.78887C60.5008 3.72601 64.3907 1.26039 69.1687 1.27571C73.9468 1.29102 77.8213 3.78728 77.806 6.85014V6.86547Z" fill="#F5F5F5"/>
<path d="M55.4623 8.56532C56.1821 11.5363 52.2769 10.0049 47.6214 11.1381C42.9658 12.2714 39.3517 15.6406 38.6166 12.6543C37.8815 9.66797 41.0822 6.34475 45.7224 5.22681C50.378 4.09355 54.7272 5.59434 55.447 8.56532H55.4623Z" fill="#F5F5F5"/>
<path d="M134.285 66.1318C134.285 60.7871 130.733 56.2694 125.863 54.7992C129.798 51.5679 131.33 46.0394 129.278 41.1082C127.256 36.2383 122.34 33.4358 117.348 33.8646C119.645 29.4081 118.925 23.8031 115.188 20.0817C111.452 16.3603 105.709 15.6099 101.222 18.0142C101.727 12.9605 98.8941 7.95274 93.9475 5.91593C89.0623 3.90975 83.6257 5.3952 80.3944 9.22378C78.8629 4.46103 74.4065 1 69.123 1C63.8396 1 59.2606 4.55292 57.7904 9.42288C54.5591 5.4871 49.0306 3.95569 44.0994 6.00781C39.2295 8.0293 36.4269 12.9452 36.8557 17.9376C32.3993 15.6405 26.7942 16.3603 23.0729 20.097C19.2902 23.8796 18.6011 29.5765 21.0054 34.0636C15.9517 33.5582 10.9439 36.3914 8.90711 41.3379C6.90093 46.2232 8.38642 51.6598 12.215 54.8911C7.45225 56.4225 3.99121 60.879 3.99121 66.1625C3.99121 71.4459 7.54413 76.0249 12.4141 77.495C8.47831 80.7264 6.94687 86.2548 8.99899 91.1861C11.0205 96.056 15.9364 98.8585 20.9288 98.4297C18.6317 102.886 19.3515 108.491 23.0882 112.213C26.8249 115.934 32.5677 116.684 37.0548 114.28C36.5495 119.334 39.3826 124.342 44.3291 126.378C49.2144 128.385 54.651 126.899 57.8823 123.07C59.4137 127.833 63.8702 131.294 69.1536 131.294C74.4371 131.294 79.0161 127.741 80.4862 122.871C83.7176 126.807 89.246 128.339 94.1772 126.286C99.0472 124.265 101.85 119.349 101.421 114.357C105.877 116.654 111.482 115.934 115.204 112.197C118.986 108.415 119.676 102.718 117.271 98.2307C122.325 98.736 127.333 95.9029 129.37 90.9563C131.376 86.0711 129.89 80.6345 126.062 77.4032C130.824 75.8717 134.285 71.4152 134.285 66.1318Z" stroke="#7F7F7F" stroke-width="1.02" stroke-miterlimit="10"/>
<path d="M69.1537 111.631C94.2821 111.631 114.653 91.2602 114.653 66.1319C114.653 41.0036 94.2821 20.6331 69.1537 20.6331C44.0254 20.6331 23.6549 41.0036 23.6549 66.1319C23.6549 91.2602 44.0254 111.631 69.1537 111.631Z" fill="#F5F5F5"/>
<path d="M69.1537 109.272C92.9795 109.272 112.294 89.9577 112.294 66.1319C112.294 42.3061 92.9795 22.9915 69.1537 22.9915C45.3279 22.9915 26.0133 42.3061 26.0133 66.1319C26.0133 89.9577 45.3279 109.272 69.1537 109.272Z" fill="#7F7F7F"/>
<path d="M69.1537 105.765C91.0427 105.765 108.787 88.0208 108.787 66.1318C108.787 44.2429 91.0427 26.4984 69.1537 26.4984C47.2648 26.4984 29.5203 44.2429 29.5203 66.1318C29.5203 88.0208 47.2648 105.765 69.1537 105.765Z" fill="#F5F5F5"/>
<path d="M69.1537 109.272C92.9795 109.272 112.294 89.9577 112.294 66.1319C112.294 42.3061 92.9795 22.9915 69.1537 22.9915C45.3279 22.9915 26.0133 42.3061 26.0133 66.1319C26.0133 89.9577 45.3279 109.272 69.1537 109.272Z" stroke="#7F7F7F" stroke-width="1.02" stroke-miterlimit="10"/>
<g opacity="0.5">
<path d="M68.2086 99.7704C85.6025 99.7704 99.7031 85.6698 99.7031 68.2759C99.7031 50.8819 85.6025 36.7814 68.2086 36.7814C50.8147 36.7814 36.7141 50.8819 36.7141 68.2759C36.7141 85.6698 50.8147 99.7704 68.2086 99.7704Z" fill="#999999"/>
<path d="M69.9899 97.989C87.3838 97.989 101.484 83.8884 101.484 66.4945C101.484 49.1006 87.3838 35 69.9899 35C52.5959 35 38.4954 49.1006 38.4954 66.4945C38.4954 83.8884 52.5959 97.989 69.9899 97.989Z" fill="#F5F5F5"/>
<mask id="mask0_2305_1114" style="mask-type:luminance" maskUnits="userSpaceOnUse" x="38" y="35" width="64" height="63">
<path d="M69.9899 97.989C87.3838 97.989 101.484 83.8884 101.484 66.4945C101.484 49.1006 87.3838 35 69.9899 35C52.5959 35 38.4954 49.1006 38.4954 66.4945C38.4954 83.8884 52.5959 97.989 69.9899 97.989Z" fill="white"/>
</mask>
<g mask="url(#mask0_2305_1114)">
<path d="M49.6202 102.22L49.0947 98.0691C48.4534 93.0367 60.54 86.7307 60.54 86.7307L72.5374 88.5566L78.9504 84.0497C91.7584 86.7218 89.9146 89.287 90.2175 92.8497C90.3867 94.8092 90.743 97.0003 90.743 97.0003L49.6202 102.22Z" fill="#7F7F7F" stroke="#1A1A1A" stroke-linecap="round" stroke-linejoin="round"/>
<path d="M63.9065 69.6119C63.9065 69.6119 66.5786 75.6329 62.4458 85.4571L72.5194 88.2984L76.5898 83.6579L74.1939 72.9163L63.9065 69.6119Z" fill="#F5F5F5"/>
<mask id="mask1_2305_1114" style="mask-type:luminance" maskUnits="userSpaceOnUse" x="62" y="69" width="15" height="20">
<path d="M63.9065 69.6119C63.9065 69.6119 66.5786 75.6329 62.4458 85.4571L72.5194 88.2984L76.5898 83.6579L74.1939 72.9163L63.9065 69.6119Z" fill="white"/>
</mask>
<g mask="url(#mask1_2305_1114)">
<path d="M63.479 70.5917C63.479 70.5917 66.4628 81.6717 76.8392 81.2798C87.2157 80.8879 66.8369 68.365 66.8369 68.365L64.3251 68.1868L63.479 70.5917Z" fill="#1A1A1A"/>
</g>
<path d="M63.9065 69.6119C63.9065 69.6119 66.5786 75.6329 62.4458 85.4571L72.5194 88.2984L76.5898 83.6579L74.1939 72.9163L63.9065 69.6119Z" stroke="#1A1A1A" stroke-linecap="round" stroke-linejoin="round"/>
<path d="M63.9069 69.6119C63.9069 69.6119 59.694 69.1844 58.1175 56.1181C56.8349 45.519 63.2656 38.3846 71.7449 38.5093C80.8298 38.6518 86.45 48.9748 91.8654 49.6072C91.8654 49.6072 86.5213 51.8873 84.4549 50.5424C84.4549 50.5424 88.6946 54.1051 84.8735 55.8865C81.0525 57.6679 63.9069 69.6119 63.9069 69.6119Z" fill="#1A1A1A" stroke="#1A1A1A" stroke-miterlimit="10"/>
<path d="M84.5794 53.2323L85.6304 61.5245C85.6304 61.5245 87.4118 67.1536 85.862 71.4734C84.3122 75.7932 82.5576 80.6652 77.4362 79.5964C72.3147 78.5276 67.986 78.3851 63.9512 69.6119L65.0557 65.684C65.0557 65.684 62.1342 65.7463 61.6444 60.5448C61.1545 55.3432 66.2136 58.5496 66.2136 58.5496C67.5943 56.086 68.3066 53.3041 68.2799 50.48C68.2087 45.8485 76.688 53.2055 81.6936 51.8784L77.926 47.8525C77.926 47.8525 83.4394 50.4444 84.5794 53.2323Z" fill="#F5F5F5" stroke="#1A1A1A" stroke-linecap="round" stroke-linejoin="round"/>
<path d="M79.9391 61.7294L82.4954 65.2476C82.5864 65.3693 82.6472 65.5109 82.673 65.6607C82.6987 65.8105 82.6885 65.9643 82.6433 66.1095C82.5981 66.2546 82.5192 66.387 82.413 66.4957C82.3067 66.6044 82.1763 66.6864 82.0322 66.735L79.4849 67.6257" stroke="#1A1A1A" stroke-linecap="round" stroke-linejoin="round"/>
<path d="M72.6975 70.3957C72.6975 70.3957 75.0311 72.5066 79.5112 71.2864" stroke="#1A1A1A" stroke-linecap="round" stroke-linejoin="round"/>
<path d="M74.0426 61.3463C74.0426 62.237 73.7754 62.9762 73.3835 62.9851C72.9916 62.994 72.6621 62.2815 72.6354 61.3908C72.6086 60.5001 72.9026 59.7609 73.2856 59.7431C73.6686 59.7252 74.0159 60.4467 74.0426 61.3463Z" fill="#1A1A1A"/>
<path d="M82.6378 61.0613C82.6378 61.952 82.3706 62.6913 81.9787 62.7002C81.5868 62.7091 81.2572 61.9965 81.2305 61.1059C81.2038 60.2152 81.4888 59.4759 81.8807 59.467C82.2726 59.4581 82.6111 60.1706 82.6378 61.0613Z" fill="#1A1A1A"/>
<path d="M71.0857 59.2799C71.0857 59.2799 72.778 56.3585 76.5278 57.7747" stroke="#1A1A1A" stroke-linecap="round" stroke-linejoin="round"/>
<path d="M81.0168 57.6322C81.0168 57.6322 82.9496 55.9221 84.6597 58.5853" stroke="#1A1A1A" stroke-linecap="round" stroke-linejoin="round"/>
<path d="M82.1658 46.659C82.7696 47.1601 83.4267 47.5932 84.1253 47.9505" stroke="#7F7F7F" stroke-linecap="round" stroke-linejoin="round"/>
<path d="M62.9182 54.6129C62.9182 54.6129 61.9563 45.1627 68.3158 42.0453C73.0186 39.7385 78.0331 43.4882 81.3375 46.0267" stroke="#7F7F7F" stroke-linecap="round" stroke-linejoin="round"/>
<path d="M70.7115 45.5367C72.2613 45.5367 74.3901 46.5165 77.2224 49.8565" stroke="#7F7F7F" stroke-linecap="round" stroke-linejoin="round"/>
<path d="M67.3979 47.9149C67.6794 47.2934 68.1 46.7448 68.6271 46.3116" stroke="#7F7F7F" stroke-linecap="round" stroke-linejoin="round"/>
<path d="M58.6426 87.3988L61.7154 84.513L72.1631 87.4879L76.9728 82.5802L80.3307 83.7826L77.1331 90.7299L72.5372 89.0733L69.215 92.7607L58.6426 87.3988Z" fill="#7F7F7F"/>
<mask id="mask2_2305_1114" style="mask-type:luminance" maskUnits="userSpaceOnUse" x="58" y="82" width="23" height="11">
<path d="M58.6426 87.3988L61.7154 84.513L72.1631 87.4879L76.9728 82.5802L80.3307 83.7826L77.1331 90.7299L72.5372 89.0733L69.215 92.7607L58.6426 87.3988Z" fill="white"/>
</mask>
<g mask="url(#mask2_2305_1114)">
<path opacity="0.5" d="M58.6426 87.3988L61.7154 84.513L72.1631 87.4879L76.9728 82.5802L80.3307 83.7826L77.1331 90.7299L72.5372 89.0733L69.215 92.7607L58.6426 87.3988Z" fill="#F5F5F5"/>
</g>
<path d="M58.6426 87.3988L61.7154 84.513L72.1631 87.4879L76.9728 82.5802L80.3307 83.7826L77.1331 90.7299L72.5372 89.0733L69.215 92.7607L58.6426 87.3988Z" stroke="#1A1A1A" stroke-linecap="round" stroke-linejoin="round"/>
</g>
<path d="M69.9899 97.989C87.3838 97.989 101.484 83.8884 101.484 66.4945C101.484 49.1006 87.3838 35 69.9899 35C52.5959 35 38.4954 49.1006 38.4954 66.4945C38.4954 83.8884 52.5959 97.989 69.9899 97.989Z" stroke="#1A1A1A" stroke-linecap="round" stroke-linejoin="round"/>
<path d="M92.5599 80.8612H82.424C79.6791 80.8612 77.454 83.0864 77.454 85.8312V95.9672C77.454 98.712 79.6791 100.937 82.424 100.937H92.5599C95.3048 100.937 97.5299 98.712 97.5299 95.9672V85.8312C97.5299 83.0864 95.3048 80.8612 92.5599 80.8612Z" fill="#7F7F7F" stroke="#1A1A1A" stroke-linecap="round" stroke-linejoin="round"/>
<path d="M90.1816 86.6506C90.0408 86.3806 89.8283 86.1546 89.5675 85.9975C89.3067 85.8404 89.0076 85.7582 88.7031 85.7599H86.2893C85.9848 85.7582 85.6857 85.8404 85.4249 85.9975C85.1641 86.1546 84.9516 86.3806 84.8108 86.6506" stroke="#1A1A1A" stroke-linecap="round" stroke-linejoin="round"/>
<path d="M83.2166 87.1494C82.7796 87.1494 82.3605 87.323 82.0515 87.6321C81.7425 87.9411 81.5688 88.3602 81.5688 88.7972V94.4174C81.5688 94.8544 81.7425 95.2735 82.0515 95.5825C82.3605 95.8916 82.7796 96.0652 83.2166 96.0652H91.7672C91.9843 96.0663 92.1995 96.0246 92.4005 95.9423C92.6014 95.86 92.7841 95.7388 92.9381 95.5857C93.092 95.4326 93.2142 95.2505 93.2975 95.05C93.3809 94.8495 93.4238 94.6345 93.4238 94.4174V88.7972C93.4238 88.5801 93.3809 88.3651 93.2975 88.1646C93.2142 87.9641 93.092 87.782 92.9381 87.6289C92.7841 87.4758 92.6014 87.3546 92.4005 87.2723C92.1995 87.19 91.9843 87.1483 91.7672 87.1494" stroke="#1A1A1A" stroke-linecap="round" stroke-linejoin="round"/>
<path d="M87.4917 89.2871C87.0315 89.2871 86.5817 89.4236 86.1992 89.6795C85.8167 89.9353 85.5188 90.2989 85.3431 90.7242C85.1674 91.1495 85.1219 91.6174 85.2123 92.0685C85.3027 92.5197 85.525 92.9339 85.851 93.2587C86.177 93.5834 86.5921 93.8041 87.0436 93.8928C87.4951 93.9815 87.9628 93.9342 88.3875 93.7569C88.8121 93.5796 89.1745 93.2802 89.4289 92.8968C89.6833 92.5133 89.8181 92.063 89.8163 91.6028C89.8175 91.2976 89.7581 90.9952 89.6416 90.7132C89.5251 90.4311 89.3538 90.1749 89.1376 89.9595C88.9213 89.7441 88.6645 89.5738 88.382 89.4584C88.0995 89.3429 87.7968 89.2847 87.4917 89.2871Z" stroke="#1A1A1A" stroke-linecap="round" stroke-linejoin="round"/>
</g>
</svg>
