<svg width="135" height="161" viewBox="0 0 135 161" fill="none" xmlns="http://www.w3.org/2000/svg">
<path opacity="0.2" d="M122.57 63.2987C125.572 60.8331 127.164 57.0045 126.843 53.1453C126.843 51.7211 126.353 50.1284 125.465 48.5663C124.301 46.3917 122.524 44.7071 120.441 43.6351C120.227 43.5279 120.013 43.4054 119.798 43.3135C119.523 43.191 119.232 43.0838 118.941 42.9919C118.803 42.946 118.68 42.9 118.542 42.8694C117.118 42.4253 115.602 42.2262 114.071 42.3487C115.556 39.4696 115.755 36.1158 114.714 33.0836C114.285 30.9855 112.708 28.6884 110.288 26.9578C107.195 24.7526 103.688 24.186 101.467 25.2886C100.257 25.503 99.0627 25.9165 97.9447 26.5137C98.2663 23.2977 97.225 20.1276 95.1728 17.708C94.8665 17.3404 94.5143 16.9882 94.1315 16.636C93.8252 16.345 93.4729 16.1 93.136 15.8396C92.9676 15.7171 92.8297 15.5946 92.6613 15.4874C92.3856 15.3037 92.0947 15.1505 91.819 14.9974C91.6199 14.8902 91.4208 14.7523 91.2064 14.6451C91.0686 14.5839 90.9461 14.5379 90.8083 14.4767C90.7623 14.4614 90.7164 14.4307 90.6704 14.4001C90.6245 14.3848 90.5785 14.3694 90.5326 14.3541C87.6994 13.1443 84.851 13.0524 82.9214 13.9866C80.6855 14.6298 78.6487 15.9009 77.1172 17.708C75.5858 12.9452 71.1293 9.48419 65.8459 9.48419C60.5625 9.48419 55.9835 13.0371 54.5133 17.9071C53.4413 16.59 52.0937 15.5793 50.6082 14.8442C48.7858 13.4506 45.7076 12.9299 42.4303 13.711C38.8927 14.5686 36.1974 16.7125 35.447 18.9944C34.0381 21.169 33.3489 23.7724 33.5786 26.4065C29.1222 24.1093 23.5171 24.8291 19.7958 28.5658C16.0744 32.3025 15.324 38.0454 17.7283 42.5325C12.6746 42.0271 7.66681 44.8603 5.63001 49.8068C3.62383 54.692 5.10932 60.1286 8.9379 63.36C4.17515 64.8914 0.714111 69.3479 0.714111 74.6313C0.714111 79.9148 4.26703 84.4937 9.13699 85.9639C5.20121 89.1952 3.66977 94.7237 5.72189 99.6549C7.74338 104.525 12.6593 107.327 17.6517 106.899C16.35 109.41 16.0591 112.289 16.6869 115C16.5797 115.321 16.4725 115.658 16.35 115.98C16.35 115.98 16.35 115.995 16.35 116.011C16.1663 116.547 15.9978 117.083 15.814 117.619C15.7834 117.726 15.7375 117.848 15.7068 117.956C15.5537 118.4 15.4159 118.844 15.2627 119.288C15.2168 119.426 15.1708 119.564 15.1249 119.686C14.9871 120.1 14.8492 120.513 14.7114 120.926C14.6655 121.08 14.6195 121.217 14.5736 121.371C14.4357 121.799 14.2979 122.213 14.1601 122.642C14.1295 122.734 14.0988 122.81 14.0682 122.902C9.99459 135.475 6.91641 146.379 8.12624 147.206C11.0819 149.227 33.5633 140.621 33.5633 140.621C33.5633 140.621 49.3064 161.54 52.89 160.989C54.1917 160.79 57.1474 152.275 60.3787 141.54C60.3787 141.509 60.394 141.478 60.4093 141.448C60.6697 140.575 60.93 139.687 61.2057 138.783C62.6452 139.396 64.2073 139.778 65.8612 139.778C67.5152 139.778 69.0926 139.396 70.5168 138.783C70.5321 138.844 70.5474 138.89 70.5627 138.951C70.7924 139.748 71.0221 140.514 71.2672 141.295C71.3131 141.432 71.3591 141.57 71.3897 141.723C71.6194 142.504 71.8491 143.27 72.0788 144.005C72.0788 144.02 72.0788 144.036 72.0788 144.051C75.0039 153.577 77.6073 160.805 78.8171 160.989C82.4007 161.555 98.1438 140.621 98.1438 140.621C98.1438 140.621 120.61 149.227 123.581 147.206C125.051 146.21 120.258 130.575 115.036 115C115.679 112.228 115.342 109.288 113.979 106.73C119.033 107.235 124.04 104.402 126.077 99.4558C128.083 94.5706 126.598 89.134 122.769 85.9026C127.088 84.5244 130.304 80.7111 130.871 76.0862C130.932 75.7033 130.962 75.3052 130.962 74.8764C130.962 74.7845 130.978 74.7079 130.978 74.6313C130.978 69.2866 127.425 64.7689 122.555 63.2987H122.57Z" fill="#1A1A1A"/>
<path d="M107.164 74.6465L69.1384 86.3466L31.1282 74.6465C31.1282 74.6465 8.44774 136.7 11.4187 138.722C14.3744 140.743 36.8558 132.136 36.8558 132.136C36.8558 132.136 52.5989 153.056 56.1825 152.504C58.2193 152.183 64.2837 131.616 69.1537 113.866C74.0237 131.616 80.0881 152.183 82.1249 152.504C85.7085 153.071 101.452 132.136 101.452 132.136C101.452 132.136 123.918 140.743 126.889 138.722C129.844 136.7 107.179 74.6465 107.179 74.6465H107.164Z" fill="#E3E3E3"/>
<path d="M107.164 74.6465L69.1383 86.3466L31.1282 74.6465C31.1282 74.6465 23.226 96.2856 17.3606 114.418C17.82 115.107 18.3254 115.765 18.938 116.363C23.0575 120.482 29.2751 121.233 34.1604 118.614C33.6244 124.127 36.6873 129.579 42.0779 131.8C47.392 133.989 53.3339 132.366 56.8562 128.201C57.867 131.355 60.0569 133.959 62.9054 135.536C64.9422 128.905 67.1474 121.141 69.1536 113.866C71.1598 121.156 73.3498 128.92 75.4019 135.552C78.3116 133.944 80.5322 131.233 81.5123 128.002C85.0346 132.29 91.0684 133.959 96.4437 131.723C101.758 129.518 104.805 124.158 104.346 118.721C109.201 121.217 115.311 120.436 119.385 116.378C119.982 115.781 120.503 115.122 120.962 114.433C115.097 96.3009 107.194 74.6618 107.194 74.6618L107.164 74.6465Z" fill="#7F7F7F"/>
<path d="M107.164 74.6465L69.1384 86.3466L31.1282 74.6465C31.1282 74.6465 8.44774 136.7 11.4187 138.722C14.3744 140.743 36.8558 132.136 36.8558 132.136C36.8558 132.136 52.5989 153.056 56.1825 152.504C58.2193 152.183 64.2837 131.616 69.1537 113.866C74.0237 131.616 80.0881 152.183 82.1249 152.504C85.7085 153.071 101.452 132.136 101.452 132.136C101.452 132.136 123.918 140.743 126.889 138.722C129.844 136.7 107.179 74.6465 107.179 74.6465H107.164Z" stroke="#7F7F7F" stroke-width="1.02" stroke-miterlimit="10"/>
<path d="M134.285 66.1318C134.285 60.7871 130.733 56.2694 125.863 54.7992C129.798 51.5679 131.33 46.0394 129.278 41.1082C127.256 36.2383 122.34 33.4358 117.348 33.8646C119.645 29.4081 118.925 23.8031 115.188 20.0817C111.452 16.3603 105.709 15.6099 101.222 18.0142C101.727 12.9605 98.8941 7.95273 93.9475 5.91593C89.0623 3.90975 83.6257 5.3952 80.3944 9.22378C78.8629 4.46103 74.4065 1 69.123 1C63.8396 1 59.2606 4.55292 57.7904 9.42288C54.5591 5.4871 49.0306 3.95569 44.0994 6.00781C39.2295 8.0293 36.4269 12.9452 36.8557 17.9376C32.3993 15.6405 26.7942 16.3603 23.0729 20.097C19.2902 23.8796 18.6011 29.5765 21.0054 34.0636C15.9517 33.5582 10.9439 36.3914 8.90711 41.3379C6.90093 46.2232 8.38642 51.6598 12.215 54.8911C7.45225 56.4225 3.99121 60.879 3.99121 66.1625C3.99121 71.4459 7.54413 76.0249 12.4141 77.495C8.47831 80.7264 6.94687 86.2548 8.99899 91.1861C11.0205 96.056 15.9364 98.8585 20.9288 98.4297C18.6317 102.886 19.3515 108.491 23.0882 112.213C26.8249 115.934 32.5677 116.684 37.0548 114.28C36.5495 119.334 39.3826 124.342 44.3291 126.378C49.2144 128.385 54.651 126.899 57.8823 123.07C59.4137 127.833 63.8702 131.294 69.1536 131.294C74.4371 131.294 79.0161 127.741 80.4862 122.871C83.7176 126.807 89.246 128.339 94.1772 126.286C99.0472 124.265 101.85 119.349 101.421 114.357C105.877 116.654 111.482 115.934 115.204 112.197C118.986 108.415 119.676 102.718 117.271 98.2307C122.325 98.736 127.333 95.9029 129.37 90.9564C131.376 86.0711 129.89 80.6345 126.062 77.4032C130.824 75.8717 134.285 71.4152 134.285 66.1318Z" fill="#E3E3E3"/>
<path d="M117.424 28.0145C115.647 30.5107 114.254 26.5443 110.349 23.7724C106.443 21.0005 101.528 20.4646 103.304 17.9683C105.081 15.4721 109.675 15.7018 113.58 18.4737C117.47 21.2456 119.2 25.5183 117.424 28.0145Z" fill="#F5F5F5"/>
<path d="M128.818 48.0764C126.521 50.0979 126.061 45.9324 122.891 42.3488C119.721 38.7653 115.05 37.1266 117.348 35.1052C119.645 33.0837 124.071 34.3394 127.241 37.923C130.411 41.5065 131.115 46.0549 128.818 48.0917V48.0764Z" fill="#F5F5F5"/>
<path d="M132.187 70.8946C129.553 72.4567 129.875 68.2606 127.455 64.141C125.02 60.0215 120.747 57.5252 123.397 55.9632C126.031 54.4011 130.15 56.4839 132.57 60.6034C135.005 64.723 134.821 69.3326 132.187 70.8793V70.8946Z" fill="#F5F5F5"/>
<path d="M99.8278 14.9515C98.4802 17.6928 96.4587 14.0173 92.1707 11.9039C87.8826 9.79053 82.9361 10.0509 84.2991 7.29433C85.6621 4.53775 90.2257 4.03238 94.5137 6.14575C98.8018 8.25913 101.191 12.1949 99.8278 14.9515Z" fill="#F5F5F5"/>
<path d="M77.806 6.86547C77.806 9.92833 74.3603 7.50866 69.5822 7.47803C64.8042 7.4474 60.4702 9.85173 60.4855 6.78887C60.5008 3.72601 64.3907 1.26039 69.1687 1.27571C73.9468 1.29102 77.8213 3.78728 77.806 6.85014V6.86547Z" fill="#F5F5F5"/>
<path d="M55.4623 8.56532C56.1821 11.5363 52.2769 10.0049 47.6214 11.1381C42.9658 12.2714 39.3517 15.6406 38.6166 12.6543C37.8815 9.66797 41.0822 6.34475 45.7224 5.22681C50.378 4.09355 54.7272 5.59434 55.447 8.56532H55.4623Z" fill="#F5F5F5"/>
<path d="M134.285 66.1318C134.285 60.7871 130.733 56.2694 125.863 54.7992C129.798 51.5679 131.33 46.0394 129.278 41.1082C127.256 36.2383 122.34 33.4358 117.348 33.8646C119.645 29.4081 118.925 23.8031 115.188 20.0817C111.452 16.3603 105.709 15.6099 101.222 18.0142C101.727 12.9605 98.8941 7.95274 93.9475 5.91593C89.0623 3.90975 83.6257 5.3952 80.3944 9.22378C78.8629 4.46103 74.4065 1 69.123 1C63.8396 1 59.2606 4.55292 57.7904 9.42288C54.5591 5.4871 49.0306 3.95569 44.0994 6.00781C39.2295 8.0293 36.4269 12.9452 36.8557 17.9376C32.3993 15.6405 26.7942 16.3603 23.0729 20.097C19.2902 23.8796 18.6011 29.5765 21.0054 34.0636C15.9517 33.5582 10.9439 36.3914 8.90711 41.3379C6.90093 46.2232 8.38642 51.6598 12.215 54.8911C7.45225 56.4225 3.99121 60.879 3.99121 66.1625C3.99121 71.4459 7.54413 76.0249 12.4141 77.495C8.47831 80.7264 6.94687 86.2548 8.99899 91.1861C11.0205 96.056 15.9364 98.8585 20.9288 98.4297C18.6317 102.886 19.3515 108.491 23.0882 112.213C26.8249 115.934 32.5677 116.684 37.0548 114.28C36.5495 119.334 39.3826 124.342 44.3291 126.378C49.2144 128.385 54.651 126.899 57.8823 123.07C59.4137 127.833 63.8702 131.294 69.1536 131.294C74.4371 131.294 79.0161 127.741 80.4862 122.871C83.7176 126.807 89.246 128.339 94.1772 126.286C99.0472 124.265 101.85 119.349 101.421 114.357C105.877 116.654 111.482 115.934 115.204 112.197C118.986 108.415 119.676 102.718 117.271 98.2307C122.325 98.736 127.333 95.9029 129.37 90.9563C131.376 86.0711 129.89 80.6345 126.062 77.4032C130.824 75.8717 134.285 71.4152 134.285 66.1318Z" stroke="#7F7F7F" stroke-width="1.02" stroke-miterlimit="10"/>
<path d="M69.1537 111.631C94.2821 111.631 114.653 91.2602 114.653 66.1319C114.653 41.0036 94.2821 20.6331 69.1537 20.6331C44.0254 20.6331 23.6549 41.0036 23.6549 66.1319C23.6549 91.2602 44.0254 111.631 69.1537 111.631Z" fill="#F5F5F5"/>
<path d="M69.1537 109.272C92.9795 109.272 112.294 89.9577 112.294 66.1319C112.294 42.3061 92.9795 22.9915 69.1537 22.9915C45.3279 22.9915 26.0133 42.3061 26.0133 66.1319C26.0133 89.9577 45.3279 109.272 69.1537 109.272Z" fill="#7F7F7F"/>
<path d="M69.1537 105.765C91.0427 105.765 108.787 88.0208 108.787 66.1318C108.787 44.2429 91.0427 26.4984 69.1537 26.4984C47.2648 26.4984 29.5203 44.2429 29.5203 66.1318C29.5203 88.0208 47.2648 105.765 69.1537 105.765Z" fill="#F5F5F5"/>
<path d="M69.1537 109.272C92.9795 109.272 112.294 89.9577 112.294 66.1319C112.294 42.3061 92.9795 22.9915 69.1537 22.9915C45.3279 22.9915 26.0133 42.3061 26.0133 66.1319C26.0133 89.9577 45.3279 109.272 69.1537 109.272Z" stroke="#7F7F7F" stroke-width="1.02" stroke-miterlimit="10"/>
<path d="M51.2219 57.391L43.2771 70.0354C43.2771 70.0354 46.4178 74.8652 59.5141 82.9195C72.3739 90.8288 77.5529 90.694 77.5529 90.694L88.1188 73.878L51.2223 57.3907L51.2219 57.391Z" fill="#E3E3E3"/>
<path d="M77.5527 90.694C80.8432 85.457 75.9262 76.4461 66.5704 70.5676C57.2145 64.6891 46.9626 64.1691 43.6721 69.4061C40.3816 74.6431 45.2985 83.6539 54.6544 89.5324C64.0103 95.4109 74.2622 95.9309 77.5527 90.694Z" fill="#E3E3E3"/>
<path d="M56.5902 86.4259C48.4444 81.3074 44.0507 72.4077 45.1224 67.0989C45.1224 67.0989 44.0982 68.7292 43.6726 69.4064C40.382 74.6435 45.2991 83.6541 54.655 89.5328C64.0109 95.4111 74.2625 95.9313 77.5532 90.6943C77.9787 90.0171 78.8498 88.6307 78.8498 88.6307C74.5318 91.8998 64.7366 91.5443 56.5905 86.4259H56.5902Z" fill="#7F7F7F"/>
<path opacity="0.2" d="M48.0475 62.4433C48.0475 62.4433 48.8697 86.5291 70.2163 94.2891C70.2163 94.2891 74.3658 94.2817 76.6579 91.8164L77.2752 91.1357L83.5858 81.0924L49.6303 59.9239L48.0475 62.4433Z" fill="black"/>
<path d="M45.3411 47L43.9983 49.1372L58.7848 82.9329L96.6831 82.2402L98.0259 80.103L45.3411 47Z" fill="#E3E3E3"/>
<path opacity="0.4" d="M45.3411 47L43.9983 49.1372L58.7848 82.9329L96.6831 82.2402L98.0259 80.103L45.3411 47Z" fill="black"/>
<path d="M45.3411 47C45.226 47.472 60.267 80.7105 60.267 80.7105L98.0256 80.103L81.9822 47.1609L45.3411 47Z" fill="#E3E3E3"/>
<path opacity="0.4" d="M75.0407 64.5256C74.3287 65.6589 72.2499 65.6347 70.3982 64.471C68.5464 63.3074 67.6225 61.4454 68.3345 60.3121C69.0466 59.1787 71.1254 59.203 72.9771 60.3666C74.8289 61.5303 75.7528 63.3919 75.0407 64.5256Z" fill="black"/>
<path d="M71.6077 62.9198C71.7034 62.935 71.7974 62.9614 71.891 62.985C71.9389 62.9969 71.9861 63.0121 72.0336 63.0254C71.8185 62.9645 72.0501 63.0318 72.1096 63.0518C72.2613 63.1025 72.4109 63.1585 72.5594 63.218C72.9843 63.3887 73.3964 63.5904 73.7966 63.8125C74.3422 64.1152 74.7297 64.3679 75.2834 64.7751C78.9267 67.4544 81.5549 71.4063 83.5949 75.3787C85.6582 79.3962 87.202 83.6671 88.4631 87.9974C88.6458 88.6243 89.5915 88.254 89.4096 87.6296C87.454 80.9139 84.8233 74.0824 80.4704 68.523C78.542 66.0598 76.1556 63.6762 73.2451 62.4049C72.779 62.2011 72.2736 61.9966 71.7675 61.9174C71.1223 61.8164 70.9607 62.8188 71.6073 62.9198H71.6077Z" fill="#7F7F7F"/>
<path d="M89.2972 92.1987C88.1051 92.0614 87.2498 90.984 87.387 89.7919C87.5243 88.5997 88.6017 87.7444 89.7938 87.8817C90.986 88.019 91.8413 89.0964 91.704 90.2885C91.5667 91.4807 90.4893 92.336 89.2972 92.1987Z" fill="#7F7F7F"/>
<path d="M88.3683 91.0283C87.1117 96.1154 87.5517 101.57 89.5939 106.394C89.848 106.994 90.7962 106.63 90.5403 106.026C88.5612 101.351 88.1532 96.1161 89.3707 91.1885C89.5273 90.5542 88.5239 90.3976 88.3683 91.0283Z" fill="#7F7F7F"/>
<path d="M88.8273 90.3923C88.0818 95.9081 89.8604 101.675 93.6283 105.78C94.0654 106.256 94.8922 105.666 94.4505 105.184C90.8579 101.27 89.1173 95.824 89.8297 90.5528C89.917 89.9062 88.9149 89.7436 88.8273 90.3927V90.3923Z" fill="#7F7F7F"/>
<path d="M89.5368 91.0308C91.2474 96.1749 93.4772 102.199 99.088 104.159C99.7008 104.373 100.126 103.45 99.509 103.235C94.1544 101.364 92.1122 95.5604 90.4836 90.663C90.2774 90.0428 89.3305 90.411 89.5368 91.0308Z" fill="#7F7F7F"/>
<path d="M89.1936 91.1061C89.1894 95.8782 91.2013 100.539 94.5331 103.932C95.4771 104.894 96.5309 105.739 97.672 106.455C97.9061 106.602 98.1947 106.614 98.3865 106.385C98.5453 106.196 98.5481 105.816 98.3161 105.671C94.4549 103.248 91.6339 99.2617 90.6262 94.8127C90.3421 93.5594 90.2017 92.2789 90.2027 90.9938C90.2034 90.3423 89.194 90.4577 89.1936 91.1061Z" fill="#7F7F7F"/>
<path d="M89.0754 91.563C87.6752 94.1877 87.671 97.3196 88.4981 100.124C89.3327 102.955 90.9912 105.465 92.7528 107.798C93.1467 108.32 93.9696 107.725 93.575 107.203C91.9172 105.007 90.3678 102.678 89.5298 100.034C88.6967 97.4058 88.6812 94.4562 90 91.9843C90.3084 91.4067 89.382 90.9893 89.0757 91.5633L89.0754 91.563Z" fill="#7F7F7F"/>
<path d="M89.5656 91.0318C91.6078 95.4435 94.802 99.2786 98.7945 102.056C99.3284 102.428 99.9753 101.645 99.4386 101.272C95.5887 98.593 92.4832 94.9222 90.5117 90.664C90.2386 90.0741 89.2897 90.4367 89.5653 91.0318H89.5656Z" fill="#7F7F7F"/>
<path opacity="0.3" d="M89.2972 92.1987C88.1051 92.0614 87.2498 90.984 87.387 89.7919C87.5243 88.5997 88.6017 87.7444 89.7938 87.8817C90.986 88.019 91.8413 89.0964 91.704 90.2885C91.5667 91.4807 90.4893 92.336 89.2972 92.1987Z" fill="black"/>
<path opacity="0.1" d="M46.8085 47.9219L81.4443 48.3347L87.6426 61.701C87.6426 61.701 51.1793 52.6922 49.7967 51.4913C48.4142 50.2903 46.8085 47.9219 46.8085 47.9219Z" fill="white"/>
<path opacity="0.1" d="M47.7148 64.5252C47.7148 64.5252 43.7483 69.8239 43.6209 71.5996C43.4935 73.3753 43.5456 76.918 45.5065 78.3533C47.4673 79.7887 49.9322 66.9465 49.5264 64.326C49.1206 61.7056 47.7144 64.5252 47.7144 64.5252H47.7148Z" fill="white"/>
</svg>
