<svg width="135" height="161" viewBox="0 0 135 161" fill="none" xmlns="http://www.w3.org/2000/svg">
<path opacity="0.2" d="M122.57 63.2987C125.572 60.8331 127.164 57.0045 126.843 53.1453C126.843 51.7211 126.353 50.1284 125.465 48.5663C124.301 46.3917 122.524 44.7071 120.441 43.6351C120.227 43.5279 120.013 43.4054 119.798 43.3135C119.523 43.191 119.232 43.0838 118.941 42.9919C118.803 42.946 118.68 42.9 118.542 42.8694C117.118 42.4253 115.602 42.2262 114.071 42.3487C115.556 39.4696 115.755 36.1158 114.714 33.0836C114.285 30.9855 112.708 28.6884 110.288 26.9578C107.195 24.7526 103.688 24.186 101.467 25.2886C100.257 25.503 99.0627 25.9165 97.9447 26.5137C98.2663 23.2977 97.225 20.1276 95.1728 17.708C94.8665 17.3404 94.5143 16.9882 94.1315 16.636C93.8252 16.345 93.4729 16.1 93.136 15.8396C92.9676 15.7171 92.8297 15.5946 92.6613 15.4874C92.3856 15.3037 92.0947 15.1505 91.819 14.9974C91.6199 14.8902 91.4208 14.7523 91.2064 14.6451C91.0686 14.5839 90.9461 14.5379 90.8083 14.4767C90.7623 14.4614 90.7164 14.4307 90.6704 14.4001C90.6245 14.3848 90.5785 14.3694 90.5326 14.3541C87.6994 13.1443 84.851 13.0524 82.9214 13.9866C80.6855 14.6298 78.6487 15.9009 77.1172 17.708C75.5858 12.9452 71.1293 9.48419 65.8459 9.48419C60.5625 9.48419 55.9835 13.0371 54.5133 17.9071C53.4413 16.59 52.0937 15.5793 50.6082 14.8442C48.7858 13.4506 45.7076 12.9299 42.4303 13.711C38.8927 14.5686 36.1974 16.7125 35.447 18.9944C34.0381 21.169 33.3489 23.7724 33.5786 26.4065C29.1222 24.1093 23.5171 24.8291 19.7958 28.5658C16.0744 32.3025 15.324 38.0454 17.7283 42.5325C12.6746 42.0271 7.66681 44.8603 5.63001 49.8068C3.62383 54.692 5.10932 60.1286 8.9379 63.36C4.17515 64.8914 0.714111 69.3479 0.714111 74.6313C0.714111 79.9148 4.26703 84.4937 9.13699 85.9639C5.20121 89.1952 3.66977 94.7237 5.72189 99.6549C7.74338 104.525 12.6593 107.327 17.6517 106.899C16.35 109.41 16.0591 112.289 16.6869 115C16.5797 115.321 16.4725 115.658 16.35 115.98C16.35 115.98 16.35 115.995 16.35 116.011C16.1663 116.547 15.9978 117.083 15.814 117.619C15.7834 117.726 15.7375 117.848 15.7068 117.956C15.5537 118.4 15.4159 118.844 15.2627 119.288C15.2168 119.426 15.1708 119.564 15.1249 119.686C14.9871 120.1 14.8492 120.513 14.7114 120.926C14.6655 121.08 14.6195 121.217 14.5736 121.371C14.4357 121.799 14.2979 122.213 14.1601 122.642C14.1295 122.734 14.0988 122.81 14.0682 122.902C9.99459 135.475 6.91641 146.379 8.12624 147.206C11.0819 149.227 33.5633 140.621 33.5633 140.621C33.5633 140.621 49.3064 161.54 52.89 160.989C54.1917 160.79 57.1474 152.275 60.3787 141.54C60.3787 141.509 60.394 141.478 60.4093 141.448C60.6697 140.575 60.93 139.687 61.2057 138.783C62.6452 139.396 64.2073 139.778 65.8612 139.778C67.5152 139.778 69.0926 139.396 70.5168 138.783C70.5321 138.844 70.5474 138.89 70.5627 138.951C70.7924 139.748 71.0221 140.514 71.2672 141.295C71.3131 141.432 71.3591 141.57 71.3897 141.723C71.6194 142.504 71.8491 143.27 72.0788 144.005C72.0788 144.02 72.0788 144.036 72.0788 144.051C75.0039 153.577 77.6073 160.805 78.8171 160.989C82.4007 161.555 98.1438 140.621 98.1438 140.621C98.1438 140.621 120.61 149.227 123.581 147.206C125.051 146.21 120.258 130.575 115.036 115C115.679 112.228 115.342 109.288 113.979 106.73C119.033 107.235 124.04 104.402 126.077 99.4558C128.083 94.5706 126.598 89.134 122.769 85.9026C127.088 84.5244 130.304 80.7111 130.871 76.0862C130.932 75.7033 130.962 75.3052 130.962 74.8764C130.962 74.7845 130.978 74.7079 130.978 74.6313C130.978 69.2866 127.425 64.7689 122.555 63.2987H122.57Z" fill="black"/>
<path d="M107.164 74.6465L69.1384 86.3467L31.1282 74.6465C31.1282 74.6465 8.44774 136.7 11.4187 138.722C14.3744 140.743 36.8558 132.136 36.8558 132.136C36.8558 132.136 52.5989 153.056 56.1825 152.505C58.2193 152.183 64.2837 131.616 69.1537 113.867C74.0237 131.616 80.0881 152.183 82.1249 152.505C85.7085 153.071 101.452 132.136 101.452 132.136C101.452 132.136 123.918 140.743 126.889 138.722C129.844 136.7 107.179 74.6465 107.179 74.6465H107.164Z" fill="#FF2B42"/>
<path d="M107.164 74.6465L69.1383 86.3467L31.1282 74.6465C31.1282 74.6465 23.226 96.2857 17.3606 114.418C17.82 115.107 18.3254 115.765 18.938 116.363C23.0575 120.482 29.2751 121.233 34.1604 118.614C33.6244 124.127 36.6873 129.579 42.0779 131.8C47.392 133.99 53.3339 132.366 56.8562 128.201C57.867 131.355 60.0569 133.959 62.9054 135.536C64.9422 128.905 67.1474 121.141 69.1536 113.867C71.1598 121.156 73.3498 128.92 75.4019 135.552C78.3116 133.944 80.5322 131.233 81.5123 128.002C85.0346 132.29 91.0684 133.959 96.4437 131.723C101.758 129.518 104.805 124.158 104.346 118.721C109.201 121.217 115.311 120.436 119.385 116.378C119.982 115.781 120.503 115.122 120.962 114.433C115.097 96.301 107.194 74.6618 107.194 74.6618L107.164 74.6465Z" fill="#C01830"/>
<path d="M107.164 74.6465L69.1384 86.3467L31.1282 74.6465C31.1282 74.6465 8.44774 136.7 11.4187 138.722C14.3744 140.743 36.8558 132.136 36.8558 132.136C36.8558 132.136 52.5989 153.056 56.1825 152.505C58.2193 152.183 64.2837 131.616 69.1537 113.867C74.0237 131.616 80.0881 152.183 82.1249 152.505C85.7085 153.071 101.452 132.136 101.452 132.136C101.452 132.136 123.918 140.743 126.889 138.722C129.844 136.7 107.179 74.6465 107.179 74.6465H107.164Z" stroke="#650032" stroke-width="1.02" stroke-miterlimit="10"/>
<path d="M134.285 66.1318C134.285 60.7871 130.733 56.2694 125.863 54.7992C129.798 51.5679 131.33 46.0394 129.278 41.1082C127.256 36.2383 122.34 33.4358 117.348 33.8646C119.645 29.4081 118.925 23.8031 115.188 20.0817C111.452 16.3603 105.709 15.6099 101.222 18.0142C101.727 12.9605 98.8941 7.95273 93.9475 5.91593C89.0623 3.90975 83.6257 5.3952 80.3944 9.22378C78.8629 4.46103 74.4065 1 69.123 1C63.8396 1 59.2606 4.55292 57.7904 9.42288C54.5591 5.4871 49.0306 3.95569 44.0994 6.00781C39.2295 8.0293 36.4269 12.9452 36.8557 17.9376C32.3993 15.6405 26.7942 16.3603 23.0729 20.097C19.2902 23.8796 18.6011 29.5765 21.0054 34.0636C15.9517 33.5582 10.9439 36.3914 8.90711 41.3379C6.90093 46.2232 8.38642 51.6598 12.215 54.8911C7.45225 56.4225 3.99121 60.879 3.99121 66.1625C3.99121 71.4459 7.54413 76.0249 12.4141 77.495C8.47831 80.7264 6.94687 86.2548 8.99899 91.1861C11.0205 96.056 15.9364 98.8585 20.9288 98.4297C18.6317 102.886 19.3515 108.491 23.0882 112.213C26.8249 115.934 32.5677 116.684 37.0548 114.28C36.5495 119.334 39.3826 124.342 44.3291 126.378C49.2144 128.385 54.651 126.899 57.8823 123.07C59.4137 127.833 63.8702 131.294 69.1536 131.294C74.4371 131.294 79.0161 127.741 80.4862 122.871C83.7176 126.807 89.246 128.339 94.1772 126.286C99.0472 124.265 101.85 119.349 101.421 114.357C105.877 116.654 111.482 115.934 115.204 112.197C118.986 108.415 119.676 102.718 117.271 98.2307C122.325 98.736 127.333 95.9029 129.37 90.9564C131.376 86.0711 129.89 80.6345 126.062 77.4032C130.824 75.8717 134.285 71.4152 134.285 66.1318Z" fill="#FFEE58"/>
<path d="M117.424 28.0145C115.647 30.5107 114.254 26.5443 110.349 23.7724C106.443 21.0005 101.528 20.4646 103.304 17.9683C105.081 15.4721 109.675 15.7018 113.58 18.4737C117.47 21.2456 119.2 25.5183 117.424 28.0145Z" fill="#FFF59D"/>
<path d="M128.818 48.0764C126.521 50.0978 126.061 45.9323 122.891 42.3488C119.721 38.7652 115.05 37.1266 117.348 35.1051C119.645 33.0836 124.071 34.3394 127.241 37.923C130.411 41.5065 131.115 46.0548 128.818 48.0916V48.0764Z" fill="#FFF59D"/>
<path d="M132.187 70.8946C129.553 72.4567 129.875 68.2605 127.455 64.141C125.02 60.0214 120.747 57.5252 123.397 55.9632C126.031 54.4011 130.15 56.4838 132.57 60.6034C135.005 64.7229 134.821 69.3325 132.187 70.8793V70.8946Z" fill="#FFF59D"/>
<path d="M99.8278 14.9514C98.4802 17.6927 96.4587 14.0172 92.1707 11.9038C87.8826 9.79047 82.9361 10.0508 84.2991 7.29427C85.6621 4.53769 90.2257 4.03232 94.5137 6.14569C98.8018 8.25907 101.191 12.1948 99.8278 14.9514Z" fill="#FFF59D"/>
<path d="M77.806 6.86541C77.806 9.92827 74.3603 7.5086 69.5822 7.47797C64.8042 7.44734 60.4702 9.85167 60.4855 6.78881C60.5008 3.72595 64.3907 1.26033 69.1687 1.27564C73.9468 1.29096 77.8213 3.78722 77.806 6.85008V6.86541Z" fill="#FFF59D"/>
<path d="M55.4623 8.56529C56.1821 11.5363 52.2769 10.0048 47.6214 11.1381C42.9658 12.2713 39.3517 15.6405 38.6166 12.6542C37.8815 9.66794 41.0822 6.34472 45.7224 5.22678C50.378 4.09352 54.7272 5.59431 55.447 8.56529H55.4623Z" fill="#FFF59D"/>
<path d="M134.285 66.1318C134.285 60.7871 130.733 56.2694 125.863 54.7992C129.798 51.5679 131.33 46.0394 129.278 41.1082C127.256 36.2383 122.34 33.4358 117.348 33.8646C119.645 29.4081 118.925 23.8031 115.188 20.0817C111.452 16.3603 105.709 15.6099 101.222 18.0142C101.727 12.9605 98.8941 7.95274 93.9475 5.91593C89.0623 3.90975 83.6257 5.3952 80.3944 9.22378C78.8629 4.46103 74.4065 1 69.123 1C63.8396 1 59.2606 4.55292 57.7904 9.42288C54.5591 5.4871 49.0306 3.95569 44.0994 6.00781C39.2295 8.0293 36.4269 12.9452 36.8557 17.9376C32.3993 15.6405 26.7942 16.3603 23.0729 20.097C19.2902 23.8796 18.6011 29.5765 21.0054 34.0636C15.9517 33.5582 10.9439 36.3914 8.90711 41.3379C6.90093 46.2232 8.38642 51.6598 12.215 54.8911C7.45225 56.4225 3.99121 60.879 3.99121 66.1625C3.99121 71.4459 7.54413 76.0249 12.4141 77.495C8.47831 80.7264 6.94687 86.2548 8.99899 91.1861C11.0205 96.056 15.9364 98.8585 20.9288 98.4297C18.6317 102.886 19.3515 108.491 23.0882 112.213C26.8249 115.934 32.5677 116.684 37.0548 114.28C36.5495 119.334 39.3826 124.342 44.3291 126.378C49.2144 128.385 54.651 126.899 57.8823 123.07C59.4137 127.833 63.8702 131.294 69.1536 131.294C74.4371 131.294 79.0161 127.741 80.4862 122.871C83.7176 126.807 89.246 128.339 94.1772 126.286C99.0472 124.265 101.85 119.349 101.421 114.357C105.877 116.654 111.482 115.934 115.204 112.197C118.986 108.415 119.676 102.718 117.271 98.2307C122.325 98.736 127.333 95.9029 129.37 90.9563C131.376 86.0711 129.89 80.6345 126.062 77.4032C130.824 75.8717 134.285 71.4152 134.285 66.1318Z" stroke="#FBC02D" stroke-width="1.02" stroke-miterlimit="10"/>
<path d="M69.1537 111.631C94.2821 111.631 114.653 91.2602 114.653 66.1319C114.653 41.0036 94.2821 20.6331 69.1537 20.6331C44.0254 20.6331 23.6549 41.0036 23.6549 66.1319C23.6549 91.2602 44.0254 111.631 69.1537 111.631Z" fill="#FFF59D"/>
<path d="M69.1537 109.272C92.9795 109.272 112.294 89.9577 112.294 66.1319C112.294 42.3061 92.9795 22.9915 69.1537 22.9915C45.3279 22.9915 26.0133 42.3061 26.0133 66.1319C26.0133 89.9577 45.3279 109.272 69.1537 109.272Z" fill="#FBC02D"/>
<path d="M69.1537 105.765C91.0427 105.765 108.787 88.0208 108.787 66.1319C108.787 44.2429 91.0427 26.4984 69.1537 26.4984C47.2648 26.4984 29.5203 44.2429 29.5203 66.1319C29.5203 88.0208 47.2648 105.765 69.1537 105.765Z" fill="#FFF59D"/>
<path d="M69.1537 109.272C92.9795 109.272 112.294 89.9577 112.294 66.1319C112.294 42.3061 92.9795 22.9915 69.1537 22.9915C45.3279 22.9915 26.0133 42.3061 26.0133 66.1319C26.0133 89.9577 45.3279 109.272 69.1537 109.272Z" stroke="#FBC02D" stroke-width="1.02" stroke-miterlimit="10"/>
<path d="M50.2219 54.391L42.2771 67.0354C42.2771 67.0354 45.4178 71.8652 58.5141 79.9195C71.3739 87.8288 76.5529 87.694 76.5529 87.694L87.1188 70.878L50.2223 54.3907L50.2219 54.391Z" fill="#FBC02D"/>
<path d="M76.5527 87.694C79.8432 82.457 74.9262 73.4461 65.5704 67.5676C56.2145 61.6891 45.9626 61.1691 42.6721 66.4061C39.3816 71.6431 44.2985 80.6539 53.6544 86.5324C63.0103 92.4109 73.2622 92.9309 76.5527 87.694Z" fill="#FBC02D"/>
<path d="M55.5902 83.4259C47.4444 78.3074 43.0507 69.4077 44.1224 64.0989C44.1224 64.0989 43.0982 65.7292 42.6726 66.4064C39.382 71.6435 44.2991 80.6541 53.655 86.5328C63.0109 92.4111 73.2625 92.9313 76.5532 87.6943C76.9787 87.0171 77.8498 85.6307 77.8498 85.6307C73.5318 88.8998 63.7366 88.5443 55.5905 83.4259H55.5902Z" fill="#F57F17"/>
<path opacity="0.2" d="M47.0475 59.4433C47.0475 59.4433 47.8697 83.5291 69.2163 91.2891C69.2163 91.2891 73.3658 91.2817 75.6579 88.8164L76.2752 88.1357L82.5858 78.0924L48.6303 56.9239L47.0475 59.4433Z" fill="black"/>
<path d="M44.3411 44L42.9983 46.1372L57.7848 79.9329L95.6831 79.2402L97.0259 77.103L44.3411 44Z" fill="#FBC02D"/>
<path opacity="0.4" d="M44.3411 44L42.9983 46.1372L57.7848 79.9329L95.6831 79.2402L97.0259 77.103L44.3411 44Z" fill="black"/>
<path d="M44.3411 44C44.226 44.472 59.267 77.7105 59.267 77.7105L97.0256 77.103L80.9822 44.1609L44.3411 44Z" fill="#FBC02D"/>
<path opacity="0.4" d="M74.0407 61.5256C73.3287 62.659 71.2499 62.6347 69.3982 61.471C67.5464 60.3074 66.6225 58.4455 67.3345 57.3121C68.0466 56.1787 70.1254 56.203 71.9771 57.3667C73.8289 58.5303 74.7528 60.3919 74.0407 61.5256Z" fill="black"/>
<path d="M70.6077 59.9199C70.7034 59.935 70.7974 59.9614 70.891 59.985C70.9389 59.997 70.9861 60.0121 71.0336 60.0255C70.8185 59.9646 71.0501 60.0318 71.1096 60.0519C71.2613 60.1026 71.4109 60.1585 71.5594 60.218C71.9843 60.3887 72.3964 60.5904 72.7966 60.8125C73.3422 61.1152 73.7297 61.3679 74.2834 61.7751C77.9267 64.4544 80.5549 68.4064 82.5949 72.3788C84.6582 76.3962 86.202 80.6671 87.4631 84.9975C87.6458 85.6243 88.5915 85.2541 88.4096 84.6296C86.454 77.9139 83.8233 71.0824 79.4704 65.523C77.542 63.0599 75.1556 60.6763 72.2451 59.4049C71.779 59.2011 71.2736 58.9966 70.7675 58.9175C70.1223 58.8164 69.9607 59.8189 70.6073 59.9199H70.6077Z" fill="#F57F17"/>
<path d="M88.2972 89.1987C87.1051 89.0614 86.2498 87.984 86.387 86.7919C86.5243 85.5997 87.6017 84.7444 88.7938 84.8817C89.986 85.019 90.8413 86.0963 90.704 87.2885C90.5667 88.4806 89.4893 89.3359 88.2972 89.1987Z" fill="#F57F17"/>
<path d="M87.3683 88.0283C86.1117 93.1154 86.5517 98.5696 88.5939 103.394C88.848 103.994 89.7962 103.63 89.5403 103.026C87.5612 98.3507 87.1532 93.1161 88.3707 88.1884C88.5273 87.5542 87.5239 87.3976 87.3683 88.0283Z" fill="#F57F17"/>
<path d="M87.8273 87.3923C87.0818 92.9081 88.8604 98.6745 92.6283 102.78C93.0654 103.256 93.8922 102.666 93.4505 102.184C89.8579 98.2701 88.1173 92.824 88.8297 87.5528C88.917 86.9062 87.9149 86.7436 87.8273 87.3926V87.3923Z" fill="#F57F17"/>
<path d="M88.5368 88.0308C90.2474 93.1749 92.4772 99.1993 98.088 101.159C98.7008 101.373 99.1256 100.45 98.509 100.234C93.1544 98.3644 91.1122 92.5603 89.4836 87.6629C89.2774 87.0428 88.3305 87.4109 88.5368 88.0308Z" fill="#F57F17"/>
<path d="M88.1936 88.1061C88.1894 92.8782 90.2013 97.5394 93.5331 100.932C94.4771 101.894 95.5309 102.739 96.672 103.455C96.9061 103.602 97.1947 103.614 97.3865 103.385C97.5453 103.196 97.5481 102.816 97.3161 102.671C93.4549 100.248 90.6339 96.2617 89.6262 91.8127C89.3421 90.5594 89.2017 89.2789 89.2027 87.9938C89.2034 87.3423 88.194 87.4577 88.1936 88.1061Z" fill="#F57F17"/>
<path d="M88.0754 88.563C86.6752 91.1876 86.671 94.3195 87.4981 97.1244C88.3327 99.9547 89.9912 102.465 91.7528 104.798C92.1467 105.32 92.9696 104.725 92.575 104.203C90.9172 102.007 89.3678 99.678 88.5298 97.034C87.6967 94.4058 87.6812 91.4562 89 88.9843C89.3084 88.4067 88.382 87.9892 88.0757 88.5633L88.0754 88.563Z" fill="#F57F17"/>
<path d="M88.5656 88.0318C90.6078 92.4435 93.802 96.2786 97.7945 99.0564C98.3284 99.4278 98.9753 98.645 98.4386 98.2715C94.5887 95.593 91.4832 91.9222 89.5117 87.664C89.2386 87.0741 88.2897 87.4366 88.5653 88.0318H88.5656Z" fill="#F57F17"/>
<path opacity="0.3" d="M88.2972 89.1987C87.1051 89.0614 86.2498 87.984 86.387 86.7919C86.5243 85.5997 87.6017 84.7444 88.7938 84.8817C89.986 85.019 90.8413 86.0963 90.704 87.2885C90.5667 88.4806 89.4893 89.3359 88.2972 89.1987Z" fill="black"/>
<path opacity="0.1" d="M45.8085 44.9218L80.4443 45.3347L86.6426 58.701C86.6426 58.701 50.1793 49.6922 48.7967 48.4912C47.4142 47.2903 45.8085 44.9218 45.8085 44.9218Z" fill="white"/>
<path opacity="0.1" d="M46.7148 61.5252C46.7148 61.5252 42.7483 66.8239 42.6209 68.5996C42.4935 70.3753 42.5456 73.918 44.5065 75.3533C46.4673 76.7887 48.9322 63.9465 48.5264 61.326C48.1206 58.7056 46.7144 61.5252 46.7144 61.5252H46.7148Z" fill="white"/>
</svg>
