<svg width="160" height="161" viewBox="0 0 160 161" fill="none" xmlns="http://www.w3.org/2000/svg">
<path opacity="0.2" d="M76.972 161C92.687 161 146.502 116.855 152.611 98.809C152.957 97.7729 153.237 96.5856 153.453 95.2688C153.799 93.952 153.928 92.5489 153.907 91.1026C155.418 68.264 144.128 22.0903 139.875 16.1756C139.746 16.0029 139.638 15.8518 139.53 15.7439C135.083 11.5993 18.3645 12.29 13.0973 16.5642C7.85181 20.8383 -3.95604 81.7556 1.33267 98.809C6.62138 115.862 61.2354 161 76.972 161Z" fill="#E3E3E3"/>
<path d="M157.252 86.8286C151.165 104.875 97.3497 149.019 81.6131 149.019C65.8765 149.019 11.2624 103.882 5.97373 86.8286C0.685024 69.7752 12.4713 8.83631 17.7384 4.58376C22.984 0.309617 139.724 -0.359577 144.171 3.76346C148.618 7.88649 163.361 68.7822 157.252 86.8286Z" fill="#E3E3E3"/>
<path d="M146.243 85.1664C141.041 100.601 95.0399 138.334 81.5915 138.334C68.143 138.334 21.4513 99.7589 16.9397 85.1664C12.4281 70.5954 22.509 18.5071 26.999 14.8589C31.489 11.2108 132.665 10.4121 136.465 13.9523C140.264 17.4925 151.467 69.7536 146.243 85.1664Z" fill="#F5F5F5"/>
<path d="M158.008 69.4298C154.597 70.3364 152.05 73.9414 152.05 78.2587C152.05 81.95 153.907 85.1232 156.583 86.5264C160.016 81.8852 157.922 75.1502 158.008 69.4082V69.4298Z" fill="#F5F5F5"/>
<path d="M85.585 1.45361C78.9579 1.41044 72.2013 1.43203 65.6606 1.49679C65.6606 1.49679 62.4442 6.11632 77.7922 6.11632C83.7069 6.11632 85.0453 3.0726 85.5634 1.45361H85.585Z" fill="#F5F5F5"/>
<path d="M144.171 3.7635C142.185 1.90705 113.648 1.6696 87.8516 1.45374C87.3983 3.05114 91.7588 6.09486 94.9536 6.20279C112.396 6.85039 138.666 7.9513 140.285 9.74298C142.509 12.2254 145.553 38.3668 148.596 52.139C151.64 65.9112 157.296 64.9398 157.317 64.7887C153.734 40.2664 147.409 6.76404 144.171 3.74192V3.7635Z" fill="#F5F5F5"/>
<path d="M157.252 86.8286C151.165 104.875 97.3497 149.019 81.6131 149.019C65.8765 149.019 11.2624 103.882 5.97373 86.8286C0.685024 69.7752 12.4713 8.83631 17.7384 4.58376C22.984 0.309617 139.724 -0.359577 144.171 3.76346C148.618 7.88649 163.361 68.7822 157.252 86.8286Z" stroke="#E3E3E3" stroke-width="1.02" stroke-miterlimit="10"/>
<path d="M143.221 84.67C138.256 99.3921 94.4139 135.334 81.5914 135.334C68.769 135.334 24.2791 98.5502 19.9618 84.67C15.6445 70.7683 25.2721 21.1408 29.5462 17.6437C33.8204 14.1467 129.859 13.4559 133.486 16.8235C137.112 20.191 148.186 69.948 143.199 84.6485L143.221 84.67Z" fill="#E3E3E3"/>
<path d="M143.221 84.67C138.256 99.3921 94.4139 135.334 81.5915 135.334C68.769 135.334 24.2791 98.5502 19.9618 84.67C15.6445 70.7683 25.2721 21.1408 29.5462 17.6437C33.8204 14.1467 129.859 13.4559 133.486 16.8235C137.112 20.191 148.186 69.948 143.199 84.6485L143.221 84.67Z" stroke="#E3E3E3" stroke-width="1.02" stroke-miterlimit="10"/>
<path d="M138.731 84.0009C134.133 97.6436 93.4857 130.973 81.5915 130.973C69.6973 130.973 28.4454 96.8664 24.4519 84.0009C20.4584 71.1353 29.3736 25.0911 33.3455 21.8747C37.3175 18.6583 126.729 17.946 130.075 21.0544C133.421 24.1629 143.329 70.3582 138.731 84.0009Z" fill="#F5F5F5"/>
<path d="M124.894 30.8546C121.548 27.3576 114.511 28.0268 108.51 29.4515C105.574 28.5233 95.4717 25.6738 82.0232 25.6738C68.5748 25.6738 57.7815 28.7175 55.2127 29.5378C49.1253 28.0484 41.8722 27.2928 38.4615 30.833C34.7486 34.697 35.9575 42.4682 36.6483 45.6198C38.0946 52.2253 41.9154 60.7736 47.938 63.1265C50.0967 63.9684 52.1474 64.2922 54.047 64.2922C54.9752 64.2922 55.8603 64.2058 56.7022 64.0547C59.7459 76.2511 66.2003 87.3251 79.4976 88.5555V111.804C69.8268 112.02 62.3147 113.639 62.3147 115.603C62.3147 117.719 72.6547 117.438 83.34 117.438C94.0254 117.438 101.019 117.719 101.019 115.603C101.019 113.639 93.5073 112.02 83.8365 111.804V88.5987C97.5655 87.6705 104.193 76.5318 107.323 64.1411C107.949 64.2058 108.618 64.2706 109.287 64.2706C111.187 64.2706 113.237 63.9468 115.396 63.1049C121.397 60.752 125.24 52.2037 126.686 45.5982C127.377 42.4466 128.585 34.6754 124.873 30.8114L124.894 30.8546ZM49.8161 58.3991C46.5781 57.1255 43.1242 51.2971 41.6564 44.5621C40.4691 39.1654 41.0951 35.5173 42.1528 34.3948C43.7071 32.7542 48.8879 33.2723 54.2629 34.5891C54.0039 40.0721 53.9391 49.527 55.6228 59.0682C53.8743 59.3057 51.91 59.2194 49.8161 58.3991ZM121.721 44.5405C120.275 51.1892 116.756 57.147 113.561 58.3991C111.726 59.1114 109.999 59.2625 108.424 59.1546C110.151 49.4622 110.043 39.8778 109.784 34.4164C114.9 33.2291 119.692 32.8406 121.203 34.4164C122.282 35.5389 122.887 39.187 121.699 44.5837L121.721 44.5405Z" fill="#E3E3E3"/>
<path d="M124.894 30.8546C121.548 27.3576 114.511 28.0268 108.51 29.4515C105.574 28.5233 95.4717 25.6738 82.0232 25.6738C68.5748 25.6738 57.7815 28.7175 55.2127 29.5378C49.1253 28.0484 41.8722 27.2928 38.4615 30.833C34.7486 34.697 35.9575 42.4682 36.6483 45.6198C38.0946 52.2253 41.9154 60.7736 47.938 63.1265C50.0967 63.9684 52.1474 64.2922 54.047 64.2922C54.9752 64.2922 55.8603 64.2058 56.7022 64.0547C59.7459 76.2512 66.2003 87.3251 79.4976 88.5555V111.804C69.8268 112.02 62.3147 113.639 62.3147 115.603C62.3147 117.719 72.6547 117.438 83.34 117.438C94.0254 117.438 101.019 117.719 101.019 115.603C101.019 113.639 93.5073 112.02 83.8365 111.804V88.5987C97.5655 87.6705 104.193 76.5318 107.323 64.1411C107.949 64.2058 108.618 64.2706 109.287 64.2706C111.187 64.2706 113.237 63.9468 115.396 63.1049C121.397 60.752 125.24 52.2037 126.686 45.5982C127.377 42.4466 128.585 34.6754 124.873 30.8114L124.894 30.8546ZM49.8161 58.3991C46.5781 57.1255 43.1242 51.2971 41.6564 44.5621C40.4691 39.1654 41.0951 35.5173 42.1528 34.3948C43.7071 32.7542 48.8879 33.2723 54.2629 34.5891C54.0039 40.0721 53.9391 49.527 55.6228 59.0682C53.8743 59.3057 51.91 59.2194 49.8161 58.3991ZM121.721 44.5405C120.275 51.1892 116.756 57.1471 113.561 58.3991C111.726 59.1114 109.999 59.2625 108.424 59.1546C110.151 49.4622 110.043 39.8778 109.784 34.4164C114.9 33.2291 119.692 32.8406 121.203 34.4164C122.282 35.5389 122.887 39.187 121.699 44.5837L121.721 44.5405Z" stroke="#E3E3E3" stroke-width="1.02" stroke-miterlimit="10"/>
</svg>
