<svg width="142" height="160" viewBox="0 0 142 160" fill="none" xmlns="http://www.w3.org/2000/svg">
<g opacity="0.2">
<path d="M68.2996 159.995C77.781 160.457 127.088 131.897 133.249 122.498C137.56 115.908 137.725 85.217 136.106 64.9823C136.106 64.9163 136.106 64.8667 136.106 64.8172C135.974 63.1819 135.826 61.6126 135.677 60.126C135.661 59.8948 135.627 59.68 135.611 59.4488C135.545 58.8706 135.479 58.309 135.413 57.7474C135.363 57.384 135.33 57.0206 135.281 56.6737C135.248 56.3764 135.198 56.0956 135.165 55.7983C135.115 55.4184 135.066 55.0715 135.016 54.7081C134.983 54.4768 134.95 54.2456 134.917 54.0308C134.835 53.5353 134.769 53.0728 134.686 52.6268C134.653 52.4616 134.62 52.2964 134.587 52.1312C134.504 51.7183 134.422 51.3053 134.339 50.9419C134.339 50.8759 134.306 50.8098 134.306 50.7437C134.207 50.3143 134.108 49.9343 134.025 49.5709C133.992 49.4718 133.976 49.3727 133.943 49.2736C133.844 48.9267 133.744 48.5964 133.645 48.3156C133.53 47.9852 133.414 47.7044 133.282 47.4897C133.166 47.2584 132.985 47.0106 132.77 46.7463C131.696 45.4084 129.499 43.5418 126.509 41.3614C125.32 40.4859 123.999 39.561 122.595 38.6029C121.174 37.6449 119.671 36.6373 118.069 35.6131C117.276 35.1011 116.45 34.5725 115.624 34.0604C108.967 29.8648 101.27 25.3719 94.0018 21.4241C82.1914 14.9985 71.5042 9.99353 68.3162 10.0101C60.47 10.0431 7.34777 39.2306 3.3669 47.5061C-0.613964 55.7817 -1.05995 114.834 3.3669 122.498C7.79376 130.163 58.8182 159.532 68.3162 159.995H68.2996Z" fill="#424242"/>
</g>
<path d="M6.90181 38.3387C10.8827 30.0631 63.9884 0.875592 71.8511 0.842556C79.7137 0.80952 132.919 31.1698 136.8 38.3387C140.682 45.5076 142.945 103.932 136.8 113.331C130.656 122.73 81.349 151.29 71.8511 150.827C62.3531 150.365 11.3287 120.995 6.90181 113.331C2.47496 105.667 2.92095 46.6143 6.90181 38.3387Z" fill="#FBC02D"/>
<path d="M140.038 61.2656C139.427 51.0904 138.403 42.534 137.164 39.1643C134.537 41.0143 134.339 46.1845 135.066 51.4042C135.776 56.5083 137.098 60.0928 140.038 61.2656Z" fill="#FFF59D"/>
<path d="M101.468 20.8295C133.133 38.5369 136.8 38.3387 136.8 38.3387C132.935 31.1698 79.7136 0.80952 71.851 0.842556C71.851 0.842556 69.7862 3.12207 101.451 20.8295H101.468Z" fill="#FFF59D"/>
<path d="M17.5725 44.4666C20.8926 37.5455 65.3264 13.1317 71.9006 13.0987C78.4748 13.0656 122.991 38.4705 126.229 44.4666C129.466 50.4626 131.382 99.3398 126.229 107.202C121.075 115.065 79.8293 138.95 71.9006 138.57C63.9719 138.19 21.2725 113.611 17.5725 107.202C13.8724 100.793 14.2523 51.3876 17.5725 44.4666Z" fill="#FFEE58"/>
<path d="M72.0492 151.669C71.9666 151.669 71.884 151.669 71.8014 151.669C62.1218 151.207 10.5853 121.441 6.15842 113.76C1.40121 105.501 2.37578 45.7882 6.12539 37.9751C10.1558 29.5839 63.8232 0.0495544 71.8344 0H71.851C80.3248 0 133.678 30.8063 137.527 37.9421C141.623 45.5405 143.771 104.213 137.494 113.793C131.217 123.39 82.2409 151.669 72.0492 151.669ZM7.67809 38.7019C3.6807 47.0271 3.64767 105.98 7.64506 112.901C11.9728 120.417 62.4191 149.522 71.9005 149.968C71.9666 149.968 72.0327 149.968 72.1152 149.968C81.6792 149.968 130.176 121.887 136.09 112.852C142.103 103.668 139.74 45.5405 136.057 38.7185C132.489 32.1112 79.7631 1.6683 71.8675 1.6683C64.4013 1.70133 11.4277 30.9054 7.67809 38.6854V38.7019Z" fill="#FBC02D"/>
<path d="M19.0591 48.2328C22.2306 41.6421 64.5665 18.368 70.8268 18.335C77.0872 18.302 119.506 42.501 122.595 48.2328C125.684 53.9646 127.501 100.513 122.595 108.012C117.689 115.511 78.3921 138.273 70.8268 137.91C63.2615 137.546 22.5774 114.14 19.0591 108.012C15.5407 101.884 15.8876 54.8235 19.0591 48.2328Z" fill="#FFF59D"/>
<path d="M59.4128 38.8505C59.4459 38.6523 59.5615 38.4706 59.6936 38.4045C61.2463 37.5126 63.7406 36.6536 66.4661 35.9103C68.1014 33.6308 69.8192 31.6816 71.2233 30.5254C71.3389 30.4263 71.5371 30.3767 71.7519 30.3767C71.9666 30.3767 72.1648 30.4428 72.2804 30.5419C73.6184 31.6982 75.2537 33.6143 76.8229 35.8607C79.598 36.6536 82.1583 37.5786 83.7275 38.5201C83.8597 38.6027 83.9587 38.7679 83.9918 38.9826C84.0248 39.1809 83.9918 39.3956 83.9257 39.5278C83.0172 41.1796 81.7618 43.2113 80.0935 45.3752C80.1596 48.1007 80.0935 50.661 79.9283 52.7918C79.9283 52.9735 79.7962 53.1552 79.598 53.2708C79.4163 53.3865 79.185 53.4195 79.0033 53.3699C76.8064 52.8083 74.3287 52.1641 71.6527 51.2887C68.9603 52.1311 66.4826 52.7588 64.2857 53.3039C64.2196 53.3204 64.137 53.3204 64.0709 53.3204C63.9388 53.3204 63.8067 53.2708 63.691 53.1882C63.5093 53.0726 63.3772 52.8909 63.3772 52.7092C63.1955 50.5454 63.1459 47.919 63.2285 45.1604C61.6097 43.0296 60.3874 41.0309 59.4954 39.4121C59.4128 39.2635 59.3963 39.0652 59.4294 38.8505H59.4128Z" fill="#FBC02D"/>
<g opacity="0.3">
<path d="M123.206 45.9534C120.117 40.2382 77.6984 16.0392 71.4381 16.0557C65.1777 16.0887 22.8418 39.3462 19.6703 45.9534C16.4988 52.5442 16.1519 99.6208 19.6703 105.732C23.1886 111.844 63.8728 135.25 71.4381 135.63C79.0034 135.994 118.3 113.232 123.206 105.732C128.112 98.2333 126.295 51.6687 123.206 45.9534ZM119.456 103.536C114.914 110.473 78.4748 131.583 71.4711 131.236C64.4674 130.89 26.7566 109.201 23.486 103.536C20.2154 97.8699 20.5457 54.229 23.486 48.1173C26.4262 42.0056 65.6732 20.4329 71.4711 20.4164C77.2689 20.3999 116.599 42.8315 119.456 48.1173C122.314 53.4196 123.999 96.5815 119.456 103.536Z" fill="#FBC02D"/>
</g>
<path d="M71.5866 136.456C71.5866 136.456 71.4545 136.456 71.3884 136.456C63.3111 136.06 22.6269 112.554 18.9269 106.145C15.1277 99.5381 15.9041 51.8173 18.8938 45.5734C22.2801 38.5367 64.7316 15.2297 71.4215 15.2131C78.1939 15.2131 120.844 39.8416 123.933 45.5404C127.22 51.619 128.921 98.514 123.9 106.178C118.878 113.843 79.7301 136.456 71.5701 136.456H71.5866ZM71.4545 16.898C65.508 16.931 23.4198 40.1225 20.4466 46.3002C17.2586 52.924 17.242 99.7859 20.4135 105.286C23.7006 111.002 64.2856 134.408 71.4875 134.755C71.5371 134.755 71.6031 134.755 71.6527 134.755C79.251 134.755 117.804 112.439 122.512 105.237C127.286 97.9359 125.403 51.7512 122.479 46.3167C119.638 41.064 77.7314 16.8649 71.471 16.8649L71.4545 16.898Z" fill="#FBC02D"/>
<path d="M72.1813 108.97C85.911 108.97 97.0411 97.8401 97.0411 84.1105C97.0411 70.3808 85.911 59.2507 72.1813 59.2507C58.4516 59.2507 47.3215 70.3808 47.3215 84.1105C47.3215 97.8401 58.4516 108.97 72.1813 108.97Z" fill="#FBC02D"/>
<path d="M51.319 122.862C60.4205 127.85 68.9438 131.848 71.9336 131.996C74.9234 132.145 83.1824 128.445 92.0857 123.589C90.979 119.228 89.8557 115.693 88.8481 114.52C86.0401 111.217 58.2235 111.217 54.9034 114.52C53.7967 115.627 52.5413 118.831 51.319 122.862Z" fill="#FBC02D"/>
<path d="M103.5 66.502C100.411 66.502 97.4871 67.1958 94.8607 68.4016C97.9662 72.8615 99.7831 78.2794 99.7831 84.1268C99.7831 91.9894 96.4795 99.0757 91.1937 104.114C94.646 106.658 98.8912 108.161 103.5 108.161C111.742 108.161 118.845 103.354 122.215 96.4163C122.793 91.9894 123.057 86.2742 123.074 80.3111C120.183 72.2668 112.519 66.5185 103.483 66.5185L103.5 66.502Z" fill="#FBC02D"/>
<path d="M91.491 113.347C92.5151 114.553 93.6549 117.873 94.7781 122.119C101.138 118.567 107.646 114.537 112.634 110.985C104.97 110.11 92.5977 110.638 90.2687 112.555C90.8138 112.802 91.2432 113.067 91.4745 113.347H91.491Z" fill="#FBC02D"/>
<path d="M40.9786 66.502C44.0675 66.502 46.9912 67.1958 49.6176 68.4016C46.5122 72.8615 44.6952 78.2794 44.6952 84.1268C44.6952 91.9894 47.9988 99.0757 53.2846 104.114C49.8323 106.658 45.5872 108.161 40.9786 108.161C32.7361 108.161 25.2699 103.007 21.9002 96.0529C21.3221 91.626 21.0578 85.9108 21.0413 79.9477C23.9319 71.9034 31.9432 66.502 40.9786 66.502Z" fill="#FBC02D"/>
<path d="M53.0038 113.347C51.9797 114.553 50.8399 117.873 49.7167 122.119C43.3572 118.567 36.8491 114.537 31.8606 110.985C39.525 110.11 51.8971 110.638 54.2261 112.555C53.681 112.802 53.2516 113.067 53.0203 113.347H53.0038Z" fill="#FBC02D"/>
</svg>
