<svg width="125" height="160" viewBox="0 0 125 160" fill="none" xmlns="http://www.w3.org/2000/svg">
<path opacity="0.2" d="M20.8441 110.695C20.2529 135.413 20.4172 159.03 23.0775 159.817C28.7265 161.485 59.977 138.041 59.977 138.041C59.977 138.041 94.9388 162.334 100.325 159.817C102.739 158.684 102.985 137.301 102.526 114.03C102.493 112.189 102.444 110.333 102.411 108.476C113.643 97.9972 120.622 83.3486 120.622 67.1423C120.622 62.7525 120.097 58.4885 119.128 54.3976C118.898 53.4378 118.652 52.4937 118.389 51.5654C118.11 50.6371 117.814 49.7088 117.502 48.7962C117.502 48.7962 117.502 48.7962 117.502 48.7805C117.19 47.8679 116.845 46.971 116.484 46.0899C116.484 46.0899 116.484 46.0742 116.484 46.0584C116.123 45.1773 115.745 44.312 115.335 43.4466V43.3994C114.908 42.5497 114.481 41.7001 114.037 40.8662C114.037 40.8662 114.037 40.8347 114.021 40.819C113.577 39.9851 113.101 39.1669 112.625 38.3644C112.625 38.3644 112.609 38.3329 112.592 38.3172C112.099 37.499 111.59 36.7123 111.065 35.9256C111.065 35.9256 111.065 35.9099 111.048 35.8941C110.523 35.1074 109.965 34.3207 109.39 33.5655C100.292 21.3872 86.3831 12.7648 70.3063 10.2001C69.4852 9.854 68.5163 9.58652 67.4325 9.44491C66.1351 9.27184 64.9363 9.31904 63.9346 9.52359C62.7523 9.46065 61.5864 9.41344 60.3876 9.41344C27.1172 9.41344 0.136353 35.2648 0.136353 67.1423C0.136353 84.5286 8.16657 100.121 20.877 110.71L20.8441 110.695Z" fill="#E3E3E3"/>
<path d="M103.839 151.1C98.4531 153.618 63.4913 129.324 63.4913 129.324C63.4913 129.324 32.2408 152.784 26.5918 151.1C20.9427 149.432 26.5918 45.146 26.5918 45.146H103.839C103.839 45.146 109.226 148.583 103.839 151.1Z" fill="#F5F5F5"/>
<path d="M24.2596 107.28C35.1965 115.447 48.9578 120.308 63.8851 120.308C79.9948 120.308 94.7251 114.644 106.04 105.298C105.481 76.6459 103.839 45.146 103.839 45.146H26.5915C26.5915 45.146 24.8015 78.1249 24.2432 107.28H24.2596Z" fill="#E3E3E3"/>
<path d="M103.839 151.1C98.4531 153.618 63.4913 129.324 63.4913 129.324C63.4913 129.324 32.2408 152.784 26.5918 151.1C20.9427 149.432 26.5918 45.146 26.5918 45.146H103.839C103.839 45.146 109.226 148.583 103.839 151.1Z" stroke="#E3E3E3" stroke-width="1.02" stroke-miterlimit="10"/>
<path d="M63.8853 116.139C97.1612 116.139 124.137 90.2927 124.137 58.4099C124.137 26.5271 97.1612 0.68103 63.8853 0.68103C30.6095 0.68103 3.63416 26.5271 3.63416 58.4099C3.63416 90.2927 30.6095 116.139 63.8853 116.139Z" fill="#E3E3E3" stroke="#E3E3E3" stroke-width="1.02" stroke-miterlimit="10"/>
<path d="M63.8855 107.69C92.291 107.69 115.318 85.6263 115.318 58.41C115.318 31.1936 92.291 9.13037 63.8855 9.13037C35.48 9.13037 12.4528 31.1936 12.4528 58.41C12.4528 85.6263 35.48 107.69 63.8855 107.69Z" fill="#E3E3E3"/>
<path d="M76.2482 3.99916C76.4473 2.61318 74.0815 1.15617 70.9638 0.744851C67.8461 0.333536 65.1572 1.12368 64.9581 2.50966C64.7589 3.89563 67.1248 5.3526 70.2425 5.76392C73.3602 6.17523 76.049 5.38513 76.2482 3.99916Z" fill="#F5F5F5"/>
<path d="M122.658 45.6652C120.868 38.0341 117.502 30.9852 112.888 24.8331C110.884 22.5516 108.716 20.3016 106.434 18.209C103.002 15.0464 99.4217 12.0884 96.0388 9.60235C91.1288 6.62858 85.7424 4.31565 80.0112 2.78943C79.9291 2.85237 79.847 2.88384 79.7649 2.94678C73.1634 8.0132 91.917 12.0254 103.035 22.2369C113.577 31.9292 114.825 50.2753 122.642 45.6652H122.658Z" fill="#F5F5F5"/>
<path d="M63.8853 116.139C97.1612 116.139 124.137 90.2927 124.137 58.4099C124.137 26.5271 97.1612 0.68103 63.8853 0.68103C30.6095 0.68103 3.63416 26.5271 3.63416 58.4099C3.63416 90.2927 30.6095 116.139 63.8853 116.139Z" stroke="#E3E3E3" stroke-width="1.02" stroke-miterlimit="10"/>
<path d="M63.8854 104.606C90.5133 104.606 112.099 83.9231 112.099 58.4099C112.099 32.8968 90.5133 12.2142 63.8854 12.2142C37.2574 12.2142 15.6713 32.8968 15.6713 58.4099C15.6713 83.9231 37.2574 104.606 63.8854 104.606Z" fill="#F5F5F5"/>
<path d="M60.1024 17.3475C63.2495 17.3438 65.7993 16.2066 65.7975 14.8076C65.7957 13.4085 63.243 12.2774 60.0959 12.281C56.9488 12.2847 54.399 13.4219 54.4008 14.8209C54.4026 16.22 56.9553 17.3512 60.1024 17.3475Z" fill="#F5F5F5"/>
<path d="M112.099 55.2001C112.099 58.4256 108.749 57.7176 107.862 56.9466C104.512 54.0515 102.082 39.277 93.2964 31.2054C82.1789 20.9939 61.7832 19.2946 70.3882 11.9781C70.3882 11.9781 86.8919 16.069 98.0094 26.2806C109.127 36.4921 112.116 54.256 112.116 55.1843L112.099 55.2001Z" fill="#F5F5F5"/>
<path opacity="0.3" d="M63.8854 12.2142C37.2494 12.2142 15.6713 32.9047 15.6713 58.4099C15.6713 83.9151 37.2658 104.606 63.8854 104.606C90.5049 104.606 112.099 83.9151 112.099 58.4099C112.099 32.9047 90.5049 12.2142 63.8854 12.2142ZM63.8854 102.45C38.4974 102.45 17.921 82.7351 17.921 58.4099C17.921 34.0848 38.4974 14.3698 63.8854 14.3698C89.2733 14.3698 109.85 34.0848 109.85 58.4099C109.85 82.7351 89.2733 102.45 63.8854 102.45Z" fill="#E3E3E3"/>
<path d="M63.8854 104.606C90.5133 104.606 112.099 83.9231 112.099 58.4099C112.099 32.8968 90.5133 12.2142 63.8854 12.2142C37.2574 12.2142 15.6713 32.8968 15.6713 58.4099C15.6713 83.9231 37.2574 104.606 63.8854 104.606Z" stroke="#E3E3E3" stroke-width="1.02" stroke-miterlimit="10"/>
<path d="M21.287 52.9501C21.3527 52.6355 21.5169 52.3837 21.7139 52.2736C24.1608 50.9362 28.0691 49.6302 32.3388 48.5288C34.917 45.083 37.6102 42.1565 39.8107 40.41C39.9913 40.2683 40.3197 40.174 40.6481 40.174C40.993 40.174 41.305 40.2683 41.4857 40.41C43.5876 42.1407 46.1494 45.0201 48.6291 48.4029C52.9973 49.583 57.0042 50.9991 59.4838 52.3995C59.6973 52.5253 59.8451 52.7771 59.9108 53.076C59.9765 53.375 59.9272 53.6896 59.8123 53.9099C58.3672 56.3959 56.413 59.4484 53.8019 62.7211C53.9005 66.812 53.8019 70.6826 53.5392 73.8924C53.5228 74.1599 53.3257 74.4274 53.0301 74.6005C52.7345 74.7735 52.3733 74.8365 52.0777 74.7578C48.6291 73.9081 44.7372 72.9484 40.5168 71.6424C36.28 72.9169 32.3881 73.8452 28.9231 74.6634C28.8081 74.6948 28.6931 74.6949 28.5782 74.6949C28.3811 74.6949 28.1677 74.6162 27.987 74.506C27.6914 74.333 27.5108 74.0655 27.478 73.7823C27.1988 70.5253 27.1167 66.576 27.248 62.4064C24.7027 59.1809 22.7814 56.1914 21.3855 53.7526C21.2541 53.5323 21.2213 53.2176 21.287 52.9187V52.9501Z" fill="#E3E3E3"/>
<path d="M58.712 52.0061C56.2159 50.7316 52.5703 49.4886 48.6291 48.4187C46.1659 45.0358 43.6041 42.1565 41.5021 40.4257C41.3215 40.2684 41.0095 40.1897 40.6646 40.1897C40.3197 40.1897 40.0077 40.2684 39.8271 40.4257C38.5626 41.4327 37.134 42.833 35.656 44.4851C35.6888 44.5323 37.1175 45.7124 39.1045 43.2893C41.1244 40.8348 46.4451 49.7561 47.4468 50.1337C48.4485 50.5114 59.9437 54.4134 59.9437 53.4222C59.9437 52.8715 58.7285 52.0376 58.7285 52.0218L58.712 52.0061Z" fill="#F5F5F5"/>
<path d="M21.287 52.9501C21.3527 52.6355 21.5169 52.3837 21.7139 52.2736C24.1608 50.9362 28.0691 49.6302 32.3388 48.5288C34.917 45.083 37.6102 42.1565 39.8107 40.41C39.9913 40.2683 40.3197 40.174 40.6481 40.174C40.993 40.174 41.305 40.2683 41.4857 40.41C43.5876 42.1407 46.1494 45.0201 48.6291 48.4029C52.9973 49.583 57.0042 50.9991 59.4838 52.3995C59.6973 52.5253 59.8451 52.7771 59.9108 53.076C59.9765 53.375 59.9272 53.6896 59.8123 53.9099C58.3672 56.3959 56.413 59.4484 53.8019 62.7211C53.9005 66.812 53.8019 70.6826 53.5392 73.8924C53.5228 74.1599 53.3257 74.4274 53.0301 74.6005C52.7345 74.7735 52.3733 74.8365 52.0777 74.7578C48.6291 73.9081 44.7372 72.9484 40.5168 71.6424C36.28 72.9169 32.3881 73.8452 28.9231 74.6634C28.8081 74.6948 28.6931 74.6949 28.5782 74.6949C28.3811 74.6949 28.1677 74.6162 27.987 74.506C27.6914 74.333 27.5108 74.0655 27.478 73.7823C27.1988 70.5253 27.1167 66.576 27.248 62.4064C24.7027 59.1809 22.7814 56.1914 21.3855 53.7526C21.2541 53.5323 21.2213 53.2176 21.287 52.9187V52.9501Z" stroke="#E3E3E3" stroke-width="1.02" stroke-miterlimit="10"/>
<path d="M66.2169 53.8626C66.2826 53.5479 66.4468 53.2962 66.6439 53.1861C69.0907 51.8486 72.9991 50.5427 77.2687 49.4413C79.847 45.9955 82.5401 43.0689 84.7406 41.3224C84.9212 41.1808 85.2497 41.0864 85.5781 41.0864C85.923 41.0864 86.235 41.1808 86.4156 41.3224C88.5176 43.0532 91.0794 45.9326 93.559 49.3154C97.9272 50.4955 101.934 51.9116 104.414 53.3119C104.627 53.4378 104.775 53.6895 104.841 53.9885C104.906 54.2874 104.857 54.6021 104.742 54.8224C103.297 57.3084 101.343 60.3609 98.7319 63.6336C98.8304 67.7245 98.7319 71.5951 98.4692 74.8049C98.4528 75.0724 98.2556 75.3398 97.9601 75.5129C97.6645 75.686 97.3032 75.7489 97.0076 75.6703C93.5591 74.8206 89.6671 73.8608 85.4467 72.5549C81.2099 73.8294 77.318 74.7577 73.853 75.5759C73.7381 75.6073 73.6231 75.6073 73.5082 75.6073C73.3111 75.6073 73.0976 75.5286 72.917 75.4185C72.6214 75.2454 72.4407 74.978 72.4079 74.6947C72.1287 71.4378 72.0466 67.4884 72.178 63.3189C69.6326 60.0934 67.7113 57.1039 66.3155 54.6651C66.1841 54.4448 66.1512 54.1301 66.2169 53.8311V53.8626Z" fill="#E3E3E3"/>
<path d="M103.642 52.9343C101.146 51.6599 97.5004 50.4169 93.5592 49.3469C91.0959 45.9641 88.5342 43.0847 86.4322 41.3539C86.2515 41.1966 85.9395 41.1179 85.5947 41.1179C85.2498 41.1179 84.9378 41.1966 84.7572 41.3539C83.4927 42.3609 82.064 43.7613 80.5861 45.4134C80.6189 45.4606 82.0476 46.6406 84.0346 44.2176C86.0545 41.763 91.3751 50.6843 92.3768 51.062C93.3786 51.4396 104.874 55.3417 104.874 54.3504C104.874 53.7997 103.659 52.9658 103.659 52.9501L103.642 52.9343Z" fill="#F5F5F5"/>
<path d="M66.2169 53.8626C66.2826 53.5479 66.4468 53.2962 66.6439 53.1861C69.0907 51.8486 72.9991 50.5427 77.2687 49.4413C79.847 45.9955 82.5401 43.0689 84.7406 41.3224C84.9212 41.1808 85.2497 41.0864 85.5781 41.0864C85.923 41.0864 86.235 41.1808 86.4156 41.3224C88.5176 43.0532 91.0794 45.9326 93.559 49.3154C97.9272 50.4955 101.934 51.9116 104.414 53.3119C104.627 53.4378 104.775 53.6895 104.841 53.9885C104.906 54.2874 104.857 54.6021 104.742 54.8224C103.297 57.3084 101.343 60.3609 98.7319 63.6336C98.8304 67.7245 98.7319 71.5951 98.4692 74.8049C98.4528 75.0724 98.2556 75.3398 97.9601 75.5129C97.6645 75.686 97.3032 75.7489 97.0076 75.6703C93.5591 74.8206 89.6671 73.8608 85.4467 72.5549C81.2099 73.8294 77.318 74.7577 73.853 75.5759C73.7381 75.6073 73.6231 75.6073 73.5082 75.6073C73.3111 75.6073 73.0976 75.5286 72.917 75.4185C72.6214 75.2454 72.4407 74.978 72.4079 74.6947C72.1287 71.4378 72.0466 67.4884 72.178 63.3189C69.6326 60.0934 67.7113 57.1039 66.3155 54.6651C66.1841 54.4448 66.1512 54.1301 66.2169 53.8311V53.8626Z" stroke="#E3E3E3" stroke-width="1.02" stroke-miterlimit="10"/>
</svg>
