<svg width="191" height="161" viewBox="0 0 191 161" fill="none" xmlns="http://www.w3.org/2000/svg">
<path opacity="0.2" d="M2.69943 85.4866C4.4912 88.293 9.04618 91.6822 13.5364 94.5534C13.8818 94.7692 14.2272 94.9851 14.5726 95.201C14.8532 95.3737 15.1339 95.5463 15.4145 95.7191C15.7383 95.9133 16.0621 96.1292 16.3859 96.3235C16.6234 96.453 16.8393 96.6041 17.0552 96.7337C17.2926 96.8848 17.5301 97.0143 17.7676 97.1438C17.8971 97.7267 18.0266 98.288 18.1993 98.8061C23.4883 115.86 78.1047 161 93.8421 161C109.579 161 163.376 116.853 169.485 98.8061C169.701 98.1585 169.895 97.4461 170.046 96.6905C175.4 93.5172 182.092 89.0485 184.337 85.5081C185.632 83.4789 185.719 75.4052 185.006 65.4318L186.345 64.6546C185.309 56.1491 183.171 43.8658 181.509 35.7273L181.185 35.9C179.027 24.5665 176.285 15.6077 173.479 14.9385C171.708 14.5067 167.758 15.8667 162.879 18.0902C162.879 18.0902 162.836 18.0903 162.814 18.1118C161.541 18.6947 160.224 19.3207 158.842 20.0115C158.777 20.0331 158.713 20.0763 158.648 20.0979H158.626C157.914 18.263 157.288 16.9245 156.77 16.1905C156.64 16.0178 156.532 15.8667 156.424 15.7588C151.977 11.614 35.2535 12.3048 29.9861 16.5791C29.4032 17.054 28.7556 18.2414 28.0432 19.9252C27.8705 19.8388 27.7194 19.7741 27.5467 19.6877C27.374 19.6014 27.2229 19.5366 27.0502 19.4503C26.64 19.256 26.2083 19.0401 25.7981 18.8458C25.6254 18.7595 25.4743 18.6947 25.3016 18.6083C24.7619 18.3493 24.2222 18.1118 23.7041 17.8744C19.0412 15.7804 15.285 14.5499 13.5796 14.9385C10.7732 15.6077 8.03156 24.5665 5.8728 35.9L5.549 35.7273C3.86517 43.8874 1.74958 56.1707 0.713379 64.6546L2.0518 65.4318C1.33941 75.4052 1.42579 83.4789 2.72104 85.5081L2.69943 85.4866Z" fill="#E3E3E3"/>
<path d="M18.221 2.93598C25.0642 1.29532 64.5695 26.0994 64.5695 26.0994L28.95 88.7897C28.95 88.7897 11.313 79.7661 7.36245 73.5273C3.41193 67.2885 10.6437 4.74933 18.2426 2.93598H18.221Z" fill="#E3E3E3"/>
<path d="M5.33313 52.6738L38.5996 71.7572L52.2213 46.5213L10.1903 23.7249C8.5065 31.8849 6.39094 44.1683 5.35474 52.6522L5.33313 52.6738Z" fill="#F5F5F5"/>
<path opacity="0.5" d="M64.5478 26.0995C64.5478 26.0995 42.3342 12.1539 28.3239 5.87195C22.8838 20.8753 15.4145 62.9063 17.5949 82.2271C23.2292 85.8754 28.9067 88.7897 28.9067 88.7897L64.5262 26.0995H64.5478Z" fill="#F5F5F5"/>
<path d="M18.221 2.93598C25.0642 1.29532 64.5695 26.0994 64.5695 26.0994L28.95 88.7897C28.95 88.7897 11.313 79.7661 7.36245 73.5273C3.41193 67.2885 10.6437 4.74933 18.2426 2.93598H18.221Z" stroke="#E3E3E3" stroke-width="1.02" stroke-miterlimit="10"/>
<path d="M178.12 2.93598C171.277 1.29532 131.771 26.0994 131.771 26.0994L167.391 88.7897C167.391 88.7897 185.028 79.7661 188.978 73.5273C192.929 67.2885 185.697 4.74933 178.098 2.93598H178.12Z" fill="#E3E3E3"/>
<path d="M190.986 52.6738L157.72 71.7572L144.098 46.5213L186.129 23.7249C187.813 31.8849 189.928 44.1683 190.965 52.6522L190.986 52.6738Z" fill="#F5F5F5"/>
<path opacity="0.5" d="M131.771 26.0995L167.391 88.7897C167.391 88.7897 173.63 85.5948 179.523 81.6874C181.725 62.0643 173.025 21.8683 167.499 6.10938C153.489 12.4777 131.771 26.121 131.771 26.121V26.0995Z" fill="#F5F5F5"/>
<path d="M178.12 2.93598C171.277 1.29532 131.771 26.0994 131.771 26.0994L167.391 88.7897C167.391 88.7897 185.028 79.7661 188.978 73.5273C192.929 67.2885 185.697 4.74933 178.098 2.93598H178.12Z" stroke="#E3E3E3" stroke-width="1.02" stroke-miterlimit="10"/>
<path d="M174.126 86.8251C168.039 104.872 114.221 149.019 98.4835 149.019C82.7462 149.019 28.1297 103.879 22.8407 86.8251C17.5518 69.771 29.3386 8.82935 34.6059 4.5766C39.8733 0.323856 156.597 -0.366956 161.044 3.75627C165.491 7.87949 180.236 68.778 174.126 86.8251Z" fill="#E3E3E3"/>
<path d="M162.728 85.0982C157.547 100.447 111.825 137.944 98.4619 137.944C85.0993 137.944 38.686 99.5835 34.1958 85.0982C29.7056 70.613 39.7222 18.8244 44.1908 15.1977C48.6595 11.571 149.236 10.7723 153.014 14.291C156.792 17.8098 167.931 69.7495 162.75 85.0982H162.728Z" fill="#F5F5F5"/>
<path d="M174.882 69.4255C171.471 70.3322 168.924 73.9373 168.924 78.2548C168.924 81.9463 170.78 85.1197 173.457 86.5228C176.89 81.8815 174.796 75.1462 174.882 69.4039V69.4255Z" fill="#F5F5F5"/>
<path d="M102.456 1.44642C95.8282 1.40324 89.0714 1.42481 82.5303 1.48957C82.5303 1.48957 79.3138 6.10931 94.6625 6.10931C100.578 6.10931 101.916 3.06549 102.434 1.44642H102.456Z" fill="#F5F5F5"/>
<path d="M161.044 3.75626C159.058 1.89973 130.519 1.66229 104.722 1.44641C104.269 3.04389 108.63 6.08773 111.825 6.19567C129.267 6.84329 155.539 7.94426 157.159 9.73602C159.382 12.2186 162.426 38.3611 165.47 52.134C168.514 65.9068 174.17 64.9354 174.191 64.7843C170.608 40.2608 164.282 6.75694 161.044 3.73469V3.75626Z" fill="#F5F5F5"/>
<path d="M174.126 86.8251C168.039 104.872 114.221 149.019 98.4835 149.019C82.7462 149.019 28.1297 103.879 22.8407 86.8251C17.5518 69.771 29.3386 8.82935 34.6059 4.5766C39.8733 0.323856 156.597 -0.366956 161.044 3.75627C165.491 7.87949 180.236 68.778 174.126 86.8251Z" stroke="#E3E3E3" stroke-width="1.02" stroke-miterlimit="10"/>
<path d="M160.116 84.688C155.151 99.4107 111.306 135.354 98.4835 135.354C85.6605 135.354 41.1685 98.5688 36.851 84.688C32.5335 70.7856 42.1616 21.1558 46.4359 17.6587C50.7102 14.1615 146.753 13.4707 150.38 16.8383C154.007 20.206 165.081 69.9653 160.094 84.6664L160.116 84.688Z" fill="#E3E3E3"/>
<path d="M160.116 84.6663C155.151 99.389 111.306 135.332 98.4835 135.332C85.6605 135.332 41.1685 98.5471 36.851 84.6663C32.5335 70.7639 42.1616 21.1342 46.4359 17.637C50.7102 14.1614 146.753 13.449 150.38 16.8167C154.007 20.1843 165.081 69.9436 160.094 84.6447L160.116 84.6663Z" stroke="#E3E3E3" stroke-width="1.02" stroke-miterlimit="10"/>
<path d="M155.604 83.9756C151.006 97.619 110.357 130.95 98.462 130.95C86.5672 130.95 45.3134 96.8418 41.3197 83.9756C37.326 71.0879 46.2417 25.0632 50.2138 21.8467C54.1859 18.6301 143.602 17.9177 146.948 21.0263C150.294 24.1349 160.202 70.3323 155.604 83.9756Z" fill="#F5F5F5"/>
<path d="M141.378 34.2812C138.032 30.784 130.994 31.4533 124.993 32.878C122.057 31.9498 111.954 29.1002 98.5049 29.1002C85.0559 29.1002 74.2621 32.144 71.6932 32.9644C65.6055 31.4748 58.3521 30.7193 54.9413 34.2596C51.2282 38.1238 52.4371 45.8953 53.1279 49.0471C54.5743 55.6529 58.3953 64.2016 64.4182 66.5546C66.5769 67.3965 68.6278 67.7203 70.5275 67.7203C71.4557 67.7203 72.3408 67.634 73.1828 67.4829C76.2266 79.6798 82.6813 90.7542 95.9792 91.9847V115.235C86.308 115.45 78.7955 117.069 78.7955 119.034C78.7955 121.15 89.136 120.869 99.8218 120.869C110.508 120.869 117.502 121.15 117.502 119.034C117.502 117.069 109.99 115.45 100.318 115.235V92.0279C114.048 91.0997 120.675 79.9605 123.806 67.5692C124.432 67.634 125.101 67.6987 125.77 67.6987C127.67 67.6987 129.721 67.3749 131.879 66.533C137.881 64.18 141.723 55.6313 143.17 49.0255C143.86 45.8737 145.069 38.1022 141.356 34.238L141.378 34.2812ZM66.2963 61.827C63.0582 60.5533 59.6042 54.7246 58.1362 47.9893C56.9489 42.5924 57.575 38.9441 58.6327 37.8216C60.187 36.1809 65.3681 36.699 70.7434 38.0159C70.4843 43.4991 70.4196 52.9545 72.1034 62.4962C70.3548 62.7336 68.3903 62.6473 66.2963 61.827ZM138.204 47.9677C136.758 54.6167 133.239 60.5749 130.044 61.827C128.209 62.5393 126.482 62.6904 124.907 62.5825C126.634 52.8897 126.526 43.3048 126.267 37.8432C131.383 36.6559 136.175 36.2673 137.686 37.8432C138.766 38.9657 139.37 42.614 138.183 48.0109L138.204 47.9677Z" fill="#E3E3E3"/>
<path d="M141.378 34.2812C138.032 30.784 130.994 31.4533 124.993 32.878C122.057 31.9498 111.954 29.1002 98.5049 29.1002C85.0559 29.1002 74.2621 32.144 71.6932 32.9644C65.6055 31.4748 58.3521 30.7193 54.9413 34.2596C51.2282 38.1238 52.4371 45.8953 53.1279 49.0471C54.5743 55.6529 58.3953 64.2016 64.4182 66.5546C66.5769 67.3965 68.6278 67.7203 70.5275 67.7203C71.4557 67.7203 72.3408 67.634 73.1828 67.4829C76.2266 79.6798 82.6813 90.7542 95.9792 91.9847V115.235C86.308 115.45 78.7955 117.069 78.7955 119.034C78.7955 121.15 89.136 120.869 99.8218 120.869C110.508 120.869 117.502 121.15 117.502 119.034C117.502 117.069 109.99 115.45 100.318 115.235V92.0279C114.048 91.0997 120.675 79.9605 123.806 67.5692C124.432 67.634 125.101 67.6987 125.77 67.6987C127.67 67.6987 129.721 67.3749 131.879 66.533C137.881 64.18 141.723 55.6313 143.17 49.0255C143.86 45.8737 145.069 38.1022 141.356 34.238L141.378 34.2812ZM66.2963 61.827C63.0582 60.5533 59.6042 54.7246 58.1362 47.9893C56.9489 42.5924 57.575 38.9441 58.6327 37.8216C60.187 36.1809 65.3681 36.699 70.7434 38.0159C70.4843 43.4991 70.4196 52.9545 72.1034 62.4962C70.3548 62.7336 68.3903 62.6473 66.2963 61.827ZM138.204 47.9677C136.758 54.6167 133.239 60.5749 130.044 61.827C128.209 62.5393 126.482 62.6904 124.907 62.5825C126.634 52.8897 126.526 43.3048 126.267 37.8432C131.383 36.6559 136.175 36.2673 137.686 37.8432C138.766 38.9657 139.37 42.614 138.183 48.0109L138.204 47.9677Z" stroke="#E3E3E3" stroke-width="1.02" stroke-miterlimit="10"/>
</svg>
