<svg width="191" height="161" viewBox="0 0 191 161" fill="none" xmlns="http://www.w3.org/2000/svg">
<path opacity="0.2" d="M1.98605 85.4866C3.77782 88.293 8.3328 91.6822 12.823 94.5534C13.1684 94.7692 13.5138 94.9851 13.8592 95.201C14.1398 95.3737 14.4205 95.5463 14.7011 95.7191C15.0249 95.9133 15.3487 96.1292 15.6726 96.3235C15.91 96.453 16.1259 96.6041 16.3418 96.7337C16.5793 96.8848 16.8167 97.0143 17.0542 97.1438C17.1837 97.7267 17.3132 98.288 17.4859 98.8061C22.7749 115.86 77.3914 161 93.1287 161C108.866 161 162.662 116.853 168.771 98.8061C168.987 98.1585 169.182 97.4461 169.333 96.6905C174.686 93.5172 181.379 89.0485 183.624 85.5081C184.919 83.4789 185.005 75.4052 184.293 65.4318L185.631 64.6546C184.595 56.1491 182.458 43.8658 180.796 35.7273L180.472 35.9C178.313 24.5665 175.572 15.6077 172.765 14.9385C170.995 14.5067 167.044 15.8667 162.166 18.0902C162.166 18.0902 162.123 18.0903 162.101 18.1118C160.827 18.6947 159.51 19.3207 158.129 20.0115C158.064 20.0331 157.999 20.0763 157.934 20.0979H157.913C157.201 18.263 156.574 16.9245 156.056 16.1905C155.927 16.0178 155.819 15.8667 155.711 15.7588C151.264 11.614 34.5401 12.3048 29.2727 16.5791C28.6898 17.054 28.0422 18.2414 27.3298 19.9252C27.1571 19.8388 27.006 19.7741 26.8333 19.6877C26.6606 19.6014 26.5095 19.5366 26.3368 19.4503C25.9266 19.256 25.4949 19.0401 25.0847 18.8458C24.912 18.7595 24.7609 18.6947 24.5882 18.6083C24.0485 18.3493 23.5089 18.1118 22.9908 17.8744C18.3279 15.7804 14.5716 14.5499 12.8662 14.9385C10.0598 15.6077 7.31818 24.5665 5.15942 35.9L4.83562 35.7273C3.15179 43.8874 1.0362 56.1707 0 64.6546L1.33842 65.4318C0.626028 75.4052 0.712406 83.4789 2.00766 85.5081L1.98605 85.4866Z" fill="#616161"/>
<path d="M17.5076 2.93598C24.3509 1.29532 63.8561 26.0994 63.8561 26.0994L28.2366 88.7897C28.2366 88.7897 10.5996 79.7661 6.64907 73.5273C2.69855 67.2885 9.93037 4.74933 17.5292 2.93598H17.5076Z" fill="#BDBDBD"/>
<path d="M4.61975 52.6738L37.8862 71.7572L51.5079 46.5213L9.47695 23.7249C7.79312 31.8849 5.67756 44.1683 4.64136 52.6522L4.61975 52.6738Z" fill="#EEEEEE"/>
<path opacity="0.5" d="M63.8344 26.0995C63.8344 26.0995 41.6208 12.1539 27.6105 5.87195C22.1705 20.8753 14.7012 62.9063 16.8815 82.2271C22.5159 85.8754 28.1934 88.7897 28.1934 88.7897L63.8128 26.0995H63.8344Z" fill="#BDBDBD"/>
<path d="M17.5076 2.93598C24.3509 1.29532 63.8561 26.0994 63.8561 26.0994L28.2366 88.7897C28.2366 88.7897 10.5996 79.7661 6.64907 73.5273C2.69855 67.2885 9.93037 4.74933 17.5292 2.93598H17.5076Z" stroke="#616161" stroke-width="1.02" stroke-miterlimit="10"/>
<path d="M177.407 2.93598C170.563 1.29532 131.058 26.0994 131.058 26.0994L166.678 88.7897C166.678 88.7897 184.315 79.7661 188.265 73.5273C192.216 67.2885 184.984 4.74933 177.385 2.93598H177.407Z" fill="#BDBDBD"/>
<path d="M190.273 52.6738L157.006 71.7572L143.385 46.5213L185.416 23.7249C187.099 31.8849 189.215 44.1683 190.251 52.6522L190.273 52.6738Z" fill="#EEEEEE"/>
<path opacity="0.5" d="M131.058 26.0995L166.678 88.7897C166.678 88.7897 172.916 85.5948 178.81 81.6874C181.012 62.0643 172.312 21.8683 166.785 6.10938C152.775 12.4777 131.058 26.121 131.058 26.121V26.0995Z" fill="#BDBDBD"/>
<path d="M177.407 2.93598C170.563 1.29532 131.058 26.0994 131.058 26.0994L166.678 88.7897C166.678 88.7897 184.315 79.7661 188.265 73.5273C192.216 67.2885 184.984 4.74933 177.385 2.93598H177.407Z" stroke="#616161" stroke-width="1.02" stroke-miterlimit="10"/>
<path d="M173.413 86.8251C167.325 104.872 113.507 149.019 97.7702 149.019C82.0328 149.019 27.4163 103.879 22.1274 86.8251C16.8384 69.771 28.6252 8.82935 33.8926 4.5766C39.1599 0.323856 155.884 -0.366956 160.331 3.75627C164.778 7.87949 179.522 68.778 173.413 86.8251Z" fill="#616161"/>
<path d="M162.015 85.0982C156.834 100.447 111.111 137.944 97.7486 137.944C84.3859 137.944 37.9726 99.5835 33.4824 85.0982C28.9922 70.613 39.0088 18.8244 43.4775 15.1977C47.9461 11.571 148.522 10.7723 152.3 14.291C156.078 17.8098 167.217 69.7495 162.036 85.0982H162.015Z" fill="#BDBDBD"/>
<path d="M174.169 69.4255C170.758 70.3322 168.21 73.9373 168.21 78.2548C168.21 81.9463 170.067 85.1197 172.744 86.5228C176.176 81.8815 174.082 75.1462 174.169 69.4039V69.4255Z" fill="#BDBDBD"/>
<path d="M101.742 1.44642C95.1149 1.40324 88.358 1.42481 81.8169 1.48957C81.8169 1.48957 78.6004 6.10931 93.9491 6.10931C99.8641 6.10931 101.203 3.06549 101.721 1.44642H101.742Z" fill="#BDBDBD"/>
<path d="M160.331 3.75626C158.345 1.89973 129.806 1.66229 104.009 1.44641C103.556 3.04389 107.916 6.08773 111.111 6.19567C128.554 6.84329 154.826 7.94426 156.445 9.73602C158.669 12.2186 161.712 38.3611 164.756 52.134C167.8 65.9068 173.456 64.9354 173.478 64.7843C169.894 40.2608 163.569 6.75694 160.331 3.73469V3.75626Z" fill="#BDBDBD"/>
<path d="M173.413 86.8251C167.325 104.872 113.507 149.019 97.7702 149.019C82.0328 149.019 27.4163 103.879 22.1274 86.8251C16.8384 69.771 28.6252 8.82935 33.8926 4.5766C39.1599 0.323856 155.884 -0.366956 160.331 3.75627C164.778 7.87949 179.522 68.778 173.413 86.8251Z" stroke="#616161" stroke-width="1.02" stroke-miterlimit="10"/>
<path d="M159.403 84.688C154.437 99.4107 110.593 135.354 97.7701 135.354C84.9471 135.354 40.4551 98.5688 36.1376 84.688C31.8201 70.7856 41.4482 21.1558 45.7225 17.6587C49.9968 14.1615 146.04 13.4707 149.667 16.8383C153.293 20.206 164.368 69.9653 159.381 84.6664L159.403 84.688Z" fill="#616161"/>
<path d="M159.403 84.6663C154.437 99.389 110.593 135.332 97.7701 135.332C84.9471 135.332 40.4551 98.5471 36.1376 84.6663C31.8201 70.7639 41.4482 21.1342 45.7225 17.637C49.9968 14.1614 146.04 13.449 149.667 16.8167C153.293 20.1843 164.368 69.9436 159.381 84.6447L159.403 84.6663Z" stroke="#616161" stroke-width="1.02" stroke-miterlimit="10"/>
<path d="M154.891 83.9756C150.293 97.619 109.643 130.95 97.7486 130.95C85.8538 130.95 44.6 96.8418 40.6063 83.9756C36.6126 71.0879 45.5283 25.0632 49.5004 21.8467C53.4725 18.6301 142.888 17.9177 146.234 21.0263C149.58 24.1349 159.489 70.3323 154.891 83.9756Z" fill="#EEEEEE"/>
<path d="M140.664 34.2812C137.318 30.784 130.281 31.4533 124.279 32.878C121.344 31.9498 111.241 29.1002 97.7916 29.1002C84.3425 29.1002 73.5488 32.144 70.9798 32.9644C64.8921 31.4748 57.6387 30.7193 54.2279 34.2596C50.5148 38.1238 51.7237 45.8953 52.4145 49.0471C53.8609 55.6529 57.6819 64.2016 63.7048 66.5546C65.8636 67.3965 67.9144 67.7203 69.8141 67.7203C70.7424 67.7203 71.6275 67.634 72.4694 67.4829C75.5132 79.6798 81.9679 90.7542 95.2658 91.9847V115.235C85.5946 115.45 78.0821 117.069 78.0821 119.034C78.0821 121.15 88.4226 120.869 99.1084 120.869C109.794 120.869 116.789 121.15 116.789 119.034C116.789 117.069 109.276 115.45 99.6049 115.235V92.0279C113.335 91.0997 119.962 79.9605 123.092 67.5692C123.718 67.634 124.387 67.6987 125.057 67.6987C126.956 67.6987 129.007 67.3749 131.166 66.533C137.167 64.18 141.01 55.6313 142.456 49.0255C143.147 45.8737 144.356 38.1022 140.643 34.238L140.664 34.2812ZM65.5829 61.827C62.3448 60.5533 58.8908 54.7246 57.4229 47.9893C56.2355 42.5924 56.8616 38.9441 57.9194 37.8216C59.4737 36.1809 64.6547 36.699 70.03 38.0159C69.7709 43.4991 69.7062 52.9545 71.39 62.4962C69.6414 62.7336 67.6769 62.6473 65.5829 61.827ZM137.491 47.9677C136.045 54.6167 132.526 60.5749 129.331 61.827C127.496 62.5393 125.769 62.6904 124.193 62.5825C125.92 52.8897 125.812 43.3048 125.553 37.8432C130.669 36.6559 135.462 36.2673 136.973 37.8432C138.052 38.9657 138.657 42.614 137.469 48.0109L137.491 47.9677Z" fill="#616161"/>
<path d="M140.664 34.2812C137.318 30.784 130.281 31.4533 124.279 32.878C121.344 31.9498 111.241 29.1002 97.7916 29.1002C84.3425 29.1002 73.5488 32.144 70.9798 32.9644C64.8921 31.4748 57.6387 30.7193 54.2279 34.2596C50.5148 38.1238 51.7237 45.8953 52.4145 49.0471C53.8609 55.6529 57.6819 64.2016 63.7048 66.5546C65.8636 67.3965 67.9144 67.7203 69.8141 67.7203C70.7424 67.7203 71.6275 67.634 72.4694 67.4829C75.5132 79.6798 81.9679 90.7542 95.2658 91.9847V115.235C85.5946 115.45 78.0821 117.069 78.0821 119.034C78.0821 121.15 88.4226 120.869 99.1084 120.869C109.794 120.869 116.789 121.15 116.789 119.034C116.789 117.069 109.276 115.45 99.6049 115.235V92.0279C113.335 91.0997 119.962 79.9605 123.092 67.5692C123.718 67.634 124.387 67.6987 125.057 67.6987C126.956 67.6987 129.007 67.3749 131.166 66.533C137.167 64.18 141.01 55.6313 142.456 49.0255C143.147 45.8737 144.356 38.1022 140.643 34.238L140.664 34.2812ZM65.5829 61.827C62.3448 60.5533 58.8908 54.7246 57.4229 47.9893C56.2355 42.5924 56.8616 38.9441 57.9194 37.8216C59.4737 36.1809 64.6547 36.699 70.03 38.0159C69.7709 43.4991 69.7062 52.9545 71.39 62.4962C69.6414 62.7336 67.6769 62.6473 65.5829 61.827ZM137.491 47.9677C136.045 54.6167 132.526 60.5749 129.331 61.827C127.496 62.5393 125.769 62.6904 124.193 62.5825C125.92 52.8897 125.812 43.3048 125.553 37.8432C130.669 36.6559 135.462 36.2673 136.973 37.8432C138.052 38.9657 138.657 42.614 137.469 48.0109L137.491 47.9677Z" stroke="#616161" stroke-width="1.02" stroke-miterlimit="10"/>
</svg>
