<svg width="455" height="347" viewBox="0 0 455 347" fill="none" xmlns="http://www.w3.org/2000/svg">
<path d="M333.561 58.5291C327.245 47.0443 318.406 37.6469 307.23 30.0182C270.022 4.49052 219.45 -4.70188 175.975 2.23607C144.919 7.19283 124.216 29.745 110.965 59.1667C95.3344 93.8945 81.1247 128.44 63.2914 162.166C42.8152 200.81 33.6712 241.041 78.1051 274.441C116.557 303.346 164.785 295.847 208.835 294.936C223.443 294.632 238.157 295.148 252.53 298.169C281.092 304.166 308.829 325.496 336.922 305.578C358.272 290.434 370.848 261.825 376.944 235.91C380.574 220.47 383.43 203.429 382.08 187.033C380.61 169.073 372.844 155.547 364.88 140.251C354.83 120.97 347.01 100.456 341.59 79.1608C339.788 71.9314 337.088 64.9925 333.561 58.5291Z" fill="#F5F5F5"/>
<g opacity="0.3">
<path d="M209.034 46.7179H204.736V288.696H209.034V46.7179Z" fill="#757575" stroke="#424242" stroke-linecap="round" stroke-linejoin="round"/>
<path d="M61.9988 83.1536H364.667" stroke="#424242" stroke-linecap="round" stroke-linejoin="round"/>
<path d="M61.9988 124.903H364.667" stroke="#424242" stroke-linecap="round" stroke-linejoin="round"/>
<path d="M61.9988 166.652H364.667" stroke="#424242" stroke-linecap="round" stroke-linejoin="round"/>
<path d="M61.9988 208.401H364.667" stroke="#424242" stroke-linecap="round" stroke-linejoin="round"/>
<path d="M61.9988 250.15H364.667" stroke="#424242" stroke-linecap="round" stroke-linejoin="round"/>
<path d="M165.183 48.9952V288.863" stroke="#424242" stroke-linecap="round" stroke-linejoin="round"/>
<path d="M121.332 48.9952V288.863" stroke="#424242" stroke-linecap="round" stroke-linejoin="round"/>
<path d="M77.4731 48.9952V288.863" stroke="#424242" stroke-linecap="round" stroke-linejoin="round"/>
<path d="M338.009 48.9952V288.863" stroke="#424242" stroke-linecap="round" stroke-linejoin="round"/>
<path d="M294.158 48.9952V288.863" stroke="#424242" stroke-linecap="round" stroke-linejoin="round"/>
<path d="M250.307 48.9952V288.863" stroke="#424242" stroke-linecap="round" stroke-linejoin="round"/>
<path d="M61.9988 288.863H364.667" stroke="#424242" stroke-linecap="round" stroke-linejoin="round"/>
</g>
<path d="M346.286 296.089C346.322 296.089 346.947 293.509 346.997 293.342C347.253 291.383 346.67 287.444 344.809 286.51C344.496 286.358 344.156 286.279 343.812 286.277C343.469 286.276 343.128 286.352 342.814 286.5C342.499 286.648 342.218 286.866 341.987 287.138C341.757 287.411 341.583 287.732 341.476 288.081C340.972 289.554 341.611 291.353 342.357 292.59C343.21 294.017 346.286 296.082 346.286 296.089Z" fill="#757575"/>
<path d="M309.554 295.232C311.039 295.93 314.67 295.839 314.67 295.839C314.67 295.839 313.888 293.296 313.824 293.144C313.028 291.368 310.506 288.423 308.453 288.719C308.114 288.778 307.79 288.913 307.503 289.115C307.215 289.316 306.971 289.581 306.786 289.89C306.601 290.2 306.479 290.547 306.429 290.911C306.378 291.274 306.399 291.644 306.492 291.998C306.833 293.516 308.289 294.64 309.554 295.232Z" fill="#757575"/>
<path d="M310.805 306.474C312.346 306.709 315.586 305.715 315.842 305.631C316.377 307.611 317.034 309.551 317.81 311.438C318.258 312.539 318.741 313.639 319.231 314.732C318.94 314.269 318.67 313.859 318.627 313.799C317.419 312.281 314.258 310.186 312.354 311.051C312.042 311.204 311.763 311.425 311.537 311.7C311.31 311.976 311.14 312.299 311.038 312.649C310.936 313 310.905 313.369 310.945 313.733C310.986 314.097 311.098 314.448 311.274 314.763C311.984 316.129 313.661 316.812 315.025 317.04C316.389 317.268 319.196 316.44 319.906 316.19C320.105 316.607 320.29 317.025 320.489 317.442C321.426 319.439 322.371 321.427 323.245 323.409C323.551 324.107 323.828 324.805 324.112 325.504C323.842 325.094 323.622 324.745 323.579 324.699C322.371 323.181 319.217 321.078 317.313 321.944C317 322.097 316.721 322.318 316.493 322.594C316.266 322.87 316.095 323.194 315.993 323.544C315.89 323.895 315.858 324.265 315.898 324.63C315.938 324.995 316.05 325.347 316.226 325.663C316.936 327.029 318.613 327.705 319.977 327.94C321.341 328.176 323.871 327.432 324.744 327.181C325.014 327.94 325.284 328.631 325.512 329.352C325.654 329.838 325.832 330.301 325.952 330.81L326.336 332.275C326.549 333.223 326.769 334.195 326.954 335.121C327.089 335.766 327.203 336.381 327.324 337.004C327.025 336.305 326.414 334.947 326.35 334.84C325.37 333.17 322.549 330.559 320.545 331.106C320.214 331.206 319.907 331.379 319.643 331.615C319.379 331.85 319.164 332.143 319.013 332.473C318.863 332.804 318.779 333.164 318.767 333.532C318.756 333.899 318.817 334.265 318.947 334.605C319.444 336.07 321.014 337.011 322.336 337.444C323.757 337.915 327.004 337.482 327.409 337.444C327.601 338.469 327.778 339.471 327.935 340.412C328.261 342.393 328.51 344.207 328.702 345.725H330.052C329.824 344.139 329.526 342.272 329.135 340.199C328.943 339.152 328.723 338.044 328.482 336.905C329.453 336.488 330.402 336.015 331.324 335.486C332.382 336.708 335.096 338.142 335.444 338.324C335.075 339.296 334.734 340.237 334.35 341.118C333.64 342.849 332.972 344.389 332.375 345.725H333.832C334.343 344.511 334.897 343.137 335.48 341.626C335.857 340.64 336.247 339.585 336.631 338.491C337.022 338.575 340.183 339.251 341.69 338.909C343.032 338.583 344.667 337.77 345.242 336.351C345.394 336.022 345.479 335.662 345.492 335.296C345.506 334.929 345.447 334.564 345.319 334.223C345.192 333.883 344.999 333.575 344.753 333.319C344.508 333.063 344.214 332.865 343.892 332.738C341.924 332.032 338.919 334.408 337.839 336.002C337.775 336.093 337.178 337.193 336.809 337.892C336.965 337.444 337.121 337.019 337.277 336.556C337.59 335.645 337.881 334.719 338.194 333.732C338.329 333.254 338.464 332.76 338.599 332.275C338.734 331.789 338.848 331.25 338.968 330.756C339.238 329.557 339.452 328.335 339.643 327.09C340.389 327.379 343.061 328.373 344.446 328.274C345.832 328.176 347.544 327.629 348.347 326.316C348.544 326.015 348.68 325.673 348.745 325.312C348.811 324.951 348.805 324.58 348.727 324.222C348.649 323.864 348.502 323.527 348.294 323.234C348.087 322.941 347.824 322.698 347.523 322.521C345.683 321.503 342.386 323.371 341.079 324.798C340.993 324.881 340.162 325.997 339.714 326.612C339.821 325.853 339.935 325.094 340.02 324.335C340.276 322.141 340.475 319.917 340.674 317.693C340.738 317.017 340.809 316.334 340.873 315.658C341.135 315.765 344.29 317.017 345.846 316.903C347.224 316.797 348.951 316.258 349.747 314.953C349.944 314.652 350.08 314.31 350.146 313.95C350.212 313.59 350.207 313.218 350.129 312.86C350.052 312.502 349.906 312.166 349.699 311.872C349.492 311.579 349.23 311.335 348.929 311.157C347.089 310.148 343.793 312.015 342.485 313.434C342.386 313.541 341.185 315.142 340.901 315.567C341.043 314.049 341.206 312.584 341.42 311.127C341.698 309.155 342.097 307.205 342.613 305.289C342.734 305.343 346.016 306.663 347.587 306.542C348.965 306.443 350.691 305.897 351.487 304.591C351.686 304.291 351.823 303.949 351.89 303.589C351.956 303.228 351.951 302.856 351.874 302.498C351.797 302.14 351.649 301.803 351.442 301.51C351.235 301.216 350.972 300.973 350.67 300.796C348.83 299.779 345.533 301.646 344.219 303.073C344.134 303.164 343.224 304.379 342.798 304.971L342.691 304.91C343.261 302.998 343.988 301.143 344.865 299.369C345.334 298.389 345.839 297.471 346.343 296.598C346.933 296.909 349.633 298.314 351.068 298.374C352.503 298.435 354.223 298.101 355.146 296.894C355.374 296.618 355.544 296.294 355.647 295.943C355.75 295.592 355.782 295.222 355.741 294.857C355.701 294.492 355.59 294.14 355.414 293.824C355.238 293.508 355.001 293.235 354.72 293.023C352.993 291.801 349.526 293.273 348.084 294.503C348.006 294.571 347.274 295.346 346.748 295.915C346.983 295.528 347.217 295.118 347.459 294.746C348.326 293.349 349.199 292.135 349.981 291.064C350.429 290.457 350.848 289.918 351.239 289.417C351.949 289.417 354.89 289.311 356.176 288.658C357.462 288.005 358.848 286.867 359.153 285.341C359.235 284.984 359.246 284.613 359.185 284.252C359.125 283.89 358.994 283.547 358.801 283.243C358.608 282.938 358.358 282.681 358.066 282.487C357.774 282.293 357.448 282.166 357.107 282.115C355.047 281.88 352.603 284.893 351.85 286.669C351.786 286.821 351.033 289.387 351.075 289.387H351.168C350.777 289.865 350.365 290.374 349.924 290.905C349.121 291.96 348.219 293.182 347.324 294.541C346.34 296.014 345.439 297.547 344.624 299.133C343.703 300.903 342.933 302.758 342.322 304.675V304.743C342.322 304.098 342.322 302.284 342.286 302.147C342.052 300.188 340.517 296.553 338.478 296.15C338.137 296.091 337.788 296.11 337.453 296.205C337.119 296.3 336.808 296.47 336.539 296.703C336.271 296.936 336.052 297.227 335.896 297.557C335.74 297.887 335.652 298.248 335.636 298.617C335.515 300.135 336.574 301.729 337.604 302.709C338.762 303.817 341.981 304.887 342.237 304.986C341.662 306.953 341.209 308.959 340.88 310.99C340.681 312.174 340.517 313.374 340.368 314.581C340.368 314.019 340.368 313.518 340.368 313.45C340.127 311.491 338.592 307.855 336.56 307.453C336.219 307.395 335.871 307.414 335.538 307.509C335.204 307.605 334.894 307.774 334.626 308.006C334.358 308.238 334.138 308.527 333.982 308.856C333.825 309.184 333.736 309.544 333.718 309.912C333.604 311.468 334.656 313.024 335.686 314.011C336.716 314.998 339.459 315.977 340.183 316.228C340.134 316.691 340.077 317.146 340.02 317.609C339.778 319.826 339.537 322.042 339.238 324.213C339.139 324.972 339.004 325.731 338.883 326.49C338.883 325.997 338.883 325.572 338.883 325.511C338.649 323.553 337.114 319.917 335.075 319.515C334.734 319.455 334.384 319.474 334.05 319.569C333.716 319.664 333.404 319.834 333.136 320.067C332.868 320.3 332.648 320.591 332.493 320.921C332.337 321.251 332.249 321.612 332.233 321.982C332.112 323.5 333.171 325.094 334.194 326.073C335.217 327.052 337.704 327.948 338.563 328.244C338.414 329.003 338.265 329.762 338.087 330.521C337.952 331.022 337.86 331.508 337.697 332.001C337.533 332.495 337.405 332.973 337.263 333.451C336.951 334.362 336.638 335.311 336.311 336.191C336.091 336.806 335.871 337.391 335.643 337.975C335.757 337.216 335.949 335.698 335.949 335.599C335.926 333.863 335.488 332.162 334.677 330.658C334.683 330.465 334.671 330.271 334.642 330.081C334.599 329.717 334.485 329.366 334.307 329.052C334.129 328.738 333.892 328.468 333.609 328.259C333.327 328.05 333.007 327.907 332.669 327.839C332.332 327.771 331.985 327.779 331.65 327.864C329.647 328.434 328.382 332.184 328.283 334.15C328.283 334.271 328.354 335.539 328.411 336.336C328.311 335.873 328.219 335.417 328.105 334.947C327.899 333.998 327.665 333.064 327.395 332.054C327.26 331.569 327.125 331.083 326.982 330.589C326.84 330.096 326.663 329.603 326.499 329.071C326.109 327.91 325.654 326.794 325.171 325.618C325.945 325.413 328.688 324.669 329.782 323.765C330.876 322.862 332.041 321.405 332.027 319.841C332.036 319.474 331.973 319.109 331.841 318.77C331.71 318.431 331.513 318.125 331.264 317.872C331.015 317.62 330.719 317.426 330.395 317.303C330.071 317.181 329.726 317.133 329.384 317.161C327.331 317.404 325.54 320.904 325.171 322.839C325.171 322.961 325.022 324.357 324.972 325.154C324.681 324.471 324.389 323.781 324.069 323.097C323.146 321.116 322.158 319.15 321.185 317.177L320.297 315.362C320.574 315.294 323.849 314.482 325.078 313.472C326.173 312.577 327.338 311.104 327.324 309.548C327.333 309.181 327.269 308.816 327.138 308.477C327.006 308.138 326.81 307.832 326.56 307.579C326.311 307.327 326.015 307.133 325.691 307.01C325.367 306.888 325.023 306.84 324.681 306.868C322.62 307.104 320.837 310.611 320.467 312.539C320.467 312.69 320.261 314.732 320.24 315.249C319.593 313.92 318.961 312.584 318.386 311.241C317.601 309.432 316.927 307.571 316.368 305.669C316.496 305.669 319.92 304.811 321.178 303.771C322.272 302.876 323.43 301.411 323.423 299.847C323.432 299.48 323.369 299.115 323.237 298.776C323.106 298.437 322.909 298.131 322.66 297.878C322.411 297.626 322.115 297.432 321.791 297.309C321.467 297.187 321.122 297.139 320.78 297.167C318.72 297.41 316.936 300.91 316.56 302.845C316.56 302.967 316.403 304.523 316.361 305.267H316.24C315.727 303.335 315.375 301.359 315.188 299.361C315.075 298.268 315.018 297.205 314.989 296.181C315.643 296.097 318.62 295.672 319.849 294.875C321.078 294.078 322.336 292.788 322.485 291.239C322.532 290.875 322.507 290.505 322.411 290.152C322.316 289.799 322.152 289.472 321.93 289.191C321.708 288.911 321.433 288.683 321.124 288.523C320.814 288.363 320.477 288.275 320.133 288.263C318.059 288.263 315.927 291.527 315.359 293.41C315.323 293.509 315.117 294.587 314.975 295.368C314.975 294.905 314.975 294.427 314.975 293.979C314.975 292.309 315.075 290.776 315.174 289.425C315.231 288.666 315.302 287.96 315.373 287.307C315.977 286.867 318.364 285.068 319.103 283.777C319.842 282.487 320.41 280.695 319.871 279.223C319.755 278.877 319.573 278.562 319.336 278.296C319.099 278.031 318.812 277.822 318.495 277.682C318.177 277.543 317.836 277.476 317.493 277.486C317.15 277.497 316.812 277.584 316.503 277.743C314.663 278.76 314.179 282.715 314.485 284.658C314.485 284.832 315.195 287.413 315.238 287.39H315.274C315.196 288.013 315.11 288.681 315.039 289.417C314.911 290.776 314.783 292.302 314.748 293.972C314.688 295.779 314.728 297.589 314.869 299.391C315.014 301.411 315.327 303.413 315.807 305.373V305.441C315.48 304.895 314.521 303.399 314.435 303.293C313.227 301.775 310.073 299.672 308.169 300.538C307.856 300.691 307.577 300.912 307.349 301.188C307.122 301.464 306.951 301.788 306.849 302.138C306.746 302.489 306.714 302.859 306.754 303.224C306.794 303.589 306.906 303.941 307.082 304.257C307.757 305.563 309.441 306.261 310.805 306.474Z" fill="#757575"/>
<path opacity="0.3" d="M309.554 295.232C311.039 295.93 314.67 295.839 314.67 295.839C314.67 295.839 313.888 293.296 313.824 293.144C313.028 291.368 310.506 288.423 308.453 288.719C308.114 288.778 307.79 288.913 307.503 289.115C307.215 289.316 306.971 289.581 306.786 289.89C306.601 290.2 306.479 290.547 306.429 290.911C306.378 291.274 306.399 291.644 306.492 291.998C306.833 293.516 308.289 294.64 309.554 295.232Z" fill="#757575"/>
<path opacity="0.3" d="M346.286 296.089C346.322 296.089 346.947 293.509 346.997 293.342C347.253 291.383 346.67 287.444 344.809 286.51C344.496 286.358 344.156 286.279 343.812 286.277C343.469 286.276 343.128 286.352 342.814 286.5C342.499 286.648 342.218 286.866 341.987 287.138C341.757 287.411 341.583 287.732 341.476 288.081C340.972 289.554 341.611 291.353 342.357 292.59C343.21 294.017 346.286 296.082 346.286 296.089Z" fill="#757575"/>
<path opacity="0.3" d="M310.805 306.474C312.346 306.709 315.586 305.715 315.842 305.631C316.377 307.611 317.034 309.551 317.81 311.438C318.258 312.539 318.741 313.639 319.231 314.732C318.94 314.269 318.67 313.859 318.627 313.799C317.419 312.281 314.258 310.186 312.354 311.051C312.042 311.204 311.763 311.425 311.537 311.7C311.31 311.976 311.14 312.299 311.038 312.649C310.936 313 310.905 313.369 310.945 313.733C310.986 314.097 311.098 314.448 311.274 314.763C311.984 316.129 313.661 316.812 315.025 317.04C316.389 317.268 319.196 316.44 319.906 316.19C320.105 316.607 320.29 317.025 320.489 317.442C321.426 319.439 322.371 321.427 323.245 323.409C323.551 324.107 323.828 324.805 324.112 325.504C323.842 325.094 323.622 324.745 323.579 324.699C322.371 323.181 319.217 321.078 317.313 321.944C317 322.097 316.721 322.318 316.493 322.594C316.266 322.87 316.095 323.194 315.993 323.544C315.89 323.895 315.858 324.265 315.898 324.63C315.938 324.995 316.05 325.347 316.226 325.663C316.936 327.029 318.613 327.705 319.977 327.94C321.341 328.176 323.871 327.432 324.744 327.181C325.014 327.94 325.284 328.631 325.512 329.352C325.654 329.838 325.832 330.301 325.952 330.81L326.336 332.275C326.549 333.223 326.769 334.195 326.954 335.121C327.089 335.766 327.203 336.381 327.324 337.004C327.025 336.305 326.414 334.947 326.35 334.84C325.37 333.17 322.549 330.559 320.545 331.106C320.214 331.206 319.907 331.379 319.643 331.615C319.379 331.85 319.164 332.143 319.013 332.473C318.863 332.804 318.779 333.164 318.767 333.532C318.756 333.899 318.817 334.265 318.947 334.605C319.444 336.07 321.014 337.011 322.336 337.444C323.757 337.915 327.004 337.482 327.409 337.444C327.601 338.469 327.778 339.471 327.935 340.412C328.261 342.393 328.51 344.207 328.702 345.725H330.052C329.824 344.139 329.526 342.272 329.135 340.199C328.943 339.152 328.723 338.044 328.482 336.905C329.453 336.488 330.402 336.015 331.324 335.486C332.382 336.708 335.096 338.142 335.444 338.324C335.075 339.296 334.734 340.237 334.35 341.118C333.64 342.849 332.972 344.389 332.375 345.725H333.832C334.343 344.511 334.897 343.137 335.48 341.626C335.857 340.64 336.247 339.585 336.631 338.491C337.022 338.575 340.183 339.251 341.69 338.909C343.032 338.583 344.667 337.77 345.242 336.351C345.394 336.022 345.479 335.662 345.492 335.296C345.506 334.929 345.447 334.564 345.319 334.223C345.192 333.883 344.999 333.575 344.753 333.319C344.508 333.063 344.214 332.865 343.892 332.738C341.924 332.032 338.919 334.408 337.839 336.002C337.775 336.093 337.178 337.193 336.809 337.892C336.965 337.444 337.121 337.019 337.277 336.556C337.59 335.645 337.881 334.719 338.194 333.732C338.329 333.254 338.464 332.76 338.599 332.275C338.734 331.789 338.848 331.25 338.968 330.756C339.238 329.557 339.452 328.335 339.643 327.09C340.389 327.379 343.061 328.373 344.446 328.274C345.832 328.176 347.544 327.629 348.347 326.316C348.544 326.015 348.68 325.673 348.745 325.312C348.811 324.951 348.805 324.58 348.727 324.222C348.649 323.864 348.502 323.527 348.294 323.234C348.087 322.941 347.824 322.698 347.523 322.521C345.683 321.503 342.386 323.371 341.079 324.798C340.993 324.881 340.162 325.997 339.714 326.612C339.821 325.853 339.935 325.094 340.02 324.335C340.276 322.141 340.475 319.917 340.674 317.693C340.738 317.017 340.809 316.334 340.873 315.658C341.135 315.765 344.29 317.017 345.846 316.903C347.224 316.797 348.951 316.258 349.747 314.953C349.944 314.652 350.08 314.31 350.146 313.95C350.212 313.59 350.207 313.218 350.129 312.86C350.052 312.502 349.906 312.166 349.699 311.872C349.492 311.579 349.23 311.335 348.929 311.157C347.089 310.148 343.793 312.015 342.485 313.434C342.386 313.541 341.185 315.142 340.901 315.567C341.043 314.049 341.206 312.584 341.42 311.127C341.698 309.155 342.097 307.205 342.613 305.289C342.734 305.343 346.016 306.663 347.587 306.542C348.965 306.443 350.691 305.897 351.487 304.591C351.686 304.291 351.823 303.949 351.89 303.589C351.956 303.228 351.951 302.856 351.874 302.498C351.797 302.14 351.649 301.803 351.442 301.51C351.235 301.216 350.972 300.973 350.67 300.796C348.83 299.779 345.533 301.646 344.219 303.073C344.134 303.164 343.224 304.379 342.798 304.971L342.691 304.91C343.261 302.998 343.988 301.143 344.865 299.369C345.334 298.389 345.839 297.471 346.343 296.598C346.933 296.909 349.633 298.314 351.068 298.374C352.503 298.435 354.223 298.101 355.146 296.894C355.374 296.618 355.544 296.294 355.647 295.943C355.75 295.592 355.782 295.222 355.741 294.857C355.701 294.492 355.59 294.14 355.414 293.824C355.238 293.508 355.001 293.235 354.72 293.023C352.993 291.801 349.526 293.273 348.084 294.503C348.006 294.571 347.274 295.346 346.748 295.915C346.983 295.528 347.217 295.118 347.459 294.746C348.326 293.349 349.199 292.135 349.981 291.064C350.429 290.457 350.848 289.918 351.239 289.417C351.949 289.417 354.89 289.311 356.176 288.658C357.462 288.005 358.848 286.867 359.153 285.341C359.235 284.984 359.246 284.613 359.185 284.252C359.125 283.89 358.994 283.547 358.801 283.243C358.608 282.938 358.358 282.681 358.066 282.487C357.774 282.293 357.448 282.166 357.107 282.115C355.047 281.88 352.603 284.893 351.85 286.669C351.786 286.821 351.033 289.387 351.075 289.387H351.168C350.777 289.865 350.365 290.374 349.924 290.905C349.121 291.96 348.219 293.182 347.324 294.541C346.34 296.014 345.439 297.547 344.624 299.133C343.703 300.903 342.933 302.758 342.322 304.675V304.743C342.322 304.098 342.322 302.284 342.286 302.147C342.052 300.188 340.517 296.553 338.478 296.15C338.137 296.091 337.788 296.11 337.453 296.205C337.119 296.3 336.808 296.47 336.539 296.703C336.271 296.936 336.052 297.227 335.896 297.557C335.74 297.887 335.652 298.248 335.636 298.617C335.515 300.135 336.574 301.729 337.604 302.709C338.762 303.817 341.981 304.887 342.237 304.986C341.662 306.953 341.209 308.959 340.88 310.99C340.681 312.174 340.517 313.374 340.368 314.581C340.368 314.019 340.368 313.518 340.368 313.45C340.127 311.491 338.592 307.855 336.56 307.453C336.219 307.395 335.871 307.414 335.538 307.509C335.204 307.605 334.894 307.774 334.626 308.006C334.358 308.238 334.138 308.527 333.982 308.856C333.825 309.184 333.736 309.544 333.718 309.912C333.604 311.468 334.656 313.024 335.686 314.011C336.716 314.998 339.459 315.977 340.183 316.228C340.134 316.691 340.077 317.146 340.02 317.609C339.778 319.826 339.537 322.042 339.238 324.213C339.139 324.972 339.004 325.731 338.883 326.49C338.883 325.997 338.883 325.572 338.883 325.511C338.649 323.553 337.114 319.917 335.075 319.515C334.734 319.455 334.384 319.474 334.05 319.569C333.716 319.664 333.404 319.834 333.136 320.067C332.868 320.3 332.648 320.591 332.493 320.921C332.337 321.251 332.249 321.612 332.233 321.982C332.112 323.5 333.171 325.094 334.194 326.073C335.217 327.052 337.704 327.948 338.563 328.244C338.414 329.003 338.265 329.762 338.087 330.521C337.952 331.022 337.86 331.508 337.697 332.001C337.533 332.495 337.405 332.973 337.263 333.451C336.951 334.362 336.638 335.311 336.311 336.191C336.091 336.806 335.871 337.391 335.643 337.975C335.757 337.216 335.949 335.698 335.949 335.599C335.926 333.863 335.488 332.162 334.677 330.658C334.683 330.465 334.671 330.271 334.642 330.081C334.599 329.717 334.485 329.366 334.307 329.052C334.129 328.738 333.892 328.468 333.609 328.259C333.327 328.05 333.007 327.907 332.669 327.839C332.332 327.771 331.985 327.779 331.65 327.864C329.647 328.434 328.382 332.184 328.283 334.15C328.283 334.271 328.354 335.539 328.411 336.336C328.311 335.873 328.219 335.417 328.105 334.947C327.899 333.998 327.665 333.064 327.395 332.054C327.26 331.569 327.125 331.083 326.982 330.589C326.84 330.096 326.663 329.603 326.499 329.071C326.109 327.91 325.654 326.794 325.171 325.618C325.945 325.413 328.688 324.669 329.782 323.765C330.876 322.862 332.041 321.405 332.027 319.841C332.036 319.474 331.973 319.109 331.841 318.77C331.71 318.431 331.513 318.125 331.264 317.872C331.015 317.62 330.719 317.426 330.395 317.303C330.071 317.181 329.726 317.133 329.384 317.161C327.331 317.404 325.54 320.904 325.171 322.839C325.171 322.961 325.022 324.357 324.972 325.154C324.681 324.471 324.389 323.781 324.069 323.097C323.146 321.116 322.158 319.15 321.185 317.177L320.297 315.362C320.574 315.294 323.849 314.482 325.078 313.472C326.173 312.577 327.338 311.104 327.324 309.548C327.333 309.181 327.269 308.816 327.138 308.477C327.006 308.138 326.81 307.832 326.56 307.579C326.311 307.327 326.015 307.133 325.691 307.01C325.367 306.888 325.023 306.84 324.681 306.868C322.62 307.104 320.837 310.611 320.467 312.539C320.467 312.69 320.261 314.732 320.24 315.249C319.593 313.92 318.961 312.584 318.386 311.241C317.601 309.432 316.927 307.571 316.368 305.669C316.496 305.669 319.92 304.811 321.178 303.771C322.272 302.876 323.43 301.411 323.423 299.847C323.432 299.48 323.369 299.115 323.237 298.776C323.106 298.437 322.909 298.131 322.66 297.878C322.411 297.626 322.115 297.432 321.791 297.309C321.467 297.187 321.122 297.139 320.78 297.167C318.72 297.41 316.936 300.91 316.56 302.845C316.56 302.967 316.403 304.523 316.361 305.267H316.24C315.727 303.335 315.375 301.359 315.188 299.361C315.075 298.268 315.018 297.205 314.989 296.181C315.643 296.097 318.62 295.672 319.849 294.875C321.078 294.078 322.336 292.788 322.485 291.239C322.532 290.875 322.507 290.505 322.411 290.152C322.316 289.799 322.152 289.472 321.93 289.191C321.708 288.911 321.433 288.683 321.124 288.523C320.814 288.363 320.477 288.275 320.133 288.263C318.059 288.263 315.927 291.527 315.359 293.41C315.323 293.509 315.117 294.587 314.975 295.368C314.975 294.905 314.975 294.427 314.975 293.979C314.975 292.309 315.075 290.776 315.174 289.425C315.231 288.666 315.302 287.96 315.373 287.307C315.977 286.867 318.364 285.068 319.103 283.777C319.842 282.487 320.41 280.695 319.871 279.223C319.755 278.877 319.573 278.562 319.336 278.296C319.099 278.031 318.812 277.822 318.495 277.682C318.177 277.543 317.836 277.476 317.493 277.486C317.15 277.497 316.812 277.584 316.503 277.743C314.663 278.76 314.179 282.715 314.485 284.658C314.485 284.832 315.195 287.413 315.238 287.39H315.274C315.196 288.013 315.11 288.681 315.039 289.417C314.911 290.776 314.783 292.302 314.748 293.972C314.688 295.779 314.728 297.589 314.869 299.391C315.014 301.411 315.327 303.413 315.807 305.373V305.441C315.48 304.895 314.521 303.399 314.435 303.293C313.227 301.775 310.073 299.672 308.169 300.538C307.856 300.691 307.577 300.912 307.349 301.188C307.122 301.464 306.951 301.788 306.849 302.138C306.746 302.489 306.714 302.859 306.754 303.224C306.794 303.589 306.906 303.941 307.082 304.257C307.757 305.563 309.441 306.261 310.805 306.474Z" fill="#757575"/>
<path d="M99.1853 304.91L101.793 296.955" stroke="#757575" stroke-linecap="round" stroke-linejoin="round"/>
<path d="M99.3701 283.428V313.07" stroke="#757575" stroke-linecap="round" stroke-linejoin="round"/>
<path d="M95.1003 298.807C95.1003 298.807 91.2353 294.306 87.3702 295.012C83.5052 295.718 81.7502 300.644 81.7502 303.65C81.7502 306.656 85.6153 316.41 85.6153 316.41C85.6153 316.41 88.4573 313.032 94.7522 308.151C101.047 303.27 101.424 298.435 95.1003 298.807Z" fill="#E6007A" stroke="#757575" stroke-linecap="round" stroke-linejoin="round"/>
<path d="M95.1002 298.807C91.7823 300.808 89.0927 303.814 87.3701 307.445" stroke="#757575" stroke-linecap="round" stroke-linejoin="round"/>
<path d="M101.395 293.516C101.395 293.516 104.592 289.812 107.789 290.442C110.987 291.072 112.408 295.095 112.4 297.57C112.393 300.044 109.196 308.075 109.196 308.075C106.907 305.542 104.392 303.254 101.686 301.244C96.4642 297.213 96.1871 293.198 101.395 293.516Z" fill="#E6007A" stroke="#757575" stroke-linecap="round" stroke-linejoin="round"/>
<path d="M101.395 293.516C104.125 295.173 106.335 297.656 107.747 300.652" stroke="#757575" stroke-linecap="round" stroke-linejoin="round"/>
<path d="M98.8088 288.597L103.654 281.037" stroke="#757575" stroke-linecap="round" stroke-linejoin="round"/>
<path d="M97.9989 286.411C97.9989 286.411 97.9208 281.379 95.157 279.58C92.3932 277.781 88.8123 279.769 87.2776 281.621C85.743 283.474 83.1355 291.755 83.1355 291.755C86.4195 291.486 89.7205 291.565 92.99 291.99C99.3773 292.658 102.091 289.873 97.9989 286.411Z" fill="#E6007A" stroke="#757575" stroke-linecap="round" stroke-linejoin="round"/>
<path d="M97.9986 286.411C94.9308 285.708 91.7367 285.99 88.8191 287.223" stroke="#757575" stroke-linecap="round" stroke-linejoin="round"/>
<path d="M102.162 279.663C102.162 279.663 102.219 275.959 104.294 274.638C106.368 273.317 108.962 274.775 110.099 276.156C111.235 277.538 113.147 283.61 113.147 283.61C110.729 283.414 108.299 283.473 105.892 283.785C101.146 284.309 99.1499 282.214 102.162 279.663Z" fill="#E6007A" stroke="#757575" stroke-linecap="round" stroke-linejoin="round"/>
<path d="M102.162 279.663C104.421 279.147 106.771 279.356 108.919 280.263" stroke="#757575" stroke-linecap="round" stroke-linejoin="round"/>
<path d="M111.2 310.527H86.2405L88.7698 338.286H108.671L111.2 310.527Z" fill="white" stroke="#757575" stroke-linecap="round" stroke-linejoin="round"/>
<path d="M104.585 322.619C104.587 322.855 104.653 323.084 104.777 323.279C104.9 323.474 105.075 323.626 105.279 323.715C105.483 323.804 105.707 323.826 105.923 323.78C106.139 323.733 106.337 323.619 106.492 323.452C106.647 323.285 106.753 323.072 106.795 322.841C106.838 322.61 106.815 322.371 106.731 322.154C106.646 321.937 106.503 321.751 106.32 321.62C106.136 321.49 105.921 321.42 105.701 321.42C105.554 321.42 105.408 321.451 105.272 321.511C105.136 321.572 105.013 321.66 104.909 321.772C104.806 321.883 104.724 322.015 104.668 322.161C104.612 322.306 104.584 322.462 104.585 322.619Z" fill="#757575" stroke="#757575" stroke-linecap="round" stroke-linejoin="round"/>
<path d="M100.485 322.619C100.485 322.857 100.551 323.089 100.675 323.286C100.799 323.484 100.974 323.637 101.18 323.728C101.386 323.819 101.612 323.842 101.83 323.795C102.048 323.748 102.248 323.633 102.404 323.465C102.561 323.296 102.667 323.082 102.71 322.849C102.752 322.615 102.729 322.374 102.643 322.155C102.557 321.936 102.412 321.749 102.226 321.618C102.041 321.487 101.823 321.418 101.601 321.42C101.454 321.42 101.308 321.451 101.172 321.511C101.037 321.572 100.913 321.66 100.81 321.772C100.706 321.883 100.624 322.015 100.568 322.161C100.513 322.306 100.484 322.462 100.485 322.619Z" fill="#757575" stroke="#757575" stroke-linecap="round" stroke-linejoin="round"/>
<path d="M87.0717 319.636H110.369L110.482 318.437H86.9651L87.0717 319.636Z" fill="#757575" stroke="#757575" stroke-linecap="round" stroke-linejoin="round"/>
<path d="M109.374 330.574L109.843 325.405H87.5972L88.0661 330.574H109.374Z" fill="#757575" stroke="#757575" stroke-linecap="round" stroke-linejoin="round"/>
<path d="M108.677 322.619C108.677 322.776 108.707 322.932 108.763 323.077C108.82 323.222 108.902 323.354 109.007 323.465C109.111 323.575 109.235 323.663 109.371 323.723C109.507 323.782 109.653 323.812 109.8 323.811H109.992L110.198 321.534C110.071 321.482 109.936 321.454 109.8 321.45C109.507 321.45 109.226 321.572 109.016 321.791C108.806 322.009 108.685 322.307 108.677 322.619Z" fill="#757575" stroke="#757575" stroke-linecap="round" stroke-linejoin="round"/>
<path d="M97.5085 323.811C98.1246 323.811 98.624 323.277 98.624 322.619C98.624 321.961 98.1246 321.427 97.5085 321.427C96.8925 321.427 96.3931 321.961 96.3931 322.619C96.3931 323.277 96.8925 323.811 97.5085 323.811Z" fill="#757575" stroke="#757575" stroke-linecap="round" stroke-linejoin="round"/>
<path d="M88.1941 322.619C88.1941 322.856 88.2599 323.088 88.3833 323.286C88.5066 323.483 88.682 323.637 88.8871 323.727C89.0922 323.818 89.3179 323.842 89.5357 323.796C89.7534 323.749 89.9535 323.635 90.1105 323.467C90.2675 323.3 90.3744 323.086 90.4177 322.853C90.461 322.621 90.4388 322.379 90.3538 322.16C90.2688 321.941 90.125 321.754 89.9404 321.622C89.7557 321.49 89.5387 321.42 89.3167 321.42C89.169 321.419 89.0226 321.449 88.886 321.509C88.7494 321.569 88.6252 321.657 88.5208 321.769C88.4164 321.881 88.3337 322.013 88.2776 322.159C88.2216 322.305 88.1932 322.461 88.1941 322.619Z" fill="#757575" stroke="#757575" stroke-linecap="round" stroke-linejoin="round"/>
<path d="M92.2937 322.619C92.2951 322.855 92.3617 323.084 92.4852 323.279C92.6086 323.474 92.7833 323.626 92.9872 323.715C93.1912 323.804 93.4152 323.826 93.6311 323.78C93.847 323.733 94.0451 323.619 94.2004 323.452C94.3557 323.285 94.4612 323.072 94.5037 322.841C94.5462 322.61 94.5237 322.371 94.439 322.154C94.3544 321.937 94.2114 321.751 94.0282 321.62C93.8449 321.49 93.6295 321.42 93.4092 321.42C93.2621 321.42 93.1165 321.451 92.9807 321.511C92.8449 321.572 92.7216 321.66 92.6179 321.772C92.5142 321.883 92.4322 322.015 92.3766 322.161C92.321 322.306 92.2928 322.462 92.2937 322.619Z" fill="#757575" stroke="#757575" stroke-linecap="round" stroke-linejoin="round"/>
<path d="M112.337 286.763L110.285 287.291L120.941 334.565L122.993 334.038L112.337 286.763Z" fill="#757575" stroke="#757575" stroke-linecap="round" stroke-linejoin="round"/>
<path d="M174.724 333.96H121.701V337.717H174.724V333.96Z" fill="#757575" stroke="#757575" stroke-linecap="round" stroke-linejoin="round"/>
<path d="M238.583 173.195C235.602 178.171 234.193 184.038 234.562 189.933C235.308 199.436 240.537 207.391 241.311 211.582C242.086 215.772 238.242 222.899 239.336 224.418C240.43 225.936 246.015 225.86 246.015 225.86C246.015 225.86 255.152 236.487 258.619 237.049C262.086 237.61 267.777 232.031 267.777 232.031L274.221 239.819L293.241 224.152C293.241 224.152 288.268 215.521 288.026 213.563C287.784 211.604 294.591 200.142 292.118 183.572C289.646 167.001 275.145 158.947 261.177 159.061C247.208 159.175 238.583 173.195 238.583 173.195Z" fill="white" stroke="#424242" stroke-linecap="round" stroke-linejoin="round"/>
<path d="M279.294 196.347C279.294 196.347 278.15 192.984 275.202 194.191C272.253 195.398 272.623 200.491 272.623 200.491C272.623 200.491 275.891 198.632 276.026 199.854C276.161 201.076 274.186 202.351 274.186 202.351" stroke="#424242" stroke-linecap="round" stroke-linejoin="round"/>
<path d="M267.77 232.054L274.968 226.535L270.818 235.28L267.77 232.054Z" fill="#424242" stroke="#424242" stroke-linecap="round" stroke-linejoin="round"/>
<path d="M292.111 183.594C289.646 167.024 275.145 158.947 261.177 159.061C247.209 159.175 238.583 173.195 238.583 173.195C236.593 176.509 235.285 180.238 234.747 184.133C235.002 183.883 235.301 183.572 235.663 183.169C238.697 179.807 241.233 173.802 248.175 174.903C255.116 176.004 250.569 186.236 252.267 190.327C253.965 194.419 262.25 193.69 263.543 194.184C264.836 194.677 266.896 202.032 269.397 199.398C271.898 196.764 271.344 191.868 274.292 190.502C277.241 189.136 282.868 192.385 283.451 197.607C284.033 202.829 277.198 210.989 277.198 210.989C277.198 210.989 282.847 214.246 288.339 214.671C288.19 214.325 288.083 213.96 288.019 213.586C287.799 211.627 294.584 200.165 292.111 183.594Z" fill="#424242" stroke="#424242" stroke-linecap="round" stroke-linejoin="round"/>
<path d="M288.452 175.761C288.452 175.761 289.767 165.331 298.627 164.2C307.486 163.069 314.883 179.382 312.552 186.266C310.222 193.151 302.143 198.214 297.17 198.184C292.197 198.154 289.255 182.964 288.452 175.761Z" fill="#424242" stroke="#424242" stroke-linecap="round" stroke-linejoin="round"/>
<path d="M259.807 224.968C259.807 224.968 255.123 222.464 250.433 227.468" stroke="#424242" stroke-linecap="round" stroke-linejoin="round"/>
<path d="M246.349 207.809C246.981 209.001 247.116 210.2 246.654 210.473C246.192 210.747 245.311 210.003 244.686 208.803C244.061 207.604 243.919 206.42 244.381 206.139C244.842 205.858 245.723 206.61 246.349 207.809Z" fill="#424242"/>
<path d="M250.931 205.008C252.587 209.19 252.026 213.434 249.681 214.496C247.336 215.559 244.089 213.031 242.434 208.849C240.779 204.666 241.34 200.423 243.684 199.36C246.029 198.298 249.276 200.81 250.931 205.008Z" stroke="#424242" stroke-linecap="round" stroke-linejoin="round"/>
<path d="M242.434 208.849L239.066 210.876" stroke="#424242" stroke-linecap="round" stroke-linejoin="round"/>
<path d="M250.363 203.809L271.33 194.518" stroke="#424242" stroke-linecap="round" stroke-linejoin="round"/>
<path d="M240.331 201.509C240.331 201.509 240.885 197.713 244.452 197.265" stroke="#424242" stroke-width="2" stroke-linecap="round" stroke-linejoin="round"/>
<path d="M253.922 302.618L246.015 316.805L180.756 323.439L161.26 318.611C159.955 318.838 158.633 318.94 157.31 318.915C154.767 318.915 140.358 329.178 140.642 330.081C140.926 330.984 141.772 332.199 144.031 330.081C146.29 327.963 147.704 327.667 147.704 327.667C147.704 327.667 141.772 333.406 144.031 333.406C146.29 333.406 150.248 330.369 150.248 330.369C150.248 330.369 147.136 333.99 148.827 333.99C150.518 333.99 156.493 330.081 156.493 330.081C156.493 330.081 162.177 330.688 167.513 331.599C172.849 332.51 180.223 331.903 180.223 331.903C180.223 331.903 240.686 337.732 243.791 337.634C246.896 337.535 264.132 316.812 264.132 316.812L253.922 302.618Z" fill="#424242" stroke="#424242" stroke-linecap="round" stroke-linejoin="round"/>
<path d="M272.623 246.712C272.623 246.712 268.011 239.804 269.859 237.178C271.706 234.551 290.783 221.723 294.783 222.383C298.783 223.044 300.936 235.53 300.936 235.53C300.936 235.53 313.241 245.064 314.165 262.485C315.088 279.906 308.318 312.463 307.394 320.023C306.47 327.584 306.47 345.991 306.47 345.991H262.47C262.47 345.991 261.241 319.036 261.241 316.387C261.241 313.738 250.164 306.868 251.088 297.972C252.011 289.076 272.935 248.989 272.935 248.989L272.623 246.712Z" fill="#424242" stroke="#424242" stroke-linecap="round" stroke-linejoin="round"/>
<path d="M296.012 250.325C293.278 250.302 290.572 250.906 288.076 252.098C285.58 253.29 283.354 255.041 281.547 257.232C275.088 264.823 251.088 316.402 251.088 316.402C251.088 316.402 190.156 325.936 184.622 324.623C179.087 323.31 170.774 321.01 169.851 320.676C168.927 320.342 158.852 322.012 155.463 322.999C152.074 323.985 143.847 330.46 144.493 331.295C145.14 332.13 148.515 330.597 148.515 330.597C148.515 330.597 146.312 332.115 147.733 332.404C149.154 332.692 152.28 331.295 152.28 331.295C152.28 331.295 150.199 333.375 152.017 333.375C153.836 333.375 158.113 331.295 158.113 331.295C158.113 331.295 155.783 333.648 157.076 333.785C158.369 333.922 164.735 329.633 165.254 329.352C165.772 329.071 169.147 330.741 173.943 331.713C177.593 332.301 181.291 332.487 184.977 332.267C184.977 332.267 241.155 337.535 246.86 337.535C252.566 337.535 255.294 337.535 255.813 337.117C256.331 336.7 300.964 282.775 303.82 278.896C306.676 275.017 307.067 274.456 307.067 274.456" fill="white"/>
<path d="M296.012 250.325C293.278 250.302 290.572 250.906 288.076 252.098C285.58 253.29 283.354 255.041 281.547 257.232C275.088 264.823 251.088 316.402 251.088 316.402C251.088 316.402 190.156 325.936 184.622 324.623C179.087 323.31 170.774 321.01 169.851 320.676C168.927 320.342 158.852 322.012 155.463 322.999C152.074 323.985 143.847 330.46 144.493 331.295C145.14 332.13 148.515 330.597 148.515 330.597C148.515 330.597 146.312 332.115 147.733 332.404C149.154 332.692 152.28 331.295 152.28 331.295C152.28 331.295 150.199 333.375 152.017 333.375C153.836 333.375 158.113 331.295 158.113 331.295C158.113 331.295 155.783 333.648 157.076 333.785C158.369 333.922 164.735 329.633 165.254 329.352C165.772 329.071 169.147 330.741 173.943 331.713C177.593 332.301 181.291 332.487 184.977 332.267C184.977 332.267 241.155 337.535 246.86 337.535C252.566 337.535 255.294 337.535 255.813 337.117C256.331 336.7 300.964 282.775 303.82 278.896C306.676 275.017 307.067 274.456 307.067 274.456" stroke="#424242" stroke-linecap="round" stroke-linejoin="round"/>
<path d="M296.012 250.325C293.292 250.395 290.613 251.041 288.13 252.227C285.647 253.413 283.409 255.114 281.546 257.232C279.244 259.919 274.718 268.209 269.844 277.727C274.626 278.729 283.976 282.046 292.324 293.03C298.363 285.675 302.982 280.027 303.82 278.866C306.662 274.987 307.749 273.552 307.749 273.552" fill="#424242"/>
<path d="M296.012 250.325C293.292 250.395 290.613 251.041 288.13 252.227C285.647 253.413 283.409 255.114 281.546 257.232C279.244 259.919 274.718 268.209 269.844 277.727C274.626 278.729 283.976 282.046 292.324 293.03C298.363 285.675 302.982 280.027 303.82 278.866C306.662 274.987 307.749 273.552 307.749 273.552" stroke="#424242" stroke-linecap="round" stroke-linejoin="round"/>
<path d="M158.113 331.296L165.58 325.883" stroke="#424242" stroke-linecap="round" stroke-linejoin="round"/>
<path d="M152.28 331.296C152.28 331.296 161.516 324.874 162.071 324.464" stroke="#424242" stroke-linecap="round" stroke-linejoin="round"/>
<path d="M148.514 330.612C148.514 330.612 154.518 325.466 158.568 323.879" stroke="#424242" stroke-linecap="round" stroke-linejoin="round"/>
<path d="M327.046 290.26C325.925 290.254 324.832 290.639 323.935 291.357C323.037 292.075 322.383 293.086 322.072 294.237L307.969 345.991H318.719L331.984 297.312C332.206 296.492 332.247 295.628 332.103 294.788C331.96 293.949 331.636 293.156 331.158 292.472C330.679 291.789 330.059 291.233 329.345 290.849C328.632 290.466 327.845 290.264 327.046 290.26Z" fill="#E6007A" stroke="#424242" stroke-linecap="round" stroke-linejoin="round"/>
<path d="M245.084 337.884H75.114V345.991H245.084V337.884Z" fill="#E6007A" stroke="#757575" stroke-linecap="round" stroke-linejoin="round"/>
<path d="M69.9419 345.991H355.309" stroke="#757575" stroke-linecap="round" stroke-linejoin="round"/>
<path d="M288.739 18.6321H102.769V66.9137H288.739V18.6321Z" fill="#E0E0E0"/>
<path d="M107.648 61.7004H283.859V23.8455H107.648V61.7004Z" fill="white"/>
<path d="M141.211 57.1946C148.666 57.1946 154.71 50.7378 154.71 42.7729C154.71 34.8079 148.666 28.3511 141.211 28.3511C133.756 28.3511 127.713 34.8079 127.713 42.7729C127.713 50.7378 133.756 57.1946 141.211 57.1946Z" fill="#D32F2F"/>
<path d="M263.795 37.1298H173.49V40.2649H263.795V37.1298Z" fill="#D32F2F"/>
<path d="M263.795 45.2811H173.49V48.4163H263.795V45.2811Z" fill="#D32F2F"/>
<path d="M35 92.0157L192.352 104.278V148.418L35 145.296V92.0157Z" fill="#E0E0E0"/>
<path d="M39.957 139.673L188.917 143.566V108.798L39.957 98.1239V139.673Z" fill="white"/>
<path d="M72.6507 105.235C74.3705 105.353 76.0453 105.871 77.5583 106.753C79.0758 107.639 80.422 108.825 81.5253 110.248C82.6719 111.72 83.5701 113.394 84.1795 115.195C84.8225 117.09 85.1506 119.09 85.149 121.105C85.1557 123.09 84.8273 125.061 84.1795 126.921C83.5786 128.649 82.6782 130.24 81.5253 131.611C80.4184 132.929 79.0676 133.987 77.5583 134.719C76.0173 135.458 74.3391 135.813 72.6507 135.757C70.9228 135.698 69.2282 135.233 67.6879 134.394C66.1275 133.542 64.737 132.374 63.5933 130.955C62.3933 129.472 61.4513 127.772 60.8116 125.935C60.1329 123.994 59.786 121.939 59.7875 119.868C59.7799 117.827 60.1272 115.803 60.8116 113.897C61.4431 112.138 62.388 110.526 63.594 109.151C64.7427 107.841 66.1382 106.805 67.6885 106.113C69.2582 105.419 70.9556 105.119 72.6507 105.235Z" fill="#E0E0E0"/>
<path d="M101.958 116.156L174.457 120.193V123.126L101.958 119.363V116.156Z" fill="#E0E0E0"/>
<path d="M101.958 124.495L174.457 127.82V130.754L101.958 127.702V124.495Z" fill="#E0E0E0"/>
<path d="M35 181.683L192.352 178.562V222.702L35 234.965V181.683Z" fill="#E0E0E0"/>
<path d="M39.957 228.856L188.917 218.182V183.418L39.957 187.31V228.856Z" fill="white"/>
<path d="M59.7983 206.409C59.8747 204.339 60.2991 202.301 61.0512 200.391C61.7575 198.592 62.7614 196.943 64.015 195.524C65.2081 194.169 66.6387 193.077 68.2256 192.31C69.7951 191.555 71.502 191.182 73.2229 191.218C74.9118 191.255 76.5707 191.702 78.0745 192.524C79.5531 193.339 80.8593 194.47 81.912 195.847C83.0099 197.281 83.848 198.921 84.3833 200.683C84.9598 202.576 85.2141 204.565 85.1342 206.554C85.0619 208.568 84.6605 210.552 83.9482 212.418C83.2744 214.187 82.3154 215.816 81.1145 217.23C79.9612 218.595 78.5732 219.71 77.026 220.515C75.481 221.316 73.7898 221.743 72.0726 221.767C70.3723 221.789 68.6898 221.394 67.1543 220.614C65.6326 219.833 64.2811 218.721 63.1872 217.348C62.0369 215.905 61.1562 214.239 60.5931 212.442C59.9833 210.5 59.7139 208.455 59.7983 206.409Z" fill="#E0E0E0"/>
<path d="M101.958 199.278L174.457 196.227V199.16L101.958 202.485V199.278Z" fill="#E0E0E0"/>
<path d="M101.958 207.617L174.457 203.854V206.788L101.958 210.824V207.617Z" fill="#E0E0E0"/>
<ellipse cx="352.321" cy="89.5513" rx="56.612" ry="60.4835" fill="#BF2600"/>
<path d="M380.059 66.7033L374.558 60.8254L352.747 84.1283L330.935 60.8254L325.434 66.7033L347.245 90.0061L325.434 113.309L330.935 119.187L352.747 95.8839L374.558 119.187L380.059 113.309L358.248 90.0061L380.059 66.7033Z" fill="white"/>
</svg>
