<svg width="220" height="161" viewBox="0 0 220 161" fill="none" xmlns="http://www.w3.org/2000/svg">
<path opacity="0.2" d="M1.44966 38.0207C2.63713 46.2467 4.83936 58.5317 6.73932 66.8872L8.27222 67.1462C10.9926 76.7756 13.821 84.3323 15.7209 85.8004C18.4413 87.8947 24.1412 89.5571 29.4957 90.7446C29.5388 90.7446 29.582 90.7446 29.6252 90.7662C29.9922 90.8526 30.3809 90.9389 30.7479 91.0037C30.9422 94.1127 31.3093 96.7684 31.9354 98.7979C37.2251 115.854 91.8489 161 107.588 161C123.328 161 177.131 116.848 183.241 98.7979C183.587 97.7615 183.868 96.574 184.083 95.257C184.429 93.94 184.558 92.5366 184.537 91.0901C184.537 91.0253 184.537 90.9821 184.537 90.9174C184.796 90.8526 185.077 90.7878 185.357 90.7446C185.4 90.7446 185.444 90.7447 185.487 90.7231C190.82 89.5572 196.541 87.8947 199.262 85.7788C201.161 84.3107 203.99 76.754 206.71 67.1246L208.243 66.8656C210.165 58.51 212.345 46.2467 213.533 37.9991L213.187 38.0423C215.023 26.6425 215.476 17.2723 213.079 15.6962C209.323 13.2349 189.503 16.3439 175.577 18.9132C175.577 18.9132 175.577 18.9132 175.555 18.9132C175.274 18.9563 174.994 19.0211 174.735 19.0643C174.432 19.1291 174.13 19.1722 173.828 19.237C173.828 19.237 173.828 19.237 173.806 19.237C173.655 19.2586 173.526 19.2802 173.396 19.3234C172.986 19.4097 172.597 19.4745 172.209 19.5608C171.583 17.9631 171.021 16.7973 170.525 16.128C170.395 15.9552 170.287 15.8041 170.179 15.6962C165.732 11.5508 48.9918 12.2417 43.7238 16.5166C43.2056 16.9484 42.6011 17.9632 41.9749 19.4098C41.7806 19.3666 41.5863 19.3449 41.392 19.3018C41.3272 19.3018 41.2625 19.2802 41.1977 19.2586C27.2502 16.6246 5.83249 13.1269 1.92462 15.6962C-0.493513 17.2723 -0.0184968 26.6425 1.81669 38.0423L1.47124 37.9991L1.44966 38.0207Z" fill="#616161"/>
<path d="M6.56659 3.75668C12.4608 -0.108011 58.0383 9.75883 58.0383 9.75883L45.8828 80.8346C45.8828 80.8346 26.2139 78.3517 20.3845 73.8393C14.555 69.3269 0.0462651 8.05319 6.56659 3.75668Z" fill="#FFEE58"/>
<path d="M11.3812 54.9045L49.1645 61.5113L53.3746 33.163L6.06995 26.0381C7.25742 34.2641 9.45964 46.549 11.3596 54.9045H11.3812Z" fill="#FFF59D"/>
<path opacity="0.5" d="M57.9303 9.73723C57.9303 9.73723 57.8871 9.73723 57.8655 9.73723C57.8008 9.73723 57.7144 9.71566 57.628 9.69407C57.5633 9.69407 57.4769 9.67244 57.3905 9.65085C57.3258 9.65085 57.2394 9.62928 57.153 9.60769C57.0235 9.5861 56.8939 9.56449 56.7428 9.52131C56.5701 9.47813 56.3974 9.45657 56.2031 9.41339C56.0735 9.3918 55.944 9.3486 55.7929 9.32701C55.6417 9.30542 55.469 9.26226 55.2963 9.21908C55.1235 9.1759 54.9508 9.15427 54.7565 9.11109C54.627 9.0895 54.4758 9.0463 54.3463 9.02471C53.9361 8.93835 53.4827 8.852 53.0293 8.76563C52.8997 8.74404 52.7702 8.7225 52.6191 8.67932C52.36 8.63614 52.0793 8.57133 51.7986 8.50656C51.6475 8.48497 51.4748 8.44177 51.3236 8.42018C51.0214 8.35541 50.7407 8.31225 50.4168 8.24748C50.2225 8.2043 50.0066 8.16113 49.8123 8.11795C49.3589 8.03158 48.8839 7.94521 48.4089 7.83726C48.1283 7.77249 47.8476 7.72934 47.5453 7.66456C47.2646 7.59979 46.9623 7.55658 46.6601 7.4918C46.3794 7.44862 46.1203 7.38384 45.8397 7.34065C45.5374 7.27588 45.2135 7.23273 44.9112 7.16796C44.6306 7.12478 44.3499 7.05999 44.0908 7.01681C43.767 6.95204 43.4647 6.90889 43.1192 6.84412C38.2614 17.1212 30.5752 57.1715 31.5684 78.2006C38.5853 79.9494 45.8828 80.8562 45.8828 80.8562L58.0383 9.78039C58.0383 9.78039 57.9951 9.78039 57.9519 9.78039L57.9303 9.73723Z" fill="#FBC02D"/>
<path d="M6.56659 3.75668C12.4608 -0.108011 58.0383 9.75883 58.0383 9.75883L45.8828 80.8346C45.8828 80.8346 26.2139 78.3517 20.3845 73.8393C14.555 69.3269 0.046265 8.05319 6.56659 3.75668Z" stroke="#FBC02D" stroke-width="1.02" stroke-miterlimit="10"/>
<path d="M217.721 3.75668C211.827 -0.108011 166.25 9.75883 166.25 9.75883L178.405 80.8346C178.405 80.8346 198.074 78.3517 203.903 73.8393C209.733 69.3269 224.242 8.05319 217.721 3.75668Z" fill="#FFEE58"/>
<path d="M212.907 54.9045L175.123 61.5113L170.913 33.163L218.218 26.0381C217.031 34.2641 214.828 46.549 212.928 54.9045H212.907Z" fill="#FFF59D"/>
<path opacity="0.5" d="M181.169 6.80085C180.845 6.86562 180.521 6.90884 180.197 6.97361C179.916 7.01679 179.636 7.08158 179.377 7.12476C179.053 7.18953 178.751 7.23268 178.448 7.29745C178.168 7.34063 177.887 7.40542 177.628 7.4486C177.326 7.51337 177.023 7.55652 176.743 7.6213C176.44 7.68607 176.16 7.72929 175.879 7.79406C175.404 7.88042 174.929 7.98838 174.476 8.07474C174.26 8.11792 174.065 8.1611 173.871 8.20428C173.569 8.26905 173.267 8.33379 172.964 8.37698C172.813 8.39857 172.64 8.44177 172.489 8.46336C172.209 8.52813 171.928 8.57128 171.669 8.63605C171.539 8.65764 171.388 8.70084 171.259 8.72243C170.784 8.80879 170.352 8.91673 169.942 8.98151C169.812 9.0031 169.661 9.0463 169.531 9.06789C169.337 9.11107 169.164 9.15422 168.992 9.17581C168.819 9.21899 168.646 9.24062 168.495 9.2838C168.366 9.30539 168.214 9.34853 168.085 9.37012C167.891 9.4133 167.696 9.45652 167.545 9.47811C167.394 9.4997 167.264 9.54283 167.135 9.56442C167.049 9.56442 166.984 9.60765 166.897 9.60765C166.811 9.60765 166.725 9.6508 166.66 9.6508C166.574 9.6508 166.487 9.69403 166.422 9.69403C166.422 9.69403 166.379 9.69403 166.358 9.69403C166.315 9.69403 166.271 9.69403 166.271 9.69403L178.427 80.7698C178.427 80.7698 185.724 79.8414 192.741 78.1142C193.734 57.085 186.048 17.0132 181.19 6.75769L181.169 6.80085Z" fill="#FBC02D"/>
<path d="M217.721 3.75668C211.827 -0.108011 166.25 9.75883 166.25 9.75883L178.405 80.8346C178.405 80.8346 198.074 78.3517 203.903 73.8393C209.733 69.3269 224.242 8.05319 217.721 3.75668Z" stroke="#FBC02D" stroke-width="1.02" stroke-miterlimit="10"/>
<path d="M187.883 86.8367C181.795 104.886 127.97 149.039 112.23 149.039C96.4909 149.039 41.867 103.893 36.5774 86.8367C31.2877 69.7803 43.0761 8.83037 48.3442 4.57705C53.6122 0.323727 170.352 -0.367113 174.8 3.75667C179.247 7.88045 193.994 68.7871 187.883 86.8367Z" fill="#FBC02D"/>
<path d="M176.203 85.0662C171.043 100.352 125.509 137.682 112.209 137.682C98.9091 137.682 52.6839 99.4886 48.2146 85.0662C43.7454 70.6438 53.7202 19.0858 58.1678 15.4802C62.6155 11.8746 162.752 11.0757 166.53 14.5733C170.309 18.071 181.385 69.8017 176.225 85.0662H176.203Z" fill="#FFEE58"/>
<path opacity="0.7" d="M188.639 69.4348C185.228 70.3416 182.68 73.9472 182.68 78.2653C182.68 81.9573 184.537 85.1311 187.214 86.5345C190.647 81.8925 188.553 75.1563 188.639 69.4132V69.4348Z" fill="#FFEE58"/>
<path opacity="0.7" d="M116.203 1.44654C109.575 1.40336 102.817 1.42493 96.275 1.4897C96.275 1.4897 93.058 6.11009 108.409 6.11009C114.325 6.11009 115.663 3.06583 116.181 1.44654H116.203Z" fill="#FFEE58"/>
<path opacity="0.7" d="M174.8 3.75661C172.813 1.89983 144.271 1.66232 118.47 1.44641C118.017 3.04411 122.378 6.08832 125.573 6.19627C143.018 6.84399 169.294 7.94513 170.913 9.73714C173.137 12.22 176.181 38.3661 179.226 52.1408C182.27 65.9155 187.927 64.944 187.948 64.7928C184.364 40.2661 178.038 6.75766 174.8 3.735V3.75661Z" fill="#FFEE58"/>
<path d="M187.883 86.8367C181.795 104.886 127.97 149.039 112.23 149.039C96.4909 149.039 41.867 103.893 36.5774 86.8367C31.2877 69.7803 43.0761 8.83037 48.3442 4.57705C53.6122 0.323727 170.352 -0.367113 174.8 3.75667C179.247 7.88045 193.994 68.7871 187.883 86.8367Z" stroke="#FBC02D" stroke-width="1.02" stroke-miterlimit="10"/>
<path d="M173.871 84.6993C168.905 99.424 125.055 135.372 112.23 135.372C99.4056 135.372 54.9077 98.582 50.5896 84.6993C46.2715 70.795 55.9008 21.1585 60.1757 17.6609C64.4507 14.1632 160.507 13.4724 164.134 16.8405C167.761 20.2086 178.837 69.9746 173.85 84.6777L173.871 84.6993Z" fill="#FBC02D"/>
<path d="M173.871 84.6777C168.905 99.4024 125.055 135.35 112.23 135.35C99.4056 135.35 54.9077 98.5603 50.5896 84.6777C46.2715 70.7734 55.9008 21.1369 60.1757 17.6393C64.4507 14.1416 160.507 13.4507 164.134 16.8188C167.761 20.1869 178.837 69.9529 173.85 84.656L173.871 84.6777Z" stroke="#FBC02D" stroke-width="1.02" stroke-miterlimit="10"/>
<path d="M169.359 83.9868C164.76 97.632 124.105 130.968 112.209 130.968C100.312 130.968 59.0531 96.8547 55.0589 83.9868C51.0646 71.0973 59.9815 25.0664 63.9542 21.8494C67.9268 18.6325 157.354 17.92 160.701 21.0291C164.069 24.1597 173.958 70.3416 169.359 83.9868Z" fill="#FFF59D"/>
<path d="M155.368 33.8969C152.022 30.3993 144.983 31.0686 138.981 32.4935C136.045 31.5652 125.94 28.7152 112.489 28.7152C99.0386 28.7152 88.2433 31.7594 85.6741 32.5799C79.5856 31.0901 72.3312 30.3345 68.9199 33.8753C65.2063 37.74 66.4154 45.5126 67.1063 48.6648C68.5528 55.2715 72.3744 63.8213 78.3981 66.1746C80.5572 67.0166 82.6082 67.3405 84.5082 67.3405C85.4366 67.3405 86.3218 67.2542 87.1638 67.1031C90.2081 79.3017 96.6636 90.3775 109.963 91.6082V114.861C100.291 115.077 92.7773 116.696 92.7773 118.661C92.7773 120.777 103.119 120.496 113.806 120.496C124.494 120.496 131.489 120.777 131.489 118.661C131.489 116.696 123.976 115.077 114.303 114.861V91.6514C128.035 90.723 134.663 79.5823 137.793 67.1894C138.42 67.2541 139.089 67.3189 139.758 67.3189C141.658 67.3189 143.709 66.9951 145.868 66.1531C151.87 63.7997 155.714 55.2499 157.16 48.6432C157.851 45.491 159.06 37.7184 155.347 33.8537L155.368 33.8969ZM80.2549 61.4679C77.0163 60.1941 73.5618 54.3646 72.0937 47.6284C70.9062 42.2308 71.5323 38.582 72.5903 37.4593C74.1448 35.8184 79.3265 36.3366 84.7025 37.6536C84.4434 43.1376 84.3786 52.5942 86.0627 62.1372C84.3139 62.3747 82.3492 62.2883 80.2549 61.4679ZM152.194 47.6069C150.748 54.2567 147.228 60.2157 144.033 61.4679C142.198 62.1804 140.471 62.3315 138.895 62.2236C140.622 52.5295 140.514 42.9433 140.255 37.4809C145.372 36.2935 150.165 35.9048 151.676 37.4809C152.756 38.6036 153.36 42.2524 152.173 47.65L152.194 47.6069Z" fill="#FBC02D"/>
<path d="M155.368 33.8969C152.022 30.3993 144.983 31.0686 138.981 32.4935C136.045 31.5652 125.94 28.7152 112.489 28.7152C99.0386 28.7152 88.2433 31.7594 85.6741 32.5799C79.5856 31.0901 72.3312 30.3345 68.9199 33.8753C65.2063 37.74 66.4154 45.5126 67.1063 48.6648C68.5528 55.2715 72.3744 63.8213 78.3981 66.1746C80.5572 67.0166 82.6082 67.3405 84.5082 67.3405C85.4366 67.3405 86.3218 67.2542 87.1638 67.1031C90.2081 79.3017 96.6636 90.3775 109.963 91.6082V114.861C100.291 115.077 92.7773 116.696 92.7773 118.661C92.7773 120.777 103.119 120.496 113.806 120.496C124.494 120.496 131.489 120.777 131.489 118.661C131.489 116.696 123.976 115.077 114.303 114.861V91.6514C128.035 90.723 134.663 79.5823 137.793 67.1894C138.42 67.2541 139.089 67.3189 139.758 67.3189C141.658 67.3189 143.709 66.9951 145.868 66.1531C151.87 63.7997 155.714 55.2499 157.16 48.6432C157.851 45.491 159.06 37.7184 155.347 33.8537L155.368 33.8969ZM80.2549 61.4679C77.0163 60.1941 73.5618 54.3646 72.0937 47.6284C70.9062 42.2308 71.5323 38.582 72.5903 37.4593C74.1448 35.8184 79.3265 36.3366 84.7025 37.6536C84.4434 43.1376 84.3786 52.5942 86.0627 62.1372C84.3139 62.3747 82.3492 62.2883 80.2549 61.4679ZM152.194 47.6069C150.748 54.2567 147.228 60.2157 144.033 61.4679C142.198 62.1804 140.471 62.3315 138.895 62.2236C140.622 52.5295 140.514 42.9433 140.255 37.4809C145.372 36.2935 150.165 35.9048 151.676 37.4809C152.756 38.6036 153.36 42.2524 152.173 47.65L152.194 47.6069Z" stroke="#FBC02D" stroke-width="1.02" stroke-miterlimit="10"/>
</svg>
