<svg width="221" height="161" viewBox="0 0 221 161" fill="none" xmlns="http://www.w3.org/2000/svg">
<path opacity="0.2" d="M2.16304 38.0207C3.35051 46.2467 5.55273 58.5317 7.4527 66.8872L8.9856 67.1462C11.706 76.7756 14.5343 84.3323 16.4343 85.8004C19.1547 87.8947 24.8546 89.5571 30.209 90.7446C30.2522 90.7446 30.2954 90.7446 30.3386 90.7662C30.7056 90.8526 31.0942 90.9389 31.4613 91.0037C31.6556 94.1127 32.0226 96.7684 32.6488 98.7979C37.9384 115.854 92.5623 161 108.302 161C124.041 161 177.845 116.848 183.955 98.7979C184.3 97.7615 184.581 96.574 184.797 95.257C185.142 93.94 185.272 92.5366 185.25 91.0901C185.25 91.0253 185.25 90.9821 185.25 90.9174C185.509 90.8526 185.79 90.7878 186.071 90.7446C186.114 90.7446 186.157 90.7447 186.2 90.7231C191.533 89.5572 197.254 87.8947 199.975 85.7788C201.875 84.3107 204.703 76.754 207.424 67.1246L208.957 66.8656C210.878 58.51 213.059 46.2467 214.246 37.9991L213.901 38.0423C215.736 26.6425 216.189 17.2723 213.793 15.6962C210.036 13.2349 190.216 16.3439 176.29 18.9132C176.29 18.9132 176.29 18.9132 176.269 18.9132C175.988 18.9563 175.707 19.0211 175.448 19.0643C175.146 19.1291 174.844 19.1722 174.541 19.237C174.541 19.237 174.541 19.237 174.52 19.237C174.369 19.2586 174.239 19.2802 174.109 19.3234C173.699 19.4097 173.311 19.4745 172.922 19.5608C172.296 17.9631 171.735 16.7973 171.238 16.128C171.108 15.9552 171 15.8041 170.893 15.6962C166.445 11.5508 49.7052 12.2417 44.4371 16.5166C43.919 16.9484 43.3144 17.9632 42.6883 19.4098C42.494 19.3666 42.2997 19.3449 42.1054 19.3018C42.0406 19.3018 41.9758 19.2802 41.9111 19.2586C27.9636 16.6246 6.54587 13.1269 2.638 15.6962C0.219866 17.2723 0.694882 26.6425 2.53007 38.0423L2.18462 37.9991L2.16304 38.0207Z" fill="#E3E3E3"/>
<path d="M7.27997 3.75668C13.1742 -0.108011 58.7516 9.75883 58.7516 9.75883L46.5962 80.8346C46.5962 80.8346 26.9273 78.3517 21.0979 73.8393C15.2684 69.3269 0.759644 8.05319 7.27997 3.75668Z" fill="#E3E3E3"/>
<path d="M12.0946 54.9045L49.8779 61.5113L54.088 33.163L6.78333 26.0381C7.9708 34.2641 10.173 46.549 12.073 54.9045H12.0946Z" fill="#F5F5F5"/>
<path opacity="0.5" d="M58.6437 9.73723C58.6437 9.73723 58.6005 9.73723 58.5789 9.73723C58.5141 9.73723 58.4278 9.71566 58.3414 9.69407C58.2766 9.69407 58.1903 9.67244 58.1039 9.65085C58.0391 9.65085 57.9528 9.62928 57.8664 9.60769C57.7369 9.5861 57.6073 9.56449 57.4562 9.52131C57.2835 9.47813 57.1107 9.45657 56.9164 9.41339C56.7869 9.3918 56.6574 9.3486 56.5062 9.32701C56.3551 9.30542 56.1824 9.26226 56.0096 9.21908C55.8369 9.1759 55.6642 9.15427 55.4699 9.11109C55.3403 9.0895 55.1892 9.0463 55.0597 9.02471C54.6495 8.93835 54.1961 8.852 53.7427 8.76563C53.6131 8.74404 53.4836 8.7225 53.3324 8.67932C53.0734 8.63614 52.7927 8.57133 52.512 8.50656C52.3609 8.48497 52.1881 8.44177 52.037 8.42018C51.7347 8.35541 51.4541 8.31225 51.1302 8.24748C50.9359 8.2043 50.72 8.16113 50.5257 8.11795C50.0723 8.03158 49.5973 7.94521 49.1223 7.83726C48.8416 7.77249 48.5609 7.72934 48.2587 7.66456C47.978 7.59979 47.6757 7.55658 47.3735 7.4918C47.0928 7.44862 46.8337 7.38384 46.553 7.34065C46.2508 7.27588 45.9269 7.23273 45.6246 7.16796C45.344 7.12478 45.0633 7.05999 44.8042 7.01681C44.4804 6.95204 44.1781 6.90889 43.8326 6.84412C38.9748 17.1212 31.2886 57.1715 32.2817 78.2006C39.2986 79.9494 46.5962 80.8562 46.5962 80.8562L58.7516 9.78039C58.7516 9.78039 58.7085 9.78039 58.6653 9.78039L58.6437 9.73723Z" fill="#E3E3E3"/>
<path d="M7.27997 3.75668C13.1742 -0.108011 58.7516 9.75883 58.7516 9.75883L46.5962 80.8346C46.5962 80.8346 26.9273 78.3517 21.0979 73.8393C15.2684 69.3269 0.759644 8.05319 7.27997 3.75668Z" stroke="#E3E3E3" stroke-width="1.02" stroke-miterlimit="10"/>
<path d="M218.435 3.75668C212.541 -0.108011 166.963 9.75883 166.963 9.75883L179.119 80.8346C179.119 80.8346 198.787 78.3517 204.617 73.8393C210.446 69.3269 224.955 8.05319 218.435 3.75668Z" fill="#E3E3E3"/>
<path d="M213.62 54.9045L175.837 61.5113L171.627 33.163L218.931 26.0381C217.744 34.2641 215.542 46.549 213.642 54.9045H213.62Z" fill="#F5F5F5"/>
<path opacity="0.5" d="M181.882 6.80085C181.558 6.86562 181.234 6.90884 180.91 6.97361C180.63 7.01679 180.349 7.08158 180.09 7.12476C179.766 7.18953 179.464 7.23268 179.162 7.29745C178.881 7.34063 178.6 7.40542 178.341 7.4486C178.039 7.51337 177.737 7.55652 177.456 7.6213C177.154 7.68607 176.873 7.72929 176.592 7.79406C176.117 7.88042 175.642 7.98838 175.189 8.07474C174.973 8.11792 174.779 8.1611 174.585 8.20428C174.282 8.26905 173.98 8.33379 173.678 8.37698C173.527 8.39857 173.354 8.44177 173.203 8.46336C172.922 8.52813 172.641 8.57128 172.382 8.63605C172.253 8.65764 172.102 8.70084 171.972 8.72243C171.497 8.80879 171.065 8.91673 170.655 8.98151C170.525 9.0031 170.374 9.0463 170.245 9.06789C170.051 9.11107 169.878 9.15422 169.705 9.17581C169.532 9.21899 169.36 9.24062 169.208 9.2838C169.079 9.30539 168.928 9.34853 168.798 9.37012C168.604 9.4133 168.41 9.45652 168.259 9.47811C168.107 9.4997 167.978 9.54283 167.848 9.56442C167.762 9.56442 167.697 9.60765 167.611 9.60765C167.524 9.60765 167.438 9.6508 167.373 9.6508C167.287 9.6508 167.201 9.69403 167.136 9.69403C167.136 9.69403 167.093 9.69403 167.071 9.69403C167.028 9.69403 166.985 9.69403 166.985 9.69403L179.14 80.7698C179.14 80.7698 186.438 79.8414 193.455 78.1142C194.448 57.085 186.762 17.0132 181.904 6.75769L181.882 6.80085Z" fill="#E3E3E3"/>
<path d="M218.435 3.75668C212.541 -0.108011 166.963 9.75883 166.963 9.75883L179.119 80.8346C179.119 80.8346 198.787 78.3517 204.617 73.8393C210.446 69.3269 224.955 8.05319 218.435 3.75668Z" stroke="#E3E3E3" stroke-width="1.02" stroke-miterlimit="10"/>
<path d="M188.597 86.8367C182.508 104.886 128.683 149.039 112.944 149.039C97.2043 149.039 42.5804 103.893 37.2907 86.8367C32.0011 69.7803 43.7895 8.83037 49.0575 4.57705C54.3256 0.323727 171.065 -0.367113 175.513 3.75667C179.961 7.88045 194.707 68.7871 188.597 86.8367Z" fill="#E3E3E3"/>
<path d="M176.916 85.0662C171.756 100.352 126.222 137.682 112.922 137.682C99.6224 137.682 53.3972 99.4886 48.928 85.0662C44.4588 70.6438 54.4336 19.0858 58.8812 15.4802C63.3289 11.8746 163.465 11.0757 167.244 14.5733C171.022 18.071 182.098 69.8017 176.938 85.0662H176.916Z" fill="#F5F5F5"/>
<path opacity="0.7" d="M189.352 69.4348C185.941 70.3416 183.393 73.9472 183.393 78.2653C183.393 81.9573 185.25 85.1311 187.927 86.5345C191.36 81.8925 189.266 75.1563 189.352 69.4132V69.4348Z" fill="#F5F5F5"/>
<path opacity="0.7" d="M116.916 1.44654C110.288 1.40336 103.53 1.42493 96.9884 1.4897C96.9884 1.4897 93.7714 6.11009 109.122 6.11009C115.038 6.11009 116.377 3.06583 116.895 1.44654H116.916Z" fill="#F5F5F5"/>
<path opacity="0.7" d="M175.513 3.75661C173.527 1.89983 144.984 1.66232 119.183 1.44641C118.73 3.04411 123.091 6.08832 126.287 6.19627C143.732 6.84399 170.007 7.94513 171.627 9.73714C173.85 12.22 176.895 38.3661 179.939 52.1408C182.983 65.9155 188.64 64.944 188.662 64.7928C185.078 40.2661 178.751 6.75766 175.513 3.735V3.75661Z" fill="#F5F5F5"/>
<path d="M188.597 86.8367C182.508 104.886 128.683 149.039 112.944 149.039C97.2043 149.039 42.5804 103.893 37.2907 86.8367C32.0011 69.7803 43.7895 8.83037 49.0575 4.57705C54.3256 0.323727 171.065 -0.367113 175.513 3.75667C179.961 7.88045 194.707 68.7871 188.597 86.8367Z" stroke="#E3E3E3" stroke-width="1.02" stroke-miterlimit="10"/>
<path d="M174.584 84.6993C169.619 99.424 125.768 135.372 112.944 135.372C100.119 135.372 55.621 98.582 51.3029 84.6993C46.9849 70.795 56.6142 21.1585 60.8891 17.6609C65.164 14.1632 161.22 13.4724 164.847 16.8405C168.474 20.2086 179.55 69.9746 174.563 84.6777L174.584 84.6993Z" fill="#E3E3E3"/>
<path d="M174.584 84.6777C169.619 99.4024 125.768 135.35 112.944 135.35C100.119 135.35 55.621 98.5603 51.3029 84.6777C46.9849 70.7734 56.6142 21.1369 60.8891 17.6393C65.164 14.1416 161.22 13.4507 164.847 16.8188C168.474 20.1869 179.55 69.9529 174.563 84.656L174.584 84.6777Z" stroke="#E3E3E3" stroke-width="1.02" stroke-miterlimit="10"/>
<path d="M170.072 83.9868C165.473 97.632 124.819 130.968 112.922 130.968C101.026 130.968 59.7665 96.8547 55.7722 83.9868C51.778 71.0973 60.6949 25.0664 64.6675 21.8494C68.6402 18.6325 158.068 17.92 161.414 21.0291C164.782 24.1597 174.671 70.3416 170.072 83.9868Z" fill="#F5F5F5"/>
<path d="M156.081 33.8969C152.735 30.3993 145.696 31.0686 139.694 32.4935C136.758 31.5652 126.654 28.7152 113.203 28.7152C99.752 28.7152 88.9567 31.7594 86.3875 32.5799C80.299 31.0901 73.0446 30.3345 69.6333 33.8753C65.9197 37.74 67.1288 45.5126 67.8196 48.6648C69.2662 55.2715 73.0877 63.8213 79.1115 66.1746C81.2705 67.0166 83.3216 67.3405 85.2216 67.3405C86.1499 67.3405 87.0352 67.2542 87.8772 67.1031C90.9215 79.3017 97.377 90.3775 110.677 91.6082V114.861C101.004 115.077 93.4907 116.696 93.4907 118.661C93.4907 120.777 103.833 120.496 114.52 120.496C125.207 120.496 132.202 120.777 132.202 118.661C132.202 116.696 124.689 115.077 115.016 114.861V91.6514C128.748 90.723 135.376 79.5823 138.507 67.1894C139.133 67.2541 139.802 67.3189 140.472 67.3189C142.372 67.3189 144.423 66.9951 146.582 66.1531C152.584 63.7997 156.427 55.2499 157.874 48.6432C158.564 45.491 159.773 37.7184 156.06 33.8537L156.081 33.8969ZM80.9683 61.4679C77.7297 60.1941 74.2752 54.3646 72.807 47.6284C71.6196 42.2308 72.2457 38.582 73.3036 37.4593C74.8582 35.8184 80.0399 36.3366 85.4159 37.6536C85.1568 43.1376 85.092 52.5942 86.7761 62.1372C85.0272 62.3747 83.0625 62.2883 80.9683 61.4679ZM152.908 47.6069C151.461 54.2567 147.942 60.2157 144.746 61.4679C142.911 62.1804 141.184 62.3315 139.608 62.2236C141.335 52.5295 141.227 42.9433 140.968 37.4809C146.085 36.2935 150.878 35.9048 152.39 37.4809C153.469 38.6036 154.074 42.2524 152.886 47.65L152.908 47.6069Z" fill="#E3E3E3"/>
<path d="M156.081 33.8969C152.735 30.3993 145.696 31.0686 139.694 32.4935C136.758 31.5652 126.654 28.7152 113.203 28.7152C99.752 28.7152 88.9567 31.7594 86.3875 32.5799C80.2989 31.0901 73.0446 30.3345 69.6333 33.8753C65.9197 37.74 67.1288 45.5126 67.8196 48.6648C69.2662 55.2715 73.0877 63.8213 79.1115 66.1746C81.2705 67.0166 83.3216 67.3405 85.2216 67.3405C86.1499 67.3405 87.0352 67.2542 87.8772 67.1031C90.9215 79.3017 97.377 90.3775 110.677 91.6082V114.861C101.004 115.077 93.4907 116.696 93.4907 118.661C93.4907 120.777 103.833 120.496 114.52 120.496C125.207 120.496 132.202 120.777 132.202 118.661C132.202 116.696 124.689 115.077 115.016 114.861V91.6514C128.748 90.723 135.376 79.5823 138.507 67.1894C139.133 67.2541 139.802 67.3189 140.472 67.3189C142.372 67.3189 144.423 66.9951 146.582 66.1531C152.584 63.7997 156.427 55.2499 157.874 48.6432C158.564 45.491 159.773 37.7184 156.06 33.8537L156.081 33.8969ZM80.9683 61.4679C77.7297 60.1941 74.2752 54.3646 72.807 47.6284C71.6196 42.2308 72.2457 38.582 73.3036 37.4593C74.8582 35.8184 80.0399 36.3366 85.4159 37.6536C85.1568 43.1376 85.092 52.5942 86.7761 62.1372C85.0272 62.3747 83.0625 62.2883 80.9683 61.4679ZM152.908 47.6069C151.461 54.2567 147.942 60.2157 144.746 61.4679C142.911 62.1804 141.184 62.3315 139.608 62.2236C141.335 52.5295 141.227 42.9433 140.968 37.4809C146.085 36.2935 150.878 35.9048 152.39 37.4809C153.469 38.6036 154.074 42.2524 152.886 47.65L152.908 47.6069Z" stroke="#E3E3E3" stroke-width="1.02" stroke-miterlimit="10"/>
</svg>
