<svg width="126" height="160" viewBox="0 0 126 160" fill="none" xmlns="http://www.w3.org/2000/svg">
<path opacity="0.2" d="M21.5026 110.69C20.9113 135.411 21.0756 159.03 23.7366 159.817C29.3871 161.485 60.6458 138.039 60.6458 138.039C60.6458 138.039 95.6168 162.335 101.005 159.817C103.419 158.684 103.666 137.299 103.206 114.026C103.173 112.185 103.124 110.328 103.091 108.471C114.326 97.9912 121.307 83.3411 121.307 67.1333C121.307 60.7131 120.19 54.5447 118.186 48.7697C117.874 47.857 117.529 46.9601 117.168 46.0789C117.168 46.0789 117.168 46.0631 117.168 46.0474C116.806 45.1662 116.429 44.3007 116.018 43.4352C116.018 43.4352 116.018 43.4038 116.001 43.4038C115.591 42.5383 115.164 41.7043 114.72 40.8703C114.72 40.8703 114.72 40.8388 114.704 40.8231C114.26 39.9891 113.784 39.1709 113.308 38.3526C113.308 38.3526 113.308 38.3211 113.291 38.3211C112.798 37.5029 112.289 36.7003 111.764 35.9135C111.764 35.9135 111.764 35.9136 111.764 35.8978C102.746 22.491 88.0937 12.9079 71.0107 10.2013C70.1894 9.85513 69.2202 9.58765 68.1361 9.44603C66.8384 9.27294 65.6393 9.32013 64.6374 9.52469C63.4547 9.46175 62.2884 9.41453 61.0893 9.41453C27.8102 9.41453 0.822266 35.2684 0.822266 67.149C0.822266 84.5371 8.8546 100.131 21.5683 110.721L21.5026 110.69Z" fill="#E3E3E3"/>
<path d="M104.52 151.099C99.1323 153.617 64.1613 129.321 64.1613 129.321C64.1613 129.321 32.9026 152.783 27.2521 151.099C21.6015 149.431 27.2521 45.1346 27.2521 45.1346H104.52C104.52 45.1346 109.908 148.582 104.52 151.099Z" fill="#F5F5F5"/>
<path d="M24.9196 107.275C35.8594 115.442 49.6243 120.304 64.5556 120.304C80.6695 120.304 95.4037 114.639 106.721 105.292C106.163 76.6376 104.52 45.1346 104.52 45.1346H27.2521C27.2521 45.1346 25.4617 78.1168 24.9032 107.275H24.9196Z" fill="#E3E3E3"/>
<path d="M104.52 151.099C99.1323 153.617 64.1613 129.321 64.1613 129.321C64.1613 129.321 32.9026 152.783 27.2521 151.099C21.6015 149.431 27.2521 45.1346 27.2521 45.1346H104.52C104.52 45.1346 109.908 148.582 104.52 151.099Z" stroke="#E3E3E3" stroke-width="1.02" stroke-miterlimit="10"/>
<path d="M64.5555 116.134C97.84 116.134 124.823 90.2858 124.823 58.3999C124.823 26.514 97.84 0.665405 64.5555 0.665405C31.2709 0.665405 4.28845 26.514 4.28845 58.3999C4.28845 90.2858 31.2709 116.134 64.5555 116.134Z" fill="#E3E3E3"/>
<path d="M64.5553 107.684C92.9683 107.684 116.002 85.6189 116.002 58.3999C116.002 31.1809 92.9683 9.11548 64.5553 9.11548C36.1423 9.11548 13.109 31.1809 13.109 58.3999C13.109 85.6189 36.1423 107.684 64.5553 107.684Z" fill="#E3E3E3"/>
<path d="M76.9262 3.99955C77.1254 2.61344 74.7589 1.15628 71.6404 0.744924C68.5219 0.333568 65.8323 1.12379 65.6331 2.5099C65.4338 3.89601 67.8004 5.35312 70.9189 5.76448C74.0374 6.17583 76.727 5.38566 76.9262 3.99955Z" fill="#F5F5F5"/>
<path d="M123.344 45.6541C121.554 38.0223 118.187 30.9727 113.571 24.82C111.567 22.5383 109.399 20.2881 107.115 18.1952C103.682 15.0324 100.102 12.074 96.7178 9.58778C91.8064 6.61372 86.4187 4.30054 80.686 2.77417C80.6039 2.83711 80.5217 2.86859 80.4396 2.93154C73.8364 7.99845 92.5949 12.0111 103.715 22.2236C114.261 31.9168 115.509 50.2647 123.328 45.6541H123.344Z" fill="#F5F5F5"/>
<path d="M64.5555 116.134C97.84 116.134 124.823 90.2858 124.823 58.3999C124.823 26.514 97.84 0.665405 64.5555 0.665405C31.2709 0.665405 4.28845 26.514 4.28845 58.3999C4.28845 90.2858 31.2709 116.134 64.5555 116.134Z" stroke="#E3E3E3" stroke-width="1.02" stroke-miterlimit="10"/>
<path d="M64.5556 104.6C91.1905 104.6 112.782 83.9157 112.782 58.4C112.782 32.8843 91.1905 12.1998 64.5556 12.1998C37.9207 12.1998 16.3289 32.8843 16.3289 58.4C16.3289 83.9157 37.9207 104.6 64.5556 104.6Z" fill="#F5F5F5"/>
<path d="M60.7718 17.3334C63.9198 17.3298 66.4702 16.1925 66.4684 14.7933C66.4667 13.3941 63.9133 12.2628 60.7654 12.2665C57.6175 12.2702 55.067 13.4074 55.0688 14.8066C55.0706 16.2058 57.6239 17.3371 60.7718 17.3334Z" fill="#F5F5F5"/>
<path d="M112.782 55.1899C112.782 58.4157 109.431 57.7076 108.544 56.9366C105.194 54.0412 102.763 39.2653 93.9746 31.1928C82.8542 20.9803 62.4531 19.2809 71.0603 11.9637C71.0603 11.9637 87.5685 16.055 98.6889 26.2675C109.809 36.4801 112.799 54.2458 112.799 55.1742L112.782 55.1899Z" fill="#F5F5F5"/>
<path opacity="0.3" d="M64.5556 12.1998C37.9126 12.1998 16.3289 32.8923 16.3289 58.4C16.3289 83.9077 37.929 104.6 64.5556 104.6C91.1822 104.6 112.782 83.9077 112.782 58.4C112.782 32.8923 91.1822 12.1998 64.5556 12.1998ZM64.5556 102.444C39.161 102.444 18.5792 82.7275 18.5792 58.4C18.5792 34.0725 39.161 14.3556 64.5556 14.3556C89.9502 14.3556 110.532 34.0725 110.532 58.4C110.532 82.7275 89.9502 102.444 64.5556 102.444Z" fill="#E3E3E3"/>
<path d="M64.5556 104.6C91.1905 104.6 112.782 83.9157 112.782 58.4C112.782 32.8843 91.1905 12.1998 64.5556 12.1998C37.9207 12.1998 16.3289 32.8843 16.3289 58.4C16.3289 83.9157 37.9207 104.6 64.5556 104.6Z" stroke="#E3E3E3" stroke-width="1.02" stroke-miterlimit="10"/>
<path d="M30.3565 50.2175C30.4715 49.6667 30.7508 49.1946 31.1286 48.9901C35.5307 46.5982 42.5611 44.2379 50.2649 42.2552C54.9134 36.071 59.7591 30.7838 63.7178 27.6524C64.0627 27.3849 64.6212 27.2433 65.2289 27.2433C65.8367 27.2433 66.4116 27.4006 66.7402 27.6681C70.5346 30.7838 75.1503 35.9766 79.5853 42.0663C87.4534 44.2064 94.6644 46.7242 99.1323 49.2734C99.5101 49.4937 99.7893 49.95 99.8879 50.5007C100.003 51.0515 99.9207 51.618 99.6908 51.9956C97.0954 56.4646 93.5639 61.9721 88.8825 67.8573C89.0631 75.2374 88.8824 82.1926 88.3896 87.9676C88.3404 88.4554 87.9954 88.9432 87.4698 89.2579C86.9442 89.5726 86.3035 89.6828 85.7615 89.5412C79.5524 87.9991 72.555 86.2838 64.9497 83.9235C57.3281 86.2209 50.3141 87.8889 44.0887 89.368C43.8916 89.4153 43.678 89.431 43.4645 89.4152C43.1031 89.3838 42.7253 89.2736 42.3968 89.0691C41.8712 88.7543 41.5262 88.2666 41.4934 87.7788C41.0006 81.9093 40.8528 74.7967 41.0827 67.3065C36.4999 61.5158 33.0504 56.1184 30.5208 51.7281C30.2908 51.3347 30.2251 50.7682 30.3401 50.2175H30.3565Z" fill="#E3E3E3"/>
<path d="M97.7358 48.5338C93.2515 46.2364 86.6811 44.0018 79.5851 42.0663C75.15 35.9766 70.5343 30.7838 66.7399 27.6681C66.4114 27.4006 65.8364 27.2433 65.2287 27.2433C64.6209 27.2433 64.046 27.3849 63.7175 27.6524C61.4343 29.462 58.8718 31.9797 56.2108 34.9695C56.2601 35.0482 58.839 37.1883 62.4198 32.8295C66.0664 28.4077 75.6428 44.4739 77.4333 45.1348C79.2237 45.7957 99.9369 52.8453 99.9369 51.0515C99.9369 50.0758 97.7686 48.5495 97.7358 48.5338Z" fill="#F5F5F5"/>
<path d="M30.3565 50.2175C30.4715 49.6667 30.7508 49.1946 31.1286 48.9901C35.5307 46.5982 42.5611 44.2379 50.2649 42.2552C54.9134 36.071 59.7591 30.7838 63.7178 27.6524C64.0627 27.3849 64.6212 27.2433 65.2289 27.2433C65.8367 27.2433 66.4116 27.4006 66.7402 27.6681C70.5346 30.7838 75.1503 35.9766 79.5853 42.0663C87.4534 44.2064 94.6644 46.7242 99.1323 49.2734C99.5101 49.4937 99.7893 49.95 99.8879 50.5007C100.003 51.0515 99.9207 51.618 99.6907 51.9956C97.0954 56.4646 93.5639 61.9721 88.8824 67.8573C89.0631 75.2374 88.8824 82.1926 88.3896 87.9676C88.3404 88.4554 87.9954 88.9432 87.4698 89.2579C86.9442 89.5726 86.3035 89.6828 85.7615 89.5412C79.5524 87.9991 72.555 86.2838 64.9497 83.9235C57.3281 86.2209 50.3141 87.8889 44.0887 89.368C43.8916 89.4153 43.678 89.431 43.4645 89.4152C43.1031 89.3838 42.7253 89.2736 42.3968 89.0691C41.8712 88.7543 41.5262 88.2666 41.4934 87.7788C41.0006 81.9093 40.8528 74.7967 41.0827 67.3065C36.4999 61.5158 33.0504 56.1184 30.5208 51.7281C30.2908 51.3347 30.2251 50.7682 30.3401 50.2175H30.3565Z" stroke="#E3E3E3" stroke-width="1.02" stroke-miterlimit="10"/>
</svg>
