<svg width="140" height="152" viewBox="0 0 140 152" fill="none" xmlns="http://www.w3.org/2000/svg">
<path d="M4.67354 38.355C8.65441 30.0795 61.7601 0.89195 69.6228 0.858914C77.4689 0.825877 130.69 31.1862 134.572 38.355C138.437 45.5239 140.717 103.948 134.572 113.347C128.427 122.746 79.1207 151.306 69.6228 150.843C60.1248 150.381 9.1004 121.012 4.67354 113.347C0.246688 105.683 0.692677 46.6306 4.67354 38.355Z" fill="#FFA726"/>
<path d="M137.809 61.2821C137.198 51.107 136.174 42.5506 134.935 39.1809C132.309 41.0309 132.111 46.2011 132.838 51.4208C133.548 56.5249 134.869 60.1094 137.809 61.2821Z" fill="#FFCC80"/>
<path d="M99.2232 20.8458C130.888 38.5532 134.555 38.355 134.555 38.355C130.69 31.1862 77.4688 0.825877 69.6062 0.858914C69.6062 0.858914 67.5415 3.13841 99.2067 20.8458H99.2232Z" fill="#FFCC80"/>
<path d="M15.3442 44.4832C18.6644 37.5621 63.0981 13.1483 69.6723 13.1153C76.2465 13.0822 120.763 38.4871 124 44.4832C127.238 50.4792 129.154 99.3564 124 107.219C118.847 115.082 77.601 138.967 69.6723 138.587C61.7436 138.207 19.0443 113.628 15.3442 107.219C11.6442 100.81 12.0241 51.4043 15.3442 44.4832Z" fill="#EF6C00"/>
<path d="M69.8209 151.686C69.7383 151.686 69.6557 151.686 69.5731 151.686C59.8935 151.223 8.37353 121.441 3.93016 113.76C-0.82706 105.501 0.147502 45.7882 3.89711 37.9751C7.92753 29.5839 61.5949 0.0330362 69.6062 0H69.6227C78.0965 0 131.45 30.8063 135.299 37.9421C139.395 45.5404 141.543 104.213 135.266 113.793C128.989 123.39 80.0126 151.669 69.8209 151.669V151.686ZM69.6392 1.70136C62.173 1.7344 9.19943 30.9384 5.44982 38.7184C1.45244 47.0436 1.41941 105.997 5.41679 112.918C9.74454 120.434 60.1908 149.538 69.6722 149.984C69.7383 149.984 69.8044 149.984 69.887 149.984C79.451 149.984 127.948 121.904 133.862 112.868C139.874 103.684 137.512 45.557 133.829 38.735C130.261 32.1277 77.5349 1.68484 69.6392 1.68484V1.70136Z" fill="#EF6C00"/>
<path d="M17.442 45.9535C20.6135 39.3628 62.9494 16.0887 69.2098 16.0557C75.4701 16.0227 117.889 40.2217 120.978 45.9535C124.066 51.6688 125.883 98.2333 120.978 105.733C116.072 113.232 76.7751 135.994 69.2098 135.63C61.6445 135.267 20.9604 111.861 17.442 105.733C13.9237 99.6208 14.2705 52.5442 17.442 45.9535Z" fill="#FFCC80"/>
<path d="M56.3091 36.8517C56.3421 36.6535 56.4577 36.4718 56.5899 36.4057C58.1426 35.5138 60.6368 34.6548 63.3623 33.9115C64.9976 31.632 66.7155 29.6829 68.1195 28.5266C68.2351 28.4275 68.4334 28.3779 68.6481 28.3779C68.8628 28.3779 69.0611 28.444 69.1767 28.5431C70.5146 29.6994 72.1499 31.6155 73.7192 33.8619C76.4942 34.6548 79.0545 35.5798 80.6237 36.5214C80.7559 36.604 80.855 36.7691 80.888 36.9839C80.9211 37.1821 80.888 37.3968 80.822 37.529C79.9135 39.1808 78.6581 41.2125 76.9898 43.3764C77.0558 46.1019 76.9898 48.6622 76.8246 50.793C76.8246 50.9747 76.6924 51.1564 76.4942 51.272C76.3125 51.3877 76.0813 51.4207 75.8996 51.3711C73.7027 50.8095 71.2249 50.1653 68.549 49.2899C65.8566 50.1323 63.3788 50.76 61.1819 51.3051C61.1158 51.3216 61.0332 51.3216 60.9672 51.3216C60.835 51.3216 60.7029 51.272 60.5873 51.1894C60.4056 51.0738 60.2734 50.8921 60.2734 50.7104C60.0917 48.5465 60.0422 45.9202 60.1248 43.1616C58.506 41.0308 57.2837 39.0321 56.3917 37.4133C56.3091 37.2647 56.2926 37.0665 56.3256 36.8517H56.3091Z" fill="#EF6C00"/>
<g opacity="0.3">
<path d="M120.978 45.9535C117.889 40.2382 75.4701 16.0392 69.2098 16.0557C62.9494 16.0887 20.6135 39.3462 17.442 45.9535C14.2705 52.5442 13.9237 99.6208 17.442 105.732C20.9604 111.844 61.6445 135.25 69.2098 135.63C76.7751 135.994 116.072 113.232 120.978 105.732C125.883 98.2333 124.066 51.6687 120.978 45.9535ZM117.211 103.552C112.669 110.49 76.23 131.6 69.2263 131.253C62.2226 130.906 24.5118 109.218 21.2412 103.552C17.9706 97.8864 18.3009 54.2455 21.2412 48.1338C24.1814 42.0221 63.4284 20.4495 69.2263 20.433C75.0241 20.4164 114.354 42.848 117.211 48.1338C120.069 53.4362 121.754 96.598 117.211 103.552Z" fill="#EF6C00"/>
</g>
<path d="M69.3584 136.473C69.3584 136.473 69.2262 136.473 69.1601 136.473C61.0828 136.076 20.3987 112.571 16.6986 106.162C12.8994 99.5546 13.6758 51.8338 16.6656 45.5899C20.0518 38.5532 62.5034 15.2627 69.1932 15.2131C75.9656 15.2131 118.615 39.8416 121.704 45.5404C124.991 51.6191 126.693 98.514 121.671 106.178C116.65 113.843 77.5018 136.456 69.3418 136.456L69.3584 136.473ZM69.2262 16.9145C63.2797 16.9475 21.1915 40.139 18.2183 46.3333C15.0303 52.957 15.0138 99.8189 18.1852 105.319C21.4724 111.035 62.0574 134.441 69.2592 134.788C69.3088 134.788 69.3749 134.788 69.4244 134.788C77.0228 134.788 115.576 112.455 120.284 105.27C125.057 97.9689 123.174 51.7842 120.251 46.3498C117.41 41.097 75.5031 16.898 69.2427 16.898L69.2262 16.9145Z" fill="#EF6C00"/>
<path d="M69.953 108.986C83.6827 108.986 94.8128 97.8563 94.8128 84.1266C94.8128 70.3969 83.6827 59.2668 69.953 59.2668C56.2234 59.2668 45.0933 70.3969 45.0933 84.1266C45.0933 97.8563 56.2234 108.986 69.953 108.986Z" fill="#EF6C00"/>
<path d="M49.0906 122.861C58.1921 127.85 66.7154 131.847 69.7052 131.996C72.695 132.145 80.954 128.444 89.8573 123.588C88.7506 119.227 87.6273 115.692 86.6197 114.52C83.8116 111.216 55.9951 111.216 52.675 114.52C51.5683 115.626 50.3129 118.831 49.0906 122.861Z" fill="#EF6C00"/>
</svg>
