<svg width="135" height="161" viewBox="0 0 135 161" fill="none" xmlns="http://www.w3.org/2000/svg">
<path opacity="0.2" d="M122.57 63.2987C125.572 60.8331 127.164 57.0045 126.843 53.1453C126.843 51.7211 126.353 50.1284 125.465 48.5663C124.301 46.3917 122.524 44.7071 120.441 43.6351C120.227 43.5279 120.013 43.4054 119.798 43.3135C119.523 43.191 119.232 43.0838 118.941 42.9919C118.803 42.946 118.68 42.9 118.542 42.8694C117.118 42.4253 115.602 42.2262 114.071 42.3487C115.556 39.4696 115.755 36.1158 114.714 33.0836C114.285 30.9855 112.708 28.6884 110.288 26.9578C107.195 24.7526 103.688 24.186 101.467 25.2886C100.257 25.503 99.0627 25.9165 97.9447 26.5137C98.2663 23.2977 97.225 20.1276 95.1728 17.708C94.8665 17.3404 94.5143 16.9882 94.1315 16.636C93.8252 16.345 93.4729 16.1 93.136 15.8396C92.9676 15.7171 92.8297 15.5946 92.6613 15.4874C92.3856 15.3037 92.0947 15.1505 91.819 14.9974C91.6199 14.8902 91.4208 14.7523 91.2064 14.6451C91.0686 14.5839 90.9461 14.5379 90.8083 14.4767C90.7623 14.4614 90.7164 14.4307 90.6704 14.4001C90.6245 14.3848 90.5785 14.3694 90.5326 14.3541C87.6994 13.1443 84.851 13.0524 82.9214 13.9866C80.6855 14.6298 78.6487 15.9009 77.1172 17.708C75.5858 12.9452 71.1293 9.48419 65.8459 9.48419C60.5625 9.48419 55.9835 13.0371 54.5133 17.9071C53.4413 16.59 52.0937 15.5793 50.6082 14.8442C48.7858 13.4506 45.7076 12.9299 42.4303 13.711C38.8927 14.5686 36.1974 16.7125 35.447 18.9944C34.0381 21.169 33.3489 23.7724 33.5786 26.4065C29.1222 24.1093 23.5171 24.8291 19.7958 28.5658C16.0744 32.3025 15.324 38.0454 17.7283 42.5325C12.6746 42.0271 7.66681 44.8603 5.63001 49.8068C3.62383 54.692 5.10932 60.1286 8.9379 63.36C4.17515 64.8914 0.714111 69.3479 0.714111 74.6313C0.714111 79.9148 4.26703 84.4937 9.13699 85.9639C5.20121 89.1952 3.66977 94.7237 5.72189 99.6549C7.74338 104.525 12.6593 107.327 17.6517 106.899C16.35 109.41 16.0591 112.289 16.6869 115C16.5797 115.321 16.4725 115.658 16.35 115.98C16.35 115.98 16.35 115.995 16.35 116.011C16.1663 116.547 15.9978 117.083 15.814 117.619C15.7834 117.726 15.7375 117.848 15.7068 117.956C15.5537 118.4 15.4159 118.844 15.2627 119.288C15.2168 119.426 15.1708 119.564 15.1249 119.686C14.9871 120.1 14.8492 120.513 14.7114 120.926C14.6655 121.08 14.6195 121.217 14.5736 121.371C14.4357 121.799 14.2979 122.213 14.1601 122.642C14.1295 122.734 14.0988 122.81 14.0682 122.902C9.99459 135.475 6.91641 146.379 8.12624 147.206C11.0819 149.227 33.5633 140.621 33.5633 140.621C33.5633 140.621 49.3064 161.54 52.89 160.989C54.1917 160.79 57.1474 152.275 60.3787 141.54C60.3787 141.509 60.394 141.478 60.4093 141.448C60.6697 140.575 60.93 139.687 61.2057 138.783C62.6452 139.396 64.2073 139.778 65.8612 139.778C67.5152 139.778 69.0926 139.396 70.5168 138.783C70.5321 138.844 70.5474 138.89 70.5627 138.951C70.7924 139.748 71.0221 140.514 71.2672 141.295C71.3131 141.432 71.3591 141.57 71.3897 141.723C71.6194 142.504 71.8491 143.27 72.0788 144.005C72.0788 144.02 72.0788 144.036 72.0788 144.051C75.0039 153.577 77.6073 160.805 78.8171 160.989C82.4007 161.555 98.1438 140.621 98.1438 140.621C98.1438 140.621 120.61 149.227 123.581 147.206C125.051 146.21 120.258 130.575 115.036 115C115.679 112.228 115.342 109.288 113.979 106.73C119.033 107.235 124.04 104.402 126.077 99.4558C128.083 94.5706 126.598 89.134 122.769 85.9026C127.088 84.5244 130.304 80.7111 130.871 76.0862C130.932 75.7033 130.962 75.3052 130.962 74.8764C130.962 74.7845 130.978 74.7079 130.978 74.6313C130.978 69.2866 127.425 64.7689 122.555 63.2987H122.57Z" fill="black"/>
<path d="M107.164 74.6465L69.1384 86.3467L31.1282 74.6465C31.1282 74.6465 8.44774 136.7 11.4187 138.722C14.3744 140.743 36.8558 132.136 36.8558 132.136C36.8558 132.136 52.5989 153.056 56.1825 152.505C58.2193 152.183 64.2837 131.616 69.1537 113.867C74.0237 131.616 80.0881 152.183 82.1249 152.505C85.7085 153.071 101.452 132.136 101.452 132.136C101.452 132.136 123.918 140.743 126.889 138.722C129.844 136.7 107.179 74.6465 107.179 74.6465H107.164Z" fill="#FF2B42"/>
<path d="M107.164 74.6465L69.1383 86.3467L31.1282 74.6465C31.1282 74.6465 23.226 96.2857 17.3606 114.418C17.82 115.107 18.3254 115.765 18.938 116.363C23.0575 120.482 29.2751 121.233 34.1604 118.614C33.6244 124.127 36.6873 129.579 42.0779 131.8C47.392 133.99 53.3339 132.366 56.8562 128.201C57.867 131.355 60.0569 133.959 62.9054 135.536C64.9422 128.905 67.1474 121.141 69.1536 113.867C71.1598 121.156 73.3498 128.92 75.4019 135.552C78.3116 133.944 80.5322 131.233 81.5123 128.002C85.0346 132.29 91.0684 133.959 96.4437 131.723C101.758 129.518 104.805 124.158 104.346 118.721C109.201 121.217 115.311 120.436 119.385 116.378C119.982 115.781 120.503 115.122 120.962 114.433C115.097 96.301 107.194 74.6618 107.194 74.6618L107.164 74.6465Z" fill="#C01830"/>
<path d="M107.164 74.6465L69.1384 86.3467L31.1282 74.6465C31.1282 74.6465 8.44774 136.7 11.4187 138.722C14.3744 140.743 36.8558 132.136 36.8558 132.136C36.8558 132.136 52.5989 153.056 56.1825 152.505C58.2193 152.183 64.2837 131.616 69.1537 113.867C74.0237 131.616 80.0881 152.183 82.1249 152.505C85.7085 153.071 101.452 132.136 101.452 132.136C101.452 132.136 123.918 140.743 126.889 138.722C129.844 136.7 107.179 74.6465 107.179 74.6465H107.164Z" stroke="#650032" stroke-width="1.02" stroke-miterlimit="10"/>
<path d="M134.285 66.1318C134.285 60.7871 130.733 56.2694 125.863 54.7992C129.798 51.5679 131.33 46.0394 129.278 41.1082C127.256 36.2383 122.34 33.4358 117.348 33.8646C119.645 29.4081 118.925 23.8031 115.188 20.0817C111.452 16.3603 105.709 15.6099 101.222 18.0142C101.727 12.9605 98.8941 7.95273 93.9475 5.91593C89.0623 3.90975 83.6257 5.3952 80.3944 9.22378C78.8629 4.46103 74.4065 1 69.123 1C63.8396 1 59.2606 4.55292 57.7904 9.42288C54.5591 5.4871 49.0306 3.95569 44.0994 6.00781C39.2295 8.0293 36.4269 12.9452 36.8557 17.9376C32.3993 15.6405 26.7942 16.3603 23.0729 20.097C19.2902 23.8796 18.6011 29.5765 21.0054 34.0636C15.9517 33.5582 10.9439 36.3914 8.90711 41.3379C6.90093 46.2232 8.38642 51.6598 12.215 54.8911C7.45225 56.4225 3.99121 60.879 3.99121 66.1625C3.99121 71.4459 7.54413 76.0249 12.4141 77.495C8.47831 80.7264 6.94687 86.2548 8.99899 91.1861C11.0205 96.056 15.9364 98.8585 20.9288 98.4297C18.6317 102.886 19.3515 108.491 23.0882 112.213C26.8249 115.934 32.5677 116.684 37.0548 114.28C36.5495 119.334 39.3826 124.342 44.3291 126.378C49.2144 128.385 54.651 126.899 57.8823 123.07C59.4137 127.833 63.8702 131.294 69.1536 131.294C74.4371 131.294 79.0161 127.741 80.4862 122.871C83.7176 126.807 89.246 128.339 94.1772 126.286C99.0472 124.265 101.85 119.349 101.421 114.357C105.877 116.654 111.482 115.934 115.204 112.197C118.986 108.415 119.676 102.718 117.271 98.2307C122.325 98.736 127.333 95.9029 129.37 90.9564C131.376 86.0711 129.89 80.6345 126.062 77.4032C130.824 75.8717 134.285 71.4152 134.285 66.1318Z" fill="#FFEE58"/>
<path d="M117.424 28.0145C115.647 30.5107 114.254 26.5443 110.349 23.7724C106.443 21.0005 101.528 20.4646 103.304 17.9683C105.081 15.4721 109.675 15.7018 113.58 18.4737C117.47 21.2456 119.2 25.5183 117.424 28.0145Z" fill="#FFF59D"/>
<path d="M128.818 48.0764C126.521 50.0978 126.061 45.9323 122.891 42.3488C119.721 38.7652 115.05 37.1266 117.348 35.1051C119.645 33.0836 124.071 34.3394 127.241 37.923C130.411 41.5065 131.115 46.0548 128.818 48.0916V48.0764Z" fill="#FFF59D"/>
<path d="M132.187 70.8946C129.553 72.4567 129.875 68.2605 127.455 64.141C125.02 60.0214 120.747 57.5252 123.397 55.9632C126.031 54.4011 130.15 56.4838 132.57 60.6034C135.005 64.7229 134.821 69.3325 132.187 70.8793V70.8946Z" fill="#FFF59D"/>
<path d="M99.8278 14.9514C98.4802 17.6927 96.4587 14.0172 92.1707 11.9038C87.8826 9.79047 82.9361 10.0508 84.2991 7.29427C85.6621 4.53769 90.2257 4.03232 94.5137 6.14569C98.8018 8.25907 101.191 12.1948 99.8278 14.9514Z" fill="#FFF59D"/>
<path d="M77.806 6.86541C77.806 9.92827 74.3603 7.5086 69.5822 7.47797C64.8042 7.44734 60.4702 9.85167 60.4855 6.78881C60.5008 3.72595 64.3907 1.26033 69.1687 1.27564C73.9468 1.29096 77.8213 3.78722 77.806 6.85008V6.86541Z" fill="#FFF59D"/>
<path d="M55.4623 8.56529C56.1821 11.5363 52.2769 10.0048 47.6214 11.1381C42.9658 12.2713 39.3517 15.6405 38.6166 12.6542C37.8815 9.66794 41.0822 6.34472 45.7224 5.22678C50.378 4.09352 54.7272 5.59431 55.447 8.56529H55.4623Z" fill="#FFF59D"/>
<path d="M134.285 66.1318C134.285 60.7871 130.733 56.2694 125.863 54.7992C129.798 51.5679 131.33 46.0394 129.278 41.1082C127.256 36.2383 122.34 33.4358 117.348 33.8646C119.645 29.4081 118.925 23.8031 115.188 20.0817C111.452 16.3603 105.709 15.6099 101.222 18.0142C101.727 12.9605 98.8941 7.95274 93.9475 5.91593C89.0623 3.90975 83.6257 5.3952 80.3944 9.22378C78.8629 4.46103 74.4065 1 69.123 1C63.8396 1 59.2606 4.55292 57.7904 9.42288C54.5591 5.4871 49.0306 3.95569 44.0994 6.00781C39.2295 8.0293 36.4269 12.9452 36.8557 17.9376C32.3993 15.6405 26.7942 16.3603 23.0729 20.097C19.2902 23.8796 18.6011 29.5765 21.0054 34.0636C15.9517 33.5582 10.9439 36.3914 8.90711 41.3379C6.90093 46.2232 8.38642 51.6598 12.215 54.8911C7.45225 56.4225 3.99121 60.879 3.99121 66.1625C3.99121 71.4459 7.54413 76.0249 12.4141 77.495C8.47831 80.7264 6.94687 86.2548 8.99899 91.1861C11.0205 96.056 15.9364 98.8585 20.9288 98.4297C18.6317 102.886 19.3515 108.491 23.0882 112.213C26.8249 115.934 32.5677 116.684 37.0548 114.28C36.5495 119.334 39.3826 124.342 44.3291 126.378C49.2144 128.385 54.651 126.899 57.8823 123.07C59.4137 127.833 63.8702 131.294 69.1536 131.294C74.4371 131.294 79.0161 127.741 80.4862 122.871C83.7176 126.807 89.246 128.339 94.1772 126.286C99.0472 124.265 101.85 119.349 101.421 114.357C105.877 116.654 111.482 115.934 115.204 112.197C118.986 108.415 119.676 102.718 117.271 98.2307C122.325 98.736 127.333 95.9029 129.37 90.9563C131.376 86.0711 129.89 80.6345 126.062 77.4032C130.824 75.8717 134.285 71.4152 134.285 66.1318Z" stroke="#FBC02D" stroke-width="1.02" stroke-miterlimit="10"/>
<path d="M69.1537 111.631C94.2821 111.631 114.653 91.2602 114.653 66.1319C114.653 41.0036 94.2821 20.6331 69.1537 20.6331C44.0254 20.6331 23.6549 41.0036 23.6549 66.1319C23.6549 91.2602 44.0254 111.631 69.1537 111.631Z" fill="#FFF59D"/>
<path d="M69.1537 109.272C92.9795 109.272 112.294 89.9577 112.294 66.1319C112.294 42.3061 92.9795 22.9915 69.1537 22.9915C45.3279 22.9915 26.0133 42.3061 26.0133 66.1319C26.0133 89.9577 45.3279 109.272 69.1537 109.272Z" fill="#FBC02D"/>
<path d="M69.1537 105.765C91.0427 105.765 108.787 88.0208 108.787 66.1319C108.787 44.2429 91.0427 26.4984 69.1537 26.4984C47.2648 26.4984 29.5203 44.2429 29.5203 66.1319C29.5203 88.0208 47.2648 105.765 69.1537 105.765Z" fill="#FFF59D"/>
<path d="M69.1537 109.272C92.9795 109.272 112.294 89.9577 112.294 66.1319C112.294 42.3061 92.9795 22.9915 69.1537 22.9915C45.3279 22.9915 26.0133 42.3061 26.0133 66.1319C26.0133 89.9577 45.3279 109.272 69.1537 109.272Z" stroke="#FBC02D" stroke-width="1.02" stroke-miterlimit="10"/>
<path d="M101.965 70.4183C104.222 52.424 91.4644 36.0068 73.47 33.7495C55.4757 31.4923 39.0585 44.2497 36.8012 62.2441C34.544 80.2384 47.3014 96.6556 65.2958 98.9129C83.2901 101.17 99.7073 88.4127 101.965 70.4183Z" fill="#FBC02D"/>
<g opacity="0.3">
<path d="M101.965 70.4183C104.222 52.424 91.4644 36.0068 73.47 33.7495C55.4757 31.4923 39.0585 44.2497 36.8012 62.2441C34.544 80.2384 47.3014 96.6556 65.2958 98.9129C83.2901 101.17 99.7073 88.4127 101.965 70.4183Z" fill="black"/>
</g>
<path d="M68.4988 97.0663C86.6341 97.0663 101.336 82.3647 101.336 64.2293C101.336 46.0939 86.6341 31.3923 68.4988 31.3923C50.3634 31.3923 35.6617 46.0939 35.6617 64.2293C35.6617 82.3647 50.3634 97.0663 68.4988 97.0663Z" fill="#FBC02D"/>
<path d="M93.7251 68.2461C95.9443 54.3135 86.4487 41.2199 72.5161 39.0007C58.5835 36.7815 45.4899 46.2771 43.2707 60.2097C41.0516 74.1423 50.5472 87.2359 64.4798 89.4551C78.4123 91.6743 91.5059 82.1786 93.7251 68.2461Z" fill="white"/>
<path d="M81.2047 76.9358C88.2231 69.9174 88.2231 58.5383 81.2047 51.5199C74.1862 44.5015 62.8072 44.5015 55.7888 51.5199C48.7704 58.5383 48.7704 69.9174 55.7888 76.9358C62.8072 83.9542 74.1863 83.9542 81.2047 76.9358Z" fill="#FBC02D"/>
<path d="M68.4989 73.7134C73.7368 73.7134 77.983 69.4672 77.983 64.2293C77.983 58.9914 73.7368 54.7452 68.4989 54.7452C63.261 54.7452 59.0148 58.9914 59.0148 64.2293C59.0148 69.4672 63.261 73.7134 68.4989 73.7134Z" fill="white"/>
<path d="M93.9009 37.6356L93.0084 30.6298L100.14 23L100.651 30.5604L93.9009 37.6356Z" fill="#455A64"/>
<path d="M109.204 32.0595L101.968 31.4746L94.72 38.4501L101.973 39.2214L109.204 32.0595Z" fill="#455A64"/>
<g opacity="0.3">
<path d="M68.4989 64.7839L95.4522 45.4777C94.4169 43.9845 93.2729 42.5696 92.0294 41.2447L68.9408 63.5751L68.4989 64.7839Z" fill="black"/>
</g>
<path d="M101.721 29.1003L98.3377 32.5274L90.214 40.7594C86.9529 44.0609 83.6919 47.3653 80.4309 50.6725L71.9303 59.2728C70.5525 60.6679 69.1141 62.024 67.7883 63.4668L67.732 63.5274C66.9304 64.3376 68.1652 65.5854 68.9798 64.7752L72.3635 61.3481L80.4872 53.1161L90.2703 43.203L98.7709 34.5898C100.149 33.1947 101.587 31.8386 102.913 30.3958L102.969 30.3351C103.771 29.5249 102.536 28.2771 101.721 29.0873V29.1003Z" fill="#263238"/>
<path d="M96.2449 76.8459C96.4009 76.9109 96.0976 78.0894 95.2008 79.8311C94.9755 80.2644 94.7198 80.7323 94.4079 81.2176C94.0959 81.7028 93.7537 82.2097 93.3811 82.7383C91.7052 85.0079 89.6538 86.9743 87.3154 88.5527C86.7738 88.9036 86.2582 89.2459 85.7513 89.5189C85.2444 89.7918 84.7851 90.0345 84.3302 90.2511C82.5538 91.0743 81.3667 91.3299 81.2973 91.1739C81.228 91.018 82.2635 90.4201 83.8579 89.4149C84.2565 89.1593 84.6941 88.8863 85.1577 88.5484C85.6213 88.2104 86.0892 87.8855 86.5875 87.5215C88.7351 85.9022 90.6825 84.0333 92.3889 81.9541C92.7702 81.4689 93.1514 81.0183 93.472 80.5677C93.7927 80.1171 94.1003 79.7011 94.3732 79.3199C95.452 77.7818 96.0586 76.7593 96.2449 76.8459Z" fill="white"/>
</svg>
