<svg width="135" height="161" viewBox="0 0 135 161" fill="none" xmlns="http://www.w3.org/2000/svg">
<path opacity="0.2" d="M122.57 63.2987C125.572 60.8331 127.164 57.0045 126.843 53.1453C126.843 51.7211 126.353 50.1284 125.465 48.5663C124.301 46.3917 122.524 44.7071 120.441 43.6351C120.227 43.5279 120.013 43.4054 119.798 43.3135C119.523 43.191 119.232 43.0838 118.941 42.9919C118.803 42.946 118.68 42.9 118.542 42.8694C117.118 42.4253 115.602 42.2262 114.071 42.3487C115.556 39.4696 115.755 36.1158 114.714 33.0836C114.285 30.9855 112.708 28.6884 110.288 26.9578C107.195 24.7526 103.688 24.186 101.467 25.2886C100.257 25.503 99.0627 25.9165 97.9447 26.5137C98.2663 23.2977 97.225 20.1276 95.1728 17.708C94.8665 17.3404 94.5143 16.9882 94.1315 16.636C93.8252 16.345 93.4729 16.1 93.136 15.8396C92.9676 15.7171 92.8297 15.5946 92.6613 15.4874C92.3856 15.3037 92.0947 15.1505 91.819 14.9974C91.6199 14.8902 91.4208 14.7523 91.2064 14.6451C91.0686 14.5839 90.9461 14.5379 90.8083 14.4767C90.7623 14.4614 90.7164 14.4307 90.6704 14.4001C90.6245 14.3848 90.5785 14.3694 90.5326 14.3541C87.6994 13.1443 84.851 13.0524 82.9214 13.9866C80.6855 14.6298 78.6487 15.9009 77.1172 17.708C75.5858 12.9452 71.1293 9.48419 65.8459 9.48419C60.5625 9.48419 55.9835 13.0371 54.5133 17.9071C53.4413 16.59 52.0937 15.5793 50.6082 14.8442C48.7858 13.4506 45.7076 12.9299 42.4303 13.711C38.8927 14.5686 36.1974 16.7125 35.447 18.9944C34.0381 21.169 33.3489 23.7724 33.5786 26.4065C29.1222 24.1093 23.5171 24.8291 19.7958 28.5658C16.0744 32.3025 15.324 38.0454 17.7283 42.5325C12.6746 42.0271 7.66681 44.8603 5.63001 49.8068C3.62383 54.692 5.10932 60.1286 8.9379 63.36C4.17515 64.8914 0.714111 69.3479 0.714111 74.6313C0.714111 79.9148 4.26703 84.4937 9.13699 85.9639C5.20121 89.1952 3.66977 94.7237 5.72189 99.6549C7.74338 104.525 12.6593 107.327 17.6517 106.899C16.35 109.41 16.0591 112.289 16.6869 115C16.5797 115.321 16.4725 115.658 16.35 115.98C16.35 115.98 16.35 115.995 16.35 116.011C16.1663 116.547 15.9978 117.083 15.814 117.619C15.7834 117.726 15.7375 117.848 15.7068 117.956C15.5537 118.4 15.4159 118.844 15.2627 119.288C15.2168 119.426 15.1708 119.564 15.1249 119.686C14.9871 120.1 14.8492 120.513 14.7114 120.926C14.6655 121.08 14.6195 121.217 14.5736 121.371C14.4357 121.799 14.2979 122.213 14.1601 122.642C14.1295 122.734 14.0988 122.81 14.0682 122.902C9.99459 135.475 6.91641 146.379 8.12624 147.206C11.0819 149.227 33.5633 140.621 33.5633 140.621C33.5633 140.621 49.3064 161.54 52.89 160.989C54.1917 160.79 57.1474 152.275 60.3787 141.54C60.3787 141.509 60.394 141.478 60.4093 141.448C60.6697 140.575 60.93 139.687 61.2057 138.783C62.6452 139.396 64.2073 139.778 65.8612 139.778C67.5152 139.778 69.0926 139.396 70.5168 138.783C70.5321 138.844 70.5474 138.89 70.5627 138.951C70.7924 139.748 71.0221 140.514 71.2672 141.295C71.3131 141.432 71.3591 141.57 71.3897 141.723C71.6194 142.504 71.8491 143.27 72.0788 144.005C72.0788 144.02 72.0788 144.036 72.0788 144.051C75.0039 153.577 77.6073 160.805 78.8171 160.989C82.4007 161.555 98.1438 140.621 98.1438 140.621C98.1438 140.621 120.61 149.227 123.581 147.206C125.051 146.21 120.258 130.575 115.036 115C115.679 112.228 115.342 109.288 113.979 106.73C119.033 107.235 124.04 104.402 126.077 99.4558C128.083 94.5706 126.598 89.134 122.769 85.9026C127.088 84.5244 130.304 80.7111 130.871 76.0862C130.932 75.7033 130.962 75.3052 130.962 74.8764C130.962 74.7845 130.978 74.7079 130.978 74.6313C130.978 69.2866 127.425 64.7689 122.555 63.2987H122.57Z" fill="black"/>
<path d="M107.164 74.6465L69.1384 86.3467L31.1282 74.6465C31.1282 74.6465 8.44774 136.7 11.4187 138.722C14.3744 140.743 36.8558 132.136 36.8558 132.136C36.8558 132.136 52.5989 153.056 56.1825 152.505C58.2193 152.183 64.2837 131.616 69.1537 113.867C74.0237 131.616 80.0881 152.183 82.1249 152.505C85.7085 153.071 101.452 132.136 101.452 132.136C101.452 132.136 123.918 140.743 126.889 138.722C129.844 136.7 107.179 74.6465 107.179 74.6465H107.164Z" fill="#FF2B42"/>
<path d="M107.164 74.6465L69.1383 86.3467L31.1282 74.6465C31.1282 74.6465 23.226 96.2857 17.3606 114.418C17.82 115.107 18.3254 115.765 18.938 116.363C23.0575 120.482 29.2751 121.233 34.1604 118.614C33.6244 124.127 36.6873 129.579 42.0779 131.8C47.392 133.99 53.3339 132.366 56.8562 128.201C57.867 131.355 60.0569 133.959 62.9054 135.536C64.9422 128.905 67.1474 121.141 69.1536 113.867C71.1598 121.156 73.3498 128.92 75.4019 135.552C78.3116 133.944 80.5322 131.233 81.5123 128.002C85.0346 132.29 91.0684 133.959 96.4437 131.723C101.758 129.518 104.805 124.158 104.346 118.721C109.201 121.217 115.311 120.436 119.385 116.378C119.982 115.781 120.503 115.122 120.962 114.433C115.097 96.301 107.194 74.6618 107.194 74.6618L107.164 74.6465Z" fill="#C01830"/>
<path d="M107.164 74.6465L69.1384 86.3467L31.1282 74.6465C31.1282 74.6465 8.44774 136.7 11.4187 138.722C14.3744 140.743 36.8558 132.136 36.8558 132.136C36.8558 132.136 52.5989 153.056 56.1825 152.505C58.2193 152.183 64.2837 131.616 69.1537 113.867C74.0237 131.616 80.0881 152.183 82.1249 152.505C85.7085 153.071 101.452 132.136 101.452 132.136C101.452 132.136 123.918 140.743 126.889 138.722C129.844 136.7 107.179 74.6465 107.179 74.6465H107.164Z" stroke="#650032" stroke-width="1.02" stroke-miterlimit="10"/>
<path d="M134.285 66.1318C134.285 60.7871 130.733 56.2694 125.863 54.7992C129.798 51.5679 131.33 46.0394 129.278 41.1082C127.256 36.2383 122.34 33.4358 117.348 33.8646C119.645 29.4081 118.925 23.8031 115.188 20.0817C111.452 16.3603 105.709 15.6099 101.222 18.0142C101.727 12.9605 98.8941 7.95273 93.9475 5.91593C89.0623 3.90975 83.6257 5.3952 80.3944 9.22378C78.8629 4.46103 74.4065 1 69.123 1C63.8396 1 59.2606 4.55292 57.7904 9.42288C54.5591 5.4871 49.0306 3.95569 44.0994 6.00781C39.2295 8.0293 36.4269 12.9452 36.8557 17.9376C32.3993 15.6405 26.7942 16.3603 23.0729 20.097C19.2902 23.8796 18.6011 29.5765 21.0054 34.0636C15.9517 33.5582 10.9439 36.3914 8.90711 41.3379C6.90093 46.2232 8.38642 51.6598 12.215 54.8911C7.45225 56.4225 3.99121 60.879 3.99121 66.1625C3.99121 71.4459 7.54413 76.0249 12.4141 77.495C8.47831 80.7264 6.94687 86.2548 8.99899 91.1861C11.0205 96.056 15.9364 98.8585 20.9288 98.4297C18.6317 102.886 19.3515 108.491 23.0882 112.213C26.8249 115.934 32.5677 116.684 37.0548 114.28C36.5495 119.334 39.3826 124.342 44.3291 126.378C49.2144 128.385 54.651 126.899 57.8823 123.07C59.4137 127.833 63.8702 131.294 69.1536 131.294C74.4371 131.294 79.0161 127.741 80.4862 122.871C83.7176 126.807 89.246 128.339 94.1772 126.286C99.0472 124.265 101.85 119.349 101.421 114.357C105.877 116.654 111.482 115.934 115.204 112.197C118.986 108.415 119.676 102.718 117.271 98.2307C122.325 98.736 127.333 95.9029 129.37 90.9564C131.376 86.0711 129.89 80.6345 126.062 77.4032C130.824 75.8717 134.285 71.4152 134.285 66.1318Z" fill="#FFEE58"/>
<path d="M117.424 28.0145C115.647 30.5107 114.254 26.5443 110.349 23.7724C106.443 21.0005 101.528 20.4646 103.304 17.9683C105.081 15.4721 109.675 15.7018 113.58 18.4737C117.47 21.2456 119.2 25.5183 117.424 28.0145Z" fill="#FFF59D"/>
<path d="M128.818 48.0764C126.521 50.0978 126.061 45.9323 122.891 42.3488C119.721 38.7652 115.05 37.1266 117.348 35.1051C119.645 33.0836 124.071 34.3394 127.241 37.923C130.411 41.5065 131.115 46.0548 128.818 48.0916V48.0764Z" fill="#FFF59D"/>
<path d="M132.187 70.8946C129.553 72.4567 129.875 68.2605 127.455 64.141C125.02 60.0214 120.747 57.5252 123.397 55.9632C126.031 54.4011 130.15 56.4838 132.57 60.6034C135.005 64.7229 134.821 69.3325 132.187 70.8793V70.8946Z" fill="#FFF59D"/>
<path d="M99.8278 14.9514C98.4802 17.6927 96.4587 14.0172 92.1707 11.9038C87.8826 9.79047 82.9361 10.0508 84.2991 7.29427C85.6621 4.53769 90.2257 4.03232 94.5137 6.14569C98.8018 8.25907 101.191 12.1948 99.8278 14.9514Z" fill="#FFF59D"/>
<path d="M77.806 6.86541C77.806 9.92827 74.3603 7.5086 69.5822 7.47797C64.8042 7.44734 60.4702 9.85167 60.4855 6.78881C60.5008 3.72595 64.3907 1.26033 69.1687 1.27564C73.9468 1.29096 77.8213 3.78722 77.806 6.85008V6.86541Z" fill="#FFF59D"/>
<path d="M55.4623 8.56529C56.1821 11.5363 52.2769 10.0048 47.6214 11.1381C42.9658 12.2713 39.3517 15.6405 38.6166 12.6542C37.8815 9.66794 41.0822 6.34472 45.7224 5.22678C50.378 4.09352 54.7272 5.59431 55.447 8.56529H55.4623Z" fill="#FFF59D"/>
<path d="M134.285 66.1318C134.285 60.7871 130.733 56.2694 125.863 54.7992C129.798 51.5679 131.33 46.0394 129.278 41.1082C127.256 36.2383 122.34 33.4358 117.348 33.8646C119.645 29.4081 118.925 23.8031 115.188 20.0817C111.452 16.3603 105.709 15.6099 101.222 18.0142C101.727 12.9605 98.8941 7.95274 93.9475 5.91593C89.0623 3.90975 83.6257 5.3952 80.3944 9.22378C78.8629 4.46103 74.4065 1 69.123 1C63.8396 1 59.2606 4.55292 57.7904 9.42288C54.5591 5.4871 49.0306 3.95569 44.0994 6.00781C39.2295 8.0293 36.4269 12.9452 36.8557 17.9376C32.3993 15.6405 26.7942 16.3603 23.0729 20.097C19.2902 23.8796 18.6011 29.5765 21.0054 34.0636C15.9517 33.5582 10.9439 36.3914 8.90711 41.3379C6.90093 46.2232 8.38642 51.6598 12.215 54.8911C7.45225 56.4225 3.99121 60.879 3.99121 66.1625C3.99121 71.4459 7.54413 76.0249 12.4141 77.495C8.47831 80.7264 6.94687 86.2548 8.99899 91.1861C11.0205 96.056 15.9364 98.8585 20.9288 98.4297C18.6317 102.886 19.3515 108.491 23.0882 112.213C26.8249 115.934 32.5677 116.684 37.0548 114.28C36.5495 119.334 39.3826 124.342 44.3291 126.378C49.2144 128.385 54.651 126.899 57.8823 123.07C59.4137 127.833 63.8702 131.294 69.1536 131.294C74.4371 131.294 79.0161 127.741 80.4862 122.871C83.7176 126.807 89.246 128.339 94.1772 126.286C99.0472 124.265 101.85 119.349 101.421 114.357C105.877 116.654 111.482 115.934 115.204 112.197C118.986 108.415 119.676 102.718 117.271 98.2307C122.325 98.736 127.333 95.9029 129.37 90.9563C131.376 86.0711 129.89 80.6345 126.062 77.4032C130.824 75.8717 134.285 71.4152 134.285 66.1318Z" stroke="#FBC02D" stroke-width="1.02" stroke-miterlimit="10"/>
<path d="M69.1537 111.631C94.2821 111.631 114.653 91.2602 114.653 66.1319C114.653 41.0036 94.2821 20.6331 69.1537 20.6331C44.0254 20.6331 23.6549 41.0036 23.6549 66.1319C23.6549 91.2602 44.0254 111.631 69.1537 111.631Z" fill="#FFF59D"/>
<path d="M69.1537 109.272C92.9795 109.272 112.294 89.9577 112.294 66.1319C112.294 42.3061 92.9795 22.9915 69.1537 22.9915C45.3279 22.9915 26.0133 42.3061 26.0133 66.1319C26.0133 89.9577 45.3279 109.272 69.1537 109.272Z" fill="#FBC02D"/>
<path d="M69.1537 105.765C91.0427 105.765 108.787 88.0208 108.787 66.1319C108.787 44.2429 91.0427 26.4984 69.1537 26.4984C47.2648 26.4984 29.5203 44.2429 29.5203 66.1319C29.5203 88.0208 47.2648 105.765 69.1537 105.765Z" fill="#FFF59D"/>
<path d="M69.1537 109.272C92.9795 109.272 112.294 89.9577 112.294 66.1319C112.294 42.3061 92.9795 22.9915 69.1537 22.9915C45.3279 22.9915 26.0133 42.3061 26.0133 66.1319C26.0133 89.9577 45.3279 109.272 69.1537 109.272Z" stroke="#FBC02D" stroke-width="1.02" stroke-miterlimit="10"/>
<path d="M67.3234 97.8332C84.7173 97.8332 98.8179 83.7327 98.8179 66.3387C98.8179 48.9448 84.7173 34.8442 67.3234 34.8442C49.9294 34.8442 35.8289 48.9448 35.8289 66.3387C35.8289 83.7327 49.9294 97.8332 67.3234 97.8332Z" fill="#999999"/>
<path d="M69.1046 96.0519C86.4985 96.0519 100.599 81.9513 100.599 64.5574C100.599 47.1634 86.4985 33.0629 69.1046 33.0629C51.7107 33.0629 37.6101 47.1634 37.6101 64.5574C37.6101 81.9513 51.7107 96.0519 69.1046 96.0519Z" fill="#FFF59D"/>
<mask id="mask0_2305_1115" style="mask-type:luminance" maskUnits="userSpaceOnUse" x="37" y="33" width="64" height="64">
<path d="M69.1046 96.0519C86.4985 96.0519 100.599 81.9513 100.599 64.5574C100.599 47.1634 86.4985 33.0629 69.1046 33.0629C51.7107 33.0629 37.6101 47.1634 37.6101 64.5574C37.6101 81.9513 51.7107 96.0519 69.1046 96.0519Z" fill="white"/>
</mask>
<g mask="url(#mask0_2305_1115)">
<path d="M48.735 100.282L48.2095 96.1319C47.5682 91.0996 59.6547 84.7935 59.6547 84.7935L71.6522 86.6194L78.0651 82.1126C90.8731 84.7846 89.0294 87.3498 89.3322 90.9125C89.5015 92.872 89.8577 95.0631 89.8577 95.0631L48.735 100.282Z" fill="#FBC02D" stroke="#1A1A1A" stroke-linecap="round" stroke-linejoin="round"/>
<path d="M63.0213 67.6747C63.0213 67.6747 65.6933 73.6957 61.5605 83.5199L71.6342 86.3612L75.7046 81.7207L73.3086 70.9791L63.0213 67.6747Z" fill="#FFF59D"/>
<mask id="mask1_2305_1115" style="mask-type:luminance" maskUnits="userSpaceOnUse" x="61" y="67" width="15" height="20">
<path d="M63.0213 67.6747C63.0213 67.6747 65.6933 73.6957 61.5605 83.5199L71.6342 86.3612L75.7046 81.7207L73.3086 70.9791L63.0213 67.6747Z" fill="white"/>
</mask>
<g mask="url(#mask1_2305_1115)">
<path d="M62.5938 68.6544C62.5938 68.6544 65.5775 79.7345 75.954 79.3426C86.3304 78.9507 65.9516 66.4277 65.9516 66.4277L63.4399 66.2496L62.5938 68.6544Z" fill="#1A1A1A"/>
</g>
<path d="M63.0213 67.6747C63.0213 67.6747 65.6933 73.6957 61.5605 83.5199L71.6342 86.3612L75.7046 81.7207L73.3086 70.9791L63.0213 67.6747Z" stroke="#1A1A1A" stroke-linecap="round" stroke-linejoin="round"/>
<path d="M63.0216 67.6747C63.0216 67.6747 58.8087 67.2472 57.2322 54.1809C55.9496 43.5818 62.3804 36.4474 70.8596 36.5721C79.9446 36.7146 85.5648 47.0376 90.9801 47.67C90.9801 47.67 85.6361 49.9502 83.5697 48.6052C83.5697 48.6052 87.8093 52.1679 83.9883 53.9493C80.1673 55.7307 63.0216 67.6747 63.0216 67.6747Z" fill="#1A1A1A" stroke="#1A1A1A" stroke-miterlimit="10"/>
<path d="M83.6942 51.2951L84.7452 59.5873C84.7452 59.5873 86.5265 65.2164 84.9768 69.5363C83.427 73.8561 81.6723 78.7281 76.5509 77.6593C71.4295 76.5904 67.1008 76.4479 63.066 67.6747L64.1704 63.7468C64.1704 63.7468 61.249 63.8092 60.7591 58.6076C60.2692 53.406 65.3283 56.6125 65.3283 56.6125C66.709 54.1488 67.4214 51.3669 67.3947 48.5429C67.3234 43.9113 75.8027 51.2684 80.8084 49.9413L77.0408 45.9154C77.0408 45.9154 82.5541 48.5073 83.6942 51.2951Z" fill="#FFF59D" stroke="#1A1A1A" stroke-linecap="round" stroke-linejoin="round"/>
<path d="M79.0539 59.7922L81.6101 63.3104C81.7011 63.4322 81.762 63.5737 81.7877 63.7236C81.8134 63.8734 81.8033 64.0272 81.7581 64.1723C81.7129 64.3174 81.6339 64.4498 81.5277 64.5585C81.4215 64.6673 81.291 64.7493 81.147 64.7978L78.5996 65.6885" stroke="#1A1A1A" stroke-linecap="round" stroke-linejoin="round"/>
<path d="M71.8123 68.4585C71.8123 68.4585 74.1458 70.5694 78.626 69.3492" stroke="#1A1A1A" stroke-linecap="round" stroke-linejoin="round"/>
<path d="M73.1574 59.4092C73.1574 60.2998 72.8902 61.0391 72.4983 61.048C72.1064 61.0569 71.7768 60.3444 71.7501 59.4537C71.7234 58.563 72.0173 57.8237 72.4003 57.8059C72.7833 57.7881 73.1307 58.5096 73.1574 59.4092Z" fill="#1A1A1A"/>
<path d="M81.7525 59.1241C81.7525 60.0148 81.4853 60.7541 81.0934 60.763C80.7015 60.7719 80.372 60.0593 80.3452 59.1687C80.3185 58.278 80.6035 57.5387 80.9954 57.5298C81.3873 57.5209 81.7258 58.2334 81.7525 59.1241Z" fill="#1A1A1A"/>
<path d="M70.2004 57.3428C70.2004 57.3428 71.8927 54.4213 75.6425 55.8375" stroke="#1A1A1A" stroke-linecap="round" stroke-linejoin="round"/>
<path d="M80.1316 55.695C80.1316 55.695 82.0644 53.9849 83.7745 56.6481" stroke="#1A1A1A" stroke-linecap="round" stroke-linejoin="round"/>
<path d="M81.2805 44.7218C81.8843 45.2229 82.5414 45.656 83.24 46.0133" stroke="#7F7F7F" stroke-linecap="round" stroke-linejoin="round"/>
<path d="M62.033 52.6757C62.033 52.6757 61.071 43.2255 67.4305 40.1081C72.1333 37.8013 77.1478 41.551 80.4523 44.0895" stroke="#7F7F7F" stroke-linecap="round" stroke-linejoin="round"/>
<path d="M69.8263 43.5995C71.3761 43.5995 73.5048 44.5793 76.3372 47.9193" stroke="#7F7F7F" stroke-linecap="round" stroke-linejoin="round"/>
<path d="M66.5127 45.9777C66.7942 45.3562 67.2147 44.8076 67.7418 44.3745" stroke="#7F7F7F" stroke-linecap="round" stroke-linejoin="round"/>
<path d="M57.7573 85.4616L60.8302 82.5758L71.2779 85.5507L76.0876 80.643L79.4454 81.8454L76.2479 88.7927L71.6519 87.1361L68.3297 90.8235L57.7573 85.4616Z" fill="#FBC02D"/>
<mask id="mask2_2305_1115" style="mask-type:luminance" maskUnits="userSpaceOnUse" x="57" y="80" width="23" height="11">
<path d="M57.7573 85.4616L60.8302 82.5758L71.2779 85.5507L76.0876 80.643L79.4454 81.8454L76.2479 88.7927L71.6519 87.1361L68.3297 90.8235L57.7573 85.4616Z" fill="white"/>
</mask>
<g mask="url(#mask2_2305_1115)">
<path opacity="0.5" d="M57.7573 85.4616L60.8302 82.5758L71.2779 85.5507L76.0876 80.643L79.4454 81.8454L76.2479 88.7927L71.6519 87.1361L68.3297 90.8235L57.7573 85.4616Z" fill="#FFF59D"/>
</g>
<path d="M57.7573 85.4616L60.8302 82.5758L71.2779 85.5507L76.0876 80.643L79.4454 81.8454L76.2479 88.7927L71.6519 87.1361L68.3297 90.8235L57.7573 85.4616Z" stroke="#1A1A1A" stroke-linecap="round" stroke-linejoin="round"/>
</g>
<path d="M69.1046 96.0519C86.4985 96.0519 100.599 81.9513 100.599 64.5574C100.599 47.1634 86.4985 33.0629 69.1046 33.0629C51.7107 33.0629 37.6101 47.1634 37.6101 64.5574C37.6101 81.9513 51.7107 96.0519 69.1046 96.0519Z" stroke="#1A1A1A" stroke-linecap="round" stroke-linejoin="round"/>
<path d="M91.6747 78.9241H81.5387C78.7939 78.9241 76.5687 81.1492 76.5687 83.8941V94.03C76.5687 96.7749 78.7939 99 81.5387 99H91.6747C94.4195 99 96.6447 96.7749 96.6447 94.03V83.8941C96.6447 81.1492 94.4195 78.9241 91.6747 78.9241Z" fill="#FBC02D" stroke="#1A1A1A" stroke-linecap="round" stroke-linejoin="round"/>
<path d="M89.2963 84.7135C89.1556 84.4435 88.9431 84.2175 88.6822 84.0604C88.4214 83.9033 88.1223 83.8211 87.8178 83.8228H85.4041C85.0996 83.8211 84.8005 83.9033 84.5396 84.0604C84.2788 84.2175 84.0663 84.4435 83.9255 84.7135" stroke="#1A1A1A" stroke-linecap="round" stroke-linejoin="round"/>
<path d="M82.3314 85.2123C81.8943 85.2123 81.4752 85.3859 81.1662 85.6949C80.8572 86.0039 80.6836 86.423 80.6836 86.86V92.4802C80.6836 92.9173 80.8572 93.3364 81.1662 93.6454C81.4752 93.9544 81.8943 94.128 82.3314 94.128H90.8819C91.099 94.1292 91.3143 94.0874 91.5152 94.0051C91.7162 93.9229 91.8988 93.8017 92.0528 93.6485C92.2068 93.4954 92.3289 93.3134 92.4123 93.1129C92.4957 92.9124 92.5386 92.6974 92.5386 92.4802V86.86C92.5386 86.6429 92.4957 86.4279 92.4123 86.2274C92.3289 86.0269 92.2068 85.8449 92.0528 85.6917C91.8988 85.5386 91.7162 85.4174 91.5152 85.3351C91.3143 85.2529 91.099 85.2111 90.8819 85.2123" stroke="#1A1A1A" stroke-linecap="round" stroke-linejoin="round"/>
<path d="M86.6064 87.3499C86.1462 87.3499 85.6964 87.4865 85.314 87.7423C84.9315 87.9981 84.6335 88.3617 84.4578 88.787C84.2822 89.2123 84.2366 89.6802 84.3271 90.1314C84.4175 90.5826 84.6398 90.9968 84.9658 91.3215C85.2918 91.6463 85.7068 91.867 86.1584 91.9557C86.6099 92.0444 87.0776 91.997 87.5022 91.8197C87.9268 91.6424 88.2893 91.3431 88.5436 90.9596C88.798 90.5761 88.9328 90.1258 88.9311 89.6657C88.9323 89.3605 88.8729 89.0581 88.7564 88.776C88.6398 88.4939 88.4685 88.2378 88.2523 88.0224C88.0361 87.807 87.7793 87.6366 87.4967 87.5212C87.2142 87.4058 86.9116 87.3475 86.6064 87.3499Z" stroke="#1A1A1A" stroke-linecap="round" stroke-linejoin="round"/>
</svg>
