<svg width="142" height="160" viewBox="0 0 142 160" fill="none" xmlns="http://www.w3.org/2000/svg">
<g opacity="0.2">
<path d="M133.26 122.507C137.572 115.915 137.737 85.218 136.118 64.9957C136.118 64.9296 136.118 64.8635 136.118 64.7974C135.986 63.1618 135.837 61.5923 135.688 60.1218C135.672 59.8905 135.639 59.6758 135.622 59.4445C135.556 58.8662 135.49 58.3045 135.424 57.7427C135.374 57.3793 135.341 57.0158 135.292 56.6689C135.259 56.3715 135.209 56.0906 135.176 55.7932C135.127 55.4132 135.077 55.0663 135.028 54.7028C134.994 54.4715 134.961 54.2402 134.928 54.0254C134.846 53.5298 134.78 53.0671 134.697 52.6211C134.664 52.4558 134.631 52.2907 134.598 52.1254C134.515 51.7124 134.433 51.2994 134.35 50.9359C134.35 50.8698 134.317 50.8037 134.317 50.7376C134.218 50.3081 134.119 49.9281 134.036 49.5646C134.003 49.4655 133.987 49.3663 133.954 49.2672C133.854 48.9202 133.755 48.5898 133.656 48.3089C133.541 47.9785 133.425 47.6977 133.293 47.4829C129.427 40.3125 76.1944 9.94599 68.3302 9.97903C60.4824 10.0121 7.34924 39.2056 3.36755 47.4829C-0.614134 55.7602 -1.06021 114.825 3.36755 122.491C7.79532 130.157 58.8303 159.532 68.3302 159.994C77.8135 160.457 127.13 131.891 133.293 122.491L133.26 122.507Z" fill="black" fill-opacity="0.12"/>
</g>
<path d="M6.9032 38.33C10.8849 30.0528 64.0016 0.859242 71.8658 0.826199C79.7135 0.793156 132.946 31.1597 136.828 38.33C140.711 45.5004 142.974 103.937 136.828 113.338C130.682 122.738 81.3657 151.304 71.8658 150.842C62.3825 150.379 11.331 121.004 6.9032 113.338C2.47543 105.672 2.92151 46.6073 6.9032 38.33Z" fill="black" fill-opacity="0.12"/>
<path d="M140.05 61.2618C139.439 51.0845 138.414 42.5264 137.175 39.156C134.548 41.0064 134.35 46.1777 135.077 51.3985C135.788 56.5036 137.109 60.0888 140.05 61.2618Z" fill="#F5F5F5"/>
<path d="M101.472 20.8336C133.144 38.5447 136.812 38.3464 136.812 38.3464C132.946 31.1761 79.7135 0.809513 71.8493 0.842556C71.8493 0.842556 69.7841 3.12254 101.456 20.8336H101.472Z" fill="#F5F5F5"/>
<path d="M17.5761 44.4593C20.8969 37.5368 65.3398 13.118 71.9153 13.085C78.4909 13.052 123.016 38.462 126.255 44.4593C129.493 50.4566 131.409 99.3438 126.255 107.208C121.1 115.072 79.8457 138.962 71.9153 138.582C63.985 138.202 21.2769 113.618 17.5761 107.208C13.8753 100.798 14.2553 51.3819 17.5761 44.4593Z" fill="#E3E3E3"/>
<path d="M72.064 151.701C71.9814 151.701 71.8988 151.701 71.8162 151.701C62.1346 151.238 10.5875 121.466 6.1597 113.784C1.4015 105.523 2.37627 45.7976 6.12666 37.983C10.1579 29.59 63.8363 0.033043 71.8493 0H71.8658C80.3578 0 133.706 30.8126 137.555 37.9499C141.653 45.5498 143.8 104.234 137.522 113.817C131.244 123.416 82.2578 151.701 72.064 151.701ZM71.8823 1.66866C64.4146 1.70171 11.4301 30.9118 7.67969 38.6934C3.68148 47.0202 3.64843 105.969 7.64664 112.908C11.9753 120.425 62.432 149.536 71.9153 149.982C71.9814 149.982 72.0475 149.982 72.1301 149.982C81.6961 149.982 130.203 121.896 136.118 112.858C142.132 103.672 139.769 45.5333 136.085 38.7099C132.516 32.1013 79.7796 1.65215 71.8823 1.65215V1.66866Z" fill="black" fill-opacity="0.12"/>
<path d="M19.6742 45.9462C22.8464 39.3541 65.191 16.0753 71.4527 16.0423C77.7143 16.0092 120.142 40.2133 123.231 45.9462C126.321 51.6792 128.138 98.2368 123.231 105.738C118.324 113.238 79.0195 136.005 71.4527 135.642C63.8858 135.278 23.1933 111.867 19.6742 105.738C16.1551 99.6081 16.5021 52.5383 19.6742 45.9462Z" fill="#F5F5F5"/>
<path d="M59.4086 42.4599C59.4416 42.2617 59.5573 42.0799 59.6895 42.0138C61.2425 41.1217 63.7372 40.2626 66.4633 39.5191C68.0989 37.2391 69.8171 35.2896 71.2215 34.1331C71.3371 34.0339 71.5354 33.9844 71.7501 33.9844C71.9649 33.9844 72.1632 34.0505 72.2788 34.1496C73.6171 35.3061 75.2527 37.2226 76.8223 39.4695C79.5979 40.2626 82.1587 41.1878 83.7282 42.1295C83.8604 42.2121 83.9596 42.3773 83.9926 42.5921C84.0256 42.7904 83.9926 43.0051 83.9265 43.1373C83.0178 44.7895 81.7622 46.8216 80.0935 48.9859C80.1596 51.712 80.0935 54.2728 79.9283 56.4041C79.9283 56.5858 79.7961 56.7675 79.5979 56.8832C79.4161 56.9989 79.1848 57.0319 79.0031 56.9823C76.8057 56.4206 74.3275 55.7763 71.651 54.9006C68.958 55.7432 66.4798 56.371 64.2824 56.9163C64.2164 56.9328 64.1337 56.9328 64.0676 56.9328C63.9355 56.9328 63.8033 56.8832 63.6877 56.8006C63.5059 56.6849 63.3737 56.5032 63.3737 56.3215C63.192 54.1572 63.1425 51.5302 63.2251 48.7711C61.606 46.6399 60.3833 44.6408 59.4912 43.0216C59.4086 42.873 59.3921 42.6747 59.4251 42.4599H59.4086Z" fill="black" fill-opacity="0.12"/>
<g opacity="0.3">
<path d="M123.231 45.9462C120.142 40.2298 77.7143 16.0257 71.4527 16.0422C65.191 16.0753 22.8464 39.3376 19.6742 45.9462C16.5021 52.5383 16.1551 99.6246 19.6742 105.738C23.1933 111.851 63.8858 135.262 71.4527 135.642C79.0195 136.005 118.324 113.238 123.231 105.738C128.138 98.2368 126.321 51.6626 123.231 45.9462ZM119.464 103.557C114.921 110.496 78.4743 131.61 71.4692 131.263C64.464 130.916 26.7454 109.224 23.4742 103.557C20.2029 97.8899 20.5333 54.24 23.4742 48.127C26.415 42.0141 65.6701 20.437 71.4692 20.4205C77.2682 20.4039 116.606 42.8401 119.464 48.127C122.322 53.4304 124.008 96.6012 119.464 103.557Z" fill="black" fill-opacity="0.12"/>
</g>
<path d="M71.6014 136.484C71.6014 136.484 71.4693 136.484 71.4032 136.484C63.3242 136.088 22.6317 112.578 18.9308 106.167C15.1309 99.5587 15.9074 51.828 18.8978 45.5829C22.2847 38.5447 64.745 15.2494 71.4362 15.2163C78.21 15.2163 120.869 39.8499 123.958 45.5498C127.246 51.6297 128.948 98.5343 123.925 106.2C118.903 113.866 79.7465 136.484 71.5849 136.484H71.6014ZM71.4692 16.885C65.5215 16.918 23.4247 40.1142 20.4508 46.2933C17.2622 52.9184 17.2456 99.79 20.4178 105.292C23.7056 111.008 64.2989 134.419 71.5023 134.766C71.5519 134.766 71.618 134.766 71.6675 134.766C79.2674 134.766 117.829 112.429 122.537 105.242C127.312 97.9396 125.429 51.7454 122.504 46.3098C119.663 41.056 77.7474 16.8519 71.4858 16.8519L71.4692 16.885Z" fill="black" fill-opacity="0.12"/>
<path d="M48.0417 107.605C60.3507 107.605 70.3292 97.6261 70.3292 85.3171C70.3292 73.008 60.3507 63.0295 48.0417 63.0295C35.7326 63.0295 25.7542 73.008 25.7542 85.3171C25.7542 97.6261 35.7326 107.605 48.0417 107.605Z" fill="black" fill-opacity="0.12"/>
<path d="M62.9772 112.561C60.6642 109.851 39.6488 109.62 33.7837 111.867C42.9697 117.947 56.0878 125.299 64.4642 128.967C63.952 121.036 63.4398 113.123 62.9772 112.561Z" fill="black" fill-opacity="0.12"/>
<path d="M95.3759 107.605C107.685 107.605 117.663 97.6261 117.663 85.3171C117.663 73.008 107.685 63.0295 95.3759 63.0295C83.0668 63.0295 73.0884 73.008 73.0884 85.3171C73.0884 97.6261 83.0668 107.605 95.3759 107.605Z" fill="black" fill-opacity="0.12"/>
<path d="M80.2587 112.198C79.7631 112.693 79.2509 120.739 78.7057 129.182C87.3299 125.58 100.729 117.997 109.898 111.653C104.958 109.24 83.0178 109.422 80.2587 112.198Z" fill="black" fill-opacity="0.12"/>
</svg>
