<svg width="385" height="347" viewBox="0 0 385 347" fill="none" xmlns="http://www.w3.org/2000/svg">
<path d="M298.561 58.5447C292.245 47.0568 283.407 37.6569 272.231 30.0262C235.022 4.49171 184.45 -4.70313 140.975 2.23666C109.92 7.19474 89.2159 29.7529 75.9653 59.1825C60.3346 93.9194 46.1248 128.474 28.2916 162.209C7.81527 200.864 -1.32872 241.105 43.1052 274.514C81.5569 303.427 129.785 295.925 173.835 295.014C188.443 294.71 203.157 295.227 217.53 298.249C246.092 304.247 273.829 325.582 301.922 305.659C323.272 290.511 335.848 261.894 341.944 235.973C345.574 220.529 348.431 203.483 347.081 187.083C345.61 169.118 337.844 155.588 329.88 140.288C319.831 121.002 312.01 100.483 306.59 79.1818C304.788 71.9505 302.088 65.0097 298.561 58.5447Z" fill="#F5F5F5"/>
<g opacity="0.3">
<path d="M174.034 46.7303H169.736V288.773H174.034V46.7303Z" fill="#757575" stroke="#424242" stroke-linecap="round" stroke-linejoin="round"/>
<path d="M26.9985 83.1757H329.667" stroke="#424242" stroke-linecap="round" stroke-linejoin="round"/>
<path d="M26.9985 124.936H329.667" stroke="#424242" stroke-linecap="round" stroke-linejoin="round"/>
<path d="M26.9985 166.696H329.667" stroke="#424242" stroke-linecap="round" stroke-linejoin="round"/>
<path d="M26.9985 208.457H329.667" stroke="#424242" stroke-linecap="round" stroke-linejoin="round"/>
<path d="M26.9985 250.217H329.667" stroke="#424242" stroke-linecap="round" stroke-linejoin="round"/>
<path d="M130.183 49.0083V288.94" stroke="#424242" stroke-linecap="round" stroke-linejoin="round"/>
<path d="M86.3314 49.0083V288.94" stroke="#424242" stroke-linecap="round" stroke-linejoin="round"/>
<path d="M42.4729 49.0083V288.94" stroke="#424242" stroke-linecap="round" stroke-linejoin="round"/>
<path d="M303.009 49.0083V288.94" stroke="#424242" stroke-linecap="round" stroke-linejoin="round"/>
<path d="M259.158 49.0083V288.94" stroke="#424242" stroke-linecap="round" stroke-linejoin="round"/>
<path d="M215.307 49.0083V288.94" stroke="#424242" stroke-linecap="round" stroke-linejoin="round"/>
<path d="M26.9985 288.94H329.667" stroke="#424242" stroke-linecap="round" stroke-linejoin="round"/>
</g>
<path d="M311.287 296.168C311.322 296.168 311.947 293.587 311.997 293.42C312.253 291.461 311.67 287.52 309.809 286.586C309.496 286.435 309.156 286.355 308.812 286.354C308.469 286.352 308.129 286.428 307.814 286.576C307.5 286.724 307.218 286.942 306.988 287.214C306.757 287.487 306.583 287.808 306.477 288.158C305.972 289.631 306.612 291.43 307.358 292.668C308.21 294.095 311.287 296.161 311.287 296.168Z" fill="#757575"/>
<path d="M274.554 295.31C276.039 296.009 279.67 295.918 279.67 295.918C279.67 295.918 278.888 293.374 278.824 293.222C278.029 291.446 275.506 288.5 273.453 288.796C273.114 288.855 272.79 288.99 272.503 289.192C272.216 289.393 271.972 289.658 271.787 289.967C271.602 290.277 271.48 290.625 271.429 290.988C271.378 291.351 271.4 291.722 271.492 292.076C271.833 293.594 273.29 294.718 274.554 295.31Z" fill="#757575"/>
<path d="M275.805 306.555C277.346 306.79 280.586 305.796 280.842 305.712C281.377 307.693 282.034 309.633 282.81 311.521C283.258 312.622 283.741 313.723 284.231 314.816C283.94 314.353 283.67 313.943 283.627 313.882C282.419 312.364 279.258 310.268 277.354 311.134C277.042 311.286 276.763 311.508 276.537 311.783C276.31 312.059 276.14 312.382 276.038 312.732C275.936 313.083 275.905 313.452 275.945 313.816C275.986 314.18 276.098 314.531 276.274 314.846C276.984 316.213 278.661 316.896 280.025 317.124C281.389 317.352 284.196 316.524 284.906 316.274C285.105 316.691 285.29 317.109 285.489 317.527C286.426 319.524 287.371 321.513 288.245 323.495C288.551 324.193 288.828 324.892 289.112 325.59C288.842 325.18 288.622 324.831 288.579 324.785C287.371 323.267 284.217 321.164 282.313 322.029C282 322.182 281.721 322.404 281.493 322.68C281.266 322.956 281.095 323.279 280.993 323.63C280.89 323.981 280.858 324.351 280.898 324.716C280.938 325.082 281.05 325.434 281.226 325.75C281.936 327.116 283.613 327.792 284.977 328.027C286.341 328.263 288.871 327.519 289.744 327.268C290.014 328.027 290.284 328.718 290.512 329.44C290.654 329.926 290.832 330.389 290.952 330.898L291.336 332.363C291.549 333.312 291.769 334.284 291.954 335.21C292.089 335.856 292.203 336.471 292.324 337.093C292.025 336.395 291.414 335.036 291.35 334.929C290.37 333.259 287.549 330.647 285.545 331.194C285.214 331.294 284.907 331.467 284.643 331.703C284.379 331.939 284.164 332.231 284.013 332.562C283.863 332.892 283.779 333.253 283.767 333.62C283.756 333.988 283.817 334.354 283.947 334.694C284.444 336.159 286.014 337.101 287.336 337.534C288.757 338.004 292.004 337.572 292.409 337.534C292.601 338.559 292.778 339.561 292.935 340.502C293.261 342.484 293.51 344.299 293.702 345.817H295.052C294.824 344.23 294.526 342.363 294.135 340.29C293.943 339.242 293.723 338.133 293.482 336.995C294.453 336.578 295.402 336.104 296.324 335.575C297.382 336.797 300.096 338.232 300.444 338.414C300.075 339.386 299.734 340.328 299.35 341.209C298.64 342.94 297.972 344.481 297.375 345.817H298.832C299.343 344.602 299.897 343.228 300.48 341.717C300.857 340.73 301.247 339.675 301.631 338.581C302.022 338.665 305.183 339.341 306.69 338.999C308.032 338.673 309.667 337.86 310.242 336.44C310.394 336.111 310.479 335.752 310.492 335.385C310.506 335.018 310.447 334.653 310.319 334.312C310.192 333.972 309.999 333.663 309.753 333.407C309.508 333.151 309.214 332.953 308.892 332.826C306.924 332.12 303.919 334.496 302.839 336.091C302.775 336.182 302.178 337.283 301.809 337.982C301.965 337.534 302.121 337.108 302.277 336.645C302.59 335.734 302.881 334.808 303.194 333.821C303.329 333.342 303.464 332.849 303.599 332.363C303.734 331.877 303.848 331.338 303.968 330.844C304.238 329.645 304.452 328.422 304.643 327.177C305.389 327.466 308.061 328.46 309.446 328.362C310.832 328.263 312.544 327.716 313.347 326.403C313.544 326.101 313.68 325.759 313.745 325.399C313.811 325.038 313.805 324.666 313.727 324.308C313.649 323.95 313.502 323.613 313.294 323.32C313.087 323.027 312.824 322.784 312.523 322.606C310.683 321.589 307.386 323.457 306.079 324.884C305.993 324.968 305.162 326.084 304.714 326.699C304.821 325.939 304.935 325.18 305.02 324.421C305.276 322.227 305.475 320.002 305.674 317.777C305.738 317.101 305.809 316.418 305.873 315.742C306.135 315.849 309.29 317.101 310.846 316.988C312.224 316.881 313.951 316.342 314.747 315.036C314.944 314.736 315.08 314.394 315.146 314.033C315.212 313.673 315.207 313.301 315.13 312.943C315.052 312.585 314.906 312.249 314.699 311.955C314.492 311.662 314.23 311.418 313.929 311.24C312.089 310.23 308.793 312.098 307.485 313.518C307.386 313.624 306.185 315.226 305.901 315.651C306.043 314.133 306.206 312.667 306.42 311.209C306.698 309.237 307.097 307.287 307.613 305.371C307.734 305.424 311.016 306.745 312.587 306.623C313.965 306.525 315.692 305.978 316.487 304.672C316.686 304.372 316.823 304.03 316.89 303.669C316.956 303.309 316.951 302.937 316.874 302.578C316.797 302.22 316.649 301.883 316.442 301.59C316.235 301.296 315.972 301.053 315.67 300.876C313.83 299.858 310.533 301.726 309.219 303.154C309.134 303.245 308.224 304.459 307.798 305.052L307.691 304.991C308.261 303.078 308.988 301.223 309.866 299.448C310.334 298.469 310.839 297.55 311.343 296.677C311.933 296.988 314.633 298.393 316.068 298.454C317.503 298.514 319.223 298.18 320.146 296.973C320.374 296.697 320.544 296.373 320.647 296.022C320.75 295.671 320.782 295.301 320.742 294.935C320.701 294.57 320.59 294.218 320.414 293.902C320.238 293.586 320.001 293.313 319.72 293.101C317.993 291.878 314.526 293.351 313.084 294.581C313.006 294.65 312.274 295.424 311.748 295.994C311.983 295.606 312.217 295.196 312.459 294.824C313.326 293.427 314.199 292.212 314.981 291.142C315.429 290.534 315.848 289.995 316.239 289.494C316.949 289.494 319.89 289.388 321.176 288.735C322.462 288.082 323.848 286.943 324.153 285.417C324.235 285.06 324.246 284.689 324.185 284.327C324.125 283.966 323.994 283.622 323.801 283.318C323.608 283.014 323.358 282.756 323.066 282.562C322.774 282.368 322.448 282.241 322.107 282.19C320.047 281.954 317.603 284.969 316.85 286.746C316.786 286.897 316.033 289.464 316.075 289.464H316.168C315.777 289.942 315.365 290.451 314.924 290.982C314.121 292.038 313.219 293.26 312.324 294.619C311.34 296.093 310.439 297.626 309.624 299.213C308.703 300.983 307.933 302.838 307.322 304.756V304.824C307.322 304.179 307.322 302.364 307.286 302.227C307.052 300.268 305.517 296.631 303.478 296.229C303.137 296.17 302.788 296.188 302.453 296.283C302.119 296.379 301.808 296.548 301.539 296.781C301.271 297.015 301.052 297.306 300.896 297.636C300.74 297.966 300.652 298.327 300.636 298.697C300.515 300.215 301.574 301.81 302.604 302.789C303.762 303.898 306.981 304.968 307.237 305.067C306.662 307.035 306.209 309.041 305.88 311.073C305.681 312.257 305.517 313.457 305.368 314.664C305.368 314.102 305.368 313.601 305.368 313.533C305.127 311.574 303.592 307.937 301.56 307.535C301.219 307.477 300.871 307.496 300.538 307.591C300.205 307.686 299.894 307.855 299.626 308.087C299.358 308.32 299.138 308.609 298.982 308.938C298.825 309.266 298.736 309.626 298.718 309.995C298.604 311.551 299.656 313.108 300.686 314.095C301.716 315.082 304.459 316.061 305.183 316.312C305.134 316.775 305.077 317.231 305.02 317.694C304.778 319.911 304.537 322.128 304.238 324.299C304.139 325.059 304.004 325.818 303.883 326.577C303.883 326.084 303.883 325.658 303.883 325.598C303.649 323.639 302.114 320.002 300.075 319.599C299.734 319.54 299.384 319.559 299.05 319.654C298.716 319.749 298.404 319.919 298.136 320.152C297.868 320.385 297.648 320.676 297.493 321.006C297.337 321.336 297.249 321.698 297.233 322.067C297.112 323.586 298.171 325.18 299.194 326.16C300.217 327.139 302.704 328.035 303.563 328.331C303.414 329.09 303.265 329.85 303.087 330.609C302.952 331.11 302.86 331.596 302.697 332.09C302.533 332.583 302.405 333.061 302.263 333.54C301.951 334.451 301.638 335.4 301.311 336.281C301.091 336.896 300.871 337.48 300.643 338.065C300.757 337.306 300.949 335.787 300.949 335.689C300.926 333.952 300.488 332.251 299.677 330.746C299.683 330.553 299.671 330.359 299.642 330.169C299.599 329.804 299.485 329.454 299.307 329.14C299.129 328.826 298.892 328.555 298.609 328.346C298.327 328.137 298.007 327.994 297.669 327.926C297.332 327.858 296.985 327.867 296.65 327.952C294.647 328.521 293.382 332.272 293.283 334.238C293.283 334.36 293.354 335.628 293.411 336.425C293.311 335.962 293.219 335.506 293.105 335.036C292.899 334.086 292.665 333.153 292.395 332.143C292.26 331.657 292.125 331.171 291.982 330.677C291.84 330.184 291.663 329.69 291.499 329.159C291.109 327.997 290.654 326.881 290.171 325.704C290.945 325.499 293.688 324.755 294.782 323.851C295.876 322.948 297.041 321.49 297.027 319.926C297.036 319.559 296.973 319.194 296.841 318.855C296.71 318.516 296.513 318.21 296.264 317.957C296.015 317.704 295.719 317.51 295.395 317.388C295.071 317.265 294.726 317.217 294.384 317.246C292.331 317.489 290.54 320.989 290.171 322.925C290.171 323.047 290.022 324.444 289.972 325.241C289.681 324.558 289.389 323.867 289.069 323.183C288.146 321.202 287.158 319.235 286.185 317.261L285.297 315.446C285.574 315.378 288.849 314.565 290.078 313.556C291.173 312.66 292.338 311.187 292.324 309.63C292.333 309.263 292.269 308.898 292.138 308.559C292.006 308.22 291.81 307.914 291.56 307.661C291.311 307.408 291.015 307.214 290.691 307.092C290.367 306.969 290.023 306.921 289.681 306.95C287.62 307.185 285.837 310.693 285.467 312.622C285.467 312.774 285.261 314.816 285.24 315.332C284.593 314.004 283.961 312.667 283.386 311.323C282.601 309.514 281.927 307.653 281.368 305.75C281.496 305.75 284.92 304.892 286.178 303.852C287.272 302.956 288.43 301.491 288.423 299.927C288.432 299.56 288.369 299.195 288.237 298.855C288.106 298.516 287.909 298.21 287.66 297.958C287.411 297.705 287.115 297.511 286.791 297.388C286.467 297.266 286.122 297.217 285.78 297.246C283.72 297.489 281.936 300.99 281.56 302.926C281.56 303.047 281.403 304.604 281.361 305.348H281.24C280.727 303.416 280.375 301.439 280.188 299.441C280.075 298.347 280.018 297.284 279.989 296.259C280.643 296.176 283.62 295.751 284.849 294.953C286.078 294.156 287.336 292.865 287.485 291.316C287.532 290.952 287.507 290.582 287.411 290.229C287.316 289.876 287.152 289.549 286.93 289.268C286.708 288.988 286.433 288.76 286.124 288.6C285.814 288.44 285.477 288.351 285.133 288.34C283.059 288.34 280.927 291.605 280.359 293.488C280.323 293.587 280.117 294.665 279.975 295.447C279.975 294.984 279.975 294.505 279.975 294.057C279.975 292.387 280.075 290.853 280.174 289.502C280.231 288.742 280.302 288.036 280.373 287.383C280.977 286.943 283.364 285.143 284.103 283.853C284.842 282.562 285.41 280.77 284.871 279.297C284.755 278.952 284.573 278.636 284.336 278.37C284.099 278.105 283.812 277.896 283.495 277.756C283.177 277.616 282.836 277.55 282.493 277.56C282.15 277.571 281.812 277.658 281.503 277.816C279.663 278.834 279.179 282.79 279.485 284.733C279.485 284.908 280.195 287.49 280.238 287.467H280.274C280.196 288.089 280.11 288.758 280.039 289.494C279.911 290.853 279.783 292.379 279.748 294.05C279.688 295.858 279.728 297.668 279.869 299.471C280.014 301.491 280.327 303.494 280.807 305.454V305.522C280.48 304.976 279.521 303.48 279.435 303.374C278.227 301.855 275.073 299.752 273.169 300.618C272.856 300.771 272.577 300.992 272.349 301.268C272.122 301.544 271.951 301.868 271.849 302.219C271.746 302.57 271.714 302.94 271.754 303.305C271.794 303.67 271.906 304.022 272.082 304.338C272.757 305.644 274.441 306.342 275.805 306.555Z" fill="#757575"/>
<path opacity="0.3" d="M274.554 295.31C276.039 296.009 279.67 295.918 279.67 295.918C279.67 295.918 278.888 293.374 278.824 293.222C278.029 291.446 275.506 288.5 273.453 288.796C273.114 288.855 272.79 288.99 272.503 289.192C272.216 289.393 271.972 289.658 271.787 289.967C271.602 290.277 271.48 290.625 271.429 290.988C271.378 291.351 271.4 291.722 271.492 292.076C271.833 293.594 273.29 294.718 274.554 295.31Z" fill="#757575"/>
<path opacity="0.3" d="M311.287 296.168C311.322 296.168 311.947 293.587 311.997 293.42C312.253 291.461 311.67 287.52 309.809 286.586C309.496 286.435 309.156 286.355 308.812 286.354C308.469 286.352 308.129 286.428 307.814 286.576C307.5 286.724 307.218 286.942 306.988 287.214C306.757 287.487 306.583 287.808 306.477 288.158C305.972 289.631 306.612 291.43 307.358 292.668C308.21 294.095 311.287 296.161 311.287 296.168Z" fill="#757575"/>
<path opacity="0.3" d="M275.805 306.555C277.346 306.79 280.586 305.796 280.842 305.712C281.377 307.693 282.034 309.633 282.81 311.521C283.258 312.622 283.741 313.723 284.231 314.816C283.94 314.353 283.67 313.943 283.627 313.882C282.419 312.364 279.258 310.268 277.354 311.134C277.042 311.286 276.763 311.508 276.537 311.783C276.31 312.059 276.14 312.382 276.038 312.732C275.936 313.083 275.905 313.452 275.945 313.816C275.986 314.18 276.098 314.531 276.274 314.846C276.984 316.213 278.661 316.896 280.025 317.124C281.389 317.352 284.196 316.524 284.906 316.274C285.105 316.691 285.29 317.109 285.489 317.527C286.426 319.524 287.371 321.513 288.245 323.495C288.551 324.193 288.828 324.892 289.112 325.59C288.842 325.18 288.622 324.831 288.579 324.785C287.371 323.267 284.217 321.164 282.313 322.029C282 322.182 281.721 322.404 281.493 322.68C281.266 322.956 281.095 323.279 280.993 323.63C280.89 323.981 280.858 324.351 280.898 324.716C280.938 325.082 281.05 325.434 281.226 325.75C281.936 327.116 283.613 327.792 284.977 328.027C286.341 328.263 288.871 327.519 289.744 327.268C290.014 328.027 290.284 328.718 290.512 329.44C290.654 329.926 290.832 330.389 290.952 330.898L291.336 332.363C291.549 333.312 291.769 334.284 291.954 335.21C292.089 335.856 292.203 336.471 292.324 337.093C292.025 336.395 291.414 335.036 291.35 334.929C290.37 333.259 287.549 330.647 285.545 331.194C285.214 331.294 284.907 331.467 284.643 331.703C284.379 331.939 284.164 332.231 284.013 332.562C283.863 332.892 283.779 333.253 283.767 333.62C283.756 333.988 283.817 334.354 283.947 334.694C284.444 336.159 286.014 337.101 287.336 337.534C288.757 338.004 292.004 337.572 292.409 337.534C292.601 338.559 292.778 339.561 292.935 340.502C293.261 342.484 293.51 344.299 293.702 345.817H295.052C294.824 344.23 294.526 342.363 294.135 340.29C293.943 339.242 293.723 338.133 293.482 336.995C294.453 336.578 295.402 336.104 296.324 335.575C297.382 336.797 300.096 338.232 300.444 338.414C300.075 339.386 299.734 340.328 299.35 341.209C298.64 342.94 297.972 344.481 297.375 345.817H298.832C299.343 344.602 299.897 343.228 300.48 341.717C300.857 340.73 301.247 339.675 301.631 338.581C302.022 338.665 305.183 339.341 306.69 338.999C308.032 338.673 309.667 337.86 310.242 336.44C310.394 336.111 310.479 335.752 310.492 335.385C310.506 335.018 310.447 334.653 310.319 334.312C310.192 333.972 309.999 333.663 309.753 333.407C309.508 333.151 309.214 332.953 308.892 332.826C306.924 332.12 303.919 334.496 302.839 336.091C302.775 336.182 302.178 337.283 301.809 337.982C301.965 337.534 302.121 337.108 302.277 336.645C302.59 335.734 302.881 334.808 303.194 333.821C303.329 333.342 303.464 332.849 303.599 332.363C303.734 331.877 303.848 331.338 303.968 330.844C304.238 329.645 304.452 328.422 304.643 327.177C305.389 327.466 308.061 328.46 309.446 328.362C310.832 328.263 312.544 327.716 313.347 326.403C313.544 326.101 313.68 325.759 313.745 325.399C313.811 325.038 313.805 324.666 313.727 324.308C313.649 323.95 313.502 323.613 313.294 323.32C313.087 323.027 312.824 322.784 312.523 322.606C310.683 321.589 307.386 323.457 306.079 324.884C305.993 324.968 305.162 326.084 304.714 326.699C304.821 325.939 304.935 325.18 305.02 324.421C305.276 322.227 305.475 320.002 305.674 317.777C305.738 317.101 305.809 316.418 305.873 315.742C306.135 315.849 309.29 317.101 310.846 316.988C312.224 316.881 313.951 316.342 314.747 315.036C314.944 314.736 315.08 314.394 315.146 314.033C315.212 313.673 315.207 313.301 315.13 312.943C315.052 312.585 314.906 312.249 314.699 311.955C314.492 311.662 314.23 311.418 313.929 311.24C312.089 310.23 308.793 312.098 307.485 313.518C307.386 313.624 306.185 315.226 305.901 315.651C306.043 314.133 306.206 312.667 306.42 311.209C306.698 309.237 307.097 307.287 307.613 305.371C307.734 305.424 311.016 306.745 312.587 306.623C313.965 306.525 315.692 305.978 316.487 304.672C316.686 304.372 316.823 304.03 316.89 303.669C316.956 303.309 316.951 302.937 316.874 302.578C316.797 302.22 316.649 301.883 316.442 301.59C316.235 301.296 315.972 301.053 315.67 300.876C313.83 299.858 310.533 301.726 309.219 303.154C309.134 303.245 308.224 304.459 307.798 305.052L307.691 304.991C308.261 303.078 308.988 301.223 309.866 299.448C310.334 298.469 310.839 297.55 311.343 296.677C311.933 296.988 314.633 298.393 316.068 298.454C317.503 298.514 319.223 298.18 320.146 296.973C320.374 296.697 320.544 296.373 320.647 296.022C320.75 295.671 320.782 295.301 320.742 294.935C320.701 294.57 320.59 294.218 320.414 293.902C320.238 293.586 320.001 293.313 319.72 293.101C317.993 291.878 314.526 293.351 313.084 294.581C313.006 294.65 312.274 295.424 311.748 295.994C311.983 295.606 312.217 295.196 312.459 294.824C313.326 293.427 314.199 292.212 314.981 291.142C315.429 290.534 315.848 289.995 316.239 289.494C316.949 289.494 319.89 289.388 321.176 288.735C322.462 288.082 323.848 286.943 324.153 285.417C324.235 285.06 324.246 284.689 324.185 284.327C324.125 283.966 323.994 283.622 323.801 283.318C323.608 283.014 323.358 282.756 323.066 282.562C322.774 282.368 322.448 282.241 322.107 282.19C320.047 281.954 317.603 284.969 316.85 286.746C316.786 286.897 316.033 289.464 316.075 289.464H316.168C315.777 289.942 315.365 290.451 314.924 290.982C314.121 292.038 313.219 293.26 312.324 294.619C311.34 296.093 310.439 297.626 309.624 299.213C308.703 300.983 307.933 302.838 307.322 304.756V304.824C307.322 304.179 307.322 302.364 307.286 302.227C307.052 300.268 305.517 296.631 303.478 296.229C303.137 296.17 302.788 296.188 302.453 296.283C302.119 296.379 301.808 296.548 301.539 296.781C301.271 297.015 301.052 297.306 300.896 297.636C300.74 297.966 300.652 298.327 300.636 298.697C300.515 300.215 301.574 301.81 302.604 302.789C303.762 303.898 306.981 304.968 307.237 305.067C306.662 307.035 306.209 309.041 305.88 311.073C305.681 312.257 305.517 313.457 305.368 314.664C305.368 314.102 305.368 313.601 305.368 313.533C305.127 311.574 303.592 307.937 301.56 307.535C301.219 307.477 300.871 307.496 300.538 307.591C300.205 307.686 299.894 307.855 299.626 308.087C299.358 308.32 299.138 308.609 298.982 308.938C298.825 309.266 298.736 309.626 298.718 309.995C298.604 311.551 299.656 313.108 300.686 314.095C301.716 315.082 304.459 316.061 305.183 316.312C305.134 316.775 305.077 317.231 305.02 317.694C304.778 319.911 304.537 322.128 304.238 324.299C304.139 325.059 304.004 325.818 303.883 326.577C303.883 326.084 303.883 325.658 303.883 325.598C303.649 323.639 302.114 320.002 300.075 319.599C299.734 319.54 299.384 319.559 299.05 319.654C298.716 319.749 298.404 319.919 298.136 320.152C297.868 320.385 297.648 320.676 297.493 321.006C297.337 321.336 297.249 321.698 297.233 322.067C297.112 323.586 298.171 325.18 299.194 326.16C300.217 327.139 302.704 328.035 303.563 328.331C303.414 329.09 303.265 329.85 303.087 330.609C302.952 331.11 302.86 331.596 302.697 332.09C302.533 332.583 302.405 333.061 302.263 333.54C301.951 334.451 301.638 335.4 301.311 336.281C301.091 336.896 300.871 337.48 300.643 338.065C300.757 337.306 300.949 335.787 300.949 335.689C300.926 333.952 300.488 332.251 299.677 330.746C299.683 330.553 299.671 330.359 299.642 330.169C299.599 329.804 299.485 329.454 299.307 329.14C299.129 328.826 298.892 328.555 298.609 328.346C298.327 328.137 298.007 327.994 297.669 327.926C297.332 327.858 296.985 327.867 296.65 327.952C294.647 328.521 293.382 332.272 293.283 334.238C293.283 334.36 293.354 335.628 293.411 336.425C293.311 335.962 293.219 335.506 293.105 335.036C292.899 334.086 292.665 333.153 292.395 332.143C292.26 331.657 292.125 331.171 291.982 330.677C291.84 330.184 291.663 329.69 291.499 329.159C291.109 327.997 290.654 326.881 290.171 325.704C290.945 325.499 293.688 324.755 294.782 323.851C295.876 322.948 297.041 321.49 297.027 319.926C297.036 319.559 296.973 319.194 296.841 318.855C296.71 318.516 296.513 318.21 296.264 317.957C296.015 317.704 295.719 317.51 295.395 317.388C295.071 317.265 294.726 317.217 294.384 317.246C292.331 317.489 290.54 320.989 290.171 322.925C290.171 323.047 290.022 324.444 289.972 325.241C289.681 324.558 289.389 323.867 289.069 323.183C288.146 321.202 287.158 319.235 286.185 317.261L285.297 315.446C285.574 315.378 288.849 314.565 290.078 313.556C291.173 312.66 292.338 311.187 292.324 309.63C292.333 309.263 292.269 308.898 292.138 308.559C292.006 308.22 291.81 307.914 291.56 307.661C291.311 307.408 291.015 307.214 290.691 307.092C290.367 306.969 290.023 306.921 289.681 306.95C287.62 307.185 285.837 310.693 285.467 312.622C285.467 312.774 285.261 314.816 285.24 315.332C284.593 314.004 283.961 312.667 283.386 311.323C282.601 309.514 281.927 307.653 281.368 305.75C281.496 305.75 284.92 304.892 286.178 303.852C287.272 302.956 288.43 301.491 288.423 299.927C288.432 299.56 288.369 299.195 288.237 298.855C288.106 298.516 287.909 298.21 287.66 297.958C287.411 297.705 287.115 297.511 286.791 297.388C286.467 297.266 286.122 297.217 285.78 297.246C283.72 297.489 281.936 300.99 281.56 302.926C281.56 303.047 281.403 304.604 281.361 305.348H281.24C280.727 303.416 280.375 301.439 280.188 299.441C280.075 298.347 280.018 297.284 279.989 296.259C280.643 296.176 283.62 295.751 284.849 294.953C286.078 294.156 287.336 292.865 287.485 291.316C287.532 290.952 287.507 290.582 287.411 290.229C287.316 289.876 287.152 289.549 286.93 289.268C286.708 288.988 286.433 288.76 286.124 288.6C285.814 288.44 285.477 288.351 285.133 288.34C283.059 288.34 280.927 291.605 280.359 293.488C280.323 293.587 280.117 294.665 279.975 295.447C279.975 294.984 279.975 294.505 279.975 294.057C279.975 292.387 280.075 290.853 280.174 289.502C280.231 288.742 280.302 288.036 280.373 287.383C280.977 286.943 283.364 285.143 284.103 283.853C284.842 282.562 285.41 280.77 284.871 279.297C284.755 278.952 284.573 278.636 284.336 278.37C284.099 278.105 283.812 277.896 283.495 277.756C283.177 277.616 282.836 277.55 282.493 277.56C282.15 277.571 281.812 277.658 281.503 277.816C279.663 278.834 279.179 282.79 279.485 284.733C279.485 284.908 280.195 287.49 280.238 287.467H280.274C280.196 288.089 280.11 288.758 280.039 289.494C279.911 290.853 279.783 292.379 279.748 294.05C279.688 295.858 279.728 297.668 279.869 299.471C280.014 301.491 280.327 303.494 280.807 305.454V305.522C280.48 304.976 279.521 303.48 279.435 303.374C278.227 301.855 275.073 299.752 273.169 300.618C272.856 300.771 272.577 300.992 272.349 301.268C272.122 301.544 271.951 301.868 271.849 302.219C271.746 302.57 271.714 302.94 271.754 303.305C271.794 303.67 271.906 304.022 272.082 304.338C272.757 305.644 274.441 306.342 275.805 306.555Z" fill="#757575"/>
<path d="M64.1855 304.991L66.793 297.034" stroke="#757575" stroke-linecap="round" stroke-linejoin="round"/>
<path d="M64.3704 283.503V313.153" stroke="#757575" stroke-linecap="round" stroke-linejoin="round"/>
<path d="M60.1002 298.886C60.1002 298.886 56.2351 294.384 52.3701 295.09C48.505 295.796 46.7501 300.724 46.7501 303.731C46.7501 306.737 50.6152 316.494 50.6152 316.494C50.6152 316.494 53.4571 313.115 59.7521 308.233C66.047 303.351 66.4235 298.514 60.1002 298.886Z" fill="#E6007A" stroke="#757575" stroke-linecap="round" stroke-linejoin="round"/>
<path d="M60.1002 298.886C56.7823 300.888 54.0927 303.895 52.3701 307.527" stroke="#757575" stroke-linecap="round" stroke-linejoin="round"/>
<path d="M66.3952 293.594C66.3952 293.594 69.5924 289.889 72.7896 290.519C75.9868 291.149 77.4078 295.174 77.4007 297.649C77.3936 300.124 74.1964 308.157 74.1964 308.157C71.9076 305.623 69.3924 303.334 66.6865 301.324C61.4644 297.292 61.1873 293.275 66.3952 293.594Z" fill="#E6007A" stroke="#757575" stroke-linecap="round" stroke-linejoin="round"/>
<path d="M66.3951 293.594C69.1251 295.251 71.3351 297.735 72.7469 300.731" stroke="#757575" stroke-linecap="round" stroke-linejoin="round"/>
<path d="M63.809 288.674L68.6545 281.112" stroke="#757575" stroke-linecap="round" stroke-linejoin="round"/>
<path d="M62.9989 286.487C62.9989 286.487 62.9208 281.453 60.157 279.654C57.3932 277.854 53.8123 279.844 52.2776 281.696C50.743 283.549 48.1355 291.833 48.1355 291.833C51.4195 291.563 54.7205 291.642 57.99 292.068C64.3773 292.736 67.0913 289.95 62.9989 286.487Z" fill="#E6007A" stroke="#757575" stroke-linecap="round" stroke-linejoin="round"/>
<path d="M62.999 286.488C59.9312 285.784 56.7371 286.066 53.8195 287.3" stroke="#757575" stroke-linecap="round" stroke-linejoin="round"/>
<path d="M67.1625 279.737C67.1625 279.737 67.2193 276.032 69.294 274.711C71.3686 273.39 73.9619 274.848 75.0987 276.23C76.2354 277.611 78.1466 283.686 78.1466 283.686C75.7291 283.49 73.2994 283.548 70.8926 283.86C66.1465 284.384 64.15 282.289 67.1625 279.737Z" fill="#E6007A" stroke="#757575" stroke-linecap="round" stroke-linejoin="round"/>
<path d="M67.1626 279.737C69.4209 279.221 71.7716 279.43 73.9193 280.337" stroke="#757575" stroke-linecap="round" stroke-linejoin="round"/>
<path d="M76.2001 310.61H51.2406L53.7699 338.376H73.6707L76.2001 310.61Z" fill="white" stroke="#757575" stroke-linecap="round" stroke-linejoin="round"/>
<path d="M69.5852 322.705C69.5866 322.94 69.6532 323.17 69.7767 323.365C69.9001 323.56 70.0748 323.712 70.2787 323.801C70.4827 323.89 70.7067 323.912 70.9226 323.866C71.1385 323.819 71.3366 323.705 71.4919 323.538C71.6472 323.371 71.7527 323.158 71.7952 322.927C71.8377 322.696 71.8152 322.457 71.7306 322.239C71.6459 322.022 71.5029 321.836 71.3197 321.706C71.1364 321.575 70.921 321.505 70.7007 321.505C70.5536 321.505 70.408 321.536 70.2722 321.597C70.1364 321.657 70.0131 321.746 69.9094 321.857C69.8057 321.969 69.7237 322.101 69.6681 322.246C69.6124 322.392 69.5843 322.548 69.5852 322.705Z" fill="#757575" stroke="#757575" stroke-linecap="round" stroke-linejoin="round"/>
<path d="M65.4857 322.705C65.4857 322.943 65.5518 323.175 65.6754 323.372C65.7991 323.57 65.9748 323.723 66.1804 323.814C66.3859 323.905 66.612 323.928 66.8299 323.881C67.0479 323.834 67.2479 323.719 67.4046 323.55C67.5613 323.382 67.6677 323.167 67.7102 322.934C67.7527 322.701 67.7294 322.46 67.6434 322.241C67.5573 322.021 67.4123 321.835 67.2268 321.704C67.0413 321.573 66.8235 321.504 66.6012 321.505C66.4541 321.505 66.3085 321.536 66.1727 321.597C66.0369 321.657 65.9136 321.746 65.8099 321.857C65.7063 321.969 65.6242 322.101 65.5686 322.246C65.513 322.392 65.4848 322.548 65.4857 322.705Z" fill="#757575" stroke="#757575" stroke-linecap="round" stroke-linejoin="round"/>
<path d="M52.0718 319.721H75.3687L75.4824 318.521H51.9652L52.0718 319.721Z" fill="#757575" stroke="#757575" stroke-linecap="round" stroke-linejoin="round"/>
<path d="M74.374 330.662L74.8429 325.491H52.5975L53.0665 330.662H74.374Z" fill="#757575" stroke="#757575" stroke-linecap="round" stroke-linejoin="round"/>
<path d="M73.6776 322.705C73.6776 322.862 73.7067 323.018 73.7632 323.163C73.8197 323.308 73.9025 323.44 74.0068 323.55C74.1112 323.661 74.235 323.749 74.3711 323.808C74.5073 323.868 74.6531 323.898 74.8002 323.897H74.992L75.1981 321.619C75.0708 321.567 74.9363 321.539 74.8002 321.536C74.5073 321.535 74.226 321.658 74.0163 321.876C73.8066 322.095 73.685 322.392 73.6776 322.705Z" fill="#757575" stroke="#757575" stroke-linecap="round" stroke-linejoin="round"/>
<path d="M62.509 323.897C63.1251 323.897 63.6245 323.363 63.6245 322.705C63.6245 322.047 63.1251 321.513 62.509 321.513C61.893 321.513 61.3936 322.047 61.3936 322.705C61.3936 323.363 61.893 323.897 62.509 323.897Z" fill="#757575" stroke="#757575" stroke-linecap="round" stroke-linejoin="round"/>
<path d="M53.1944 322.705C53.1944 322.942 53.2602 323.174 53.3835 323.371C53.5069 323.569 53.6822 323.722 53.8873 323.813C54.0925 323.904 54.3182 323.928 54.5359 323.882C54.7537 323.835 54.9537 323.721 55.1107 323.553C55.2677 323.385 55.3746 323.172 55.4179 322.939C55.4612 322.706 55.439 322.465 55.354 322.246C55.2691 322.027 55.1252 321.839 54.9406 321.707C54.756 321.576 54.539 321.505 54.3169 321.505C54.1692 321.504 54.0229 321.535 53.8862 321.595C53.7496 321.654 53.6255 321.743 53.521 321.854C53.4166 321.966 53.334 322.099 53.2779 322.245C53.2218 322.391 53.1934 322.547 53.1944 322.705Z" fill="#757575" stroke="#757575" stroke-linecap="round" stroke-linejoin="round"/>
<path d="M57.2938 322.705C57.2952 322.94 57.3619 323.17 57.4853 323.365C57.6087 323.56 57.7834 323.712 57.9873 323.801C58.1913 323.89 58.4153 323.912 58.6313 323.866C58.8472 323.819 59.0453 323.705 59.2005 323.538C59.3558 323.371 59.4614 323.158 59.5038 322.927C59.5463 322.696 59.5238 322.457 59.4392 322.239C59.3545 322.022 59.2116 321.836 59.0283 321.706C58.845 321.575 58.6296 321.505 58.4093 321.505C58.2622 321.505 58.1166 321.536 57.9808 321.597C57.845 321.657 57.7217 321.746 57.618 321.857C57.5144 321.969 57.4323 322.101 57.3767 322.246C57.3211 322.392 57.2929 322.548 57.2938 322.705Z" fill="#757575" stroke="#757575" stroke-linecap="round" stroke-linejoin="round"/>
<path d="M77.3368 286.839L75.2853 287.367L85.9412 334.654L87.9927 334.126L77.3368 286.839Z" fill="#757575" stroke="#757575" stroke-linecap="round" stroke-linejoin="round"/>
<path d="M139.725 334.048H86.7008V337.807H139.725V334.048Z" fill="#757575" stroke="#757575" stroke-linecap="round" stroke-linejoin="round"/>
<path d="M203.584 173.241C200.603 178.219 199.193 184.087 199.562 189.983C200.308 199.489 205.537 207.447 206.312 211.638C207.086 215.829 203.243 222.959 204.337 224.477C205.431 225.996 211.015 225.92 211.015 225.92C211.015 225.92 220.152 236.55 223.619 237.112C227.086 237.673 232.778 232.093 232.778 232.093L239.222 239.883L258.241 224.211C258.241 224.211 253.268 215.578 253.026 213.619C252.785 211.661 259.591 200.195 257.119 183.62C254.646 167.045 240.145 158.989 226.177 159.103C212.209 159.217 203.584 173.241 203.584 173.241Z" fill="white" stroke="#424242" stroke-linecap="round" stroke-linejoin="round"/>
<path d="M244.294 196.399C244.294 196.399 243.15 193.035 240.202 194.243C237.253 195.45 237.623 200.545 237.623 200.545C237.623 200.545 240.891 198.684 241.026 199.907C241.161 201.129 239.186 202.405 239.186 202.405" stroke="#424242" stroke-linecap="round" stroke-linejoin="round"/>
<path d="M232.771 232.115L239.968 226.595L235.819 235.342L232.771 232.115Z" fill="#424242" stroke="#424242" stroke-linecap="round" stroke-linejoin="round"/>
<path d="M257.112 183.643C254.646 167.068 240.145 158.989 226.177 159.103C212.209 159.217 203.584 173.241 203.584 173.241C201.593 176.556 200.285 180.286 199.747 184.182C200.003 183.932 200.301 183.62 200.663 183.218C203.697 179.854 206.234 173.849 213.175 174.949C220.117 176.05 215.57 186.285 217.268 190.378C218.966 194.471 227.25 193.742 228.543 194.235C229.836 194.729 231.897 202.086 234.397 199.451C236.898 196.817 236.344 191.919 239.293 190.553C242.241 189.186 247.868 192.436 248.451 197.659C249.034 202.883 242.199 211.046 242.199 211.046C242.199 211.046 247.847 214.303 253.339 214.728C253.19 214.382 253.083 214.017 253.019 213.642C252.799 211.683 259.584 200.218 257.112 183.643Z" fill="#424242" stroke="#424242" stroke-linecap="round" stroke-linejoin="round"/>
<path d="M253.453 175.808C253.453 175.808 254.767 165.375 263.627 164.244C272.487 163.112 279.883 179.429 277.553 186.316C275.222 193.203 267.144 198.267 262.17 198.237C257.197 198.206 254.256 183.013 253.453 175.808Z" fill="#424242" stroke="#424242" stroke-linecap="round" stroke-linejoin="round"/>
<path d="M214.98 225.441C214.98 225.441 220.209 225.107 221.928 218.266" stroke="#424242" stroke-linecap="round" stroke-linejoin="round"/>
<path d="M211.349 207.864C211.982 209.056 212.117 210.256 211.655 210.529C211.193 210.802 210.312 210.058 209.687 208.859C209.062 207.659 208.919 206.475 209.381 206.194C209.843 205.913 210.724 206.664 211.349 207.864Z" fill="#424242"/>
<path d="M215.932 205.062C217.587 209.246 217.026 213.49 214.681 214.553C212.337 215.616 209.09 213.088 207.434 208.904C205.779 204.721 206.34 200.476 208.685 199.413C211.029 198.35 214.276 200.864 215.932 205.062Z" stroke="#424242" stroke-linecap="round" stroke-linejoin="round"/>
<path d="M207.434 208.904L204.067 210.932" stroke="#424242" stroke-linecap="round" stroke-linejoin="round"/>
<path d="M215.363 203.863L236.33 194.569" stroke="#424242" stroke-linecap="round" stroke-linejoin="round"/>
<path d="M205.331 201.562C205.331 201.562 205.886 197.766 209.452 197.318" stroke="#424242" stroke-width="2" stroke-linecap="round" stroke-linejoin="round"/>
<path d="M218.923 302.698L211.015 316.889L145.757 323.525L126.261 318.696C124.956 318.923 123.633 319.024 122.311 319C119.767 319 105.359 329.265 105.643 330.169C105.927 331.072 106.772 332.287 109.032 330.169C111.291 328.05 112.705 327.754 112.705 327.754C112.705 327.754 106.772 333.494 109.032 333.494C111.291 333.494 115.249 330.457 115.249 330.457C115.249 330.457 112.137 334.079 113.828 334.079C115.519 334.079 121.494 330.169 121.494 330.169C121.494 330.169 127.178 330.776 132.513 331.687C137.849 332.598 145.224 331.991 145.224 331.991C145.224 331.991 205.687 337.822 208.792 337.723C211.896 337.625 229.133 316.896 229.133 316.896L218.923 302.698Z" fill="#424242" stroke="#424242" stroke-linecap="round" stroke-linejoin="round"/>
<path d="M237.623 246.777C237.623 246.777 233.012 239.868 234.859 237.241C236.707 234.613 255.783 221.782 259.783 222.442C263.783 223.103 265.936 235.593 265.936 235.593C265.936 235.593 278.242 245.129 279.165 262.555C280.089 279.98 273.318 312.546 272.394 320.108C271.471 327.67 271.471 346.083 271.471 346.083H227.47C227.47 346.083 226.241 319.121 226.241 316.471C226.241 313.821 215.165 306.95 216.088 298.051C217.012 289.152 237.936 249.055 237.936 249.055L237.623 246.777Z" fill="#424242" stroke="#424242" stroke-linecap="round" stroke-linejoin="round"/>
<path d="M261.012 250.391C258.279 250.368 255.572 250.973 253.077 252.165C250.581 253.357 248.354 255.108 246.547 257.301C240.089 264.893 216.088 316.486 216.088 316.486C216.088 316.486 155.157 326.023 149.622 324.709C144.087 323.396 135.775 321.095 134.851 320.761C133.927 320.427 123.853 322.097 120.464 323.084C117.075 324.071 108.847 330.548 109.494 331.383C110.14 332.218 113.515 330.685 113.515 330.685C113.515 330.685 111.313 332.203 112.733 332.492C114.154 332.78 117.281 331.383 117.281 331.383C117.281 331.383 115.199 333.464 117.018 333.464C118.837 333.464 123.114 331.383 123.114 331.383C123.114 331.383 120.783 333.737 122.076 333.874C123.37 334.01 129.735 329.72 130.254 329.44C130.773 329.159 134.148 330.829 138.943 331.801C142.594 332.389 146.291 332.575 149.977 332.355C149.977 332.355 206.156 337.625 211.861 337.625C217.566 337.625 220.294 337.625 220.813 337.207C221.332 336.789 265.965 282.85 268.821 278.97C271.677 275.09 272.068 274.529 272.068 274.529" fill="white"/>
<path d="M261.012 250.391C258.279 250.368 255.572 250.973 253.077 252.165C250.581 253.357 248.354 255.108 246.547 257.301C240.089 264.893 216.088 316.486 216.088 316.486C216.088 316.486 155.157 326.023 149.622 324.709C144.087 323.396 135.775 321.095 134.851 320.761C133.927 320.427 123.853 322.097 120.464 323.084C117.075 324.071 108.847 330.548 109.494 331.383C110.14 332.218 113.515 330.685 113.515 330.685C113.515 330.685 111.313 332.203 112.733 332.492C114.154 332.78 117.281 331.383 117.281 331.383C117.281 331.383 115.199 333.464 117.018 333.464C118.837 333.464 123.114 331.383 123.114 331.383C123.114 331.383 120.783 333.737 122.076 333.874C123.37 334.01 129.735 329.72 130.254 329.44C130.773 329.159 134.148 330.829 138.943 331.801C142.594 332.389 146.291 332.575 149.977 332.355C149.977 332.355 206.156 337.625 211.861 337.625C217.566 337.625 220.294 337.625 220.813 337.207C221.332 336.789 265.965 282.85 268.821 278.97C271.677 275.09 272.068 274.529 272.068 274.529" stroke="#424242" stroke-linecap="round" stroke-linejoin="round"/>
<path d="M261.012 250.391C258.293 250.461 255.614 251.108 253.131 252.294C250.647 253.481 248.409 255.182 246.547 257.301C244.245 259.989 239.719 268.28 234.845 277.801C239.627 278.804 248.977 282.122 257.325 293.108C263.364 285.751 267.982 280.102 268.821 278.94C271.663 275.06 272.75 273.625 272.75 273.625" fill="#424242"/>
<path d="M261.012 250.391C258.293 250.461 255.614 251.108 253.131 252.294C250.647 253.481 248.409 255.182 246.547 257.301C244.245 259.989 239.719 268.28 234.845 277.801C239.627 278.804 248.977 282.122 257.325 293.108C263.364 285.751 267.982 280.102 268.821 278.94C271.663 275.06 272.75 273.625 272.75 273.625" stroke="#424242" stroke-linecap="round" stroke-linejoin="round"/>
<path d="M123.114 331.383L130.581 325.97" stroke="#424242" stroke-linecap="round" stroke-linejoin="round"/>
<path d="M117.281 331.384C117.281 331.384 126.517 324.96 127.071 324.55" stroke="#424242" stroke-linecap="round" stroke-linejoin="round"/>
<path d="M113.515 330.7C113.515 330.7 119.519 325.552 123.568 323.965" stroke="#424242" stroke-linecap="round" stroke-linejoin="round"/>
<path d="M292.047 290.337C290.925 290.331 289.833 290.717 288.935 291.435C288.038 292.153 287.384 293.164 287.073 294.315L272.97 346.083H283.72L296.984 297.39C297.206 296.57 297.247 295.706 297.104 294.866C296.961 294.027 296.637 293.234 296.159 292.55C295.68 291.866 295.06 291.311 294.346 290.927C293.633 290.543 292.845 290.341 292.047 290.337Z" fill="#E6007A" stroke="#424242" stroke-linecap="round" stroke-linejoin="round"/>
<path d="M210.084 337.974H40.114V346.083H210.084V337.974Z" fill="#E6007A" stroke="#757575" stroke-linecap="round" stroke-linejoin="round"/>
<path d="M34.9417 346.083H320.309" stroke="#757575" stroke-linecap="round" stroke-linejoin="round"/>
<path d="M253.739 18.637H67.769V66.9314H253.739V18.637Z" fill="#E0E0E0"/>
<path d="M72.6487 61.7168H248.859V23.8518H72.6487V61.7168Z" fill="white"/>
<path d="M106.211 57.2097C113.666 57.2097 119.71 50.7512 119.71 42.7841C119.71 34.8171 113.666 28.3585 106.211 28.3585C98.7561 28.3585 92.7125 34.8171 92.7125 42.7841C92.7125 50.7512 98.7561 57.2097 106.211 57.2097Z" fill="#48CC81"/>
<path d="M228.795 37.1395H138.49V40.2755H228.795V37.1395Z" fill="#48CC81"/>
<path d="M228.795 45.2931H138.49V48.4291H228.795V45.2931Z" fill="#48CC81"/>
<path d="M0 92.04L157.352 104.306V148.457L0 145.335V92.04Z" fill="#E0E0E0"/>
<path d="M4.95679 139.71L153.917 143.604V108.826L4.95679 98.1499V139.71Z" fill="white"/>
<path d="M37.6507 105.263C39.3705 105.381 41.0453 105.899 42.5583 106.781C44.0758 107.668 45.422 108.854 46.5253 110.277C47.6719 111.749 48.5701 113.424 49.1795 115.225C49.8225 117.121 50.1506 119.121 50.149 121.138C50.1557 123.123 49.8273 125.094 49.1795 126.955C48.5786 128.683 47.6782 130.274 46.5253 131.646C45.4184 132.964 44.0676 134.023 42.5583 134.754C41.0173 135.494 39.3391 135.849 37.6507 135.793C35.9228 135.734 34.2282 135.269 32.6879 134.43C31.1275 133.577 29.737 132.409 28.5933 130.99C27.3933 129.507 26.4513 127.806 25.8116 125.968C25.1329 124.027 24.786 121.972 24.7875 119.9C24.7799 117.858 25.1272 115.833 25.8116 113.928C26.4431 112.168 27.388 110.555 28.594 109.18C29.7427 107.869 31.1382 106.833 32.6885 106.141C34.2582 105.447 35.9556 105.147 37.6507 105.263Z" fill="#E0E0E0"/>
<path d="M66.9575 116.187L139.457 120.225V123.159L66.9575 119.395V116.187Z" fill="#E0E0E0"/>
<path d="M66.9575 124.529L139.457 127.855V130.789L66.9575 127.736V124.529Z" fill="#E0E0E0"/>
<path d="M0 181.732L157.352 178.61V222.762L0 235.027V181.732Z" fill="#E0E0E0"/>
<path d="M4.95679 228.917L153.917 218.24V183.466L4.95679 187.36V228.917Z" fill="white"/>
<path d="M24.7982 206.464C24.8746 204.394 25.299 202.355 26.0511 200.445C26.7573 198.645 27.7613 196.996 29.0149 195.576C30.208 194.22 31.6386 193.128 33.2255 192.361C34.795 191.606 36.5019 191.233 38.2228 191.269C39.9116 191.306 41.5706 191.753 43.0743 192.575C44.553 193.39 45.8591 194.522 46.9119 195.899C48.0098 197.333 48.8479 198.973 49.3832 200.736C49.9596 202.63 50.214 204.619 50.1341 206.609C50.0618 208.623 49.6604 210.608 48.948 212.474C48.2743 214.244 47.3152 215.873 46.1144 217.288C44.9611 218.653 43.5731 219.768 42.0259 220.573C40.4808 221.374 38.7896 221.802 37.0725 221.826C35.3721 221.848 33.6897 221.453 32.1542 220.672C30.6325 219.892 29.281 218.779 28.1871 217.405C27.0367 215.962 26.1561 214.296 25.593 212.498C24.9832 210.556 24.7138 208.511 24.7982 206.464Z" fill="#E0E0E0"/>
<path d="M66.9575 199.332L139.457 196.279V199.213L66.9575 202.539V199.332Z" fill="#E0E0E0"/>
<path d="M66.9575 207.672L139.457 203.908V206.843L66.9575 210.88V207.672Z" fill="#E0E0E0"/>
<path d="M316.895 28.469C285.567 28.469 260.141 55.6407 260.141 89.1202C260.141 122.6 285.567 149.771 316.895 149.771C348.223 149.771 373.649 122.6 373.649 89.1202C373.649 55.6407 348.223 28.469 316.895 28.469ZM305.544 119.446L277.168 89.1202L285.17 80.5684L305.544 102.281L348.621 56.2472L356.623 64.8597L305.544 119.446Z" fill="#48CC81"/>
</svg>
