<svg width="240" height="240" viewBox="0 0 240 240" fill="none" xmlns="http://www.w3.org/2000/svg">
<g opacity="0.3">
<path d="M216.96 38.6256H167.52V103.555H216.96V38.6256Z" stroke="#212121" stroke-miterlimit="10"/>
<path d="M207.888 50.5392H176.592V91.6416H207.888V50.5392Z" stroke="#212121" stroke-miterlimit="10"/>
</g>
<path d="M155.938 31.3488H25.0416V147.864H155.938V31.3488Z" fill="#212121" stroke="#212121" stroke-miterlimit="10"/>
<path d="M153.456 28.512H22.56V145.027H153.456V28.512Z" fill="white" stroke="#212121" stroke-linecap="round" stroke-linejoin="round"/>
<path d="M127.968 75.5327H134.477V69.0239H127.968V75.5327Z" fill="white" stroke="#212121" stroke-linecap="round" stroke-linejoin="round"/>
<path d="M136.488 75.5327H142.997V69.0239H136.488V75.5327Z" fill="white" stroke="#212121" stroke-linecap="round" stroke-linejoin="round"/>
<path d="M125.366 72.672H92.2992" stroke="#212121" stroke-linecap="round" stroke-linejoin="round"/>
<path d="M127.968 90.8976H134.477V84.3888H127.968V90.8976Z" fill="white" stroke="#212121" stroke-linecap="round" stroke-linejoin="round"/>
<path d="M136.488 90.8976H142.997V84.3888H136.488V90.8976Z" fill="white" stroke="#212121" stroke-linecap="round" stroke-linejoin="round"/>
<path d="M125.366 88.032H92.2992" stroke="#212121" stroke-linecap="round" stroke-linejoin="round"/>
<path d="M127.968 106.262H134.477V99.7535H127.968V106.262Z" fill="white" stroke="#212121" stroke-linecap="round" stroke-linejoin="round"/>
<path d="M136.488 106.262H142.997V99.7535H136.488V106.262Z" fill="white" stroke="#212121" stroke-linecap="round" stroke-linejoin="round"/>
<path d="M125.366 103.397H92.2992" stroke="#212121" stroke-linecap="round" stroke-linejoin="round"/>
<path d="M65.7408 75.5327H72.2496V69.0239H65.7408V75.5327Z" fill="white" stroke="#212121" stroke-linecap="round" stroke-linejoin="round"/>
<path d="M74.2656 75.5327H80.7744V69.0239H74.2656V75.5327Z" fill="white" stroke="#212121" stroke-linecap="round" stroke-linejoin="round"/>
<path d="M63.1392 72.672H30.072" stroke="#212121" stroke-linecap="round" stroke-linejoin="round"/>
<path d="M65.7408 90.8976H72.2496V84.3888H65.7408V90.8976Z" fill="white" stroke="#212121" stroke-linecap="round" stroke-linejoin="round"/>
<path d="M74.2656 90.8976H80.7744V84.3888H74.2656V90.8976Z" fill="white" stroke="#212121" stroke-linecap="round" stroke-linejoin="round"/>
<path d="M63.1392 88.032H30.072" stroke="#212121" stroke-linecap="round" stroke-linejoin="round"/>
<path d="M65.7408 106.262H72.2496V99.7535H65.7408V106.262Z" fill="white" stroke="#212121" stroke-linecap="round" stroke-linejoin="round"/>
<path d="M74.2656 106.262H80.7744V99.7535H74.2656V106.262Z" fill="white" stroke="#212121" stroke-linecap="round" stroke-linejoin="round"/>
<path d="M63.1392 103.397H30.072" stroke="#212121" stroke-linecap="round" stroke-linejoin="round"/>
<path d="M39.2976 128.64H32.1264V135.811H39.2976V128.64Z" fill="white" stroke="#212121" stroke-linecap="round" stroke-linejoin="round"/>
<path d="M68.5632 128.64H61.392V135.811H68.5632V128.64Z" fill="white" stroke="#212121" stroke-linecap="round" stroke-linejoin="round"/>
<path d="M98.9904 128.64H91.8192V135.811H98.9904V128.64Z" fill="white" stroke="#212121" stroke-linecap="round" stroke-linejoin="round"/>
<path d="M76.4016 71.2032L77.5104 73.4304L82.8816 68.2416" stroke="#212121" stroke-width="2" stroke-linecap="round" stroke-linejoin="round"/>
<path d="M76.4016 86.3951L77.5104 88.6175L82.8816 83.4287" stroke="#212121" stroke-width="2" stroke-linecap="round" stroke-linejoin="round"/>
<path d="M67.1376 102.326L68.2512 104.549L73.6224 99.36" stroke="#212121" stroke-width="2" stroke-linecap="round" stroke-linejoin="round"/>
<path d="M138.269 71.0207L139.378 73.2431L144.749 68.0543" stroke="#212121" stroke-width="2" stroke-linecap="round" stroke-linejoin="round"/>
<path d="M129.302 86.5776L130.411 88.8L135.782 83.616" stroke="#212121" stroke-width="2" stroke-linecap="round" stroke-linejoin="round"/>
<path d="M129.302 102.187L130.411 104.41L135.782 99.2256" stroke="#212121" stroke-width="2" stroke-linecap="round" stroke-linejoin="round"/>
<path d="M153.456 28.512H22.56V46.7136H153.456V28.512Z" fill="#424242" stroke="#212121" stroke-linecap="round" stroke-linejoin="round"/>
<path d="M153.456 28.512H148.526V145.027H153.456V28.512Z" fill="#E0E0E0" stroke="#212121" stroke-linecap="round" stroke-linejoin="round"/>
<path d="M153.456 46.0223H148.526V68.5103H153.456V46.0223Z" fill="#9E9E9E" stroke="#212121" stroke-linecap="round" stroke-linejoin="round"/>
<path d="M153.456 28.512H22.56V37.3632H153.456V28.512Z" fill="#E0E0E0" stroke="#212121" stroke-linecap="round" stroke-linejoin="round"/>
<path d="M80.8176 31.0896H29.1984V34.776H80.8176V31.0896Z" fill="white" stroke="#212121" stroke-linecap="round" stroke-linejoin="round"/>
<path d="M145.728 31.2623H150.259" stroke="#212121" stroke-linecap="round" stroke-linejoin="round"/>
<path d="M145.728 33.1776H150.259" stroke="#212121" stroke-linecap="round" stroke-linejoin="round"/>
<path d="M145.728 35.0975H150.259" stroke="#212121" stroke-linecap="round" stroke-linejoin="round"/>
<path d="M68.2848 54.0767C68.2848 52.9391 68.8848 52.2911 69.9792 52.2911C71.0736 52.2911 71.6688 52.9391 71.6688 54.0767V57.7631C71.6688 58.8959 71.0736 59.5439 69.9792 59.5439C68.8848 59.5439 68.2848 58.8959 68.2848 57.7631V54.0767ZM69.4032 57.8351C69.4032 58.3391 69.624 58.5311 69.9792 58.5311C70.3344 58.5311 70.5552 58.3391 70.5552 57.8351V53.9951C70.5552 53.4863 70.3344 53.2943 69.9792 53.2943C69.624 53.2943 69.4032 53.4863 69.4032 53.9951V57.8351Z" fill="#212121"/>
<path d="M73.3824 54.3312V59.4624H72.3792V52.3728H73.776L74.9232 56.616V52.3728H75.9168V59.4624H74.7696L73.3824 54.3312Z" fill="#212121"/>
<path d="M76.7136 52.3728H77.832V58.4496H79.68V59.4624H76.728L76.7136 52.3728Z" fill="#212121"/>
<path d="M80.16 52.3728H81.2736V59.4624H80.16V52.3728Z" fill="#212121"/>
<path d="M83.0688 54.3312V59.4624H82.08V52.3728H83.4768L84.624 56.616V52.3728H85.6128V59.4624H84.48L83.0688 54.3312Z" fill="#212121"/>
<path d="M87.5136 55.3632H89.0448V56.376H87.5136V58.4496H89.4336V59.4624H86.4V52.3728H89.4384V53.3856H87.5184L87.5136 55.3632Z" fill="#212121"/>
<path d="M91.3776 52.3728H94.8192V53.3856H93.6528V59.4624H92.5392V53.3856H91.3776V52.3728Z" fill="#212121"/>
<path d="M96.4224 55.3632H97.9488V56.376H96.4224V58.4496H98.3424V59.4624H95.304V52.3728H98.3424V53.3856H96.4224V55.3632Z" fill="#212121"/>
<path d="M100.531 52.2911C101.616 52.2911 102.173 52.9391 102.173 54.0767V54.2975H101.122V54.0047C101.122 53.4959 100.92 53.3039 100.565 53.3039C100.21 53.3039 100.008 53.4959 100.008 54.0047C100.008 55.4447 102.182 55.7375 102.182 57.7631C102.182 58.8959 101.616 59.5439 100.522 59.5439C99.4272 59.5439 98.88 58.8959 98.88 57.7631V57.3263H99.936V57.8351C99.936 58.3391 100.157 58.5215 100.512 58.5215C100.867 58.5215 101.088 58.3391 101.088 57.8351C101.088 56.3951 98.9136 56.1023 98.9136 54.0767C98.88 52.9391 99.4512 52.2911 100.531 52.2911Z" fill="#212121"/>
<path d="M102.499 52.3728H105.941V53.3856H104.779V59.4624H103.68V53.3856H102.514L102.499 52.3728Z" fill="#212121"/>
<path d="M37.7088 126.912H36.5808L36.3888 125.626H35.04L34.848 126.912H33.8064L34.9392 119.822H36.5712L37.7088 126.912ZM35.1648 124.661H36.24L35.7024 121.075L35.1648 124.661Z" fill="#212121"/>
<path d="M66.504 121.44V121.69C66.504 122.419 66.2832 122.885 65.784 123.13C66.384 123.36 66.6144 123.898 66.6144 124.646V125.227C66.6144 126.322 66.0384 126.907 64.9248 126.907H63.1728V119.822H64.8528C66.0096 119.822 66.504 120.36 66.504 121.44ZM64.2864 120.821V122.693H64.7232C65.136 122.693 65.3904 122.51 65.3904 121.944V121.55C65.3904 121.042 65.2176 120.821 64.824 120.821H64.2864ZM64.2864 123.701V125.88H64.9248C65.2992 125.88 65.5008 125.707 65.5008 125.179V124.565C65.5008 123.902 65.2896 123.701 64.7856 123.701H64.2864Z" fill="#212121"/>
<path d="M97.2192 124.267V125.227C97.2192 126.365 96.6528 127.013 95.5584 127.013C94.464 127.013 93.8976 126.365 93.8976 125.227V121.541C93.8976 120.408 94.464 119.76 95.5584 119.76C96.6528 119.76 97.2192 120.408 97.2192 121.541V122.232H96.168V121.44C96.168 120.931 95.9424 120.739 95.5872 120.739C95.232 120.739 95.0112 120.931 95.0112 121.44V125.28C95.0112 125.789 95.2368 125.971 95.5872 125.971C95.9376 125.971 96.168 125.789 96.168 125.28V124.267H97.2192Z" fill="#212121"/>
<path d="M30.576 116.045H115.656" stroke="#212121" stroke-linecap="round" stroke-linejoin="round"/>
<path opacity="0.3" d="M170.318 29.0831H179.712V19.6895H170.318V29.0831Z" stroke="#212121" stroke-linecap="round" stroke-linejoin="round"/>
<path opacity="0.3" d="M182.621 29.0831H192.014V19.6895H182.621V29.0831Z" stroke="#212121" stroke-linecap="round" stroke-linejoin="round"/>
<path opacity="0.3" d="M172.339 23.4048L173.942 26.6112L178.656 21.4224" stroke="#212121" stroke-width="2" stroke-linecap="round" stroke-linejoin="round"/>
<path opacity="0.3" d="M28.1184 166.901H37.512V157.507H28.1184V166.901Z" stroke="#212121" stroke-linecap="round" stroke-linejoin="round"/>
<path opacity="0.3" d="M40.416 166.901H49.8096V157.507H40.416V166.901Z" stroke="#212121" stroke-linecap="round" stroke-linejoin="round"/>
<path opacity="0.3" d="M30.1296 161.222L31.7328 164.429L36.4464 159.24" stroke="#212121" stroke-width="2" stroke-linecap="round" stroke-linejoin="round"/>
<path opacity="0.3" d="M72.6192 166.901H82.0128V157.507H72.6192V166.901Z" stroke="#212121" stroke-linecap="round" stroke-linejoin="round"/>
<path opacity="0.3" d="M84.9216 166.901H94.3152V157.507H84.9216V166.901Z" stroke="#212121" stroke-linecap="round" stroke-linejoin="round"/>
<path opacity="0.3" d="M74.6352 161.222L76.2384 164.429L80.952 159.24" stroke="#212121" stroke-width="2" stroke-linecap="round" stroke-linejoin="round"/>
<g opacity="0.3">
<path d="M87.1876 24.3878C90.4745 23.8566 92.7085 20.7613 92.1773 17.4744C91.6461 14.1874 88.5509 11.9534 85.2639 12.4846C81.977 13.0158 79.743 16.111 80.2742 19.398C80.8054 22.685 83.9006 24.919 87.1876 24.3878Z" stroke="#212121" stroke-linecap="round" stroke-linejoin="round"/>
<path d="M87.912 20.616L86.2272 18.4368V15.0048" stroke="#212121" stroke-linecap="round" stroke-linejoin="round"/>
</g>
<g opacity="0.3">
<path d="M198.758 134.074H197.866L197.712 133.056H196.627L196.474 134.074H195.662L196.565 128.453H197.856L198.758 134.074ZM196.742 132.293H197.592L197.165 129.446L196.742 132.293Z" fill="#212121"/>
<path d="M211.33 129.744V129.946C211.364 130.17 211.327 130.399 211.226 130.602C211.125 130.805 210.963 130.971 210.763 131.078C210.989 131.181 211.175 131.354 211.293 131.571C211.412 131.788 211.457 132.038 211.421 132.283V132.763C211.443 132.944 211.423 133.128 211.363 133.301C211.303 133.473 211.205 133.629 211.075 133.758C210.945 133.886 210.788 133.983 210.615 134.041C210.442 134.099 210.258 134.117 210.077 134.093H208.69V128.453H210.024C210.936 128.453 211.33 128.875 211.33 129.744ZM209.573 129.264V130.752H209.918C210.245 130.752 210.446 130.608 210.446 130.157V129.845C210.446 129.442 210.312 129.264 209.995 129.264H209.573ZM209.573 131.554V133.282H210.077C210.374 133.282 210.557 133.147 210.557 132.73V132.25C210.557 131.731 210.384 131.568 209.986 131.568L209.573 131.554Z" fill="#212121"/>
<path d="M224.059 132V132.744C224.059 133.646 223.613 134.16 222.744 134.16C221.875 134.16 221.424 133.646 221.424 132.744V129.821C221.424 128.918 221.875 128.405 222.744 128.405C223.613 128.405 224.059 128.918 224.059 129.821V130.368H223.224V129.744C223.224 129.341 223.046 129.192 222.768 129.192C222.49 129.192 222.288 129.341 222.288 129.744V132.782C222.288 133.186 222.466 133.33 222.768 133.33C223.07 133.33 223.224 133.186 223.224 132.782V132H224.059Z" fill="#212121"/>
<path d="M200.515 137.141H193.685V143.971H200.515V137.141Z" stroke="#212121" stroke-miterlimit="10"/>
<path d="M213.221 137.141H206.39V143.971H213.221V137.141Z" stroke="#212121" stroke-miterlimit="10"/>
<path d="M225.926 137.141H219.096V143.971H225.926V137.141Z" stroke="#212121" stroke-miterlimit="10"/>
</g>
<path d="M38.6112 216.269H24.1584" stroke="#212121" stroke-miterlimit="10"/>
<path d="M227.198 216.269H43.32" stroke="#212121" stroke-miterlimit="10"/>
<path d="M171.667 216.106L174.758 169.162L177.034 146.842L170.794 139.877L167.664 137.602C167.664 137.602 163.258 141.442 160.133 142.291C157.008 143.141 154.003 144 154.003 144C154.003 144 143.342 164.045 142.483 173.141C141.624 182.237 140.208 215.933 140.208 215.933L141.394 216.106H171.667Z" fill="#9E9E9E" stroke="#212121" stroke-miterlimit="10"/>
<path d="M157.013 177.403C157.013 177.403 156.48 177.13 157.546 174.384" stroke="#212121" stroke-miterlimit="10"/>
<path d="M155.76 143.52C156.29 147.312 156.583 151.134 156.638 154.963C156.638 154.963 159.84 153.682 162.398 149.203C163.812 146.8 165.029 144.286 166.037 141.686L155.76 143.52Z" fill="#212121" stroke="#212121" stroke-miterlimit="10"/>
<path d="M171.667 216.106L174.446 173.899C171.72 175.291 166.339 177.59 160.402 177.691C153.288 177.811 144.48 172.286 144.48 172.286L142.498 173.064C142.498 173.088 142.498 173.117 142.498 173.141C141.643 182.261 140.222 215.933 140.222 215.933L141.408 216.106H171.667Z" fill="white" stroke="#212121" stroke-miterlimit="10"/>
<path d="M167.04 192.48C167.04 203.352 167.414 213.811 167.52 216.096H188.472C188.76 212.707 190.565 191.616 191.491 184.056C192.504 175.795 199.147 163.498 199.147 159.096C199.147 154.694 200.496 155.39 194.429 152.189C188.362 148.987 174.979 142.075 173.126 141.23C171.274 140.386 169.248 138.35 169.248 138.35C169.248 138.35 169.92 142.565 169.728 154.022C169.536 165.48 167.04 180.187 167.04 192.48Z" fill="#424242"/>
<g opacity="0.2">
<path d="M169.248 138.394C169.498 140.388 169.642 142.394 169.68 144.403V138.802C169.411 138.557 169.248 138.394 169.248 138.394Z" fill="#212121"/>
<path d="M196.8 165.826V167.266C196.963 166.829 197.126 166.406 197.28 165.989V165.816H197.342C197.405 165.658 197.462 165.494 197.52 165.336H197.28V159.36H199.138C199.138 159.288 199.138 159.211 199.138 159.139C199.138 159.067 199.138 158.966 199.138 158.88H197.28V153.763C197.131 153.672 196.973 153.586 196.8 153.49V158.88H191.76V152.88H195.658L194.755 152.4H191.76V150.816L191.28 150.562V152.386H186.24V147.941L185.76 147.691V152.386H180.72V146.4H183.23L182.299 145.92H180.72V145.109L180.24 144.859V145.92H175.2V142.296C175.032 142.21 174.874 142.128 174.72 142.056V145.92H169.728C169.728 146.078 169.728 146.237 169.728 146.4H174.72V152.4H169.771C169.771 152.558 169.771 152.717 169.771 152.88H174.72V158.88H169.68V156.6C169.584 158.942 169.411 161.4 169.2 163.901V165.341H169.075L169.032 165.821H169.2V171.84H168.48L168.432 172.32H169.224V178.32H167.861L167.818 178.8H169.224V184.8H167.352L167.323 185.28H169.243V191.28H167.117C167.117 191.443 167.117 191.602 167.117 191.76H169.248V197.76H167.131C167.131 197.923 167.131 198.082 167.131 198.24H169.243V204.24H167.227C167.227 204.403 167.227 204.562 167.227 204.72H169.234V216.12H169.714V204.706H174.72V216.106H175.2V204.706H180.24V216.106H180.72V204.706H185.76V216.106H186.24V204.706H189.47C189.47 204.547 189.47 204.389 189.514 204.226H186.24V198.24H190.08C190.08 198.082 190.114 197.923 190.128 197.76H186.24V191.76H190.675C190.675 191.597 190.704 191.443 190.723 191.28H186.24V185.28H191.28V185.918L191.491 184.08C191.558 183.542 191.65 182.986 191.76 182.414V178.8H192.658L192.802 178.32H191.76V172.32H194.88C194.942 172.162 195 171.998 195.062 171.84H191.76V165.84L196.8 165.826ZM191.76 159.36H196.8V165.36H191.76V159.36ZM174.72 204.226H169.68V198.24H174.72V204.226ZM174.72 197.746H169.68V191.746H174.72V197.746ZM174.72 191.266H169.68V185.28H174.72V191.266ZM174.72 184.786H169.68V178.786H174.72V184.786ZM174.72 178.306H169.68V172.32H174.72V178.306ZM174.72 171.826H169.68V165.826H174.72V171.826ZM174.72 165.346H169.68V159.36H174.72V165.346ZM180.24 204.226H175.2V198.24H180.24V204.226ZM180.24 197.746H175.2V191.746H180.24V197.746ZM180.24 191.266H175.2V185.28H180.24V191.266ZM180.24 184.786H175.2V178.786H180.24V184.786ZM180.24 178.306H175.2V172.32H180.24V178.306ZM180.24 171.826H175.2V165.826H180.24V171.826ZM180.24 165.346H175.2V159.36H180.24V165.346ZM180.24 158.866H175.2V152.866H180.24V158.866ZM180.24 152.386H175.2V146.4H180.24V152.386ZM185.76 204.226H180.72V198.24H185.76V204.226ZM185.76 197.746H180.72V191.746H185.76V197.746ZM185.76 191.266H180.72V185.28H185.76V191.266ZM185.76 184.786H180.72V178.786H185.76V184.786ZM185.76 178.306H180.72V172.32H185.76V178.306ZM185.76 171.826H180.72V165.826H185.76V171.826ZM185.76 165.346H180.72V159.36H185.76V165.346ZM185.76 158.866H180.72V152.866H185.76V158.866ZM191.28 184.786H186.24V178.786H191.28V184.786ZM191.28 178.306H186.24V172.32H191.28V178.306ZM191.28 171.826H186.24V165.826H191.28V171.826ZM191.28 165.346H186.24V159.36H191.28V165.346ZM191.28 158.866H186.24V152.866H191.28V158.866Z" fill="#212121"/>
</g>
<path d="M167.04 192.48C167.04 203.352 167.414 213.811 167.52 216.096H188.472C188.76 212.707 190.565 191.616 191.491 184.056C192.504 175.795 199.147 163.498 199.147 159.096C199.147 154.694 200.496 155.39 194.429 152.189C188.362 148.987 174.979 142.075 173.126 141.23C171.274 140.386 169.248 138.35 169.248 138.35C169.248 138.35 169.92 142.565 169.728 154.022C169.536 165.48 167.04 180.187 167.04 192.48Z" stroke="#212121" stroke-miterlimit="10"/>
<path d="M169.248 138.394C169.248 138.394 169.92 142.608 169.728 154.066C169.69 156.946 169.493 160.056 169.248 163.262C169.824 162.47 171.682 159.941 172.128 159.797C172.632 159.629 175.33 162.158 177.518 162.494C179.707 162.83 180.552 162.83 178.195 160.301C175.838 157.771 174.835 150.36 173.981 144.797C173.818 143.606 173.557 142.431 173.198 141.283H173.141C171.269 140.419 169.248 138.394 169.248 138.394Z" fill="#212121" stroke="#212121" stroke-miterlimit="10"/>
<path d="M183.077 190.522C184.627 189.816 185.846 189.206 185.846 189.206L186.418 193.613C186.418 193.613 178.027 197.309 173.338 197.592C168.648 197.875 168.221 198.019 168.221 198.019L168.36 193.757" stroke="#212121" stroke-miterlimit="10"/>
<path d="M178.877 192.245C179.736 191.957 180.744 191.549 181.728 191.122" stroke="#212121" stroke-miterlimit="10"/>
<path d="M169.92 193.33C172.374 193.267 174.82 193.044 177.245 192.662" stroke="#212121" stroke-miterlimit="10"/>
<path d="M186.418 193.613L186.701 197.026" stroke="#212121" stroke-miterlimit="10"/>
<path d="M122.107 216.106H145.685C145.738 214.258 146.419 190.771 146.88 178.786C147.36 166.306 155.827 147.375 155.827 147.375C155.827 147.375 156.96 144.706 155.76 143.506C154.56 142.306 151.68 142.786 149.52 144.466C147.36 146.146 127.44 154.786 126.24 155.986C125.04 157.186 125.28 161.266 124.8 166.066C124.32 170.866 116.4 203.986 116.4 203.986C116.4 203.986 114.24 204.466 113.52 204.946C112.8 205.426 112.8 206.866 112.8 206.866C112.8 206.866 113.76 207.106 116.64 208.546C119.29 209.871 121.733 215.247 122.107 216.106Z" fill="#424242"/>
<path opacity="0.2" d="M152.64 152.866V155.318C152.803 154.877 152.962 154.45 153.12 154.037V152.866H153.571L153.758 152.386H153.12V146.4H156.144C156.178 146.251 156.216 146.088 156.24 145.92H153.12V142.906C152.962 142.93 152.803 142.954 152.64 142.992V145.92H147.6V145.594L147.12 145.838V145.92H146.957L145.997 146.4H147.12V152.4H142.08V148.272L141.6 148.498V152.386H136.56V150.854L136.08 151.08V152.386H133.291L132.274 152.866H136.08V158.88H131.04V153.456L130.56 153.686V158.88H125.52V157.67C125.25 159.419 125.09 161.182 125.04 162.95V165.35H124.867L124.824 165.83H125.04V171.84H123.749L123.648 172.32H125.04V178.32H122.347C122.314 178.478 122.275 178.642 122.242 178.8H125.04V184.8H120.888C120.85 184.963 120.816 185.122 120.778 185.28H125.04V191.28H120V188.64L119.52 190.714V191.256H119.395L119.285 191.736H119.52V197.76H117.878L117.763 198.24H119.52V204.24H115.445C114.956 204.371 114.475 204.531 114.005 204.72V207.331C114.149 207.389 114.307 207.456 114.485 207.538V204.72H119.52V211.44C119.688 211.68 119.846 211.92 120 212.165V204.725H125.04V216.125H125.52V204.706H130.56V216.106H131.04V204.706H136.08V216.106H136.56V204.706H141.6V216.106H142.08V204.706H146.021V204.226H142.08V198.24H146.222V197.76H142.08V191.76H146.429V191.28H142.08V185.28H146.645C146.645 185.122 146.645 184.958 146.645 184.8H142.08V178.8H146.88C146.88 178.642 146.88 178.483 146.904 178.32H142.08V172.32H147.12V175.867C147.245 174.845 147.403 173.794 147.6 172.728V172.32H147.677C147.706 172.162 147.739 172.003 147.768 171.84H147.6V165.84H149.208C149.251 165.682 149.299 165.523 149.342 165.36H147.6V159.36H151.2C151.258 159.202 151.31 159.038 151.363 158.88H147.6V152.88L152.64 152.866ZM147.6 146.4H152.64V152.4H147.6V146.4ZM125.04 204.24H120V198.24H125.04V204.24ZM125.04 197.76H120V191.76H125.04V197.76ZM130.56 204.24H125.52V198.24H130.56V204.24ZM130.56 197.76H125.52V191.76H130.56V197.76ZM130.56 191.28H125.52V185.28H130.56V191.28ZM130.56 184.8H125.52V178.8H130.56V184.8ZM130.56 178.32H125.52V172.32H130.56V178.32ZM130.56 171.84H125.52V165.84H130.56V171.84ZM130.56 165.36H125.52V159.36H130.56V165.36ZM136.08 204.24H131.04V198.24H136.08V204.24ZM136.08 197.76H131.04V191.76H136.08V197.76ZM136.08 191.28H131.04V185.28H136.08V191.28ZM136.08 184.8H131.04V178.8H136.08V184.8ZM136.08 178.32H131.04V172.32H136.08V178.32ZM136.08 171.84H131.04V165.84H136.08V171.84ZM136.08 165.36H131.04V159.36H136.08V165.36ZM141.6 204.24H136.56V198.24H141.6V204.24ZM141.6 197.76H136.56V191.76H141.6V197.76ZM141.6 191.28H136.56V185.28H141.6V191.28ZM141.6 184.8H136.56V178.8H141.6V184.8ZM141.6 178.32H136.56V172.32H141.6V178.32ZM141.6 171.84H136.56V165.84H141.6V171.84ZM141.6 165.36H136.56V159.36H141.6V165.36ZM141.6 158.88H136.56V152.88H141.6V158.88ZM147.12 171.84H142.08V165.84H147.12V171.84ZM147.12 165.36H142.08V159.36H147.12V165.36ZM147.12 158.88H142.08V152.88H147.12V158.88Z" fill="#212121"/>
<path d="M122.107 216.106H145.685C145.738 214.258 146.419 190.771 146.88 178.786C147.36 166.306 155.827 147.375 155.827 147.375C155.827 147.375 156.96 144.706 155.76 143.506C154.56 142.306 151.68 142.786 149.52 144.466C147.36 146.146 127.44 154.786 126.24 155.986C125.04 157.186 125.28 161.266 124.8 166.066C124.32 170.866 116.4 203.986 116.4 203.986C116.4 203.986 114.24 204.466 113.52 204.946C112.8 205.426 112.8 206.866 112.8 206.866C112.8 206.866 113.76 207.106 116.64 208.546C119.29 209.871 121.733 215.247 122.107 216.106Z" stroke="#212121" stroke-miterlimit="10"/>
<path d="M112.8 206.88C112.8 206.88 113.76 207.12 116.64 208.56C119.52 210 122.16 216.24 122.16 216.24H126.811C127.104 215.367 127.819 212.189 124.56 208.32C120.72 203.76 116.4 204 116.4 204C116.4 204 114.24 204.48 113.52 204.96C112.8 205.44 112.8 206.88 112.8 206.88Z" fill="#212121" stroke="#212121" stroke-miterlimit="10"/>
<path d="M152.861 142.934C151.829 145.666 149.386 151.843 147.36 154.786C144.72 158.626 139.92 161.746 141.6 163.186C143.28 164.626 148.08 160.066 148.08 160.066C148.08 160.066 149.28 163.426 149.52 164.386C149.533 164.429 149.554 164.47 149.582 164.506C151.315 158.675 153.399 152.954 155.822 147.374C155.822 147.374 156.955 144.706 155.755 143.506C155.136 142.882 154.08 142.718 152.861 142.934Z" fill="#212121" stroke="#212121" stroke-miterlimit="10"/>
<path d="M135.331 166.104C135.469 165.217 135.559 164.323 135.6 163.426" stroke="#212121" stroke-miterlimit="10"/>
<path d="M131.52 216.706C131.52 216.706 132.24 201.346 132.24 192.466C132.24 186.067 133.982 175.306 134.962 168.715" stroke="#212121" stroke-miterlimit="10"/>
<path d="M132.72 189.12C132.72 189.12 136.56 190.32 138.48 190.56L144.24 191.28L143.803 196.719C143.803 196.719 143.52 196.56 139.2 195.12C134.88 193.68 132.24 192.48 132.24 192.48" stroke="#212121" stroke-miterlimit="10"/>
<path d="M143.803 196.704C143.803 196.704 143.52 207.36 143.52 208.8C143.52 210.24 139.2 209.28 139.2 209.28" stroke="#212121" stroke-miterlimit="10"/>
<path d="M147.25 137.866C147.25 137.866 151.776 144.374 155.827 147.374C159.878 150.374 163.334 146.174 166.037 141.672C168.739 137.17 170.539 133.867 171.888 129.965C173.237 126.062 171.888 119.611 166.488 114.509C161.088 109.406 148.474 101.899 145.325 105.802C142.176 109.704 139.171 118.282 141.269 125.611C142.522 130.018 144.547 134.167 147.25 137.866Z" fill="#9E9E9E" stroke="#212121" stroke-miterlimit="10"/>
<path d="M145.344 123.864C147.052 123.352 148.873 123.352 150.581 123.864" stroke="#212121" stroke-width="2" stroke-miterlimit="10" stroke-linecap="round"/>
<path d="M149.218 127.882C149.362 128.659 149.179 129.346 148.81 129.413C148.44 129.48 148.032 128.904 147.888 128.122C147.744 127.339 147.926 126.658 148.296 126.59C148.666 126.523 149.074 127.099 149.218 127.882Z" fill="#212121"/>
<path d="M162.571 128.088C162.71 128.866 162.528 129.528 162.163 129.619C161.798 129.71 161.386 129.11 161.242 128.328C161.098 127.546 161.28 126.864 161.65 126.797C162.019 126.73 162.427 127.306 162.571 128.088Z" fill="#212121"/>
<path d="M152.678 138.672C154.413 139.27 156.247 139.524 158.078 139.421C161.232 139.272 163.934 137.021 163.934 137.021" stroke="#212121" stroke-miterlimit="10"/>
<path d="M145.79 109.118C145.79 109.118 152.458 124.325 153.293 124.742C154.128 125.16 155.794 120.158 155.794 120.158C155.794 120.158 158.083 124.32 160.8 125.573C163.517 126.826 164.342 124.742 164.342 124.742C165.704 125.509 167.025 126.344 168.302 127.243L169.344 128.074L170.386 131.822C170.386 131.822 167.261 142.032 168.302 143.285C169.344 144.538 175.176 142.867 175.176 142.867C175.176 142.867 173.736 144.95 175.594 144.95C177.451 144.95 180.802 145.368 185.592 138.907C190.382 132.446 190.8 122.035 190.8 122.035C190.8 122.035 193.09 124.531 193.301 121.406C193.512 118.282 190.594 113.074 190.594 113.074C190.594 113.074 195.173 117.658 194.76 112.867C194.347 108.077 191.635 102.658 190.594 101.41C189.552 100.162 183.298 96.6097 183.298 96.6097C183.298 96.6097 185.798 96.1921 183.926 93.2737C182.054 90.3553 175.176 89.5248 172.675 89.5248C170.174 89.5248 164.966 90.3601 164.966 90.3601C164.966 90.3601 168.302 83.8993 164.76 83.4817C161.218 83.0641 154.968 89.9425 154.968 89.9425C154.968 89.9425 148.728 84.9409 146.842 85.9825C144.955 87.0241 146.218 88.4833 146.218 88.4833C146.218 88.4833 138.096 89.1073 135.802 92.6497C133.507 96.1921 136.219 98.2753 136.219 98.2753C136.219 98.2753 121.637 108.274 123.926 112.022C126.216 115.771 130.387 112.234 130.387 112.234C130.387 112.234 124.55 127.234 125.386 128.275C126.221 129.317 130.186 127.858 130.186 127.858C130.186 127.858 129.979 139.939 133.104 141.192C136.229 142.445 136.853 140.15 136.853 140.15C136.853 140.15 138.518 141.816 142.272 142.022C146.026 142.229 147.269 137.856 147.269 137.856C147.269 137.856 143.102 128.064 143.314 119.942C143.525 111.821 145.79 109.118 145.79 109.118Z" fill="#212121" stroke="#212121" stroke-miterlimit="10"/>
<path d="M154.181 126.662C154.181 126.662 152.678 134.467 153.878 136.118C155.078 137.77 159.283 136.118 159.581 135.221" fill="#9E9E9E"/>
<path d="M154.181 126.662C154.181 126.662 152.678 134.467 153.878 136.118C155.078 137.77 159.283 136.118 159.581 135.221" stroke="#212121" stroke-miterlimit="10"/>
<path d="M147.95 131.467C151.224 131.467 153.878 129.518 153.878 127.114C153.878 124.709 151.224 122.76 147.95 122.76C144.676 122.76 142.022 124.709 142.022 127.114C142.022 129.518 144.676 131.467 147.95 131.467Z" stroke="#212121" stroke-miterlimit="10"/>
<path d="M162.206 131.17C165.48 131.17 168.134 129.22 168.134 126.816C168.134 124.412 165.48 122.462 162.206 122.462C158.932 122.462 156.278 124.412 156.278 126.816C156.278 129.22 158.932 131.17 162.206 131.17Z" stroke="#212121" stroke-miterlimit="10"/>
<path d="M154.181 126.662C154.181 126.662 155.381 125.765 156.278 126.816" stroke="#212121" stroke-miterlimit="10"/>
<path d="M104.789 209.717C104.789 209.717 112.325 207.59 114.643 207.206C116.962 206.822 121.603 211.07 122.376 213.389C123.149 215.707 122.16 216.226 122.16 216.226L106.718 215.712L104.789 209.717Z" fill="#9E9E9E" stroke="#212121" stroke-miterlimit="10"/>
<path d="M107.52 208.968C107.52 208.968 113.208 211.099 114.629 211.954C116.05 212.808 115.622 214.512 114.773 215.362C113.748 216.218 112.525 216.806 111.216 217.071C109.891 217.146 108.562 217.146 107.237 217.071C105.533 216.927 103.968 217.215 102.547 217.215C101.126 217.215 96.8592 216.787 96.8592 216.787L95.5776 215.933C95.5776 215.933 93.1776 216.643 91.3152 217.373C89.4528 218.103 90.0336 216.519 91.4544 215.381C92.8752 214.243 96.432 211.402 97.0032 211.119C97.5744 210.835 104.822 208.719 104.822 208.719L107.52 208.968Z" fill="#9E9E9E" stroke="#212121" stroke-miterlimit="10"/>
<path d="M109.651 209.534C109.651 209.534 105.95 207.83 104.957 207.83C103.963 207.83 96.8544 210.23 95.8608 210.955C94.8672 211.68 93.8688 218.491 94.5792 218.918C95.2896 219.346 95.8608 218.064 96.0192 217.214C96.1776 216.365 98.1552 211.81 98.1552 211.81L96.7152 219.062C96.7152 219.062 97.2864 220.195 97.8528 219.202C98.4192 218.208 101.976 211.382 102.259 210.955C102.632 210.559 103.064 210.224 103.541 209.962C103.541 209.962 102.83 213.091 102.259 216.077C101.688 219.062 102.12 219.917 102.974 220.056C103.829 220.195 104.251 218.208 104.678 217.214C105.106 216.221 106.954 210.528 106.954 210.528" fill="#9E9E9E"/>
<path d="M109.651 209.534C109.651 209.534 105.95 207.83 104.957 207.83C103.963 207.83 96.8544 210.23 95.8608 210.955C94.8672 211.68 93.8688 218.491 94.5792 218.918C95.2896 219.346 95.8608 218.064 96.0192 217.214C96.1776 216.365 98.1552 211.81 98.1552 211.81L96.7152 219.062C96.7152 219.062 97.2864 220.195 97.8528 219.202C98.4192 218.208 101.976 211.382 102.259 210.955C102.632 210.559 103.064 210.224 103.541 209.962C103.541 209.962 102.83 213.091 102.259 216.077C101.688 219.062 102.12 219.917 102.974 220.056C103.829 220.195 104.251 218.208 104.678 217.214C105.106 216.221 106.954 210.528 106.954 210.528" stroke="#212121" stroke-miterlimit="10"/>
<path d="M113.76 212.381C113.76 212.381 109.498 216.787 108.926 217.781C108.355 218.774 108.36 218.918 109.925 218.918C111.49 218.918 116.323 215.789 116.746 215.362C117.168 214.934 117.034 213.658 116.035 212.803C115.717 212.556 115.345 212.389 114.949 212.315C114.553 212.242 114.145 212.264 113.76 212.381Z" fill="#9E9E9E" stroke="#212121" stroke-miterlimit="10"/>
<path d="M140.381 211.891C140.381 211.891 134.693 213.73 133.296 214.771C131.899 215.813 129.883 216.96 130.32 217.31C130.757 217.661 132.158 217.31 132.595 216.96C133.032 216.61 135.043 216.259 135.043 216.259C135.043 216.259 137.405 214.858 139.243 213.725C141.082 212.592 142.478 211.363 140.381 211.891Z" fill="#9E9E9E" stroke="#212121" stroke-miterlimit="10"/>
<path d="M171.778 202.262C171.778 202.262 155.938 205.142 150.206 207.154C144.475 209.165 142.195 210.566 139.33 212.592C136.464 214.618 130.656 218.443 131.52 219.115C132.384 219.787 135.394 217.43 135.902 216.926C136.411 216.422 140.112 214.906 140.112 214.906L142.589 213.638C142.589 213.638 138.859 218.232 137.515 219.398C136.171 220.565 137.078 221.294 138.091 220.958C139.104 220.622 141.014 218.611 141.014 218.611L147.173 214.56C147.173 214.56 144.643 218.102 143.462 219.11C142.282 220.118 144.811 220.968 145.32 220.123C145.829 219.278 148.354 217.09 148.354 217.09C148.354 217.09 152.563 214.901 153.576 214.056C154.589 213.211 157.114 210.854 157.114 210.854L175.987 212.371C175.987 212.371 177.168 211.699 176.496 207.821C175.824 203.942 171.778 202.262 171.778 202.262Z" fill="#9E9E9E" stroke="#212121" stroke-miterlimit="10"/>
<path d="M184.584 172.435L193.853 195.36L178.853 200.582L183.067 212.885C183.067 212.885 193.838 212.914 202.267 212.405C210.696 211.896 216.61 206.813 215.261 200.75C213.912 194.688 208.858 185.918 204.811 175.469C200.765 165.019 202.018 158.789 200.165 155.587C198.312 152.386 193.085 151.541 193.085 151.541L190.205 151.061" fill="#424242"/>
<path opacity="0.2" d="M213.84 207.125V204.725H215.093C215.146 204.566 215.189 204.408 215.227 204.245H213.84V198.24H214.56C214.507 198.086 214.45 197.923 214.397 197.76H213.84V196.296C213.686 195.898 213.528 195.49 213.36 195.082V197.76H208.32V191.76H211.939C211.867 191.602 211.8 191.443 211.728 191.28H208.32V185.28H208.992C208.915 185.122 208.843 184.963 208.771 184.8H208.32V183.797C208.162 183.442 207.998 183.086 207.84 182.726V184.8H202.8V178.8H206.16C206.093 178.642 206.026 178.483 205.963 178.32H202.8V172.32H203.698C203.645 172.162 203.597 171.998 203.549 171.84H202.8V169.104C202.618 168.346 202.459 167.621 202.32 166.925V171.84H197.28V165.84H202.118L202.032 165.36H197.28V159.36H201.221L201.149 158.88H197.28V152.995C196.859 152.769 196.426 152.566 195.984 152.386H191.76V151.31L191.28 151.224V152.386H189.864L189.734 152.866H191.28V158.88H188.16L188.035 159.36H191.285V165.36H186.451L186.322 165.84H191.28V171.84H186.24V166.147L185.76 167.966V171.806H184.742L184.618 172.286H185.76V175.325L186.24 176.51V172.32H191.28V178.32H186.96L187.152 178.8H191.28V184.8H189.6L189.797 185.28H191.304V189.01L191.784 190.195V185.28H196.8V191.28H192.197L192.394 191.76H196.8V197.76H191.76V196.099L191.28 196.267V197.76H186.989L185.606 198.24H185.76V204.24H180.72V199.92L180.24 200.088V204.216H180.101L180.72 206.021V204.696H185.76V212.856H186.24V204.696H191.28V212.794H191.76V204.706H196.8V212.64H197.28V204.706H202.32V212.386L202.8 212.347V204.706H207.84V211.291L208.32 211.109V204.706H213.36V207.72C213.528 207.523 213.691 207.326 213.84 207.125ZM191.28 204.245H186.24V198.24H191.28V204.245ZM196.8 204.245H191.76V198.24H196.8V204.245ZM196.8 184.805H191.76V178.805H196.8V184.805ZM196.8 178.325H191.76V172.32H196.8V178.325ZM196.8 171.845H191.76V165.845H196.8V171.845ZM196.8 165.365H191.76V159.36H196.8V165.365ZM196.8 158.885H191.76V152.885H196.8V158.885ZM202.32 204.245H197.28V198.24H202.32V204.245ZM202.32 197.765H197.28V191.765H202.32V197.765ZM202.32 191.285H197.28V185.28H202.32V191.285ZM202.32 184.805H197.28V178.805H202.32V184.805ZM202.32 178.325H197.28V172.32H202.32V178.325ZM207.84 204.245H202.8V198.24H207.84V204.245ZM207.84 197.765H202.8V191.765H207.84V197.765ZM207.84 191.285H202.8V185.28H207.84V191.285ZM208.32 204.245V198.24H213.36V204.24L208.32 204.245Z" fill="#212121"/>
<path d="M184.584 172.435L193.853 195.36L178.853 200.582L183.067 212.885C183.067 212.885 193.838 212.914 202.267 212.405C210.696 211.896 216.61 206.813 215.261 200.75C213.912 194.688 208.858 185.918 204.811 175.469C200.765 165.019 202.018 158.789 200.165 155.587C198.312 152.386 193.085 151.541 193.085 151.541L190.205 151.061" stroke="#212121" stroke-miterlimit="10"/>
<path d="M202.877 193.027C199.819 193.593 196.803 194.371 193.853 195.355C193.853 195.355 200.256 191.141 203.794 190.805" stroke="#212121" stroke-miterlimit="10"/>
<path d="M207.168 192.827C206.504 192.73 205.831 192.708 205.162 192.759" stroke="#212121" stroke-miterlimit="10"/>
<path d="M183.235 198.72C183.235 198.72 186.643 201.979 187.651 204.504C188.659 207.029 188.29 213.888 187.618 214.56C186.946 215.232 174.403 215.151 172.339 212.573C171.802 211.901 175.483 210.351 173.63 206.64C171.778 202.93 170.933 202.599 170.933 202.599C170.933 202.599 169.416 201.754 172.282 199.901C175.147 198.048 181.718 196.704 183.235 198.72Z" fill="#212121" stroke="#212121" stroke-miterlimit="10"/>
<path d="M213.115 224.707H200.674L199.118 200.112H214.67L213.115 224.707Z" fill="#212121" stroke="#212121" stroke-linejoin="round"/>
<path d="M215.362 200.15H198.432V203.731H215.362V200.15Z" fill="white" stroke="#212121" stroke-linejoin="round"/>
<path d="M215.362 200.285H198.432L200.122 198.163H213.667L215.362 200.285Z" fill="white" stroke="#212121" stroke-linejoin="round"/>
<path d="M213.571 217.493L214.19 207.696H199.598L200.218 217.493H213.571Z" fill="white" stroke="#212121" stroke-linejoin="round"/>
<path d="M141.418 226.344L156.749 222.293V224.366L141.418 228.662V226.344Z" fill="#212121" stroke="#212121" stroke-linejoin="round"/>
<path d="M156.749 222.293H76.5936L61.0992 226.344H141.418L156.749 222.293Z" fill="white" stroke="#212121" stroke-linejoin="round"/>
<path d="M141.418 180.024H61.0992V228.662H141.418V180.024Z" fill="white" stroke="#212121" stroke-linejoin="round"/>
<path d="M141.418 187.061C123.946 187.891 113.539 203.995 98.0784 214.786C83.9855 224.626 66.5807 226.306 61.1183 226.57V228.662H141.418V187.061Z" fill="#212121" stroke="#212121" stroke-linejoin="round"/>
<path d="M141.418 226.344H61.0992V228.662H141.418V226.344Z" fill="white" stroke="#212121" stroke-miterlimit="10"/>
<path d="M43.2629 206.452H38.7665V219.404H43.2629V206.452Z" fill="#424242" stroke="#212121" stroke-linecap="round" stroke-linejoin="round"/>
<path d="M46.5594 218.341V216.488H35.46V218.341H30.1737V225.744H51.8457V218.341H46.5594Z" fill="#212121" stroke="#212121" stroke-linecap="round" stroke-linejoin="round"/>
<path d="M41.0098 182.4L46.2669 193.041L58.0197 194.758L49.5148 203.038L51.524 214.742L41.0098 209.222L30.4957 214.742L32.5049 203.038L24 194.758L35.7528 193.041L41.0098 182.4Z" fill="#424242" stroke="#212121" stroke-linecap="round" stroke-linejoin="round"/>
<path d="M26.2919 195.86L41.0097 199.693L53.9621 196.455" fill="#424242"/>
<path d="M26.2919 195.86L41.0097 199.693L53.9621 196.455" stroke="#212121" stroke-linecap="round" stroke-linejoin="round"/>
<path d="M41.3024 187.033V196.455" stroke="#212121" stroke-linecap="round" stroke-linejoin="round"/>
<path d="M32.1829 212.938L40.7171 201.751V206.462" fill="#424242"/>
<path d="M32.1829 212.938L40.7171 201.751V206.462" stroke="#212121" stroke-linecap="round" stroke-linejoin="round"/>
<path d="M51.524 214.752L42.7752 201.751" stroke="#212121" stroke-linecap="round" stroke-linejoin="round"/>
</svg>
