<svg width="60" height="60" viewBox="0 0 60 60" fill="none" xmlns="http://www.w3.org/2000/svg">
<path d="M28 1.1547C29.2376 0.440169 30.7624 0.440169 32 1.1547L53.9808 13.8453C55.2184 14.5598 55.9808 15.8803 55.9808 17.3094V42.6906C55.9808 44.1197 55.2184 45.4402 53.9808 46.1547L32 58.8453C30.7624 59.5598 29.2376 59.5598 28 58.8453L6.01924 46.1547C4.78163 45.4402 4.01924 44.1197 4.01924 42.6906V17.3094C4.01924 15.8803 4.78163 14.5598 6.01924 13.8453L28 1.1547Z" fill="#FB8C00"/>
<g clip-path="url(#clip0_2005_2388)">
<path d="M43.8196 26.2531C43.8242 26.3356 43.8182 26.4196 43.7974 26.5031L41.947 33.9049C41.8536 34.2778 41.5194 34.54 41.1352 34.5421L30.0324 34.5981C30.031 34.5981 30.0296 34.5981 30.0281 34.5981H18.9252C18.539 34.5981 18.2024 34.335 18.1091 33.9602L16.2587 26.5303C16.2373 26.4446 16.2312 26.3583 16.2366 26.2736C15.5207 26.0481 15 25.3782 15 24.5888C15 23.6148 15.7923 22.8224 16.7664 22.8224C17.7404 22.8224 18.5327 23.6148 18.5327 24.5888C18.5327 25.1373 18.2814 25.6281 17.8879 25.9523L20.2046 28.2866C20.7902 28.8766 21.6027 29.2148 22.4339 29.2148C23.4168 29.2148 24.3539 28.7481 24.9441 27.9661L28.7516 22.9211C28.4317 22.6015 28.2336 22.1598 28.2336 21.6729C28.2336 20.6989 29.026 19.9065 30 19.9065C30.974 19.9065 31.7664 20.6989 31.7664 21.6729C31.7664 22.1453 31.5788 22.574 31.2757 22.8913C31.2767 22.8926 31.2779 22.8938 31.279 22.8952L35.0588 27.9541C35.6487 28.7436 36.5892 29.215 37.5749 29.215C38.4138 29.215 39.2027 28.8883 39.7958 28.295L42.1272 25.9636C41.7253 25.6395 41.4673 25.144 41.4673 24.5888C41.4673 23.6148 42.2596 22.8224 43.2336 22.8224C44.2077 22.8224 45 23.6148 45 24.5888C45 25.3571 44.506 26.0106 43.8196 26.2531ZM41.7664 37.2336C41.7664 36.7691 41.3898 36.3925 40.9253 36.3925H19.1683C18.7037 36.3925 18.3271 36.7691 18.3271 37.2336V39.2523C18.3271 39.7169 18.7037 40.0935 19.1683 40.0935H40.9253C41.3898 40.0935 41.7664 39.7169 41.7664 39.2523V37.2336Z" fill="white"/>
</g>
<defs>
<clipPath id="clip0_2005_2388">
<rect width="30" height="30" fill="white" transform="translate(15 15)"/>
</clipPath>
</defs>
</svg>
