<svg width="40" height="40" viewBox="0 0 40 40" fill="none" xmlns="http://www.w3.org/2000/svg">
<path d="M18 1.1547C19.2376 0.440169 20.7624 0.440169 22 1.1547L35.3205 8.8453C36.5581 9.55983 37.3205 10.8803 37.3205 12.3094V27.6906C37.3205 29.1197 36.5581 30.4402 35.3205 31.1547L22 38.8453C20.7624 39.5598 19.2376 39.5598 18 38.8453L4.67949 31.1547C3.44189 30.4402 2.67949 29.1197 2.67949 27.6906V12.3094C2.67949 10.8803 3.44189 9.55983 4.67949 8.8453L18 1.1547Z" fill="#FDD835"/>
<g clip-path="url(#clip0_1988_3957)">
<path d="M29.2131 17.5021C29.2162 17.5571 29.2121 17.6131 29.1983 17.6687L27.9646 22.6033C27.9024 22.8519 27.6796 23.0267 27.4235 23.028L20.0216 23.0654C20.0206 23.0654 20.0197 23.0654 20.0188 23.0654H12.6168C12.3593 23.0654 12.135 22.89 12.0727 22.6401L10.8391 17.6869C10.8249 17.6298 10.8208 17.5722 10.8244 17.5157C10.3471 17.3654 10 16.9188 10 16.3925C10 15.7432 10.5282 15.215 11.1776 15.215C11.8269 15.215 12.3551 15.7432 12.3551 16.3925C12.3551 16.7582 12.1876 17.0854 11.9252 17.3015L13.4698 18.8577C13.8601 19.2511 14.4018 19.4766 14.956 19.4766C15.6112 19.4766 16.236 19.1654 16.6294 18.644L19.1677 15.2807C18.9545 15.0677 18.8224 14.7732 18.8224 14.4486C18.8224 13.7993 19.3507 13.271 20 13.271C20.6493 13.271 21.1776 13.7993 21.1776 14.4486C21.1776 14.7635 21.0526 15.0493 20.8505 15.2609C20.8511 15.2618 20.852 15.2625 20.8526 15.2635L23.3726 18.636C23.7658 19.1624 24.3928 19.4766 25.0499 19.4766C25.6092 19.4766 26.1351 19.2588 26.5305 18.8633L28.0848 17.3091C27.8169 17.093 27.6449 16.7627 27.6449 16.3925C27.6449 15.7432 28.1731 15.215 28.8224 15.215C29.4718 15.215 30 15.7432 30 16.3925C30 16.9047 29.6707 17.3404 29.2131 17.5021ZM27.8443 24.8224C27.8443 24.5127 27.5932 24.2617 27.2835 24.2617H12.7788C12.4692 24.2617 12.2181 24.5127 12.2181 24.8224V26.1682C12.2181 26.4779 12.4692 26.729 12.7788 26.729H27.2835C27.5932 26.729 27.8443 26.4779 27.8443 26.1682V24.8224Z" fill="white"/>
</g>
<defs>
<clipPath id="clip0_1988_3957">
<rect width="20" height="20" fill="white" transform="translate(10 10)"/>
</clipPath>
</defs>
</svg>
