<svg width="490" height="47" viewBox="0 0 490 47" fill="none" xmlns="http://www.w3.org/2000/svg">
<path d="M19.62 9C22.1133 9 24.2733 9.42666 26.1 10.28C27.9267 11.1333 29.3267 12.34 30.3 13.9C31.2733 15.46 31.76 17.2733 31.76 19.34C31.76 21.4067 31.2733 23.22 30.3 24.78C29.3267 26.34 27.9267 27.5467 26.1 28.4C24.2733 29.2533 22.1133 29.68 19.62 29.68H11.08V39H2.78V9H19.62ZM19.14 23.04C20.4733 23.04 21.5133 22.7133 22.26 22.06C23.0067 21.4067 23.38 20.5 23.38 19.34C23.38 18.18 23.0067 17.2733 22.26 16.62C21.5133 15.9667 20.4733 15.64 19.14 15.64H11.08V23.04H19.14ZM47.8713 39.66C44.9779 39.66 42.4246 39.16 40.2113 38.16C37.9979 37.1467 36.2779 35.7267 35.0513 33.9C33.8379 32.0733 33.2313 29.9667 33.2313 27.58C33.2313 25.1933 33.8379 23.0867 35.0513 21.26C36.2779 19.42 37.9979 18 40.2113 17C42.4246 15.9867 44.9779 15.48 47.8713 15.48C50.7646 15.48 53.3179 15.9867 55.5313 17C57.7446 18 59.4579 19.42 60.6713 21.26C61.8979 23.0867 62.5113 25.1933 62.5113 27.58C62.5113 29.9667 61.8979 32.0733 60.6713 33.9C59.4579 35.7267 57.7446 37.1467 55.5313 38.16C53.3179 39.16 50.7646 39.66 47.8713 39.66ZM41.4713 27.58C41.4713 28.82 41.7246 29.8933 42.2313 30.8C42.7513 31.6933 43.4913 32.38 44.4513 32.86C45.4113 33.34 46.5513 33.58 47.8713 33.58C49.1913 33.58 50.3313 33.34 51.2913 32.86C52.2513 32.38 52.9846 31.6933 53.4913 30.8C53.9979 29.8933 54.2513 28.82 54.2513 27.58C54.2513 26.34 53.9913 25.2667 53.4713 24.36C52.9646 23.4533 52.2313 22.76 51.2713 22.28C50.3246 21.8 49.1913 21.56 47.8713 21.56C46.5513 21.56 45.4113 21.8 44.4513 22.28C43.4913 22.76 42.7513 23.4533 42.2313 24.36C41.7246 25.2667 41.4713 26.34 41.4713 27.58ZM74.1119 8.2V39H65.9319V8.2H74.1119ZM78.6272 8.2H86.8072V28.96L97.2072 16.14H105.807L97.8872 25.24L106.407 39H97.1872L92.6672 31.24L85.9272 39H78.6272V8.2ZM127.163 34.38C126.056 36.06 124.676 37.36 123.023 38.28C121.369 39.2 119.523 39.66 117.483 39.66C115.269 39.66 113.303 39.16 111.583 38.16C109.876 37.1467 108.549 35.7267 107.603 33.9C106.656 32.06 106.183 29.9533 106.183 27.58C106.183 25.1933 106.656 23.0867 107.603 21.26C108.549 19.42 109.876 18 111.583 17C113.303 15.9867 115.269 15.48 117.483 15.48C119.509 15.48 121.356 15.9333 123.023 16.84C124.689 17.7467 126.076 19.0333 127.183 20.7L127.763 16.14H136.243L134.803 27.56L136.243 39H127.763L127.163 34.38ZM114.443 27.58C114.443 28.7 114.676 29.7 115.143 30.58C115.609 31.46 116.256 32.1533 117.083 32.66C117.923 33.1533 118.876 33.4 119.943 33.4C121.023 33.4 122.056 33.1533 123.043 32.66C124.043 32.1533 124.916 31.46 125.663 30.58C126.423 29.7 126.989 28.7 127.363 27.58C126.989 26.46 126.423 25.46 125.663 24.58C124.916 23.6867 124.043 22.9933 123.043 22.5C122.056 21.9933 121.023 21.74 119.943 21.74C118.876 21.74 117.923 21.9933 117.083 22.5C116.256 22.9933 115.609 23.6867 115.143 24.58C114.676 25.46 114.443 26.46 114.443 27.58ZM160.213 34.16C159.107 35.9067 157.707 37.26 156.013 38.22C154.333 39.18 152.453 39.66 150.373 39.66C148.16 39.66 146.193 39.16 144.473 38.16C142.767 37.1467 141.44 35.7267 140.493 33.9C139.547 32.06 139.073 29.9533 139.073 27.58C139.073 25.1933 139.547 23.0867 140.493 21.26C141.44 19.42 142.767 18 144.473 17C146.193 15.9867 148.16 15.48 150.373 15.48C152.427 15.48 154.293 15.9467 155.973 16.88C157.667 17.8133 159.067 19.1333 160.173 20.84L161.693 8.2H170.173L167.813 26.96L169.253 39H160.793L160.213 34.16ZM147.333 27.58C147.333 28.7 147.567 29.7 148.033 30.58C148.5 31.46 149.147 32.1533 149.973 32.66C150.813 33.1533 151.767 33.4 152.833 33.4C153.913 33.4 154.947 33.1533 155.933 32.66C156.933 32.1533 157.807 31.46 158.553 30.58C159.313 29.7 159.88 28.7 160.253 27.58C159.88 26.46 159.313 25.46 158.553 24.58C157.807 23.6867 156.933 22.9933 155.933 22.5C154.947 21.9933 153.913 21.74 152.833 21.74C151.767 21.74 150.813 21.9933 149.973 22.5C149.147 22.9933 148.5 23.6867 148.033 24.58C147.567 25.46 147.333 26.46 147.333 27.58ZM186.582 39.66C183.689 39.66 181.136 39.16 178.922 38.16C176.709 37.1467 174.989 35.7267 173.762 33.9C172.549 32.0733 171.942 29.9667 171.942 27.58C171.942 25.1933 172.549 23.0867 173.762 21.26C174.989 19.42 176.709 18 178.922 17C181.136 15.9867 183.689 15.48 186.582 15.48C189.476 15.48 192.029 15.9867 194.242 17C196.456 18 198.169 19.42 199.382 21.26C200.609 23.0867 201.222 25.1933 201.222 27.58C201.222 29.9667 200.609 32.0733 199.382 33.9C198.169 35.7267 196.456 37.1467 194.242 38.16C192.029 39.16 189.476 39.66 186.582 39.66ZM180.182 27.58C180.182 28.82 180.436 29.8933 180.942 30.8C181.462 31.6933 182.202 32.38 183.162 32.86C184.122 33.34 185.262 33.58 186.582 33.58C187.902 33.58 189.042 33.34 190.002 32.86C190.962 32.38 191.696 31.6933 192.202 30.8C192.709 29.8933 192.962 28.82 192.962 27.58C192.962 26.34 192.702 25.2667 192.182 24.36C191.676 23.4533 190.942 22.76 189.982 22.28C189.036 21.8 187.902 21.56 186.582 21.56C185.262 21.56 184.122 21.8 183.162 22.28C182.202 22.76 181.462 23.4533 180.942 24.36C180.436 25.2667 180.182 26.34 180.182 27.58ZM202.173 18.62L206.833 16.76L210.353 10H214.993V16.14H224.613V22.18H214.993V28.94C214.993 30.06 215.133 30.94 215.413 31.58C215.706 32.22 216.186 32.68 216.853 32.96C217.52 33.24 218.453 33.38 219.653 33.38C220.72 33.38 221.68 33.2933 222.533 33.12C223.4 32.9333 224.226 32.6733 225.013 32.34V38.46C224.106 38.7933 223.006 39.0733 221.713 39.3C220.42 39.54 219.113 39.66 217.793 39.66C214.1 39.66 211.346 38.82 209.533 37.14C207.733 35.4467 206.833 33.08 206.833 30.04V22.18H202.173V18.62Z" fill="#E6007A"/>
<path d="M259.42 27.02H242.62L241.78 32.28H260.78V39H232.88L235.16 24L232.88 9H260.58V15.72H241.78L242.62 20.98H259.42V27.02ZM284.651 34.16C283.544 35.9067 282.144 37.26 280.451 38.22C278.771 39.18 276.891 39.66 274.811 39.66C272.598 39.66 270.631 39.16 268.911 38.16C267.204 37.1467 265.878 35.7267 264.931 33.9C263.984 32.06 263.511 29.9533 263.511 27.58C263.511 25.1933 263.984 23.0867 264.931 21.26C265.878 19.42 267.204 18 268.911 17C270.631 15.9867 272.598 15.48 274.811 15.48C276.864 15.48 278.731 15.9467 280.411 16.88C282.104 17.8133 283.504 19.1333 284.611 20.84L286.131 8.2H294.611L292.251 26.96L293.691 39H285.231L284.651 34.16ZM271.771 27.58C271.771 28.7 272.004 29.7 272.471 30.58C272.938 31.46 273.584 32.1533 274.411 32.66C275.251 33.1533 276.204 33.4 277.271 33.4C278.351 33.4 279.384 33.1533 280.371 32.66C281.371 32.1533 282.244 31.46 282.991 30.58C283.751 29.7 284.318 28.7 284.691 27.58C284.318 26.46 283.751 25.46 282.991 24.58C282.244 23.6867 281.371 22.9933 280.371 22.5C279.384 21.9933 278.351 21.74 277.271 21.74C276.204 21.74 275.251 21.9933 274.411 22.5C273.584 22.9933 272.938 23.6867 272.471 24.58C272.004 25.46 271.771 26.46 271.771 27.58ZM307.416 39.64C305.309 39.64 303.496 39.2067 301.976 38.34C300.456 37.46 299.296 36.2133 298.496 34.6C297.696 32.9867 297.296 31.0933 297.296 28.92V16.14H305.476V27.74C305.476 29.4333 305.883 30.7333 306.696 31.64C307.523 32.5333 308.703 32.98 310.236 32.98C311.929 32.98 313.236 32.4733 314.156 31.46C315.089 30.4333 315.556 28.9933 315.556 27.14V16.14H323.736V31.12L325.216 39H317.056L316.276 34.28C315.303 36.0267 314.049 37.36 312.516 38.28C310.983 39.1867 309.283 39.64 307.416 39.64ZM355.753 29.36C355.527 31.3867 354.78 33.18 353.513 34.74C352.247 36.3 350.587 37.5133 348.533 38.38C346.48 39.2333 344.2 39.66 341.693 39.66C338.907 39.66 336.433 39.1533 334.273 38.14C332.127 37.1267 330.453 35.7067 329.253 33.88C328.067 32.04 327.473 29.94 327.473 27.58C327.473 25.22 328.067 23.1267 329.253 21.3C330.453 19.46 332.127 18.0333 334.273 17.02C336.433 15.9933 338.907 15.48 341.693 15.48C344.2 15.48 346.48 15.9133 348.533 16.78C350.587 17.6333 352.247 18.8467 353.513 20.42C354.78 21.98 355.527 23.7733 355.753 25.8H347.633C347.353 24.4533 346.68 23.4133 345.613 22.68C344.547 21.9333 343.24 21.56 341.693 21.56C340.48 21.56 339.42 21.7933 338.513 22.26C337.62 22.7267 336.927 23.4133 336.433 24.32C335.953 25.2267 335.713 26.3133 335.713 27.58C335.713 29.4867 336.247 30.9667 337.313 32.02C338.393 33.06 339.853 33.58 341.693 33.58C343.227 33.58 344.527 33.2 345.593 32.44C346.673 31.6667 347.353 30.64 347.633 29.36H355.753ZM379.022 34.38C377.916 36.06 376.536 37.36 374.882 38.28C373.229 39.2 371.382 39.66 369.342 39.66C367.129 39.66 365.162 39.16 363.442 38.16C361.736 37.1467 360.409 35.7267 359.462 33.9C358.516 32.06 358.042 29.9533 358.042 27.58C358.042 25.1933 358.516 23.0867 359.462 21.26C360.409 19.42 361.736 18 363.442 17C365.162 15.9867 367.129 15.48 369.342 15.48C371.369 15.48 373.216 15.9333 374.882 16.84C376.549 17.7467 377.936 19.0333 379.042 20.7L379.622 16.14H388.102L386.662 27.56L388.102 39H379.622L379.022 34.38ZM366.302 27.58C366.302 28.7 366.536 29.7 367.002 30.58C367.469 31.46 368.116 32.1533 368.942 32.66C369.782 33.1533 370.736 33.4 371.802 33.4C372.882 33.4 373.916 33.1533 374.902 32.66C375.902 32.1533 376.776 31.46 377.522 30.58C378.282 29.7 378.849 28.7 379.222 27.58C378.849 26.46 378.282 25.46 377.522 24.58C376.776 23.6867 375.902 22.9933 374.902 22.5C373.916 21.9933 372.882 21.74 371.802 21.74C370.736 21.74 369.782 21.9933 368.942 22.5C368.116 22.9933 367.469 23.6867 367.002 24.58C366.536 25.46 366.302 26.46 366.302 27.58ZM390.009 18.62L394.669 16.76L398.189 10H402.829V16.14H412.449V22.18H402.829V28.94C402.829 30.06 402.969 30.94 403.249 31.58C403.542 32.22 404.022 32.68 404.689 32.96C405.356 33.24 406.289 33.38 407.489 33.38C408.556 33.38 409.516 33.2933 410.369 33.12C411.236 32.9333 412.062 32.6733 412.849 32.34V38.46C411.942 38.7933 410.842 39.0733 409.549 39.3C408.256 39.54 406.949 39.66 405.629 39.66C401.936 39.66 399.182 38.82 397.369 37.14C395.569 35.4467 394.669 33.08 394.669 30.04V22.18H390.009V18.62ZM420.231 16.6L424.331 15.8V39H416.151V15.8L420.231 16.6ZM415.471 9.96C415.471 9.16 415.664 8.46666 416.051 7.88C416.451 7.28 417.011 6.82 417.731 6.5C418.451 6.16666 419.284 6 420.231 6C421.177 6 422.011 6.16666 422.731 6.5C423.451 6.82 424.011 7.28 424.411 7.88C424.811 8.46666 425.011 9.16 425.011 9.96C425.011 10.76 424.811 11.46 424.411 12.06C424.011 12.66 423.451 13.1267 422.731 13.46C422.011 13.78 421.177 13.94 420.231 13.94C419.284 13.94 418.451 13.78 417.731 13.46C417.011 13.1267 416.451 12.66 416.051 12.06C415.664 11.46 415.471 10.76 415.471 9.96ZM442.426 39.66C439.533 39.66 436.979 39.16 434.766 38.16C432.553 37.1467 430.833 35.7267 429.606 33.9C428.393 32.0733 427.786 29.9667 427.786 27.58C427.786 25.1933 428.393 23.0867 429.606 21.26C430.833 19.42 432.553 18 434.766 17C436.979 15.9867 439.533 15.48 442.426 15.48C445.319 15.48 447.873 15.9867 450.086 17C452.299 18 454.013 19.42 455.226 21.26C456.453 23.0867 457.066 25.1933 457.066 27.58C457.066 29.9667 456.453 32.0733 455.226 33.9C454.013 35.7267 452.299 37.1467 450.086 38.16C447.873 39.16 445.319 39.66 442.426 39.66ZM436.026 27.58C436.026 28.82 436.279 29.8933 436.786 30.8C437.306 31.6933 438.046 32.38 439.006 32.86C439.966 33.34 441.106 33.58 442.426 33.58C443.746 33.58 444.886 33.34 445.846 32.86C446.806 32.38 447.539 31.6933 448.046 30.8C448.553 29.8933 448.806 28.82 448.806 27.58C448.806 26.34 448.546 25.2667 448.026 24.36C447.519 23.4533 446.786 22.76 445.826 22.28C444.879 21.8 443.746 21.56 442.426 21.56C441.106 21.56 439.966 21.8 439.006 22.28C438.046 22.76 437.306 23.4533 436.786 24.36C436.279 25.2667 436.026 26.34 436.026 27.58ZM467.43 16.14L468.21 20.9C469.197 19.14 470.477 17.8 472.05 16.88C473.637 15.9467 475.39 15.48 477.31 15.48C479.47 15.48 481.33 15.92 482.89 16.8C484.45 17.6667 485.637 18.9067 486.45 20.52C487.264 22.1333 487.67 24.0333 487.67 26.22V39H479.51V27.42C479.51 25.7133 479.077 24.4067 478.21 23.5C477.344 22.5933 476.097 22.14 474.47 22.14C473.337 22.14 472.35 22.38 471.51 22.86C470.684 23.3267 470.044 24.0067 469.59 24.9C469.15 25.78 468.93 26.8133 468.93 28V39H460.75V24.04L459.25 16.14H467.43Z" fill="#1A1A1A"/>
</svg>