<svg width="199" height="19" viewBox="0 0 199 19" fill="none" xmlns="http://www.w3.org/2000/svg">
<path d="M7.848 4C8.84533 4 9.70933 4.17067 10.44 4.512C11.1707 4.85333 11.7307 5.336 12.12 5.96C12.5093 6.584 12.704 7.30933 12.704 8.136C12.704 8.96267 12.5093 9.688 12.12 10.312C11.7307 10.936 11.1707 11.4187 10.44 11.76C9.70933 12.1013 8.84533 12.272 7.848 12.272H4.432V16H1.112V4H7.848ZM7.656 9.616C8.18933 9.616 8.60533 9.48533 8.904 9.224C9.20267 8.96267 9.352 8.6 9.352 8.136C9.352 7.672 9.20267 7.30933 8.904 7.048C8.60533 6.78667 8.18933 6.656 7.656 6.656H4.432V9.616H7.656ZM19.1485 16.264C17.9912 16.264 16.9698 16.064 16.0845 15.664C15.1992 15.2587 14.5112 14.6907 14.0205 13.96C13.5352 13.2293 13.2925 12.3867 13.2925 11.432C13.2925 10.4773 13.5352 9.63467 14.0205 8.904C14.5112 8.168 15.1992 7.6 16.0845 7.2C16.9698 6.79467 17.9912 6.592 19.1485 6.592C20.3058 6.592 21.3272 6.79467 22.2125 7.2C23.0978 7.6 23.7832 8.168 24.2685 8.904C24.7592 9.63467 25.0045 10.4773 25.0045 11.432C25.0045 12.3867 24.7592 13.2293 24.2685 13.96C23.7832 14.6907 23.0978 15.2587 22.2125 15.664C21.3272 16.064 20.3058 16.264 19.1485 16.264ZM16.5885 11.432C16.5885 11.928 16.6898 12.3573 16.8925 12.72C17.1005 13.0773 17.3965 13.352 17.7805 13.544C18.1645 13.736 18.6205 13.832 19.1485 13.832C19.6765 13.832 20.1325 13.736 20.5165 13.544C20.9005 13.352 21.1938 13.0773 21.3965 12.72C21.5992 12.3573 21.7005 11.928 21.7005 11.432C21.7005 10.936 21.5965 10.5067 21.3885 10.144C21.1858 9.78133 20.8925 9.504 20.5085 9.312C20.1298 9.12 19.6765 9.024 19.1485 9.024C18.6205 9.024 18.1645 9.12 17.7805 9.312C17.3965 9.504 17.1005 9.78133 16.8925 10.144C16.6898 10.5067 16.5885 10.936 16.5885 11.432ZM29.6448 3.68V16H26.3728V3.68H29.6448ZM31.4509 3.68H34.7229V11.984L38.8829 6.856H42.3229L39.1549 10.496L42.5629 16H38.8749L37.0669 12.896L34.3709 16H31.4509V3.68ZM50.8651 14.152C50.4225 14.824 49.8705 15.344 49.2091 15.712C48.5478 16.08 47.8091 16.264 46.9931 16.264C46.1078 16.264 45.3211 16.064 44.6331 15.664C43.9505 15.2587 43.4198 14.6907 43.0411 13.96C42.6625 13.224 42.4731 12.3813 42.4731 11.432C42.4731 10.4773 42.6625 9.63467 43.0411 8.904C43.4198 8.168 43.9505 7.6 44.6331 7.2C45.3211 6.79467 46.1078 6.592 46.9931 6.592C47.8038 6.592 48.5425 6.77333 49.2091 7.136C49.8758 7.49867 50.4305 8.01333 50.8731 8.68L51.1051 6.856H54.4971L53.9211 11.424L54.4971 16H51.1051L50.8651 14.152ZM45.7771 11.432C45.7771 11.88 45.8705 12.28 46.0571 12.632C46.2438 12.984 46.5025 13.2613 46.8331 13.464C47.1691 13.6613 47.5505 13.76 47.9771 13.76C48.4091 13.76 48.8225 13.6613 49.2171 13.464C49.6171 13.2613 49.9665 12.984 50.2651 12.632C50.5691 12.28 50.7958 11.88 50.9451 11.432C50.7958 10.984 50.5691 10.584 50.2651 10.232C49.9665 9.87467 49.6171 9.59733 49.2171 9.4C48.8225 9.19733 48.4091 9.096 47.9771 9.096C47.5505 9.096 47.1691 9.19733 46.8331 9.4C46.5025 9.59733 46.2438 9.87467 46.0571 10.232C45.8705 10.584 45.7771 10.984 45.7771 11.432ZM64.0854 14.064C63.6427 14.7627 63.0827 15.304 62.4054 15.688C61.7334 16.072 60.9814 16.264 60.1494 16.264C59.264 16.264 58.4774 16.064 57.7894 15.664C57.1067 15.2587 56.576 14.6907 56.1974 13.96C55.8187 13.224 55.6294 12.3813 55.6294 11.432C55.6294 10.4773 55.8187 9.63467 56.1974 8.904C56.576 8.168 57.1067 7.6 57.7894 7.2C58.4774 6.79467 59.264 6.592 60.1494 6.592C60.9707 6.592 61.7174 6.77867 62.3894 7.152C63.0667 7.52533 63.6267 8.05333 64.0694 8.736L64.6774 3.68H68.0694L67.1254 11.184L67.7014 16H64.3174L64.0854 14.064ZM58.9334 11.432C58.9334 11.88 59.0267 12.28 59.2134 12.632C59.4 12.984 59.6587 13.2613 59.9894 13.464C60.3254 13.6613 60.7067 13.76 61.1334 13.76C61.5654 13.76 61.9787 13.6613 62.3734 13.464C62.7734 13.2613 63.1227 12.984 63.4214 12.632C63.7254 12.28 63.952 11.88 64.1014 11.432C63.952 10.984 63.7254 10.584 63.4214 10.232C63.1227 9.87467 62.7734 9.59733 62.3734 9.4C61.9787 9.19733 61.5654 9.096 61.1334 9.096C60.7067 9.096 60.3254 9.19733 59.9894 9.4C59.6587 9.59733 59.4 9.87467 59.2134 10.232C59.0267 10.584 58.9334 10.984 58.9334 11.432ZM74.6329 16.264C73.4755 16.264 72.4542 16.064 71.5689 15.664C70.6835 15.2587 69.9955 14.6907 69.5049 13.96C69.0195 13.2293 68.7769 12.3867 68.7769 11.432C68.7769 10.4773 69.0195 9.63467 69.5049 8.904C69.9955 8.168 70.6835 7.6 71.5689 7.2C72.4542 6.79467 73.4755 6.592 74.6329 6.592C75.7902 6.592 76.8115 6.79467 77.6969 7.2C78.5822 7.6 79.2675 8.168 79.7529 8.904C80.2435 9.63467 80.4889 10.4773 80.4889 11.432C80.4889 12.3867 80.2435 13.2293 79.7529 13.96C79.2675 14.6907 78.5822 15.2587 77.6969 15.664C76.8115 16.064 75.7902 16.264 74.6329 16.264ZM72.0729 11.432C72.0729 11.928 72.1742 12.3573 72.3769 12.72C72.5849 13.0773 72.8809 13.352 73.2649 13.544C73.6489 13.736 74.1049 13.832 74.6329 13.832C75.1609 13.832 75.6169 13.736 76.0009 13.544C76.3849 13.352 76.6782 13.0773 76.8809 12.72C77.0835 12.3573 77.1849 11.928 77.1849 11.432C77.1849 10.936 77.0809 10.5067 76.8729 10.144C76.6702 9.78133 76.3769 9.504 75.9929 9.312C75.6142 9.12 75.1609 9.024 74.6329 9.024C74.1049 9.024 73.6489 9.12 73.2649 9.312C72.8809 9.504 72.5849 9.78133 72.3769 10.144C72.1742 10.5067 72.0729 10.936 72.0729 11.432ZM80.8693 7.848L82.7333 7.104L84.1413 4.4H85.9973V6.856H89.8453V9.272H85.9973V11.976C85.9973 12.424 86.0533 12.776 86.1653 13.032C86.2826 13.288 86.4746 13.472 86.7413 13.584C87.0079 13.696 87.3813 13.752 87.8613 13.752C88.2879 13.752 88.6719 13.7173 89.0133 13.648C89.3599 13.5733 89.6906 13.4693 90.0052 13.336V15.784C89.6426 15.9173 89.2026 16.0293 88.6853 16.12C88.1679 16.216 87.6453 16.264 87.1173 16.264C85.6399 16.264 84.5386 15.928 83.8133 15.256C83.0933 14.5787 82.7333 13.632 82.7333 12.416V9.272H80.8693V7.848Z" fill="white"/>
<path d="M106.368 11.208H99.648L99.312 13.312H106.912V16H95.752L96.664 10L95.752 4H106.832V6.688H99.312L99.648 8.792H106.368V11.208ZM116.46 14.064C116.018 14.7627 115.458 15.304 114.78 15.688C114.108 16.072 113.356 16.264 112.524 16.264C111.639 16.264 110.852 16.064 110.164 15.664C109.482 15.2587 108.951 14.6907 108.572 13.96C108.194 13.224 108.004 12.3813 108.004 11.432C108.004 10.4773 108.194 9.63467 108.572 8.904C108.951 8.168 109.482 7.6 110.164 7.2C110.852 6.79467 111.639 6.592 112.524 6.592C113.346 6.592 114.092 6.77867 114.764 7.152C115.442 7.52533 116.002 8.05333 116.444 8.736L117.052 3.68H120.444L119.5 11.184L120.076 16H116.692L116.46 14.064ZM111.308 11.432C111.308 11.88 111.402 12.28 111.588 12.632C111.775 12.984 112.034 13.2613 112.364 13.464C112.7 13.6613 113.082 13.76 113.508 13.76C113.94 13.76 114.354 13.6613 114.748 13.464C115.148 13.2613 115.498 12.984 115.796 12.632C116.1 12.28 116.327 11.88 116.476 11.432C116.327 10.984 116.1 10.584 115.796 10.232C115.498 9.87467 115.148 9.59733 114.748 9.4C114.354 9.19733 113.94 9.096 113.508 9.096C113.082 9.096 112.7 9.19733 112.364 9.4C112.034 9.59733 111.775 9.87467 111.588 10.232C111.402 10.584 111.308 10.984 111.308 11.432ZM125.566 16.256C124.724 16.256 123.998 16.0827 123.39 15.736C122.782 15.384 122.318 14.8853 121.998 14.24C121.678 13.5947 121.518 12.8373 121.518 11.968V6.856H124.79V11.496C124.79 12.1733 124.953 12.6933 125.278 13.056C125.609 13.4133 126.081 13.592 126.694 13.592C127.372 13.592 127.894 13.3893 128.262 12.984C128.636 12.5733 128.822 11.9973 128.822 11.256V6.856H132.094V12.848L132.686 16H129.422L129.11 14.112C128.721 14.8107 128.22 15.344 127.606 15.712C126.993 16.0747 126.313 16.256 125.566 16.256ZM144.901 12.144C144.811 12.9547 144.512 13.672 144.005 14.296C143.499 14.92 142.835 15.4053 142.013 15.752C141.192 16.0933 140.28 16.264 139.277 16.264C138.163 16.264 137.173 16.0613 136.309 15.656C135.451 15.2507 134.781 14.6827 134.301 13.952C133.827 13.216 133.589 12.376 133.589 11.432C133.589 10.488 133.827 9.65067 134.301 8.92C134.781 8.184 135.451 7.61333 136.309 7.208C137.173 6.79733 138.163 6.592 139.277 6.592C140.28 6.592 141.192 6.76533 142.013 7.112C142.835 7.45333 143.499 7.93867 144.005 8.568C144.512 9.192 144.811 9.90933 144.901 10.72H141.653C141.541 10.1813 141.272 9.76533 140.845 9.472C140.419 9.17333 139.896 9.024 139.277 9.024C138.792 9.024 138.368 9.11733 138.005 9.304C137.648 9.49067 137.371 9.76533 137.173 10.128C136.981 10.4907 136.885 10.9253 136.885 11.432C136.885 12.1947 137.099 12.7867 137.525 13.208C137.957 13.624 138.541 13.832 139.277 13.832C139.891 13.832 140.411 13.68 140.837 13.376C141.269 13.0667 141.541 12.656 141.653 12.144H144.901ZM154.209 14.152C153.766 14.824 153.214 15.344 152.553 15.712C151.892 16.08 151.153 16.264 150.337 16.264C149.452 16.264 148.665 16.064 147.977 15.664C147.294 15.2587 146.764 14.6907 146.385 13.96C146.006 13.224 145.817 12.3813 145.817 11.432C145.817 10.4773 146.006 9.63467 146.385 8.904C146.764 8.168 147.294 7.6 147.977 7.2C148.665 6.79467 149.452 6.592 150.337 6.592C151.148 6.592 151.886 6.77333 152.553 7.136C153.22 7.49867 153.774 8.01333 154.217 8.68L154.449 6.856H157.841L157.265 11.424L157.841 16H154.449L154.209 14.152ZM149.121 11.432C149.121 11.88 149.214 12.28 149.401 12.632C149.588 12.984 149.846 13.2613 150.177 13.464C150.513 13.6613 150.894 13.76 151.321 13.76C151.753 13.76 152.166 13.6613 152.561 13.464C152.961 13.2613 153.31 12.984 153.609 12.632C153.913 12.28 154.14 11.88 154.289 11.432C154.14 10.984 153.913 10.584 153.609 10.232C153.31 9.87467 152.961 9.59733 152.561 9.4C152.166 9.19733 151.753 9.096 151.321 9.096C150.894 9.096 150.513 9.19733 150.177 9.4C149.846 9.59733 149.588 9.87467 149.401 10.232C149.214 10.584 149.121 10.984 149.121 11.432ZM158.604 7.848L160.468 7.104L161.876 4.4H163.732V6.856H167.58V9.272H163.732V11.976C163.732 12.424 163.788 12.776 163.9 13.032C164.017 13.288 164.209 13.472 164.476 13.584C164.742 13.696 165.116 13.752 165.596 13.752C166.022 13.752 166.406 13.7173 166.748 13.648C167.094 13.5733 167.425 13.4693 167.74 13.336V15.784C167.377 15.9173 166.937 16.0293 166.42 16.12C165.902 16.216 165.38 16.264 164.852 16.264C163.374 16.264 162.273 15.928 161.548 15.256C160.828 14.5787 160.468 13.632 160.468 12.416V9.272H158.604V7.848ZM170.692 7.04L172.332 6.72V16H169.06V6.72L170.692 7.04ZM168.788 4.384C168.788 4.064 168.866 3.78667 169.02 3.552C169.18 3.312 169.404 3.128 169.692 3C169.98 2.86667 170.314 2.8 170.692 2.8C171.071 2.8 171.404 2.86667 171.692 3C171.98 3.128 172.204 3.312 172.364 3.552C172.524 3.78667 172.604 4.064 172.604 4.384C172.604 4.704 172.524 4.984 172.364 5.224C172.204 5.464 171.98 5.65067 171.692 5.784C171.404 5.912 171.071 5.976 170.692 5.976C170.314 5.976 169.98 5.912 169.692 5.784C169.404 5.65067 169.18 5.464 169.02 5.224C168.866 4.984 168.788 4.704 168.788 4.384ZM179.57 16.264C178.413 16.264 177.392 16.064 176.506 15.664C175.621 15.2587 174.933 14.6907 174.442 13.96C173.957 13.2293 173.714 12.3867 173.714 11.432C173.714 10.4773 173.957 9.63467 174.442 8.904C174.933 8.168 175.621 7.6 176.506 7.2C177.392 6.79467 178.413 6.592 179.57 6.592C180.728 6.592 181.749 6.79467 182.634 7.2C183.52 7.6 184.205 8.168 184.69 8.904C185.181 9.63467 185.426 10.4773 185.426 11.432C185.426 12.3867 185.181 13.2293 184.69 13.96C184.205 14.6907 183.52 15.2587 182.634 15.664C181.749 16.064 180.728 16.264 179.57 16.264ZM177.01 11.432C177.01 11.928 177.112 12.3573 177.314 12.72C177.522 13.0773 177.818 13.352 178.202 13.544C178.586 13.736 179.042 13.832 179.57 13.832C180.098 13.832 180.554 13.736 180.938 13.544C181.322 13.352 181.616 13.0773 181.818 12.72C182.021 12.3573 182.122 11.928 182.122 11.432C182.122 10.936 182.018 10.5067 181.81 10.144C181.608 9.78133 181.314 9.504 180.93 9.312C180.552 9.12 180.098 9.024 179.57 9.024C179.042 9.024 178.586 9.12 178.202 9.312C177.818 9.504 177.522 9.78133 177.314 10.144C177.112 10.5067 177.01 10.936 177.01 11.432ZM189.572 6.856L189.884 8.76C190.279 8.056 190.791 7.52 191.42 7.152C192.055 6.77867 192.756 6.592 193.524 6.592C194.388 6.592 195.132 6.768 195.756 7.12C196.38 7.46667 196.855 7.96267 197.18 8.608C197.505 9.25333 197.668 10.0133 197.668 10.888V16H194.404V11.368C194.404 10.6853 194.231 10.1627 193.884 9.8C193.537 9.43733 193.039 9.256 192.388 9.256C191.935 9.256 191.54 9.352 191.204 9.544C190.873 9.73067 190.617 10.0027 190.436 10.36C190.26 10.712 190.172 11.1253 190.172 11.6V16H186.9V10.016L186.3 6.856H189.572Z" fill="#1A1A1A"/>
</svg>
