<svg width="282" height="82" viewBox="0 0 282 82" fill="none" xmlns="http://www.w3.org/2000/svg">
<path d="M76.6596 77.1338L77.8119 69.9152H93.4187V66.056H77.8119L76.6596 58.8462H94.2645V54.8521H71.5305L73.6287 67.9889L71.5305 81.117H94.4384V77.1316H76.6617L76.6596 77.1338Z" fill="white"/>
<path d="M122.284 54.1541H117.59L116.346 66.3212C115.32 64.5775 114.013 63.2164 112.432 62.2532C110.852 61.29 109.091 60.8095 107.149 60.8095C105.207 60.8095 103.527 61.2443 102.02 62.1162C100.513 62.9794 99.3413 64.2035 98.4977 65.7842C97.6628 67.354 97.2454 69.1716 97.2454 71.2133C97.2454 73.2549 97.6628 75.0639 98.4977 76.6424C99.3413 78.2122 100.513 79.4385 102.02 80.3103C103.527 81.1735 105.234 81.6083 107.149 81.6083C109.065 81.6083 110.834 81.1278 112.424 80.1559C114.013 79.1841 115.32 77.8317 116.346 76.0792L116.855 81.1191H121.512L120.495 70.9328L122.284 54.1541ZM114.565 74.7464C113.731 75.764 112.776 76.5532 111.695 77.125C110.615 77.6882 109.462 77.9687 108.236 77.9687C107.01 77.9687 105.912 77.6882 104.94 77.1142C103.968 76.5424 103.216 75.7422 102.67 74.7073C102.135 73.681 101.861 72.52 101.861 71.2111C101.861 69.9022 102.133 68.7324 102.67 67.7149C103.216 66.6887 103.968 65.8907 104.94 65.3189C105.912 64.7384 107.01 64.447 108.236 64.447C109.462 64.447 110.615 64.7384 111.695 65.3102C112.776 65.882 113.728 66.6713 114.565 67.6888C115.4 68.7064 116.072 69.8761 116.572 71.2111C116.072 72.5461 115.4 73.7267 114.565 74.7421V74.7464Z" fill="white"/>
<path d="M146.453 74.6747V61.3009H141.896V70.9698C141.896 72.3417 141.641 73.5484 141.133 74.5834C140.624 75.6183 139.898 76.4185 138.963 76.9794C138.019 77.5512 136.919 77.8339 135.658 77.8339C133.879 77.8339 132.516 77.299 131.572 76.2271C130.629 75.1639 130.166 73.6028 130.166 71.5612V61.3009H125.608V72.2591C125.608 74.2116 125.945 75.8901 126.617 77.2882C127.289 78.6862 128.27 79.7581 129.55 80.5017C130.84 81.2366 132.383 81.6084 134.19 81.6084C135.997 81.6084 137.578 81.154 138.993 80.2473C140.4 79.3385 141.5 78.0491 142.289 76.388L143.052 81.1192H147.61L146.457 74.6725L146.453 74.6747Z" fill="white"/>
<path d="M167.569 75.8096C166.934 76.5271 166.143 77.0816 165.182 77.4621C164.23 77.8534 163.166 78.0426 161.994 78.0426C160.596 78.0426 159.37 77.7708 158.318 77.2164C157.274 76.6706 156.457 75.8814 155.885 74.8551C155.313 73.8289 155.03 72.6135 155.03 71.2155C155.03 69.8174 155.311 68.5998 155.885 67.5649C156.457 66.5386 157.274 65.7494 158.318 65.2037C159.37 64.6579 160.596 64.3775 161.994 64.3775C163.166 64.3775 164.227 64.5688 165.173 64.9493C166.126 65.3298 166.917 65.8755 167.552 66.593C168.178 67.3105 168.604 68.1628 168.832 69.1434H173.418C173.183 67.5084 172.546 66.056 171.502 64.8036C170.459 63.5425 169.106 62.562 167.454 61.8618C165.802 61.153 163.986 60.8095 161.997 60.8095C159.735 60.8095 157.72 61.2444 155.967 62.1249C154.206 62.9968 152.845 64.2231 151.873 65.8016C150.893 67.3714 150.404 69.1782 150.404 71.2133C150.404 73.2484 150.895 75.0443 151.873 76.625C152.845 78.1948 154.206 79.4211 155.967 80.3016C157.72 81.1735 159.735 81.6084 161.997 81.6084C163.984 81.6084 165.802 81.2627 167.454 80.5734C169.106 79.8733 170.459 78.8927 171.502 77.6317C172.546 76.3793 173.183 74.9356 173.418 73.3093H168.832C168.615 74.2529 168.198 75.0878 167.571 75.8053L167.569 75.8096Z" fill="white"/>
<path d="M200.074 61.3009H195.38L194.871 66.2038C193.845 64.4971 192.547 63.1708 190.977 62.2271C189.408 61.2835 187.664 60.8117 185.748 60.8117C183.833 60.8117 182.126 61.2466 180.619 62.1184C179.113 62.9816 177.941 64.2057 177.097 65.7864C176.253 67.3562 175.836 69.1739 175.836 71.2155C175.836 73.2571 176.253 75.0661 177.097 76.6446C177.941 78.2144 179.113 79.4407 180.619 80.3125C182.126 81.1757 183.833 81.6106 185.748 81.6106C187.664 81.6106 189.39 81.1388 190.969 80.1843C192.539 79.2319 193.847 77.9056 194.874 76.1989L195.382 81.1192H200.077L199.024 71.2133L200.077 61.2987L200.074 61.3009ZM193.165 74.7465C192.33 75.764 191.367 76.5533 190.286 77.1251C189.205 77.6882 188.053 77.9687 186.827 77.9687C185.6 77.9687 184.511 77.6882 183.539 77.1142C182.567 76.5424 181.815 75.7423 181.269 74.7073C180.724 73.6811 180.452 72.52 180.452 71.2111C180.452 69.9022 180.724 68.7325 181.269 67.7149C181.813 66.6887 182.567 65.8908 183.539 65.3189C184.511 64.7384 185.6 64.4471 186.827 64.4471C188.053 64.4471 189.205 64.7384 190.286 65.3102C191.367 65.8821 192.33 66.6713 193.165 67.6889C194 68.7064 194.663 69.8761 195.172 71.2111C194.663 72.5461 194 73.7268 193.165 74.7421V74.7465Z" fill="white"/>
<path d="M218.251 77.5425C217.451 77.76 216.553 77.8687 215.555 77.8687C214.457 77.8687 213.576 77.723 212.913 77.4338C212.259 77.1533 211.77 76.6794 211.461 76.0271C211.152 75.3726 210.998 74.4921 210.998 73.3854V64.8058H220.212V61.3009H210.998V56.1175H208.339L206.449 61.6466L202.209 62.7359V64.8058H206.449V74.0855C206.449 76.4271 207.104 78.2709 208.419 79.6059C209.726 80.9496 211.778 81.6127 214.574 81.6127C215.672 81.6127 216.773 81.4866 217.879 81.2322C218.986 80.9778 219.886 80.6691 220.558 80.3234V76.5728C219.814 76.999 219.043 77.3273 218.251 77.5447V77.5425Z" fill="white"/>
<path d="M226.168 61.5814L223.889 61.1552V81.1213H228.437V61.1552L226.168 61.5814Z" fill="white"/>
<path d="M254.804 65.7842C253.796 64.2035 252.38 62.9794 250.547 62.1162C248.723 61.2444 246.616 60.8095 244.238 60.8095C241.859 60.8095 239.752 61.2444 237.928 62.1162C236.093 62.9794 234.677 64.2035 233.671 65.7842C232.662 67.354 232.155 69.1717 232.155 71.2133C232.155 73.2549 232.664 75.0639 233.671 76.6424C234.68 78.2122 236.095 79.4385 237.928 80.3103C239.752 81.1735 241.859 81.6084 244.238 81.6084C246.616 81.6084 248.723 81.1735 250.547 80.3103C252.382 79.4385 253.798 78.2122 254.804 76.6424C255.811 75.0617 256.32 73.2549 256.32 71.2133C256.32 69.1717 255.811 67.354 254.804 65.7842ZM250.782 74.8378C250.182 75.864 249.31 76.6533 248.195 77.2077C247.077 77.7621 245.753 78.0426 244.235 78.0426C242.718 78.0426 241.402 77.7621 240.276 77.2077C239.159 76.6533 238.298 75.864 237.689 74.8378C237.08 73.8115 236.771 72.6048 236.771 71.2155C236.771 69.8261 237.08 68.6281 237.689 67.6019C238.298 66.5756 239.161 65.7864 240.276 65.2232C241.402 64.6601 242.718 64.3796 244.235 64.3796C245.753 64.3796 247.077 64.6601 248.195 65.2232C249.312 65.7864 250.182 66.5756 250.782 67.6019C251.391 68.6281 251.7 69.8348 251.7 71.2155C251.7 72.5961 251.391 73.8115 250.782 74.8378Z" fill="white"/>
<path d="M280.471 65.1319C279.782 63.7339 278.782 62.662 277.467 61.9184C276.151 61.1835 274.57 60.8117 272.709 60.8117C270.848 60.8117 269.259 61.2661 267.815 62.1728C266.371 63.0903 265.245 64.3796 264.428 66.0582L263.638 61.3009H259.09L260.279 67.7845V81.1214H264.828V71.4612C264.828 70.0892 265.091 68.8912 265.617 67.8476C266.143 66.8126 266.889 66.0038 267.859 65.4407C268.83 64.8776 269.957 64.5862 271.235 64.5862C273.096 64.5862 274.512 65.1211 275.484 66.193C276.456 67.2649 276.945 68.826 276.945 70.8959V81.1192H281.502V70.161C281.502 68.2085 281.156 66.5387 280.467 65.1319H280.471Z" fill="white"/>
<path d="M229.137 56.0783C229.137 56.8502 228.866 57.4764 228.311 57.9482C227.757 58.4287 227.039 58.6744 226.167 58.6744C225.296 58.6744 224.569 58.4287 224.015 57.9482C223.461 57.4764 223.189 56.8502 223.189 56.0783C223.189 55.3065 223.461 54.6803 224.015 54.2085C224.569 53.728 225.287 53.491 226.167 53.491C227.048 53.491 227.757 53.728 228.311 54.2085C228.866 54.6803 229.137 55.3065 229.137 56.0783Z" fill="white"/>
<path d="M89.9746 0.0457522C86.7154 0.0457522 83.5715 0.452339 82.2908 0.802393C80.4275 1.32639 79.9622 2.14173 79.6122 3.82895L72.2197 37.9386C72.1023 38.6365 71.9871 39.2192 71.9871 39.8019C71.9871 41.4913 73.0938 42.5958 74.8984 42.5958C76.8769 42.5958 77.6923 41.3152 78.1011 39.3366L80.197 29.6155C81.6516 29.7895 83.5736 29.9634 86.3088 29.9634C98.3585 29.9634 105.866 23.445 105.866 13.6065C105.866 4.99217 99.8718 0.0435791 89.9746 0.0435791V0.0457522ZM86.0175 24.3778C84.1542 24.3778 82.6996 24.3191 81.3602 24.1451L85.2608 6.04233C86.4828 5.86839 88.2874 5.63575 90.1507 5.63575C96.5539 5.63575 99.8131 8.6623 99.8131 13.6696C99.8131 20.0728 95.1559 24.3799 86.0153 24.3799L86.0175 24.3778Z" fill="white"/>
<path d="M279.617 31.3637C278.628 31.3637 277.986 31.9464 276.764 33.2836C274.61 35.4948 273.272 36.7167 271.583 36.7167C270.07 36.7167 269.254 35.4948 269.254 33.5162C269.254 32.4095 269.487 31.0724 269.778 29.6156L271.933 19.488H278.395C280.432 19.488 281.654 18.3247 281.654 16.2288C281.654 15.0655 280.898 14.1915 279.152 14.1915H273.094L274.142 9.47555C274.257 8.77762 274.375 8.13621 274.375 7.55569C274.375 5.925 273.268 4.76178 271.464 4.76178C269.542 4.76178 268.67 6.04241 268.263 8.02098L266.924 14.1915H264.188C262.093 14.1915 260.871 15.3547 260.871 17.4507C260.871 18.6139 261.686 19.488 263.432 19.488H265.819L263.665 29.4982C263.432 30.6049 263.141 32.4095 263.141 34.2707C263.141 38.9866 265.584 42.4198 270.824 42.4198C273.851 42.4198 276.53 40.9065 278.567 39.1019C280.545 37.3559 282 35.2013 282 33.8054C282 32.4682 280.954 31.3615 279.615 31.3615L279.617 31.3637Z" fill="white"/>
<path d="M145.738 3.4811C145.738 1.79171 144.574 0.687195 142.77 0.687195C140.85 0.687195 139.976 1.96782 139.569 3.94639L132.294 37.7646C132.12 38.4626 132.003 39.0453 132.003 39.628C132.003 41.3174 133.166 42.4219 134.914 42.4219C136.893 42.4219 137.767 41.1413 138.173 39.1627L145.451 5.34443C145.566 4.6465 145.74 4.0638 145.74 3.4811H145.738Z" fill="white"/>
<path d="M249.638 13.6088C240.326 13.6088 233.979 22.8646 233.979 31.6529C233.979 31.8181 233.984 31.9812 233.988 32.1421C232.527 34.3598 230.662 36.658 229.381 36.658C228.45 36.658 228.1 35.784 228.1 34.4468C228.1 32.8161 228.566 30.0809 229.09 27.6936L233.921 5.3423C234.036 4.64436 234.153 4.06167 234.153 3.47897C234.153 1.78958 233.047 0.685059 231.242 0.685059C229.264 0.685059 228.448 1.96569 228.042 3.94426L225.422 16.0526C224.024 14.5981 221.984 13.6088 218.901 13.6088C212.715 13.6088 206.495 18.3704 204.07 25.6737C201.401 32.5769 199.015 36.6602 197.132 36.6602C196.435 36.6602 196.026 36.0775 196.026 35.0882C196.026 32.1769 197.656 25.078 198.354 21.6426C198.587 20.362 198.704 19.838 198.704 19.0814C198.704 16.5201 194.456 13.4936 188.925 13.4936C182.53 13.4936 176.74 17.542 173.835 23.5625C169.524 31.1832 165.565 36.6623 163.606 36.6623C162.732 36.6623 162.442 35.5557 162.21 34.5077L160.755 26.4738L169.661 19.1988C170.476 18.5009 171.524 17.5094 171.524 16.2309C171.524 14.659 170.476 13.611 168.904 13.611C167.741 13.611 166.75 14.3089 165.76 15.1242L152.373 26.1825L156.854 5.34447C156.972 4.64654 157.146 4.06384 157.146 3.48114C157.146 1.79175 155.983 0.687235 154.178 0.687235C152.258 0.687235 151.384 1.96787 150.978 3.94643L143.702 37.7647C143.529 38.4626 143.411 39.0453 143.411 39.628C143.411 41.3174 144.574 42.4219 146.322 42.4219C148.301 42.4219 149.175 41.1413 149.582 39.1627L150.512 34.7968L155.983 30.3722L157.322 37.1255C157.846 39.8041 159.242 42.4219 162.851 42.4219C166.46 42.4219 169.265 39.1432 172.096 34.712C172.955 39.3519 176.255 42.4219 180.839 42.4219C185.422 42.4219 188.581 39.6867 190.618 36.0188V36.134C190.618 39.9172 192.54 42.4198 195.915 42.4198C198.968 42.4198 201.503 40.5803 203.768 36.6667C205.053 40.0759 207.923 42.4198 211.922 42.4198C216.638 42.4198 220.012 39.5671 222.167 35.61V35.9601C222.167 40.152 224.263 42.4219 227.696 42.4219C230.729 42.4219 233.305 40.663 235.504 37.7951C237.178 40.6586 240.176 42.4219 244.227 42.4219C253.539 42.4219 259.883 33.1662 259.883 24.3191C259.883 18.0899 256.1 13.6066 249.638 13.6066V13.6088ZM191.606 25.4258C189.916 32.7009 186.309 36.8341 182.235 36.8341C179.499 36.8341 177.986 34.7381 177.986 31.5963C177.986 25.4258 182.467 18.79 188.462 18.79C190.266 18.79 191.662 19.314 192.886 20.0707L191.608 25.4258H191.606ZM224.028 22.3406C222.165 30.8962 217.916 36.8341 213.259 36.8341C210.698 36.8341 209.184 34.8555 209.184 31.5963C209.184 25.3671 213.494 18.9074 219.255 18.9074C221.467 18.9074 223.156 19.6641 224.378 20.6534L224.028 22.3406ZM244.925 36.8341C241.548 36.8341 240.152 34.3903 240.152 31.305C240.152 25.6585 244.053 19.1966 248.943 19.1966C252.319 19.1966 253.715 21.6405 253.715 24.7257C253.715 30.4309 249.814 36.8341 244.925 36.8341Z" fill="white"/>
<path d="M120.36 13.6088C111.045 13.6088 104.701 22.8646 104.701 31.6529C104.701 37.9387 108.484 42.422 114.946 42.422C124.258 42.422 130.605 33.1662 130.605 24.3192C130.605 18.0899 126.82 13.6088 120.36 13.6088ZM115.644 36.8341C112.267 36.8341 110.871 34.3903 110.871 31.305C110.871 25.6585 114.772 19.1966 119.662 19.1966C123.039 19.1966 124.434 21.6405 124.434 24.7258C124.434 30.431 120.534 36.8341 115.644 36.8341Z" fill="white"/>
<path d="M48.19 50.1751C48.19 44.9069 44.7852 40.0997 39.7192 38.2124C36.6883 37.084 34.377 34.6336 33.4791 31.5962C33.2095 30.6808 33.0747 29.7437 33.0747 28.8131C33.0747 26.6541 33.7878 24.5255 35.1511 22.7622C37.0644 20.2836 38.0754 17.3353 38.0754 14.2326C38.0754 6.38359 31.5201 0 23.4645 0C15.4089 0 8.85354 6.38577 8.85354 14.2326C8.85354 20.4706 13.1412 26.0801 19.2812 27.8739C22.3926 28.7827 24.8821 31.0613 26.0062 34.0292C26.4345 35.1598 26.6454 36.3382 26.6454 37.5123C26.6454 39.4213 26.0866 41.3172 24.9995 42.9653C23.4623 45.2874 22.6513 48.0291 22.6513 50.8905C22.6513 51.2144 22.6622 51.5384 22.6839 51.8558C22.6992 52.0776 22.7057 52.2994 22.7057 52.5211C22.7057 55.3085 21.5185 57.9829 19.4073 59.8918C17.1287 61.953 14.0196 62.9075 10.9408 62.4857C10.4973 62.4249 10.0429 62.3944 9.59278 62.3944C3.94409 62.3944 0 66.2363 0 71.7393C0 76.8923 4.30284 81.0842 9.59278 81.0842C14.7023 81.0842 19.0029 77.0423 19.179 72.072C19.2856 69.065 20.7684 66.2624 23.221 64.4317C25.6735 62.601 28.8371 61.9356 31.844 62.6184C32.8638 62.8488 33.9444 62.9662 35.0511 62.9662C42.2935 62.9662 48.1857 57.2262 48.1857 50.1708L48.19 50.1751Z" fill="white"/>
</svg>
