<svg width="32" height="32" viewBox="0 0 32 32" fill="none" xmlns="http://www.w3.org/2000/svg">
<g clip-path="url(#clip0_731_899)">
<path fill-rule="evenodd" clip-rule="evenodd" d="M6.8848 15.9998C6.8848 14.9836 7.05357 14.0094 7.3548 13.0956L2.08225 9.06934C1.05466 11.1557 0.475708 13.5067 0.475708 15.9998C0.475708 18.4908 1.05395 20.8404 2.08012 22.9253L7.34981 18.8912C7.05144 17.9817 6.8848 17.011 6.8848 15.9998Z" fill="#FBBC05"/>
<path fill-rule="evenodd" clip-rule="evenodd" d="M16.1424 6.75547C18.35 6.75547 20.3439 7.53769 21.9106 8.81769L26.4682 4.26658C23.6909 1.8488 20.1303 0.355469 16.1424 0.355469C9.95121 0.355469 4.63025 3.89609 2.08228 9.06942L7.35482 13.0957C8.5697 9.40791 12.0327 6.75547 16.1424 6.75547Z" fill="#EB4335"/>
<path fill-rule="evenodd" clip-rule="evenodd" d="M16.1424 25.2443C12.0327 25.2443 8.5697 22.5919 7.35482 18.9041L2.08228 22.9297C4.63024 28.1037 9.95121 31.6443 16.1424 31.6443C19.9636 31.6443 23.6118 30.2875 26.3499 27.7453L21.3452 23.8761C19.933 24.7657 18.1549 25.2443 16.1424 25.2443Z" fill="#34A853"/>
<path fill-rule="evenodd" clip-rule="evenodd" d="M31.0969 16C31.0969 15.0755 30.9545 14.08 30.7408 13.1555H16.1423V19.2H24.5454C24.1252 21.2608 22.9815 22.8451 21.3451 23.8762L26.3499 27.7454C29.2261 25.0759 31.0969 21.0993 31.0969 16Z" fill="#4285F4"/>
</g>
<defs>
<clipPath id="clip0_731_899">
<rect width="32" height="32" fill="white"/>
</clipPath>
</defs>
</svg>
