<svg width="28" height="36" viewBox="0 0 28 36" fill="none" xmlns="http://www.w3.org/2000/svg">
<path d="M23.7141 12.3334H22.0474V9.00002C22.0474 4.40002 18.3141 0.666687 13.7141 0.666687C9.11407 0.666687 5.38074 4.40002 5.38074 9.00002V12.3334H3.71407C1.88074 12.3334 0.380737 13.8334 0.380737 15.6667V32.3334C0.380737 34.1667 1.88074 35.6667 3.71407 35.6667H23.7141C25.5474 35.6667 27.0474 34.1667 27.0474 32.3334V15.6667C27.0474 13.8334 25.5474 12.3334 23.7141 12.3334ZM13.7141 27.3334C11.8807 27.3334 10.3807 25.8334 10.3807 24C10.3807 22.1667 11.8807 20.6667 13.7141 20.6667C15.5474 20.6667 17.0474 22.1667 17.0474 24C17.0474 25.8334 15.5474 27.3334 13.7141 27.3334ZM18.8807 12.3334H8.5474V9.00002C8.5474 6.15002 10.8641 3.83335 13.7141 3.83335C16.5641 3.83335 18.8807 6.15002 18.8807 9.00002V12.3334Z" fill="#7F7F7F"/>
</svg>
