<svg width="31" height="32" viewBox="0 0 31 32" fill="none" xmlns="http://www.w3.org/2000/svg">
<g clip-path="url(#clip0_1406_1837)">
<path d="M15.4988 6.71176C18.6761 6.71176 21.2518 5.20928 21.2518 3.35588C21.2518 1.50248 18.6761 0 15.4988 0C12.3215 0 9.74585 1.50248 9.74585 3.35588C9.74585 5.20928 12.3215 6.71176 15.4988 6.71176Z" fill="#E6007A"/>
<path d="M15.4988 31.9977C18.6761 31.9977 21.2518 30.4953 21.2518 28.6419C21.2518 26.7885 18.6761 25.286 15.4988 25.286C12.3215 25.286 9.74585 26.7885 9.74585 28.6419C9.74585 30.4953 12.3215 31.9977 15.4988 31.9977Z" fill="#E6007A"/>
<path d="M7.48177 11.3571C9.07041 8.59738 9.0601 5.60844 7.45874 4.68111C5.85739 3.75378 3.27139 5.23923 1.68275 7.99896C0.0941185 10.7587 0.104429 13.7476 1.70578 14.675C3.30714 15.6023 5.89314 14.1168 7.48177 11.3571Z" fill="#E6007A"/>
<path d="M29.3126 23.9986C30.9012 21.2389 30.8918 18.2504 29.2915 17.3237C27.6912 16.397 25.1061 17.883 23.5175 20.6427C21.9288 23.4024 21.9383 26.3909 23.5385 27.3176C25.1388 28.2443 27.7239 26.7583 29.3126 23.9986Z" fill="#E6007A"/>
<path d="M7.45948 27.3168C9.06083 26.3895 9.07114 23.4005 7.48251 20.6408C5.89387 17.8811 3.30787 16.3956 1.70652 17.3229C0.105162 18.2503 0.0948508 21.2392 1.68349 23.9989C3.27212 26.7587 5.85812 28.2441 7.45948 27.3168Z" fill="#E6007A"/>
<path d="M29.2928 14.6757C30.8931 13.749 30.9026 10.7605 29.3139 8.00081C27.7253 5.24109 25.1402 3.75513 23.5399 4.68183C21.9396 5.60853 21.9302 8.59697 23.5188 11.3567C25.1074 14.1164 27.6926 15.6024 29.2928 14.6757Z" fill="#E6007A"/>
</g>
<defs>
<clipPath id="clip0_1406_1837">
<rect width="30" height="32" fill="white" transform="translate(0.5)"/>
</clipPath>
</defs>
</svg>
