<svg width="68" height="68" viewBox="0 0 68 68" fill="none" xmlns="http://www.w3.org/2000/svg">
<path d="M49.2998 19.2667L27.3332 41.2334L15.3665 29.3001L10.6665 34.0001L27.3332 50.6668L53.9998 24.0001L49.2998 19.2667ZM33.9998 0.666748C15.5998 0.666748 0.666504 15.6001 0.666504 34.0001C0.666504 52.4001 15.5998 67.3334 33.9998 67.3334C52.3998 67.3334 67.3332 52.4001 67.3332 34.0001C67.3332 15.6001 52.3998 0.666748 33.9998 0.666748ZM33.9998 60.6668C19.2665 60.6668 7.33317 48.7334 7.33317 34.0001C7.33317 19.2667 19.2665 7.33342 33.9998 7.33342C48.7332 7.33342 60.6665 19.2667 60.6665 34.0001C60.6665 48.7334 48.7332 60.6668 33.9998 60.6668Z" fill="#51E591"/>
</svg>
