<svg width="378" height="204" viewBox="0 0 378 204" fill="none" xmlns="http://www.w3.org/2000/svg">
<path d="M384 -4H-6V210H384V-4Z" fill="black"/>
<path d="M300.978 16.0291C272.058 16.0291 248.115 46.7872 243.963 86.8907V16.0291C215.154 16.0291 191.284 46.5501 186.996 86.4265V28.7932C170.783 43.5326 160 69.5953 160 99.3103C160 129.025 170.783 155.088 186.996 169.827V112.194C191.284 152.07 215.154 182.591 243.963 182.591V111.73C248.115 151.833 272.058 182.591 300.978 182.591C332.821 182.591 358.634 145.305 358.634 99.3103C358.634 53.3153 332.821 16.0291 300.978 16.0291Z" fill="#552BBF"/>
</svg>
